<?xml version="1.0" encoding="UTF-8" standalone="no"?>
<!-- Created with Inkscape (http://www.inkscape.org/) -->

<svg
   xmlns:dc="http://purl.org/dc/elements/1.1/"
   xmlns:cc="http://creativecommons.org/ns#"
   xmlns:rdf="http://www.w3.org/1999/02/22-rdf-syntax-ns#"
   xmlns:svg="http://www.w3.org/2000/svg"
   xmlns="http://www.w3.org/2000/svg"
   xmlns:xlink="http://www.w3.org/1999/xlink"
   xmlns:sodipodi="http://sodipodi.sourceforge.net/DTD/sodipodi-0.dtd"
   xmlns:inkscape="http://www.inkscape.org/namespaces/inkscape"
   width="210mm"
   height="297mm"
   viewBox="0 0 210 297"
   version="1.1"
   id="svg8"
   sodipodi:docname="µc3skunks.svg"
   inkscape:export-filename="/home/kili/Daten/ccc/mc3-skunk/µc3skunks.png"
   inkscape:export-xdpi="96"
   inkscape:export-ydpi="96"
   inkscape:version="0.92.2 5c3e80d, 2017-08-06">
  <defs
     id="defs2" />
  <sodipodi:namedview
     id="base"
     pagecolor="#ffffff"
     bordercolor="#666666"
     borderopacity="1.0"
     inkscape:pageopacity="0.0"
     inkscape:pageshadow="2"
     inkscape:zoom="1.4"
     inkscape:cx="130.45122"
     inkscape:cy="971.13489"
     inkscape:document-units="mm"
     inkscape:current-layer="layer1"
     showgrid="false"
     inkscape:window-width="1366"
     inkscape:window-height="707"
     inkscape:window-x="0"
     inkscape:window-y="26"
     inkscape:window-maximized="1"
     inkscape:snap-global="false" />
  <metadata
     id="metadata5">
    <rdf:RDF>
      <cc:Work
         rdf:about="">
        <dc:format>image/svg+xml</dc:format>
        <dc:type
           rdf:resource="http://purl.org/dc/dcmitype/StillImage" />
      </cc:Work>
    </rdf:RDF>
  </metadata>
  <g
     inkscape:label="Layer 1"
     inkscape:groupmode="layer"
     id="layer1"
     style="display:inline">
    <path
       style="fill:#000000;stroke-width:0.99999994"
       d="M 211.38672 26.207031 L 201.11133 26.871094 C 185.82501 27.85938 186.64173 27.162976 184.61719 40.9375 C 182.72735 53.795475 182.50498 54.46875 180.12305 54.46875 C 179.22139 54.46875 174.6369 55.64217 169.93555 57.076172 L 161.38672 59.683594 L 155.88281 53.363281 C 152.85578 49.886732 149.00198 45.506625 147.31836 43.628906 L 144.25781 40.214844 L 134.81836 44.919922 C 129.62698 47.508199 124.72357 50.262682 123.92188 51.041016 C 122.64686 52.278864 122.81457 53.893958 125.26367 63.935547 C 126.80361 70.249478 127.91088 75.808799 127.72266 76.289062 C 127.53441 76.769331 123.6563 80.180956 119.10547 83.871094 L 110.83203 90.582031 L 99.353516 84.625 L 87.875 78.667969 L 82.550781 84.818359 C 79.622585 88.201339 76.03929 92.56759 74.587891 94.519531 L 71.949219 98.068359 L 79.009766 107.51953 C 82.893733 112.71759 86.271366 117.44999 86.513672 118.03711 C 86.755981 118.62422 85.344453 121.77423 83.378906 125.03711 C 81.413359 128.3 79.053614 132.67277 78.134766 134.75391 C 76.708614 137.98405 76.092386 138.46548 73.921875 138.04883 C 72.52345 137.78039 66.640092 137.26789 60.847656 136.91016 L 50.316406 136.25977 L 46.5625 147.99609 C 44.498031 154.45088 42.936862 159.82788 43.09375 159.94531 C 43.250657 160.06274 48.249138 163.04165 54.201172 166.56445 L 65.023438 172.96875 L 64.4375 176.73242 C 64.115375 178.80175 63.567185 183.86616 63.21875 187.98828 L 62.583984 195.48438 L 50.482422 199.29688 L 38.378906 203.10938 L 38.554688 209.53906 C 38.651484 213.07567 39.018854 218.71281 39.369141 222.06445 L 40.005859 228.1582 L 52.65625 230.06445 L 65.308594 231.96875 L 66.248047 235.46875 C 66.765014 237.39375 68.195805 242.23227 69.427734 246.2207 L 71.667969 253.47266 L 62.273438 261.50781 C 57.106559 265.92733 52.878906 270.24295 52.878906 271.09766 C 52.878906 272.41157 60.075164 287.15795 62.724609 291.27344 C 63.395891 292.31617 66.03504 291.95584 75.871094 289.47266 C 82.638954 287.76401 88.511931 286.72682 88.923828 287.16797 C 89.335721 287.60912 92.484826 291.53345 95.921875 295.88867 L 102.17188 303.80664 L 96.525391 315.14844 C 93.420104 321.38681 90.878906 326.70235 90.878906 326.95898 C 90.878906 327.67392 108.85707 342.47498 109.66797 342.42773 C 110.05959 342.40491 114.87603 339.06992 120.37109 335.01562 L 130.36133 327.64453 L 134.37109 330.10352 C 136.57603 331.45666 141.01188 333.92087 144.22852 335.58008 L 150.07617 338.59766 L 149.44336 346.7832 C 149.0956 351.28549 148.57002 357.03865 148.27344 359.56836 L 147.73242 364.16797 L 157.05664 367.25 C 172.32585 372.29786 171.16582 372.66408 178.52148 360.46875 C 183.00824 353.02996 185.36856 350.02264 186.61719 350.15039 C 197.02914 351.21493 207.19059 352.45342 207.39453 352.68359 C 207.53393 352.84082 209.29121 358.25625 211.29883 364.71875 L 214.94922 376.46875 L 218.66406 376.46289 C 223.78075 376.45242 239.03327 374.64839 239.70703 373.97461 C 240.00955 373.6721 240.96451 368.39198 241.82812 362.24023 L 243.39844 351.05469 L 247.38867 350.26367 C 249.58374 349.82846 254.71984 348.2731 258.80273 346.80664 L 266.22656 344.14062 L 271.30273 350.03125 C 274.09485 353.27155 277.74171 357.43561 279.40625 359.28516 L 282.43164 362.64844 L 292.75195 357.38867 C 298.42843 354.49525 303.27909 351.59345 303.5293 350.94141 C 303.77951 350.28936 302.65733 344.50482 301.03516 338.08594 L 298.08398 326.41406 L 301.73242 323.71484 C 303.7385 322.23025 307.70526 319.07129 310.54688 316.69336 L 315.71289 312.36914 L 326.91211 317.98633 L 338.10938 323.60156 L 340.58203 321.28516 C 344.24776 317.84957 353.87891 305.89508 353.87891 304.78125 C 353.87891 304.2503 350.72892 299.6094 346.87891 294.46875 C 343.02889 289.3281 339.87891 284.82774 339.87891 284.4668 C 339.87891 284.106 341.90836 280.25079 344.38867 275.89844 C 346.86899 271.54605 349.16438 267.14972 349.48828 266.12891 C 349.9783 264.58504 350.77524 264.36465 354.22852 264.82617 C 356.51169 265.13133 362.249 265.67408 366.97852 266.03125 L 375.57812 266.68164 L 377.11523 262.82617 C 378.96324 258.19413 382.87891 245.18806 382.87891 243.68164 C 382.87891 243.09145 378.26638 239.82844 372.62891 236.43164 C 366.9914 233.03485 362.24978 230.13713 362.0918 229.99219 C 361.93385 229.84723 362.36298 224.71095 363.04492 218.57812 L 364.28516 207.42773 L 376.06055 203.69922 L 387.83398 199.96875 L 387.7832 192.96875 C 387.73105 185.74744 386.61421 175.87205 385.75195 175.00977 C 385.48278 174.74057 379.91552 173.7084 373.38086 172.7168 L 361.5 170.91406 L 358.31836 160.13867 L 355.13477 149.36523 L 361.25781 144.00781 C 364.62492 141.06146 368.95351 137.2979 370.87695 135.64453 L 374.37305 132.63867 L 369.99609 123.70508 C 367.58785 118.79183 364.8882 113.82025 363.99805 112.65625 L 362.37891 110.53906 L 350.48242 113.55664 C 343.93904 115.21649 338.25634 116.21505 337.85352 115.77344 C 337.45064 115.33183 334.19064 111.33786 330.60938 106.89844 L 324.09766 98.826172 L 329.86914 87.742188 L 335.63867 76.658203 L 331.00977 72.226562 C 322.98214 64.542894 317.06134 60.24012 315.67188 61.080078 C 314.96087 61.50989 310.30137 64.864226 305.31641 68.535156 L 296.25195 75.210938 L 286.46094 69.636719 L 276.66797 64.060547 L 277.33984 53.515625 C 277.70859 47.715369 278.22881 42.205387 278.49609 41.271484 C 278.8215 40.134485 278.03518 39.084568 276.11914 38.09375 C 272.99044 36.475831 254.89828 31.073789 254.46094 31.626953 C 254.31192 31.81545 251.31273 36.802812 247.79688 42.710938 C 243.35599 50.173459 240.94339 53.322032 239.89258 53.021484 C 239.06064 52.783537 235.67891 52.314251 232.37891 51.978516 C 229.07891 51.642788 224.77523 51.139426 222.81445 50.861328 L 219.25 50.355469 L 215.31836 38.28125 L 211.38672 26.207031 z M 212.26562 76.660156 C 233.58534 76.388363 251.69929 80.633694 270.13672 90.15625 C 315.27005 113.46671 342.14338 162.57823 337.01172 212.37109 C 333.84445 243.10335 322.58869 266.85822 300.92969 288.52148 C 290.80284 298.65035 275.80489 309.94405 273.5 309.17578 C 270.64805 308.22512 268.47139 301.95115 268.06836 293.52148 C 267.56025 282.89391 270.10865 274.61824 279.16992 257.46875 C 296.61372 224.45443 297.40005 221.98799 297.33984 200.46875 C 297.29477 184.36099 299.97596 181.52623 290.25586 165.62891 C 280.53576 149.73158 256.41218 123.34484 230.67188 118.05469 C 220.94526 116.05565 205.15031 116.0201 195.84961 117.97656 C 163.06792 124.8724 136.79102 151.13026 129.8125 183.96875 C 127.82089 193.34057 128.28327 212.49762 130.72266 221.66797 C 136.14301 242.04457 149.60957 261.26116 165.38281 271.12891 C 169.13397 273.47565 169.85371 274.40301 169.52734 276.46875 C 169.31011 277.84374 168.35037 283.24374 167.39453 288.46875 C 165.72798 297.57866 165.75652 308.34053 167.46094 314.21875 C 167.84853 315.55546 167.67981 316.46875 167.04492 316.46875 C 166.45715 316.46875 161.5666 314.2158 156.17773 311.46094 C 124.29339 295.16131 101.4794 266.35928 92.240234 230.74023 C 88.782847 217.41124 87.893594 194.29403 90.306641 180.46875 C 95.092411 153.0492 108.29011 128.41091 127.99414 110.10547 C 150.95786 88.771728 176.74179 78.024362 207.95703 76.775391 C 209.40788 76.71734 210.84432 76.678276 212.26562 76.660156 z M 209.08203 120.55273 C 209.76731 120.53605 210.33603 120.5561 210.75781 120.61914 C 214.08427 120.49449 211.9472 120.64062 215.21875 120.60547 C 216.52164 120.59148 220.13656 120.30538 228.67188 122.00195 C 247.16035 125.67691 263.24354 137.60745 270.60352 153.10547 C 273.92894 160.10789 274.36808 161.96321 274.70312 170.45703 C 275.35707 187.03472 271.9354 195.70886 254.37891 221.96875 C 245.01278 235.97801 238.43282 248.16747 233.53516 260.58203 C 221.28667 291.62949 226.47367 319.7823 246.37891 330.2793 C 250.74926 332.58383 252.57525 332.92068 260.87891 332.94336 C 266.10391 332.95814 271.95391 332.59506 273.87891 332.13672 L 277.37891 331.30273 L 273.55078 333.97461 C 267.60574 338.12491 258.14947 342.18175 249.37891 344.34375 C 221.54737 351.2045 200.67244 342.98079 190.25977 321.05469 C 185.06883 310.12403 183.20523 299.35768 184.70703 288.9707 C 186.1063 279.29284 188.60392 271.60284 193.44141 262.07812 C 200.0322 249.1013 206.39733 240.98362 224.87891 221.98047 C 244.20311 202.11091 249.64778 194.50527 251.33984 185.01953 C 251.82548 182.29699 253.52456 179.4503 256.80469 175.86133 C 262.78043 169.32291 265.23646 164.24245 265.25195 158.39062 C 265.27572 149.34531 258.02556 141.89394 250.05273 142.76758 C 245.69999 143.24454 239.87891 147.41362 239.87891 150.05469 C 239.87891 152.45279 230.83461 169.09594 226.33984 174.96875 C 220.28975 182.87374 217.95565 187.41896 215.29883 196.46875 L 213.09766 203.96875 L 211.92969 199.46875 C 211.28715 196.99375 210.50488 194.06875 210.19141 192.96875 C 209.02972 188.89253 204.81443 181.50167 199.28711 173.8457 C 196.15934 169.51338 192.04423 162.59375 190.14062 158.46875 C 188.23702 154.34375 186.16152 149.88387 185.5293 148.55664 C 182.39733 141.98174 172.44368 140.68742 166.67969 146.10547 C 163.02801 149.53798 160.87544 154.21499 160.88867 158.6875 C 160.90074 162.74338 164.8104 171.28152 167.88477 173.96875 C 171.57786 177.1968 175.88001 183.59975 175.88086 185.86914 C 175.88196 188.81056 181.11452 199.17586 185.06836 204.06836 C 186.88991 206.32235 190.83232 211.22209 193.83008 214.95703 C 199.72457 222.30101 206.0341 227.46875 209.10547 227.46875 C 210.71158 227.46875 210.52181 227.03898 207.95703 224.88086 C 204.49998 221.97195 204.05229 218.97055 206.39844 214.43359 C 208.90884 209.57902 215.7945 209.05114 218.98438 213.46875 C 222.16723 217.87668 222.29457 220.82198 219.45117 224.20117 C 214.1915 230.45193 200.18499 233.15352 189.35742 230.00586 C 180.52128 227.43713 176.08965 224.83882 169.0918 218.11914 C 157.14453 206.64678 151.69484 193.93787 151.65625 177.46875 C 151.63044 166.45734 153.6395 157.6219 158.06055 149.30078 C 163.59136 138.89089 175.92826 128.75382 188.20703 124.5293 C 193.79078 122.60821 204.28508 120.6695 209.08203 120.55273 z M 77.169922 154.90625 C 77.729497 154.88855 78.427815 154.98992 79.263672 155.21094 L 79.908203 155.38086 L 78.955078 158.98633 L 78.109375 158.76367 C 77.391008 158.57372 76.911745 158.49297 76.673828 158.52344 C 76.434136 158.56062 76.279993 158.71387 76.208984 158.98242 C 76.13265 159.27111 76.148957 159.49117 76.259766 159.64258 C 76.377288 159.79577 76.667614 159.93415 77.130859 160.05664 C 77.768662 160.22529 78.188488 160.25549 78.388672 160.15039 C 78.590631 160.03858 79.274794 159.37594 80.443359 158.16211 C 81.430721 157.14459 82.230706 156.57703 82.84375 156.45898 C 83.463508 156.34272 84.150408 156.38516 84.902344 156.58398 C 85.969823 156.86625 86.717516 157.21379 87.146484 157.62891 C 87.582167 158.0458 87.849526 158.62694 87.947266 159.37109 C 88.04323 160.12196 87.972433 160.94301 87.736328 161.83594 C 87.501998 162.72215 87.188462 163.44465 86.796875 164.00195 C 86.410226 164.56775 85.989443 164.96593 85.533203 165.19727 C 85.075188 165.43531 84.679 165.5456 84.345703 165.5293 C 84.010631 165.51971 83.507307 165.42752 82.835938 165.25 L 82.060547 165.04492 L 83.015625 161.43945 L 83.740234 161.63086 C 84.357896 161.79418 84.756844 161.86132 84.9375 161.83008 C 85.123095 161.80732 85.253565 161.65307 85.328125 161.37109 C 85.388483 161.14283 85.356658 160.95183 85.232422 160.79688 C 85.114899 160.64369 84.903679 160.52715 84.601562 160.44727 C 84.192027 160.33898 83.882727 160.28683 83.673828 160.28906 C 83.469867 160.29978 83.216888 160.4151 82.914062 160.63672 C 82.609463 160.86505 82.121893 161.36395 81.451172 162.13477 C 80.561353 163.16371 79.812957 163.79691 79.205078 164.03125 C 78.597199 164.26559 77.805519 164.2535 76.832031 163.99609 C 75.744411 163.70851 74.959241 163.34924 74.476562 162.91992 C 74.000599 162.49238 73.700588 161.90665 73.574219 161.16211 C 73.452788 160.42606 73.514962 159.59141 73.761719 158.6582 C 74.035104 157.62429 74.429733 156.78025 74.947266 156.12695 C 75.463023 155.48037 76.032942 155.09258 76.65625 154.96289 C 76.812077 154.93047 76.983397 154.91215 77.169922 154.90625 z M 351.07422 156.45508 C 351.54389 156.43695 352.07995 156.55145 352.68555 156.79883 C 353.29115 157.04621 353.80164 157.42929 354.21484 157.95117 C 354.61954 158.46814 354.94025 159.16932 355.17773 160.05469 C 355.40802 160.91323 355.48787 161.7058 355.41602 162.42969 C 355.34416 163.15357 355.14282 163.75619 354.8125 164.24023 C 354.47368 164.71937 354.06462 165.09952 353.58594 165.37891 C 353.10055 165.66009 352.36183 165.93295 351.36914 166.19922 L 347.47461 167.24414 C 346.30753 167.55719 345.34709 167.64705 344.5918 167.51172 C 343.8298 167.37819 343.17495 166.99928 342.62695 166.37695 C 342.07225 165.75642 341.67 164.98115 341.41992 164.04883 C 341.11407 162.90858 341.08029 161.90944 341.31836 161.05469 C 341.54792 160.19503 341.98062 159.52279 342.61914 159.03516 C 343.24916 158.54262 344.2133 158.12262 345.50781 157.77539 L 347.27734 157.29883 L 348.68945 162.5625 L 351.57617 161.78711 C 352.17983 161.62519 352.55798 161.47772 352.70898 161.34375 C 352.85999 161.20978 352.90251 161.0177 352.83594 160.76953 C 352.75318 160.46099 352.58316 160.28749 352.32812 160.24805 C 352.06458 160.2037 351.60153 160.2711 350.9375 160.44922 L 349.17578 160.92188 L 348.14258 157.06836 L 349.12891 156.80273 C 349.95391 156.58144 350.60275 156.4665 351.07422 156.45508 z M 346.19727 161.95703 L 345.2207 162.21875 C 344.52985 162.40406 344.09354 162.5617 343.91211 162.68945 C 343.73068 162.81721 343.67125 162.99461 343.73242 163.22266 C 343.80799 163.50436 343.94238 163.65549 344.13477 163.67578 C 344.32044 163.69788 344.78784 163.60775 345.53906 163.40625 L 346.51562 163.14453 L 346.19727 161.95703 z M 75.046875 164.62305 C 75.655394 164.58467 76.535071 164.67647 77.6875 164.89844 L 81.166016 165.56836 C 82.427551 165.81134 83.386318 166.13752 84.042969 166.54688 C 84.699619 166.95622 85.173789 167.55768 85.466797 168.34961 C 85.759805 169.14154 85.800664 170.08866 85.587891 171.19336 C 85.409266 172.12076 85.115969 172.88849 84.708984 173.49609 C 84.307505 174.11183 83.850744 174.55794 83.337891 174.83398 C 82.825037 175.11002 82.321645 175.2677 81.826172 175.30664 C 81.329385 175.3524 80.600166 175.28285 79.638672 175.09766 L 76.314453 174.45703 C 75.093833 174.22193 74.20932 173.98698 73.660156 173.75391 C 73.117812 173.52215 72.635147 173.15836 72.214844 172.66016 C 71.80136 172.16326 71.536443 171.57468 71.419922 170.89453 C 71.308907 170.22252 71.332624 169.4765 71.490234 168.6582 C 71.666233 167.74444 71.914473 166.99062 72.234375 166.39453 C 72.561096 165.79976 72.959062 165.36304 73.429688 165.08594 C 73.905817 164.81697 74.445175 164.66274 75.046875 164.62305 z M 347.3457 167.5332 C 347.50002 168.28843 347.71578 168.82267 347.99219 169.13477 C 348.26859 169.44686 348.59833 169.60671 348.98242 169.61328 C 349.35971 169.62125 350.20443 169.49097 351.51758 169.22266 L 356.86719 168.12891 L 357.70898 172.25195 L 344.16602 175.01953 L 343.32227 170.89648 L 345.13281 170.69727 C 343.73815 170.35849 342.88708 169.62877 342.58008 168.50781 L 347.3457 167.5332 z M 74.761719 168.65234 C 74.548091 168.63241 74.388008 168.63243 74.28125 168.6543 C 74.074554 168.69935 73.948313 168.84141 73.902344 169.08008 C 73.855061 169.32557 73.91137 169.50412 74.074219 169.61328 C 74.235755 169.72926 74.610822 169.84212 75.197266 169.95508 L 81.457031 171.16211 C 82.15258 171.29608 82.595365 171.34164 82.787109 171.30078 C 82.985673 171.26123 83.108967 171.11853 83.15625 170.87305 C 83.203533 170.62756 83.142964 170.44737 82.974609 170.33008 C 82.813074 170.2141 82.385002 170.08905 81.689453 169.95508 L 75.5625 168.77539 C 75.242002 168.71366 74.975347 168.67227 74.761719 168.65234 z M 355.20898 174.20703 C 355.79722 174.24976 356.37213 174.4371 356.93164 174.77148 C 357.48427 175.10685 357.92638 175.57834 358.25781 176.18359 C 358.58139 176.78295 358.80082 177.4933 358.91797 178.31836 C 359.04879 179.23967 359.05977 180.03539 358.95117 180.70312 C 358.8357 181.37183 358.60098 181.913 358.24609 182.32812 C 357.88335 182.73735 357.4252 183.0597 356.86914 183.29297 C 356.3062 183.52721 355.44321 183.72564 354.28125 183.89062 L 350.77539 184.38867 C 349.50343 184.56928 348.49043 184.57388 347.73633 184.40039 C 346.98223 184.2269 346.33742 183.8137 345.80273 183.16016 C 345.26805 182.50661 344.92183 181.62164 344.76367 180.50781 C 344.6309 179.57275 344.65655 178.75187 344.84375 178.04492 C 345.0231 177.33207 345.31187 176.76184 345.70703 176.33398 C 346.1022 175.90613 346.52656 175.59253 346.98242 175.39453 C 347.4373 175.18966 348.1497 175.01851 349.11914 174.88086 L 352.4707 174.40625 C 353.70141 174.2315 354.61387 174.16528 355.20898 174.20703 z M 70.675781 174.79102 L 87.384766 177.07422 L 86.798828 181.36914 L 70.089844 179.08398 L 70.675781 174.79102 z M 355.72852 178.22461 C 355.53307 178.23132 355.28783 178.25685 354.99219 178.29883 L 348.67969 179.19531 C 347.97839 179.29489 347.54302 179.39508 347.375 179.49609 C 347.2001 179.59808 347.13087 179.77201 347.16602 180.01953 C 347.20116 180.26705 347.31827 180.41846 347.51562 180.47461 C 347.7061 180.53173 348.15026 180.51169 348.85156 180.41211 L 355.0293 179.53516 C 355.67559 179.44339 356.09358 179.34129 356.28125 179.23047 C 356.46205 179.12063 356.53612 178.94572 356.50195 178.70508 C 356.46681 178.45756 356.35356 178.30806 356.16406 178.25781 C 356.06882 178.22925 355.92396 178.2179 355.72852 178.22461 z M 72.203125 180.68359 C 72.572643 180.68047 73.010785 180.70092 73.519531 180.74219 L 79.966797 181.26367 C 81.025819 181.34957 81.772755 181.47709 82.205078 181.64453 C 82.636839 181.8189 82.998072 182.16236 83.291016 182.67383 C 83.59088 183.18586 83.714614 183.77781 83.660156 184.44922 C 83.61805 184.96835 83.485366 185.43367 83.263672 185.84766 C 83.041416 186.26857 82.728577 186.6402 82.326172 186.96289 L 86.230469 187.2793 L 85.890625 191.47461 L 69.080078 190.11133 L 69.421875 185.91602 L 70.417969 185.99805 C 70.035228 185.5629 69.757657 185.11413 69.585938 184.6543 C 69.414217 184.19446 69.34742 183.7228 69.386719 183.23828 C 69.439492 182.58764 69.655301 182.03798 70.033203 181.58789 C 70.418026 181.13836 70.841595 180.86171 71.302734 180.75977 C 71.533024 180.71226 71.833607 180.68672 72.203125 180.68359 z M 348.12109 184.81641 L 348.20703 185.8125 L 359.4668 184.84766 L 359.82617 189.04102 L 348.56445 190.00586 L 348.63867 190.86719 L 346.45898 191.05273 L 346.38477 190.19141 C 345.47836 190.26897 344.87032 190.29013 344.56055 190.25391 C 344.25078 190.21769 343.96887 190.08727 343.71289 189.86523 C 343.4494 189.63687 343.23666 189.30717 343.07422 188.875 C 342.91178 188.44283 342.79087 187.76026 342.71094 186.82617 L 342.57812 185.28906 L 344.70703 185.10742 C 344.78105 185.97232 344.86624 186.48078 344.96289 186.63281 C 345.05203 186.77852 345.28262 186.83666 345.65625 186.80469 L 346.0918 186.76562 L 345.94141 185.00195 L 348.12109 184.81641 z M 72.384766 184.90234 C 72.197926 184.90809 72.058195 184.92866 71.964844 184.96289 C 71.785064 185.03192 71.685104 185.18458 71.666016 185.41992 C 71.64412 185.68987 71.727554 185.87672 71.914062 185.98242 C 72.107494 186.08869 72.587159 186.17401 73.355469 186.23633 L 79.730469 186.75391 C 80.235754 186.79489 80.579424 186.77712 80.759766 186.70117 C 80.939545 186.63215 81.039774 186.46899 81.060547 186.21289 C 81.080758 185.96371 81.015182 185.78844 80.863281 185.68555 C 80.717741 185.59014 80.373878 185.52035 79.833984 185.47656 L 73.085938 184.92773 C 72.805608 184.905 72.571606 184.8966 72.384766 184.90234 z M 192.30273 190.46875 C 195.54584 190.46875 201.5369 195.43635 199.69922 196.60156 C 197.17011 198.20518 193.03267 197.52825 191.43555 195.24805 C 189.2158 192.07891 189.50814 190.46875 192.30273 190.46875 z M 235.51367 190.46875 C 238.25371 190.46875 238.52915 192.09729 236.32227 195.24805 C 235.36174 196.6194 233.73409 197.46415 232.07227 197.45508 C 229.43341 197.44007 225.97783 195.93838 226.9082 195.21094 C 231.60484 191.53871 233.54368 190.46875 235.51367 190.46875 z M 355.24023 190.71875 C 356.09402 190.69331 356.75145 190.72876 357.21289 190.82617 C 357.67412 190.91664 358.17073 191.15306 358.70312 191.5332 C 359.23552 191.91335 359.64381 192.40483 359.92578 193.00781 C 360.20061 193.60406 360.3516 194.36108 360.37891 195.27734 C 360.40538 196.16584 360.29906 196.95272 360.0625 197.64062 C 359.82594 198.32853 359.49147 198.87061 359.05859 199.26562 C 358.61857 199.6539 358.13366 199.92815 357.60352 200.08984 C 357.06643 200.25175 356.28513 200.3483 355.25781 200.37891 L 351.22852 200.5 C 350.02072 200.53599 349.06323 200.40126 348.35938 200.0957 C 347.64858 199.79035 347.09901 199.27083 346.70898 198.53906 C 346.31202 197.80751 346.09906 196.95899 346.07031 195.99414 C 346.03515 194.81411 346.23172 193.83559 346.66016 193.05859 C 347.08145 192.27487 347.65895 191.72013 348.39258 191.39258 C 349.11906 191.05829 350.1525 190.87 351.49219 190.83008 L 353.32422 190.77539 L 353.48633 196.22266 L 356.47461 196.13281 C 357.09933 196.1142 357.5019 196.05655 357.67969 195.96094 C 357.85747 195.86532 357.94125 195.69042 357.93359 195.43359 C 357.92408 195.11429 357.79966 194.90568 357.56055 194.80859 C 357.31429 194.70477 356.84735 194.66312 356.16016 194.68359 L 354.33789 194.73828 L 354.2207 190.75 L 355.24023 190.71875 z M 74.037109 191.54688 L 78.068359 191.58594 C 79.276637 191.59757 80.226699 191.77046 80.917969 192.10352 C 81.616183 192.43664 82.144974 192.97609 82.505859 193.72266 C 82.873689 194.46929 83.052261 195.32578 83.042969 196.29102 C 83.031604 197.47152 82.796612 198.44166 82.337891 199.20117 C 81.886046 199.96769 81.288931 200.50044 80.542969 200.79883 C 79.803883 201.10423 78.764044 201.24923 77.423828 201.23633 L 75.589844 201.21875 L 75.642578 195.77148 L 72.652344 195.74219 C 72.027373 195.73617 71.624776 195.77865 71.443359 195.86719 C 71.261943 195.95572 71.170442 196.12783 71.167969 196.38477 C 71.164894 196.7042 71.280528 196.917 71.515625 197.02344 C 71.7576 197.13688 72.222688 197.19652 72.910156 197.20312 L 74.732422 197.2207 L 74.693359 201.21094 L 73.673828 201.20117 C 72.819701 201.19295 72.164274 201.13114 71.707031 201.01562 C 71.249722 200.90706 70.761139 200.65278 70.244141 200.25195 C 69.727142 199.85112 69.340025 199.34214 69.082031 198.72852 C 68.830915 198.1219 68.709925 197.36194 68.71875 196.44531 C 68.727307 195.55646 68.863469 194.7718 69.126953 194.09375 C 69.390437 193.4157 69.745259 192.88741 70.193359 192.50977 C 70.648337 192.13913 71.145539 191.88482 71.681641 191.74414 C 72.224686 191.60353 73.009379 191.53698 74.037109 191.54688 z M 351.20117 195.06055 L 350.19141 195.08984 C 349.47645 195.11115 349.01651 195.16353 348.81055 195.24609 C 348.60458 195.32865 348.50469 195.4886 348.51172 195.72461 C 348.52041 196.01615 348.61628 196.19378 348.79883 196.25781 C 348.97443 196.32206 349.45108 196.34152 350.22852 196.31836 L 351.23828 196.28906 L 351.20117 195.06055 z M 77.892578 195.79297 L 77.880859 197.02148 L 78.890625 197.03125 C 79.60587 197.03814 80.068285 197.00602 80.277344 196.93164 C 80.486403 196.85726 80.591477 196.70094 80.59375 196.46484 C 80.596558 196.17319 80.508004 195.9911 80.328125 195.91992 C 80.15519 195.84881 79.680085 195.81022 78.902344 195.80273 L 77.892578 195.79297 z M 348.93164 201.03906 C 349.26519 201.0408 349.68534 201.05296 350.19531 201.07422 L 356.41992 201.33398 C 357.43293 201.37621 358.18591 201.47713 358.67969 201.63672 C 359.16682 201.78908 359.58473 202.12182 359.93164 202.63672 C 360.27161 203.15132 360.42707 203.75255 360.39844 204.43945 C 360.3779 204.93208 360.2506 205.38933 360.01758 205.81055 C 359.78484 206.22482 359.44689 206.59962 359.00195 206.93555 L 360.03125 207.25 L 359.86719 211.18359 L 343.01758 210.48047 L 343.19141 206.27734 L 347.17773 206.44336 C 346.78977 206.07966 346.50866 205.68134 346.33203 205.25 C 346.14875 204.81143 346.06707 204.34332 346.08789 203.84375 C 346.1119 203.26786 346.22188 202.77119 346.41992 202.35547 C 346.61796 201.93974 346.88534 201.62836 347.2207 201.41992 C 347.55606 201.21149 347.88135 201.09307 348.19531 201.06445 C 348.35244 201.04668 348.59809 201.03732 348.93164 201.03906 z M 82.810547 201.84375 L 83.021484 206.04688 L 81.203125 205.97266 C 82.530888 206.51754 83.261738 207.36709 83.396484 208.52148 L 78.539062 208.76562 C 78.50021 207.99578 78.366895 207.43609 78.140625 207.08594 C 77.914355 206.73579 77.613099 206.52917 77.234375 206.46484 C 76.862587 206.40017 76.006543 206.40119 74.667969 206.46875 L 69.216797 206.74414 L 69.003906 202.54102 L 82.810547 201.84375 z M 349.32227 205.2832 C 349.08889 205.29606 348.91802 205.32266 348.80859 205.36328 C 348.5828 205.44423 348.46412 205.6172 348.45312 205.88086 C 348.44242 206.13758 348.53156 206.30816 348.72266 206.39258 C 348.90681 206.47671 349.38413 206.5343 350.1543 206.56641 L 356.10742 206.81445 C 356.84983 206.8454 357.32744 206.82458 357.53906 206.75 C 357.75097 206.66848 357.86235 206.49891 357.87305 206.24219 C 357.88404 205.97853 357.78418 205.80404 357.57227 205.71875 C 357.36065 205.62652 356.84412 205.56342 356.02539 205.5293 L 350.20898 205.28711 C 349.85166 205.27221 349.55564 205.27034 349.32227 205.2832 z M 86.230469 208.57031 L 86.638672 212.88477 L 84.449219 213.0918 L 84.042969 208.77734 L 86.230469 208.57031 z M 83.203125 208.85547 L 83.609375 213.16992 L 69.847656 214.46875 L 69.441406 210.1543 L 83.203125 208.85547 z M 83.626953 213.91406 L 84.261719 218.14648 L 82.994141 218.26367 C 83.540858 218.49051 83.970974 218.80177 84.283203 219.19727 C 84.603331 219.5986 84.806938 220.08431 84.892578 220.6543 C 84.999886 221.3685 84.918792 221.97862 84.650391 222.48242 C 84.381989 222.98623 83.999354 223.34096 83.503906 223.54883 C 83.015326 223.75566 82.173437 223.94937 80.978516 224.12891 L 71.400391 225.56836 L 70.773438 221.40625 L 80.240234 219.98438 C 81.181063 219.84302 81.750531 219.72557 81.947266 219.63281 C 82.144 219.54005 82.221991 219.35383 82.179688 219.07227 C 82.13532 218.77697 81.986083 218.60779 81.734375 218.56836 C 81.489535 218.5279 80.85237 218.58546 79.822266 218.74023 L 70.582031 220.12891 L 69.957031 215.9668 L 83.626953 213.91406 z M 345.46484 214.06641 L 350.28906 214.68164 C 350.19171 215.4463 350.22371 216.01977 350.38477 216.4043 C 350.54582 216.78883 350.80845 217.04575 351.16992 217.17578 C 351.52451 217.30493 352.36577 217.45378 353.69531 217.62305 L 359.10938 218.3125 L 358.57812 222.48828 L 344.86523 220.74219 L 345.39844 216.56836 L 347.17383 216.96094 C 345.9628 216.19071 345.39415 215.22649 345.46484 214.06641 z M 212.72656 214.62695 C 207.62624 214.53664 205.9914 216.46413 208.28516 219.96484 C 211.28725 224.54661 219.42621 222.30101 218.68359 217.0957 C 218.43236 215.33476 217.59398 214.91889 213.79297 214.67188 C 213.42228 214.64778 213.06658 214.63297 212.72656 214.62695 z M 348.28711 222.07227 C 348.81169 222.09187 349.40401 222.16465 350.0625 222.28906 L 351.86328 222.62891 L 350.85156 227.98242 L 353.78906 228.53711 C 354.4032 228.65314 354.80778 228.6841 355.00195 228.62891 C 355.19613 228.57372 355.31753 228.42045 355.36523 228.16797 C 355.42454 227.85408 355.34743 227.62275 355.13477 227.47656 C 354.91656 227.32226 354.47047 227.18232 353.79492 227.05469 L 352.00195 226.7168 L 352.74414 222.79492 L 353.74609 222.98438 C 354.58541 223.14295 355.22065 223.3194 355.65039 223.51367 C 356.08142 223.70112 356.51678 224.03779 356.95508 224.52344 C 357.39337 225.00908 357.68423 225.57708 357.83008 226.22656 C 357.97039 226.86793 357.95533 227.63833 357.78516 228.53906 C 357.62014 229.4125 357.34952 230.16023 356.9707 230.78125 C 356.59188 231.40227 356.14825 231.85955 355.64062 232.15234 C 355.12747 232.43703 354.59352 232.6005 354.04102 232.64453 C 353.48169 232.68727 352.69741 232.61463 351.6875 232.42383 L 347.72656 231.67578 C 346.53923 231.45146 345.63545 231.1137 345.01367 230.66406 C 344.38507 230.21314 343.95809 229.58753 343.73438 228.78906 C 343.50384 227.98931 343.479 227.11647 343.6582 226.16797 C 343.87737 225.00794 344.27988 224.09454 344.86523 223.42773 C 345.44506 222.75281 346.1272 222.33417 346.91406 222.17188 C 347.30473 222.08667 347.76253 222.05266 348.28711 222.07227 z M 83.455078 224.40625 C 83.941699 224.41772 84.352535 224.50677 84.685547 224.67383 C 85.35157 225.00794 85.789966 225.64618 86.001953 226.58789 C 86.11786 227.10278 86.119373 227.59322 86.003906 228.06055 C 85.889964 228.53464 85.659768 228.98558 85.314453 229.41211 L 86.396484 229.47656 L 87.257812 233.29883 L 76.871094 235.63672 C 75.468687 235.95241 74.55352 236.12316 74.125 236.14844 C 73.70478 236.17897 73.224015 236.04858 72.681641 235.75781 C 72.132492 235.46857 71.659403 234.99692 71.263672 234.3457 C 70.862691 233.70279 70.542173 232.85077 70.302734 231.78711 C 70.008393 230.47955 69.994963 229.37965 70.263672 228.48633 C 70.525606 227.59453 71.304927 226.98788 72.599609 226.66797 L 73.496094 230.65234 C 72.899902 230.78655 72.650441 231.07031 72.748047 231.50391 C 72.818201 231.81555 72.95631 232.0001 73.162109 232.06055 C 73.367908 232.12099 73.763061 232.08624 74.345703 231.95508 L 75.361328 231.72656 C 74.963603 231.44595 74.639725 231.12783 74.388672 230.77148 C 74.139144 230.42192 73.965221 230.03424 73.869141 229.60742 C 73.702906 228.86896 73.714482 228.2239 73.904297 227.67578 C 74.095637 227.13443 74.412149 226.72193 74.853516 226.4375 C 75.301657 226.15155 75.972899 225.90834 76.867188 225.70703 L 81.765625 224.60352 C 82.405854 224.45939 82.968458 224.39478 83.455078 224.40625 z M 346.49414 226.02539 C 346.27525 226.06178 346.14344 226.19573 346.09961 226.42773 C 346.04546 226.71433 346.1011 226.90801 346.26562 227.00977 C 346.42333 227.11023 346.88418 227.23256 347.64844 227.37695 L 348.64062 227.56445 L 348.86914 226.35742 L 347.87695 226.16992 C 347.17411 226.03713 346.71303 225.98901 346.49414 226.02539 z M 83.195312 228.63281 C 83.000278 228.6518 82.761109 228.69376 82.476562 228.75781 L 77.943359 229.77734 C 77.340392 229.91308 76.957162 230.04055 76.791016 230.15625 C 76.631644 230.27043 76.577481 230.44452 76.630859 230.68164 C 76.691863 230.95264 76.841074 231.10422 77.076172 231.13672 C 77.31127 231.16921 77.810607 231.10007 78.576172 230.92773 L 82.753906 229.98828 C 83.370423 229.8495 83.753653 229.72398 83.90625 229.61133 C 84.060372 229.50545 84.111544 229.32983 84.056641 229.08594 C 84.003263 228.84882 83.865833 228.70193 83.646484 228.64453 C 83.54096 228.61846 83.390348 228.61382 83.195312 228.63281 z M 340.00781 230.4043 L 356.3125 234.71094 L 355.23828 238.7793 L 354.27148 238.52344 C 354.57153 239.01923 354.76554 239.50929 354.85352 239.99219 C 354.94149 240.47509 354.92487 240.95187 354.80078 241.42188 C 354.63415 242.05303 354.32437 242.55521 353.87305 242.93164 C 353.41501 243.3063 352.9504 243.50438 352.47852 243.52344 C 352.0084 243.53578 351.27998 243.41098 350.29297 243.15039 L 344.03906 241.5 C 343.01176 241.22877 342.29838 240.9715 341.90234 240.73047 C 341.50808 240.48273 341.21187 240.08244 341.01367 239.52734 C 340.80876 238.97047 340.79289 238.36614 340.96484 237.71484 C 341.0978 237.21127 341.31037 236.77468 341.60156 236.40625 C 341.89453 236.03111 342.26772 235.72132 342.7207 235.47461 L 338.93359 234.47461 L 340.00781 230.4043 z M 344.2168 236.00781 C 344.02766 236.04407 343.89958 236.18712 343.83398 236.43555 C 343.77017 236.67726 343.80416 236.86217 343.93555 236.99023 C 344.06199 237.10981 344.38644 237.23868 344.91016 237.37695 L 351.45703 239.10547 C 352.0009 239.24906 352.37056 239.30401 352.56641 239.26953 C 352.75554 239.23328 352.88113 239.10134 352.94141 238.87305 C 353.01054 238.61119 352.96183 238.41036 352.79688 238.27344 C 352.6252 238.13474 352.16717 237.96826 351.42188 237.77148 L 345.23828 236.13867 C 344.74813 236.00926 344.4077 235.96484 344.2168 236.00781 z M 87.941406 236.20703 L 89.111328 239.63672 C 88.778524 239.7796 86.382289 240.92136 81.923828 243.05859 C 82.410504 242.9366 85.005307 242.38078 89.708984 241.39258 L 90.835938 244.69531 L 83.628906 248.05664 C 85.853593 247.43715 88.451724 246.88772 91.421875 246.41016 L 92.447266 249.41797 L 95.306641 248.16602 L 96.992188 252.02148 L 93.519531 253.54102 C 93.969657 253.73824 94.354127 253.99367 94.673828 254.30859 C 94.996313 254.62988 95.253254 255.01023 95.445312 255.44922 C 95.740361 256.12361 95.819222 256.77147 95.681641 257.39258 C 95.546842 258.02005 95.276321 258.48378 94.869141 258.7832 C 94.471106 259.0862 93.678013 259.49902 92.488281 260.01953 L 83.755859 263.83984 L 82.068359 259.98438 L 90.982422 256.08398 C 91.720437 255.7611 92.176965 255.51586 92.353516 255.34766 C 92.53285 255.18582 92.566417 254.97714 92.455078 254.72266 C 92.35209 254.48725 92.174375 254.37674 91.921875 254.38867 C 91.669375 254.4006 91.22266 254.547 90.580078 254.82812 L 81.542969 258.78125 L 79.855469 254.92578 L 90.4375 250.29688 L 78.966797 252.7168 L 77.492188 248.38867 C 79.008602 247.60724 81.017558 246.61698 83.521484 245.41797 C 82.341987 245.70293 81.135325 245.94972 79.900391 246.1582 L 76.910156 246.68359 L 75.433594 242.35547 L 87.941406 236.20703 z M 337.33398 240.19141 L 353.37695 245.38672 L 352.04297 249.50977 L 335.99805 244.3125 L 337.33398 240.19141 z M 341.16016 247.0332 C 341.65721 247.07593 342.36174 247.27285 343.27539 247.625 L 346.43359 248.8418 C 347.59348 249.28885 348.42448 249.67553 348.92383 250.00195 C 349.4167 250.32588 349.82472 250.77131 350.15039 251.33594 C 350.46959 251.89806 350.62657 252.52286 350.62109 253.21289 C 350.61164 253.89395 350.4579 254.62477 350.1582 255.40234 C 349.82354 256.27064 349.44557 256.96981 349.02539 257.5 C 348.59873 258.0277 348.12937 258.38657 347.61719 258.57617 C 347.10103 258.75679 346.54261 258.81333 345.94336 258.74609 C 345.33763 258.67636 344.48767 258.42989 343.39258 258.00781 L 340.08789 256.73438 C 338.88913 256.27234 338.00369 255.78065 337.42969 255.26172 C 336.85569 254.74279 336.49419 254.06757 336.3457 253.23633 C 336.19721 252.40509 336.32588 251.46574 336.73047 250.41602 C 337.07013 249.53476 337.49207 248.83083 338 248.30469 C 338.50395 247.76957 339.03434 247.41156 339.58789 247.23047 C 340.14144 247.04938 340.6656 246.98399 341.16016 247.0332 z M 339.50391 250.80469 C 339.30148 250.80853 339.15632 250.92688 339.06641 251.16016 C 338.9765 251.39343 339.00345 251.58333 339.14844 251.72852 C 339.28694 251.87121 339.68672 252.06948 340.34766 252.32422 L 346.16992 254.56836 C 346.77902 254.80312 347.19227 254.91744 347.41016 254.91211 C 347.62156 254.90428 347.77196 254.78734 347.85938 254.56055 C 347.94928 254.32727 347.92225 254.14207 347.78125 254.00586 C 347.64274 253.86317 347.29554 253.68549 346.73828 253.4707 L 340.78906 251.17773 C 340.12812 250.92299 339.69985 250.79834 339.50391 250.80469 z M 336.40234 256.17578 C 336.60687 256.15629 336.79056 256.16557 336.95312 256.20312 C 337.28119 256.27195 337.76135 256.45434 338.39062 256.74805 L 339.11719 257.08594 L 337.53906 260.46484 L 336.85938 260.14844 C 336.28044 259.87822 335.90013 259.7415 335.7168 259.74023 C 335.53011 259.72973 335.37531 259.8568 335.25195 260.12109 C 335.15209 260.33505 335.14934 260.53055 335.24414 260.70508 C 335.33265 260.87667 335.51761 261.02799 335.80078 261.16016 C 336.18464 261.33932 336.47956 261.44563 336.68555 261.48047 C 336.88818 261.50607 337.15878 261.43787 337.49609 261.27344 C 337.83634 261.10271 338.40445 260.69637 339.20117 260.05664 C 340.25928 259.20171 341.10826 258.71273 341.74805 258.58984 C 342.38784 258.46696 343.16372 258.61904 344.07617 259.04492 C 345.0956 259.52073 345.80614 260.01341 346.20508 260.52148 C 346.59773 261.02662 346.78885 261.65696 346.78125 262.41211 C 346.7703 263.15803 346.5606 263.9671 346.15234 264.8418 C 345.70003 265.81088 345.16224 266.57182 344.53711 267.12305 C 343.91491 267.66798 343.28486 267.94964 342.64844 267.9668 C 342.01201 267.98396 341.17155 267.74732 340.12695 267.25977 L 339.52344 266.97852 L 341.09961 263.59961 L 341.89258 263.96875 C 342.5659 264.28302 343.02217 264.4468 343.26172 264.45898 C 343.50421 264.46487 343.68525 264.34155 343.80273 264.08984 C 343.92903 263.81926 343.95136 263.6003 343.86914 263.43164 C 343.78063 263.26005 343.51818 263.0718 343.08398 262.86914 C 342.48617 262.59012 342.08088 262.48478 341.86523 262.55273 C 341.64665 262.62698 340.85349 263.159 339.48828 264.14648 C 338.3362 264.97288 337.44848 265.38897 336.82422 265.39648 C 336.19367 265.40106 335.5251 265.23911 334.82031 264.91016 C 333.81976 264.44316 333.14547 263.967 332.79688 263.48242 C 332.44198 262.99491 332.28265 262.37665 332.31836 261.62695 C 332.357 260.87096 332.57226 260.07522 332.96289 259.23828 C 333.35059 258.40764 333.78536 257.75251 334.26953 257.27344 C 334.75034 256.78514 335.23654 256.46712 335.72656 256.32031 C 335.97304 256.24376 336.19782 256.19528 336.40234 256.17578 z M 95.087891 259.90234 C 95.86054 259.86376 96.581665 260.08679 97.253906 260.57227 C 97.93229 261.0545 98.49687 261.72241 98.947266 262.57617 C 99.49811 263.62034 99.753748 264.5864 99.710938 265.47266 C 99.677508 266.36181 99.403311 267.11351 98.888672 267.73047 C 98.383415 268.35033 97.536998 268.97424 96.351562 269.59961 L 94.730469 270.45508 L 92.1875 265.63672 L 89.544922 267.03125 C 88.992128 267.32287 88.656635 267.55075 88.539062 267.71484 C 88.421491 267.87894 88.423079 268.07352 88.542969 268.30078 C 88.692021 268.58332 88.894907 268.71726 89.152344 268.69922 C 89.419163 268.68408 89.856771 268.5161 90.464844 268.19531 L 92.076172 267.34375 L 93.9375 270.87305 L 93.035156 271.34961 C 92.279672 271.74816 91.674023 272.00356 91.216797 272.11914 C 90.762811 272.24087 90.211762 272.24966 89.566406 272.14258 C 88.92105 272.03549 88.338857 271.77285 87.820312 271.35547 C 87.311151 270.94099 86.84373 270.32834 86.416016 269.51758 C 86.001263 268.73138 85.748489 267.97768 85.658203 267.25586 C 85.567917 266.53404 85.63082 265.90066 85.845703 265.35547 C 86.069969 264.81318 86.384163 264.35309 86.789062 263.97461 C 87.200105 263.59288 87.860493 263.1612 88.769531 262.68164 L 92.333984 260.80078 C 93.402719 260.23698 94.321383 259.93769 95.087891 259.90234 z M 96.382812 263.54102 C 96.196857 263.5606 95.760187 263.75233 95.072266 264.11523 L 94.177734 264.58594 L 94.751953 265.67383 L 95.646484 265.20117 C 96.279126 264.86743 96.669738 264.6179 96.818359 264.45312 C 96.966981 264.28836 96.985169 264.10336 96.875 263.89453 C 96.738909 263.63656 96.574911 263.51819 96.382812 263.54102 z M 101.37109 267.55469 L 103.56055 271.15039 L 101.92578 271.94922 C 103.35276 271.79564 104.39986 272.19575 105.06836 273.14648 L 100.91406 275.67578 C 100.5131 275.01744 100.12944 274.58871 99.763672 274.38867 C 99.397902 274.18863 99.033542 274.14954 98.669922 274.27344 C 98.312232 274.39372 97.560694 274.80282 96.416016 275.5 L 91.755859 278.33984 L 89.566406 274.74609 L 101.37109 267.55469 z M 331.15234 267.84375 C 331.41625 267.85376 331.6682 267.89065 331.9082 267.95508 C 332.39173 268.07794 333.05603 268.387 333.90039 268.88281 L 336.81836 270.59766 C 337.89027 271.22709 338.64621 271.74332 339.08594 272.14648 C 339.51968 272.54613 339.85235 273.05015 340.08203 273.66016 C 340.30573 274.26665 340.35767 274.90985 340.24023 275.58984 C 340.12033 276.26033 339.8497 276.95523 339.42773 277.67383 C 338.95654 278.47627 338.47139 279.10561 337.9707 279.56055 C 337.46403 280.01197 336.94241 280.28865 336.40625 280.39258 C 335.86761 280.487 335.30694 280.45269 334.72656 280.28906 C 334.14019 280.12191 333.34211 279.74075 332.33008 279.14648 L 329.27539 277.35352 C 328.16755 276.70299 327.37276 276.07594 326.89062 275.4707 C 326.40849 274.86547 326.16195 274.13924 326.15039 273.29492 C 326.13883 272.4506 326.41863 271.54433 326.98828 270.57422 C 327.46651 269.7598 327.99737 269.13396 328.58398 268.69727 C 329.16812 268.25106 329.74861 267.98335 330.32422 267.89453 C 330.61202 267.85012 330.88844 267.83374 331.15234 267.84375 z M 329.66211 271.4082 C 329.46174 271.37913 329.29846 271.47192 329.17188 271.6875 C 329.04529 271.90308 329.04262 272.09492 329.16211 272.26172 C 329.27561 272.425 329.63723 272.68625 330.24805 273.04492 L 335.62891 276.20312 C 336.19181 276.53366 336.58102 276.71403 336.79688 276.74414 C 337.00675 276.77074 337.1738 276.6803 337.29688 276.4707 C 337.42346 276.25512 337.42756 276.06745 337.31055 275.91016 C 337.19705 275.74687 336.88219 275.5153 336.36719 275.21289 L 330.87109 271.98438 C 330.26028 271.6257 329.85649 271.43376 329.66211 271.4082 z M 322.62305 274.63477 L 324.43359 275.8457 L 325.06445 274.90039 L 326.88281 276.11719 L 326.25195 277.06055 L 332.40039 281.16992 C 333.15674 281.67543 333.60347 281.91952 333.74023 281.90234 C 333.88086 281.87939 334.14142 281.58136 334.52344 281.00977 L 336.37695 282.25 L 335.43359 283.66016 C 334.90108 284.45692 334.4904 285.00454 334.19922 285.30273 C 333.90227 285.59707 333.54708 285.79488 333.13672 285.89648 C 332.72058 285.99423 332.33868 285.97304 331.99023 285.83203 C 331.63601 285.68717 330.88732 285.23279 329.74414 284.46875 L 323.90625 280.56836 L 323.4043 281.32227 L 321.58398 280.10547 L 322.08789 279.35156 L 320.2793 278.14258 L 322.62305 274.63477 z M 104.07227 274.70117 C 104.6372 274.70089 105.19308 274.85117 105.73828 275.15039 C 106.47091 275.54538 107.11387 276.13792 107.66602 276.92969 C 108.3413 277.89804 108.71065 278.82616 108.77734 279.71094 C 108.85371 280.59744 108.67494 281.37707 108.24023 282.05273 C 107.81519 282.73012 107.05444 283.4521 105.95508 284.21875 L 104.45117 285.26758 L 101.33398 280.79883 L 98.882812 282.50977 C 98.370158 282.86727 98.065211 283.13517 97.96875 283.3125 C 97.872289 283.48983 97.897948 283.68377 98.044922 283.89453 C 98.227646 284.15656 98.444012 284.26251 98.697266 284.21289 C 98.960188 284.165 99.373579 283.94404 99.9375 283.55078 L 101.43359 282.50781 L 103.71484 285.78125 L 102.87891 286.36523 C 102.17828 286.85382 101.60747 287.18248 101.16797 287.35352 C 100.73244 287.53024 100.18879 287.60489 99.535156 287.57812 C 98.881524 287.55137 98.271092 287.36399 97.705078 287.01367 C 97.148732 286.66508 96.608324 286.11518 96.083984 285.36328 C 95.575534 284.63417 95.231258 283.91614 95.052734 283.21094 C 94.87421 282.50574 94.857826 281.87025 95.003906 281.30273 C 95.159655 280.73694 95.416297 280.23994 95.771484 279.81445 C 96.132368 279.385 96.733138 278.87696 97.576172 278.28906 L 100.88281 275.98242 C 101.87395 275.29125 102.74759 274.88146 103.50391 274.75195 C 103.69441 274.71858 103.88396 274.70126 104.07227 274.70117 z M 105.37695 278.19531 C 105.33131 278.18904 105.28524 278.19156 105.23828 278.20312 C 105.05615 278.24547 104.64578 278.4887 104.00781 278.93359 L 103.17969 279.51172 L 103.88281 280.52148 L 104.71094 279.94336 C 105.29764 279.53422 105.65601 279.23847 105.7832 279.05664 C 105.91039 278.87481 105.90654 278.68586 105.77148 278.49219 C 105.64636 278.31276 105.51389 278.21412 105.37695 278.19531 z M 316.97461 280.8125 L 330.1543 291.33594 L 327.52734 294.625 L 326.74609 294 C 326.82039 294.57474 326.80005 295.10082 326.68555 295.57812 C 326.57104 296.05543 326.36386 296.48536 326.06055 296.86523 C 325.65324 297.37536 325.16645 297.71091 324.60156 297.87305 C 324.03124 298.03085 323.52534 298.02272 323.08594 297.84961 C 322.65087 297.67107 322.03602 297.26391 321.23828 296.62695 L 316.18164 292.58984 C 315.35134 291.92689 314.80405 291.40581 314.53906 291.02539 C 314.27841 290.63954 314.17007 290.15231 314.21289 289.56445 C 314.25029 288.97226 314.47814 288.41312 314.89844 287.88672 C 315.22341 287.47971 315.5946 287.16674 316.00977 286.94727 C 316.42927 286.72237 316.89612 286.58771 317.41016 286.54492 L 314.34961 284.10156 L 316.97461 280.8125 z M 112.62305 284.15234 L 115.4082 287.4043 L 114.39648 288.17578 C 114.98024 288.07787 115.50984 288.11372 115.98438 288.2832 C 116.46869 288.45344 116.89834 288.75573 117.27344 289.19336 C 117.74344 289.74172 117.9972 290.30165 118.03711 290.87109 C 118.07702 291.44054 117.9424 291.94368 117.63281 292.38281 C 117.3285 292.81742 116.71823 293.42849 115.80078 294.21484 L 108.44531 300.51953 L 105.70703 297.32422 L 112.97461 291.09375 C 113.69697 290.47461 114.11687 290.07366 114.23438 289.89062 C 114.35187 289.7076 114.3181 289.50915 114.13281 289.29297 C 113.93848 289.06624 113.72449 289.00334 113.49023 289.10352 C 113.26125 289.19917 112.75184 289.58578 111.96094 290.26367 L 104.86523 296.34375 L 102.12695 293.14844 L 112.62305 284.15234 z M 318.5625 287.63867 C 318.37483 287.59547 318.20134 287.67421 318.04102 287.875 C 317.88503 288.07037 317.84167 288.25362 317.91016 288.42383 C 317.97755 288.58428 318.22124 288.8339 318.64453 289.17188 L 323.9375 293.39648 C 324.37707 293.74746 324.69167 293.9466 324.88477 293.99414 C 325.07243 294.03734 325.24135 293.96576 325.38867 293.78125 C 325.55766 293.5696 325.59367 293.36961 325.49805 293.17773 C 325.397 292.98153 325.04574 292.64307 324.44336 292.16211 L 319.44531 288.16992 C 319.04915 287.85361 318.7545 287.67645 318.5625 287.63867 z M 313.2832 292.08984 C 313.68386 292.09478 314.0711 292.16763 314.44727 292.30859 C 315.19924 292.58071 316.06696 293.17169 317.04883 294.08398 L 318.39062 295.33203 L 314.68359 299.32422 L 316.87305 301.35938 C 317.33091 301.7848 317.65784 302.02527 317.85156 302.08203 C 318.04528 302.13879 318.2294 302.073 318.4043 301.88477 C 318.62173 301.65075 318.67824 301.41476 318.57617 301.17773 C 318.47374 300.93089 318.17162 300.57343 317.66797 300.10547 L 316.33203 298.86523 L 319.04688 295.94336 L 319.79492 296.63672 C 320.42067 297.21813 320.86486 297.70624 321.125 298.09961 C 321.38986 298.4879 321.57733 299.00394 321.68945 299.64844 C 321.80157 300.29294 321.74608 300.92933 321.52344 301.55664 C 321.30043 302.17414 320.87786 302.8187 320.25391 303.49023 C 319.64886 304.14142 319.02061 304.62946 318.36914 304.95312 C 317.71767 305.27679 317.09925 305.42701 316.51367 305.4043 C 315.92774 305.37177 315.38943 305.22589 314.89844 304.96875 C 314.40236 304.70689 313.77637 304.22693 313.02344 303.52734 L 310.07031 300.7832 C 309.1851 299.96072 308.59908 299.19422 308.3125 298.48242 C 308.02084 297.7659 307.99432 297.00972 308.23047 296.21484 C 308.46153 295.41524 308.90546 294.66223 309.5625 293.95508 C 310.36607 293.09022 311.19233 292.53166 312.04297 292.2793 C 312.46811 292.14821 312.88255 292.08491 313.2832 292.08984 z M 119.02148 293.27734 C 119.40332 293.24974 119.79913 293.28538 120.20898 293.38672 C 121.0287 293.5894 121.83668 294.08991 122.63086 294.88672 C 123.29758 295.55564 123.76715 296.22815 124.04102 296.90625 C 124.32471 297.58436 124.43683 298.21363 124.37695 298.79297 C 124.31707 299.37231 124.1642 299.87883 123.91797 300.31055 C 123.67664 300.74718 123.20914 301.31072 122.51562 302.00195 L 120.11719 304.39258 C 119.23677 305.2701 118.54632 305.87009 118.04492 306.19336 C 117.54844 306.51172 116.97642 306.70381 116.32812 306.77148 C 115.68476 306.83426 115.04799 306.72334 114.41992 306.4375 C 113.80167 306.15167 113.19961 305.71327 112.61133 305.12305 C 111.95441 304.46396 111.46953 303.83396 111.15625 303.23438 C 110.84789 302.62988 110.71082 302.05672 110.74609 301.51172 C 110.79119 300.96673 110.96618 300.43407 111.27148 299.91406 C 111.58171 299.38915 112.15314 298.71131 112.98438 297.88281 L 115.49219 295.38281 C 116.40212 294.47587 117.21035 293.86584 117.91797 293.55273 C 118.27178 293.39618 118.63965 293.30495 119.02148 293.27734 z M 311.74805 295.3125 C 311.65671 295.33428 311.57059 295.39008 311.49023 295.47656 C 311.2917 295.69023 311.23531 295.88287 311.32031 296.05664 C 311.40023 296.22569 311.72513 296.57606 312.29492 297.10547 L 313.03516 297.79297 L 313.87109 296.89258 L 313.13086 296.20508 C 312.60686 295.71821 312.24368 295.43155 312.03906 295.3457 C 311.93675 295.30278 311.83938 295.29072 311.74805 295.3125 z M 120.72852 296.54688 C 120.63649 296.52094 120.54308 296.52583 120.44727 296.5625 C 120.26056 296.63094 119.91575 296.91597 119.41406 297.41602 L 114.99609 301.82031 C 114.53375 302.28114 114.25959 302.61131 114.17578 302.8125 C 114.09689 303.00879 114.14287 303.19309 114.31445 303.36523 C 114.49094 303.5423 114.67171 303.59484 114.85352 303.52148 C 115.04023 303.45305 115.34458 303.20871 115.76758 302.78711 L 120.2832 298.28516 C 120.78489 297.78511 121.07253 297.44524 121.14648 297.26367 C 121.22536 297.0772 121.17649 296.89582 121 296.71875 C 120.91176 296.63022 120.82054 296.5728 120.72852 296.54688 z M 306.42773 297.27539 L 309.77539 300.80664 C 309.21592 301.3369 308.8766 301.80155 308.75781 302.20117 C 308.63903 302.60079 308.67752 302.96542 308.875 303.29492 C 309.0677 303.61938 309.6249 304.26745 310.54688 305.24023 L 314.30273 309.20312 L 311.24805 312.09766 L 301.73828 302.06445 L 304.79297 299.16992 L 305.91992 300.59961 C 305.47015 299.23669 305.63855 298.12861 306.42773 297.27539 z M 126.70312 300.24219 C 126.90187 300.24577 127.10631 300.26558 127.31445 300.30078 C 128.14703 300.44159 128.98829 300.87811 129.83984 301.61328 C 130.55473 302.23047 131.07462 302.86772 131.39844 303.52344 C 131.73205 304.17843 131.88943 304.79671 131.87305 305.37891 C 131.85666 305.9611 131.74255 306.47686 131.5293 306.92578 C 131.3213 307.37924 130.89769 307.97563 130.25781 308.7168 L 128.04492 311.2793 C 127.2326 312.22021 126.5891 312.87061 126.11328 313.23047 C 125.642 313.58507 125.08478 313.82153 124.44336 313.9375 C 123.80648 314.04822 123.16527 313.98416 122.51758 313.74609 C 121.87968 313.50731 121.24601 313.11489 120.61523 312.57031 C 119.91086 311.9622 119.37873 311.37135 119.02148 310.79688 C 118.66877 310.21713 118.48995 309.65548 118.48438 309.10938 C 118.48857 308.56254 118.62311 308.01795 118.88867 307.47656 C 119.15877 306.92992 119.67837 306.21257 120.44531 305.32422 L 122.75977 302.64258 C 123.59932 301.67013 124.35879 301.00187 125.04102 300.63672 C 125.55268 300.36286 126.10689 300.23145 126.70312 300.24219 z M 128.06836 303.41211 C 127.97465 303.39313 127.88187 303.40548 127.78906 303.44922 C 127.60799 303.53143 127.28515 303.83884 126.82227 304.375 L 122.74414 309.09961 C 122.31756 309.59372 122.07048 309.94349 122.00195 310.15039 C 121.93796 310.35203 121.99766 310.53257 122.18164 310.69141 C 122.37087 310.85478 122.55466 310.89339 122.73047 310.80664 C 122.91154 310.72443 123.19761 310.45596 123.58789 310.00391 L 127.75391 305.17969 C 128.21679 304.64353 128.47694 304.28229 128.53711 304.0957 C 128.60182 303.90386 128.5408 303.72587 128.35156 303.5625 C 128.25695 303.48081 128.16207 303.43109 128.06836 303.41211 z M 301.13086 303.8457 C 301.73239 303.88983 302.25177 304.08954 302.68945 304.44336 C 303.26859 304.90979 304.29013 306.01921 305.75391 307.77344 L 310.19727 313.09961 L 307.05469 315.72266 L 306.26758 314.7793 C 306.38619 315.32249 306.36731 315.82094 306.21289 316.27539 C 306.05936 316.72006 305.76783 317.12204 305.33594 317.48242 C 304.77075 317.95403 304.11986 318.23111 303.38281 318.3125 C 302.64665 318.38411 301.82983 317.88423 300.93555 316.8125 L 300.20898 315.94141 C 299.54606 315.14694 299.22012 314.50095 299.23047 314.00391 C 299.24082 313.50687 299.58054 312.65286 300.25195 311.44141 C 300.96599 310.14013 301.30134 309.38594 301.25586 309.17969 C 301.21038 308.97344 301.00209 308.64959 300.63281 308.20703 C 300.1701 307.6525 299.82675 307.32848 299.60352 307.23438 C 299.38116 307.13049 299.17437 307.15819 298.98242 307.31836 C 298.76381 307.50078 298.68905 307.68654 298.75586 307.875 C 298.81822 308.05812 299.09599 308.44526 299.58984 309.03711 L 300.51758 310.14844 L 297.48633 312.67773 L 296.89258 311.9668 C 296.20741 311.14567 295.77251 310.43421 295.58984 309.83594 C 295.40807 309.22788 295.46032 308.51653 295.74609 307.69922 C 296.03187 306.88191 296.6312 306.09284 297.54297 305.33203 C 298.63603 304.41995 299.62264 303.92699 300.50195 303.85352 C 300.72067 303.83381 300.93035 303.831 301.13086 303.8457 z M 133.69922 305.26172 L 137.14453 307.80273 L 136.33008 308.7832 C 136.87699 308.55683 137.40188 308.47254 137.90234 308.53125 C 138.41251 308.5885 138.89957 308.78853 139.36328 309.13086 C 139.94432 309.55981 140.31774 310.04777 140.48438 310.59375 C 140.651 311.13973 140.63287 311.66082 140.42969 312.1582 C 140.23063 312.65 139.77235 313.38139 139.05469 314.35352 L 133.30078 322.14844 L 129.91406 319.64844 L 135.59961 311.94727 C 136.16466 311.18185 136.48514 310.69692 136.55859 310.49219 C 136.63205 310.28746 136.55328 310.09879 136.32422 309.92969 C 136.08398 309.75233 135.86206 309.74046 135.65625 309.89062 C 135.45456 310.03521 135.04445 310.52524 134.42578 311.36328 L 128.875 318.88086 L 125.49023 316.38086 L 133.69922 305.26172 z M 292.06055 306.26562 L 301.86133 319.99023 L 298.4375 322.43555 L 297.85547 321.62109 C 297.76986 322.19425 297.60779 322.69521 297.36719 323.12305 C 297.12659 323.55089 296.80769 323.90693 296.41211 324.18945 C 295.8809 324.56883 295.32207 324.75819 294.73438 324.75977 C 294.14264 324.75569 293.65857 324.61083 293.2832 324.32422 C 292.91349 324.03357 292.43118 323.47331 291.83789 322.64258 L 288.08008 317.37891 C 287.46257 316.51427 287.07671 315.86219 286.92578 315.42383 C 286.7805 314.98143 286.80986 314.48346 287.01172 313.92969 C 287.20954 313.37026 287.58269 312.8954 288.13086 312.50391 C 288.5547 312.20121 288.99573 311.99999 289.45508 311.90234 C 289.92008 311.80066 290.40595 311.79911 290.91211 311.89844 L 288.63477 308.71094 L 292.06055 306.26562 z M 302.75586 310.75 C 302.55455 311.56014 302.51824 312.12796 302.64648 312.45508 C 302.78006 312.77775 303.04684 313.18028 303.44727 313.66016 C 303.90553 314.20935 304.23666 314.5346 304.43945 314.63672 C 304.64758 314.73439 304.85703 314.69359 305.07031 314.51562 C 305.27293 314.34656 305.35227 314.17744 305.30859 314.00586 C 305.2658 313.8245 305.02304 313.46679 304.57812 312.93359 L 302.75586 310.75 z M 142.74609 312.54297 C 142.94135 312.53203 143.14137 312.5361 143.34766 312.55664 C 144.17647 312.63291 145.00008 312.92741 145.81836 313.43945 C 146.81913 314.06569 147.52353 314.77269 147.93164 315.56055 C 148.34932 316.3462 148.49061 317.13575 148.35547 317.92773 C 148.2299 318.71751 147.81253 319.68024 147.10156 320.81641 L 146.12891 322.37109 L 141.50977 319.48047 L 139.92578 322.01562 C 139.59424 322.54544 139.41769 322.91038 139.39844 323.11133 C 139.37919 323.31228 139.47945 323.48089 139.69727 323.61719 C 139.96806 323.78664 140.21028 323.79919 140.42383 323.6543 C 140.64695 323.5072 140.94 323.14139 141.30469 322.55859 L 142.27148 321.01367 L 145.6543 323.13086 L 145.11133 323.99609 C 144.65823 324.72018 144.2631 325.24658 143.92578 325.57617 C 143.59435 325.90945 143.12355 326.19229 142.51172 326.42383 C 141.89989 326.65537 141.26545 326.71961 140.60742 326.61914 C 139.95897 326.51647 139.24582 326.22258 138.46875 325.73633 C 137.71523 325.26481 137.11835 324.73898 136.67773 324.16016 C 136.23712 323.58133 135.97278 323.00319 135.88477 322.42383 C 135.80632 321.84226 135.84779 321.28651 136.00781 320.75586 C 136.17152 320.21932 136.52512 319.51384 137.07031 318.64258 L 139.20898 315.22656 C 139.84996 314.20225 140.49361 313.48196 141.13867 313.06641 C 141.62523 312.75033 142.16032 312.57577 142.74609 312.54297 z M 291.45312 313.2168 C 291.35867 313.23092 291.25884 313.2769 291.1543 313.35156 C 290.95085 313.49686 290.85954 313.65935 290.87891 313.8418 C 290.89988 314.01456 291.06801 314.32288 291.38281 314.76367 L 295.31836 320.27344 C 295.64527 320.73119 295.89366 321.00892 296.06641 321.10742 C 296.23512 321.20027 296.41723 321.17824 296.60938 321.04102 C 296.82977 320.88361 296.91845 320.69898 296.87891 320.48828 C 296.83533 320.27193 296.59057 319.84994 296.14258 319.22266 L 292.42578 314.01758 C 292.13115 313.60504 291.89702 313.35444 291.72266 313.26562 C 291.6383 313.2192 291.54758 313.20268 291.45312 313.2168 z M 144.35156 315.49023 C 144.25109 315.48061 144.16326 315.50439 144.08594 315.5625 C 143.93497 315.67283 143.65282 316.05747 143.24023 316.7168 L 142.70508 317.57227 L 143.74609 318.22461 L 144.2832 317.36914 C 144.66263 316.76279 144.87416 316.34994 144.91992 316.13281 C 144.96568 315.91569 144.88765 315.74439 144.6875 315.61914 C 144.56388 315.54178 144.45204 315.49986 144.35156 315.49023 z M 154.80859 319.25781 C 155.64086 319.24862 156.49092 319.4555 157.35742 319.88086 C 158.41718 320.40108 159.18897 321.03358 159.67578 321.77539 C 160.17189 322.51403 160.39494 323.28427 160.3418 324.08594 C 160.29795 324.88443 159.97928 325.88476 159.38867 327.08789 L 158.58203 328.73242 L 153.69141 326.33203 L 152.37305 329.01562 C 152.09764 329.57667 151.96141 329.95829 151.96289 330.16016 C 151.96437 330.36202 152.07989 330.51959 152.31055 330.63281 C 152.5973 330.77358 152.83956 330.76175 153.03711 330.5957 C 153.24396 330.42648 153.49978 330.03317 153.80273 329.41602 L 154.60547 327.7793 L 158.1875 329.53711 L 157.73633 330.45312 C 157.35993 331.21989 157.02046 331.78597 156.71875 332.14844 C 156.42327 332.51397 155.98328 332.84165 155.39844 333.13477 C 154.8136 333.42788 154.19025 333.55975 153.52539 333.52734 C 152.86982 333.49177 152.12951 333.27112 151.30664 332.86719 C 150.50871 332.47549 149.86097 332.01491 149.36328 331.48438 C 148.86559 330.95383 148.5435 330.40516 148.39648 329.83789 C 148.25876 329.26744 148.24294 328.71029 148.34766 328.16602 C 148.45543 327.61551 148.7346 326.87769 149.1875 325.95508 L 150.96484 322.33789 C 151.49731 321.2532 152.06311 320.46979 152.66211 319.99023 C 153.26417 319.50444 153.97938 319.26077 154.80859 319.25781 z M 156.10742 322.07031 C 156.00649 322.07105 155.92056 322.10418 155.84961 322.16992 C 155.71077 322.29517 155.46969 322.70806 155.12695 323.40625 L 154.68164 324.3125 L 155.78516 324.85547 L 156.23047 323.94727 C 156.54566 323.30518 156.71505 322.87497 156.73828 322.6543 C 156.76151 322.43362 156.66703 322.27006 156.45508 322.16602 C 156.32417 322.10175 156.20835 322.06957 156.10742 322.07031 z M 161.30273 322.11523 L 164.78711 323.52734 L 162.09375 333.31445 C 162.45376 332.66607 163.27392 331.05071 164.55273 328.4668 C 165.2708 327.02688 165.98214 325.63624 166.68945 324.29688 L 170.17578 325.70898 L 163.16211 337.78125 L 158.07422 335.7207 L 161.30273 322.11523 z M 172.24609 326.43359 C 172.8809 326.41728 173.54167 326.51932 174.23047 326.74219 C 175.35369 327.10561 176.21099 327.62053 176.79883 328.28516 C 177.39541 328.94531 177.72318 329.67553 177.78516 330.47656 C 177.85588 331.27313 177.68603 332.30879 177.27344 333.58398 L 176.70898 335.32812 L 171.52539 333.65234 L 170.60547 336.49609 C 170.41307 337.09074 170.33102 337.48792 170.36133 337.6875 C 170.39164 337.88708 170.52897 338.02637 170.77344 338.10547 C 171.07737 338.20381 171.31649 338.15742 171.48828 337.96484 C 171.66882 337.7678 171.86453 337.34161 172.07617 336.6875 L 172.63672 334.95312 L 176.43359 336.18164 L 176.11914 337.15234 C 175.85619 337.96503 175.60032 338.57274 175.35352 338.97461 C 175.11331 339.37862 174.72444 339.76695 174.1875 340.14062 C 173.65056 340.51431 173.05134 340.73197 172.38867 340.79492 C 171.73475 340.8534 170.97176 340.74312 170.09961 340.46094 C 169.25389 340.1873 168.54692 339.82311 167.97852 339.36914 C 167.41011 338.91517 167.01174 338.41739 166.78516 337.87695 C 166.56732 337.33204 166.47219 336.78216 166.49805 336.22852 C 166.52604 335.66826 166.69728 334.89973 167.01367 333.92188 L 168.25586 330.08594 C 168.62783 328.93628 169.07529 328.08173 169.59961 327.52148 C 170.12606 326.95463 170.79887 326.61168 171.61914 326.49023 C 171.82474 326.45822 172.03449 326.43903 172.24609 326.43359 z M 179.38281 328.5957 L 183.46484 329.62305 L 182.85938 331.33984 C 183.7692 330.22987 184.79621 329.77905 185.93945 329.98828 L 184.75 334.70703 C 184.00252 334.51872 183.42841 334.47994 183.02734 334.59375 C 182.62628 334.70756 182.34039 334.93602 182.16797 335.2793 C 181.99725 335.61584 181.74734 336.4347 181.41992 337.73438 L 180.08789 343.02734 L 176.00586 342 L 179.38281 328.5957 z M 173.30859 329.08789 C 173.2088 329.10305 173.12723 329.1494 173.06641 329.22461 C 172.94689 329.36841 172.76873 329.80882 172.5293 330.54883 L 172.21875 331.51172 L 173.38672 331.88867 L 173.69922 330.92773 C 173.91941 330.24719 174.02417 329.79595 174.01562 329.57422 C 174.00709 329.35249 173.89066 329.2055 173.66602 329.13281 C 173.52726 329.08792 173.40838 329.07273 173.30859 329.08789 z "
       transform="scale(0.26458333)"
       id="path4571" />
    <text
       xml:space="preserve"
       style="font-style:normal;font-weight:normal;font-size:10.58333302px;line-height:6.61458302px;font-family:sans-serif;letter-spacing:0px;word-spacing:0px;fill:#000000;fill-opacity:1;stroke:none;stroke-width:0.26458332"
       id="text4582"><textPath
         xlink:href="#path4574"
         id="textPath4584"><tspan
   style="font-style:normal;font-variant:normal;font-weight:normal;font-stretch:normal;font-family:Impact;-inkscape-font-specification:Impact;stroke-width:0.26458332"
   id="tspan4580">µc³ skunkworks</tspan></textPath></text>
    <g
       id="layer1-3"
       inkscape:label="Layer 1"
       transform="translate(8.3253322,-181.60822)">
      <path
         sodipodi:nodetypes="ccscccccccccccccccscsccccccccccccccccccccccccccccsccccccccscccssscsccccccccccccccccccccccccccccccsccccsccccccccccccccccccccccccccccccccccccsccc"
         inkscape:connector-curvature="0"
         id="path877"
         d="m 48.089178,233.09343 c -0.0525,-0.004 -0.12354,-0.34696 -0.19644,-0.94572 -0.0905,-0.74314 -0.13612,-0.93977 -0.21967,-0.94535 -0.23039,-0.0154 -0.30431,-0.12201 -0.32225,-0.46471 -0.01,-0.18818 0.0122,-0.3501 0.0495,-0.35981 0.0371,-0.01 0.0448,-0.0461 0.0173,-0.0808 -0.0276,-0.0348 -0.0349,-0.83206 -0.0163,-1.77182 0.0188,-0.93975 0.0347,-2.18848 0.0356,-2.77495 l 0.001,-1.06629 -0.32331,-0.0498 c -0.2117,-0.0326 -0.41292,-0.099 -0.58283,-0.1923 -0.23158,-0.12717 -0.26034,-0.15983 -0.26731,-0.30378 -0.004,-0.0887 0.0239,-0.16961 0.0628,-0.17976 0.0409,-0.0107 0.0387,-0.0214 -0.005,-0.0253 -0.0421,-0.004 -0.072,-0.0792 -0.0673,-0.16932 0.005,-0.0894 -0.0207,-0.19462 -0.0561,-0.23391 -0.11511,-0.12704 -0.0285,-0.37152 0.21011,-0.59345 l 0.21925,-0.20386 0.15958,-1.46038 c 0.11185,-1.02385 0.19005,-1.48858 0.26152,-1.55474 0.10533,-0.0975 0.30164,-1.64526 0.47306,-3.73038 0.0901,-1.09561 0.12299,-1.25303 0.2944,-1.41053 0.0627,-0.0576 0.12408,-0.14093 0.13633,-0.18513 0.0458,-0.16543 0.28118,-0.39819 0.41342,-0.40894 0.11361,-0.009 0.12381,-0.0187 0.0991,-0.0932 -0.0221,-0.0663 0.0136,-0.10841 0.17449,-0.21026 0.11117,-0.0701 0.25684,-0.12563 0.32375,-0.12346 0.10587,0.004 0.11674,-0.005 0.084,-0.0648 -0.0571,-0.10419 0.37834,-0.35096 0.4964,-0.28137 0.0463,0.0273 0.10071,0.0344 0.12096,0.0158 0.0202,-0.0186 0.0147,-0.0468 -0.0122,-0.0628 -0.027,-0.0159 -0.005,-0.0593 0.0484,-0.0964 0.0688,-0.0476 0.13676,-0.0493 0.23076,-0.006 0.0885,0.0408 0.22343,0.0418 0.40153,0.003 0.342,-0.0749 0.93681,-0.0672 1.39911,0.0183 0.28147,0.0521 0.44171,0.11236 0.72822,0.27428 0.20203,0.11417 0.37032,0.1906 0.37395,0.16983 0.815371,0.73374 0.263863,0.62922 -0.39636,0.2522 -0.54182,-0.31925 -0.89202,-0.39639 -1.55788,-0.34316 -0.31813,0.0254 -0.5175,0.063 -0.50222,0.0946 0.0254,0.0526 -0.16533,0.18574 -0.22011,0.15369 -0.016,-0.009 -0.0779,0.0247 -0.13759,0.0757 -0.18672,0.15987 -0.35634,0.23461 -0.45723,0.20148 -0.0872,-0.0287 -0.0889,-0.0264 -0.0158,0.0226 0.0626,0.0419 0.0559,0.0681 -0.0299,0.11377 -0.0611,0.0326 -0.24475,0.16177 -0.40782,0.28705 l -0.2965,0.22777 0.10206,0.11978 c 0.0561,0.0659 0.0942,0.18 0.0847,0.25364 -0.0162,0.12458 0.13006,2.08257 0.29148,3.90068 0.0383,0.43217 0.11334,0.85112 0.16669,0.93099 0.0567,0.0848 0.1215,0.50586 0.15598,1.01273 0.12653,1.85984 0.13767,1.92802 0.35192,2.15241 0.23826,0.24948 0.31101,0.40368 0.247,0.52338 -0.0269,0.0501 -0.0386,0.20349 -0.0265,0.34073 0.0122,0.13725 6.7e-4,0.29902 -0.0258,0.35948 -0.0866,0.1975 -0.48838,0.38689 -0.99396,0.46851 l -0.22179,0.0358 -0.01,0.63332 c -0.0277,2.03106 -0.0291,3.13269 -0.005,4.06174 0.0122,0.4563 -10e-4,0.85141 -0.0309,0.87802 -0.0289,0.0266 -0.0329,0.0733 -0.01,0.10377 0.0242,0.0305 0.04,0.20871 0.0349,0.39607 -0.01,0.3404 -0.01,0.34071 -0.19388,0.39411 -0.10165,0.0294 -0.20029,0.0677 -0.21922,0.085 -0.0189,0.0174 -0.0887,0.42458 -0.15523,0.90489 -0.0665,0.48031 -0.13593,0.88717 -0.15439,0.90413 -0.0185,0.0169 -0.0705,0.0275 -0.11579,0.0235 z m 0.7035,-2.6538 c -0.0122,-0.0582 -0.0413,-0.0891 -0.0635,-0.0687 -0.0222,0.0203 -0.0299,0.0586 -0.0171,0.085 0.0122,0.0264 0.005,0.0642 -0.0159,0.0839 -0.0234,0.0214 -0.0512,-0.001 -0.069,-0.0578 -0.0272,-0.0853 -0.03,-0.0849 -0.0313,0.004 -7.2e-4,0.0537 0.0182,0.0961 0.0421,0.0942 0.0559,-0.004 0.10139,0.19721 0.0542,0.24047 -0.0196,0.018 -0.0491,-0.01 -0.0655,-0.0611 -0.027,-0.0849 -0.03,-0.0847 -0.0312,0.001 -7.5e-4,0.0527 0.0239,0.098 0.0548,0.10081 0.0309,0.003 0.0523,0.0281 0.0477,0.0565 -0.005,0.0282 0.0122,0.0636 0.0375,0.0786 0.0508,0.03 0.0939,-0.3899 0.0571,-0.55757 z m -0.73275,0.78853 c -0.0379,-0.0224 -0.0911,-0.0204 -0.11796,0.004 -0.0522,0.048 -0.01,0.0932 0.0828,0.0857 0.0924,-0.008 0.10804,-0.0473 0.0353,-0.0902 z m 0.339,-1.24695 c 9.4e-4,-0.0771 -0.0143,-0.12746 -0.0338,-0.11195 -0.0194,0.0155 -0.0204,-0.0128 -10e-4,-0.0631 0.0183,-0.0502 0.0334,-0.63112 0.0332,-1.2909 -6e-4,-3.07827 -0.01,-4.21886 -0.0328,-4.23259 -0.0261,-0.0155 -0.0281,0.012 -0.0298,0.42659 -5.4e-4,0.13708 -0.004,0.55982 -0.007,0.93943 -0.003,0.37962 -0.008,0.91429 -0.01,1.18818 -0.01,1.617 -0.0395,3.12865 -0.0639,3.1845 -0.0266,0.0614 0.0758,0.16227 0.12177,0.12002 0.0122,-0.011 0.0226,-0.0831 0.0235,-0.1602 z m -0.42972,0.0554 c -0.0273,-0.0336 -0.0238,-0.63983 0.0167,-2.86394 0.04,-2.18716 0.0372,-2.78025 -0.0122,-2.89109 l -0.0526,-0.11696 -0.0427,0.15614 c -0.0234,0.0859 -0.0264,0.26431 -0.007,0.39653 0.0199,0.1322 0.0241,0.25209 0.01,0.2664 -0.0296,0.0291 -0.0332,0.1524 -0.0352,1.24333 -7.9e-4,0.42 -0.004,0.93967 -0.007,1.15482 -0.003,0.21516 -0.01,0.75151 -0.0122,1.19189 -0.005,0.69521 -0.0238,1.47171 -0.0344,1.52581 -0.005,0.0305 0.14181,0.0319 0.17472,0.001 0.0174,-0.016 0.0186,-0.045 0.003,-0.0646 z m 1.381,-6.0387 c -0.0841,0.007 -0.0447,0.0767 0.0481,0.085 0.0701,0.006 0.0788,-0.001 0.0444,-0.0406 -0.0234,-0.0266 -0.065,-0.0467 -0.0926,-0.0444 z m -0.62847,-0.33856 c -0.0701,-0.01 -0.15989,-0.009 -0.19929,0.001 -0.0394,0.0103 0.0109,0.0246 0.11212,0.0317 0.21409,0.0151 0.27354,-0.007 0.0871,-0.0329 z m -0.83293,-0.18996 c -0.0217,0.001 -0.0522,-0.10549 -0.0675,-0.23834 l -0.028,-0.24155 -0.25179,0.0204 c -0.25832,0.021 -0.37021,0.0702 -0.28019,0.12329 0.028,0.0165 0.0122,0.0464 -0.0336,0.0663 -0.0465,0.02 -0.0569,0.0389 -0.0234,0.0418 0.0337,0.003 0.034,0.0706 5.4e-4,0.15011 -0.0333,0.0795 -0.0651,0.16147 -0.0707,0.18209 -0.005,0.0206 -0.0304,0.0183 -0.0556,-0.005 -0.0251,-0.0234 -0.0758,-0.0291 -0.1128,-0.0127 -0.0446,0.0198 -0.0326,0.038 0.0356,0.0539 0.0968,0.0227 0.0919,0.0271 -0.0826,0.0762 -0.18386,0.0518 -0.18393,0.0519 -0.01,0.0167 0.0964,-0.0195 0.35364,-0.0541 0.57156,-0.0768 0.21792,-0.0227 0.4078,-0.0681 0.42195,-0.10066 0.0141,-0.0326 0.008,-0.0578 -0.0139,-0.0561 z"
         style="fill:#000000;fill-opacity:1;stroke-width:0.05051046" />
    </g>
  </g>
  <g
     inkscape:groupmode="layer"
     id="layer2"
     inkscape:label="Layer 2"
     style="display:inline">
    <path
       style="fill:none;stroke:none;stroke-width:0.26458332px;stroke-linecap:butt;stroke-linejoin:miter;stroke-opacity:1"
       d="M 32.042283,50.731602 C 35.571287,22.972707 76.216398,22.695413 79.832646,50.613485"
       id="path4574"
       inkscape:connector-curvature="0"
       sodipodi:nodetypes="cc" />
  </g>
  <g
     inkscape:groupmode="layer"
     id="layer3"
     inkscape:label="Layer 3"
     style="display:inline">
    <path
       style="fill:none;fill-opacity:0.33204633;stroke:none;stroke-width:0.80000001;stroke-miterlimit:4;stroke-dasharray:none;stroke-opacity:1"
       id="path4619"
       sodipodi:type="arc"
       sodipodi:cx="-56.369736"
       sodipodi:cy="52.34166"
       sodipodi:rx="38.123116"
       sodipodi:ry="39.462616"
       sodipodi:start="5.9823311"
       sodipodi:end="1.5142569"
       d="m -19.958969,40.64746 a 38.123116,39.462616 0 0 1 -5.09136,34.194229 38.123116,39.462616 0 0 1 -29.165096,16.899528"
       transform="scale(-1,1)"
       sodipodi:open="true" />
    <path
       style="fill:none;fill-opacity:0.33204633;stroke:none;stroke-width:0.80000001;stroke-miterlimit:4;stroke-dasharray:none;stroke-opacity:1"
       id="path4619-5"
       sodipodi:type="arc"
       sodipodi:cx="-57.175404"
       sodipodi:cy="52.926197"
       sodipodi:rx="38.123116"
       sodipodi:ry="39.462616"
       sodipodi:start="2.1370864"
       sodipodi:end="3.5327197"
       d="M -77.628644,86.228587 A 38.123116,39.462616 0 0 1 -92.419461,37.881841"
       transform="scale(-1,1)"
       sodipodi:open="true" />
  </g>
</svg>
