<?xml version="1.0" encoding="UTF-8" standalone="no"?>
<!-- Created with Inkscape (http://www.inkscape.org/) -->

<svg
   xmlns:dc="http://purl.org/dc/elements/1.1/"
   xmlns:cc="http://creativecommons.org/ns#"
   xmlns:rdf="http://www.w3.org/1999/02/22-rdf-syntax-ns#"
   xmlns:svg="http://www.w3.org/2000/svg"
   xmlns="http://www.w3.org/2000/svg"
   xmlns:xlink="http://www.w3.org/1999/xlink"
   xmlns:sodipodi="http://sodipodi.sourceforge.net/DTD/sodipodi-0.dtd"
   xmlns:inkscape="http://www.inkscape.org/namespaces/inkscape"
   width="210mm"
   height="297mm"
   viewBox="0 0 210 297"
   version="1.1"
   id="svg8"
   sodipodi:docname="µc3skunks.svg"
   inkscape:export-filename="/home/kili/Daten/ccc/mc3-skunk/µc3skunks.png"
   inkscape:export-xdpi="96"
   inkscape:export-ydpi="96"
   inkscape:version="0.92.2 5c3e80d, 2017-08-06">
  <defs
     id="defs2" />
  <sodipodi:namedview
     id="base"
     pagecolor="#ffffff"
     bordercolor="#666666"
     borderopacity="1.0"
     inkscape:pageopacity="0.0"
     inkscape:pageshadow="2"
     inkscape:zoom="1.4"
     inkscape:cx="180.09739"
     inkscape:cy="943.40163"
     inkscape:document-units="mm"
     inkscape:current-layer="layer1"
     showgrid="false"
     inkscape:window-width="1366"
     inkscape:window-height="707"
     inkscape:window-x="0"
     inkscape:window-y="26"
     inkscape:window-maximized="1"
     inkscape:snap-global="false" />
  <metadata
     id="metadata5">
    <rdf:RDF>
      <cc:Work
         rdf:about="">
        <dc:format>image/svg+xml</dc:format>
        <dc:type
           rdf:resource="http://purl.org/dc/dcmitype/StillImage" />
      </cc:Work>
    </rdf:RDF>
  </metadata>
  <g
     inkscape:label="Layer 1"
     inkscape:groupmode="layer"
     id="layer1"
     style="display:inline">
    <path
       style="fill:#000000;stroke-width:0.26458332"
       d="m 55.905981,96.49873 c -0.531183,-1.70987 -0.995963,-3.1429 -1.032846,-3.1845 -0.05396,-0.0609 -2.742522,-0.38876 -5.497351,-0.67042 -0.330367,-0.0338 -0.954836,0.76226 -2.141958,2.73044 -1.946185,3.22668 -1.639327,3.12974 -5.679305,1.79416 l -2.466748,-0.81548 0.142677,-1.21694 c 0.07847,-0.66932 0.217958,-2.19158 0.30997,-3.38281 l 0.167296,-2.16586 -1.547392,-0.79817 c -0.851067,-0.439 -2.024711,-1.09111 -2.608101,-1.44913 l -1.060707,-0.65095 -2.643458,1.95036 c -1.453903,1.0727 -2.728236,1.9553 -2.831853,1.96134 -0.214549,0.0125 -4.970981,-3.90388 -4.970981,-4.09304 0,-0.0679 0.672224,-1.47394 1.493831,-3.12451 l 1.493832,-3.00103 -1.653429,-2.09511 c -0.909386,-1.15232 -1.742596,-2.19062 -1.851576,-2.30734 -0.108981,-0.11672 -1.663236,0.15765 -3.453899,0.60973 -2.602456,0.65701 -3.300338,0.75269 -3.477948,0.4768 -0.700999,-1.08889 -2.604978,-4.99064 -2.604978,-5.33828 0,-0.22614 1.118513,-1.36788 2.485583,-2.53721 l 2.485583,-2.12605 -0.592633,-1.918676 c -0.325948,-1.055272 -0.704545,-2.335395 -0.841326,-2.844718 l -0.248692,-0.926042 -3.347413,-0.504322 -3.347412,-0.50432 -0.168509,-1.612347 c -0.09268,-0.886788 -0.189463,-2.37794 -0.215074,-3.313668 l -0.04657,-1.701321 3.202161,-1.008756 3.202161,-1.008756 0.167625,-1.982988 c 0.09219,-1.090644 0.237357,-2.430955 0.322586,-2.978465 L 17.204089,45.764877 14.3408,44.070195 c -1.574809,-0.932075 -2.897256,-1.720104 -2.938771,-1.751174 -0.04151,-0.03107 0.37143,-1.453806 0.917654,-3.161634 l 0.993135,-3.105136 2.786513,0.172082 c 1.532582,0.09465 3.089241,0.230198 3.459241,0.301223 0.574281,0.110239 0.737414,-0.01738 1.11475,-0.872022 0.243112,-0.550635 0.867518,-1.707496 1.387569,-2.570803 0.520051,-0.863303 0.893094,-1.696741 0.828983,-1.852082 -0.06411,-0.155341 -0.957355,-1.4077 -1.984988,-2.783019 l -1.868424,-2.500581 0.69821,-0.939003 c 0.384016,-0.516451 1.332098,-1.67134 2.10685,-2.56642 l 1.408641,-1.627418 3.036949,1.576032 3.03695,1.576032 2.189224,-1.77518 c 1.204074,-0.976349 2.229974,-1.879146 2.27978,-2.006217 0.0498,-0.12707 -0.242807,-1.597861 -0.65025,-3.268422 -0.647992,-2.656837 -0.692486,-3.084296 -0.355139,-3.41181 0.212117,-0.205934 1.509482,-0.934728 2.883035,-1.619543 l 2.497365,-1.245119 0.809926,0.903296 c 0.445458,0.496813 1.465207,1.65589 2.266109,2.575727 l 1.456182,1.672431 2.261637,-0.689841 c 1.243899,-0.379413 2.456826,-0.689842 2.69539,-0.689842 0.630219,0 0.689496,-0.178427 1.189516,-3.580433 0.53566,-3.6445095 0.319498,-3.4601635 4.364003,-3.7216475 l 2.718708,-0.175769 1.040101,3.1947695 1.040101,3.194768 0.943255,0.133786 c 0.51879,0.07358 1.657631,0.206463 2.530756,0.295291 0.873125,0.08883 1.767594,0.213017 1.987711,0.275974 0.278027,0.07952 0.916575,-0.753239 2.091558,-2.727698 0.930238,-1.5631915 1.723604,-2.8829705 1.763032,-2.9328435 0.115713,-0.146358 4.902862,1.282988 5.730664,1.7110625 0.506952,0.262154 0.714605,0.539937 0.628509,0.840768 -0.07072,0.247095 -0.208404,1.704888 -0.305969,3.239539 l -0.177395,2.790275 2.590792,1.47493 2.590792,1.47493 2.398069,-1.76594 c 1.318938,-0.971267 2.551989,-1.858984 2.74011,-1.972705 0.367633,-0.222239 1.933895,0.916016 4.057872,2.948987 l 1.224913,1.172429 -1.526781,2.932777 -1.526778,2.932777 1.722808,2.135632 c 0.947547,1.174598 1.810017,2.231232 1.916611,2.348075 0.10658,0.116843 1.61028,-0.146879 3.34155,-0.586047 l 3.14777,-0.798489 0.42822,0.559955 c 0.23552,0.307975 0.94957,1.623562 1.58675,2.923526 l 1.15853,2.36357 -0.92529,0.79537 c -0.50891,0.437454 -1.65419,1.433187 -2.54507,2.212742 l -1.61979,1.41737 0.84203,2.850735 0.84203,2.850734 3.14357,0.47702 c 1.728961,0.262361 3.201851,0.535295 3.273071,0.60652 0.22814,0.228145 0.52376,2.841414 0.53756,4.752052 l 0.0134,1.852083 -3.115401,0.986629 -3.11539,0.986629 -0.32806,2.95026 c -0.18043,1.622644 -0.29388,2.98164 -0.25209,3.019994 0.0418,0.03835 1.29635,0.805058 2.78794,1.703792 1.491581,0.898737 2.711981,1.761826 2.711981,1.91798 0,0.398574 -1.03598,3.839729 -1.524931,5.065289 l -0.407,1.02016 -2.27518,-0.17188 c -1.25135,-0.0945 -2.76946,-0.23794 -3.37355,-0.31868 -0.91368,-0.12211 -1.12457,-0.0642 -1.25422,0.34428 -0.0857,0.27009 -0.69279,1.43326 -1.34904,2.58483 -0.65625,1.15156 -1.19318,2.17185 -1.19318,2.26731 0,0.0955 0.83344,1.2864 1.85209,2.64653 1.01865,1.36013 1.85208,2.58791 1.85208,2.72839 0,0.2947 -2.54863,3.45771 -3.51852,4.36671 l -0.65386,0.61281 -2.962969,-1.48599 -2.962963,-1.48598 -1.366988,1.14393 c -0.751843,0.62916 -1.801257,1.46532 -2.332032,1.85812 l -0.965041,0.7142 0.780359,3.08787 c 0.429199,1.69833 0.726194,3.22903 0.659993,3.40155 -0.0662,0.17252 -1.349195,0.94003 -2.851095,1.70558 l -2.730727,1.39191 -0.80068,-0.88975 c -0.44041,-0.48936 -1.405147,-1.59121 -2.143893,-2.44854 l -1.343176,-1.5588 -1.964115,0.70546 c -1.080265,0.388 -2.439297,0.79967 -3.020076,0.91482 l -1.05596,0.20937 -0.41546,2.95938 c -0.228502,1.62765 -0.480949,3.02486 -0.56099,3.1049 -0.178266,0.17827 -4.213839,0.65512 -5.56763,0.65789 l -0.983086,0.002 -0.965782,-3.10886 z m 10.075701,-5.39104 c 2.320544,-0.57203 4.822566,-1.64529 6.395525,-2.74339 l 1.012809,-0.70705 -0.926042,0.22048 c -0.509323,0.12127 -2.057135,0.21728 -3.439583,0.21337 -2.19701,-0.006 -2.680137,-0.095 -3.836459,-0.70474 -5.266594,-2.77733 -6.639372,-10.22581 -3.398628,-18.44045 1.295839,-3.284686 3.036797,-6.509833 5.514919,-10.216449 4.645155,-6.94793 5.550702,-9.242936 5.37768,-13.629116 -0.08865,-2.247324 -0.204708,-2.738628 -1.084561,-4.591352 -1.947326,-4.100518 -6.202865,-7.257042 -11.094609,-8.229375 -2.258303,-0.448884 -3.913759,-0.525224 -3.913759,-0.18048 0,0.123687 0.386953,0.735671 0.859896,1.359963 1.601708,2.11428 1.603399,2.121993 1.012195,4.61128 -0.498689,2.099755 -1.334754,7.453905 -1.821243,11.663246 l -0.214051,1.852084 -0.201395,-1.455209 c -1.026716,-7.418721 -1.538439,-10.68162 -1.879661,-11.985305 -0.619789,-2.367981 -0.537279,-2.829028 0.818049,-4.571052 1.177507,-1.513467 1.198234,-1.570797 0.600239,-1.660171 -0.89277,-0.13343 -4.278357,0.453493 -5.966777,1.034394 -3.248758,1.117738 -6.51292,3.799949 -7.97628,6.554232 -1.169734,2.20163 -1.70124,4.539467 -1.694411,7.452902 0.01021,4.357455 1.45246,7.719621 4.613508,10.755016 1.851515,1.777916 3.023891,2.465647 5.361787,3.14529 2.864794,0.832819 6.570884,0.117944 7.962506,-1.535903 0.752316,-0.894078 0.718351,-1.673138 -0.123783,-2.839403 -0.843987,-1.168826 -2.665931,-1.02916 -3.330141,0.255278 -0.620752,1.200404 -0.502314,1.994263 0.412363,2.763912 0.678599,0.571002 0.729229,0.684977 0.304279,0.684977 -0.812633,0 -2.482265,-1.367602 -4.041849,-3.310697 -0.793157,-0.988203 -1.83643,-2.284669 -2.318382,-2.881037 -1.04612,-1.294474 -2.430516,-4.036671 -2.430807,-4.814922 -2.25e-4,-0.600443 -1.13851,-2.294464 -2.115642,-3.148552 -0.813425,-0.710997 -1.847538,-2.970276 -1.850732,-4.043395 -0.0035,-1.183351 0.566045,-2.420842 1.532218,-3.329027 1.525056,-1.433525 4.15838,-1.091083 4.987047,0.648526 0.167275,0.351163 0.71623,1.531448 1.219896,2.622854 0.503663,1.091406 1.592844,2.922222 2.4204,4.068482 1.462437,2.025642 2.577351,3.981143 2.884715,5.059643 0.08294,0.291042 0.289904,1.064948 0.459909,1.719792 l 0.309097,1.190625 0.582573,-1.984375 c 0.70295,-2.394424 1.320528,-3.597013 2.921281,-5.688542 1.189241,-1.553848 3.582363,-5.95748 3.582363,-6.591977 0,-0.698783 1.540205,-1.802091 2.691868,-1.928286 2.109478,-0.231151 4.027583,1.74067 4.021296,4.133911 -0.0041,1.548296 -0.653881,2.892181 -2.234964,4.622138 -0.867866,0.949582 -1.317271,1.702798 -1.445763,2.423136 -0.447691,2.509769 -1.888326,4.522036 -7.001187,9.779191 -4.889916,5.027917 -6.574023,7.17601 -8.317836,10.609463 -1.279917,2.52008 -1.940767,4.55479 -2.31099,7.11539 -0.397351,2.74822 0.09561,5.5968 1.469046,8.48887 2.755021,5.80128 8.27831,7.97705 15.642071,6.16181 z M 55.108567,58.198968 c -0.647348,-0.987978 -0.112012,-1.502468 1.457232,-1.400479 1.005684,0.06536 1.227556,0.175305 1.294027,0.641221 0.196485,1.377238 -1.956956,1.971518 -2.751259,0.759258 z M 44.307243,83.13727 c -0.450961,-1.55528 -0.458163,-4.40269 -0.01722,-6.81302 0.252899,-1.38245 0.506838,-2.8112 0.564314,-3.175 0.08635,-0.54656 -0.10414,-0.79198 -1.096635,-1.41289 -4.173336,-2.61084 -7.736292,-7.69537 -9.170426,-13.086679 -0.645422,-2.426322 -0.76782,-7.49476 -0.240873,-9.974387 1.846401,-8.688517 8.798736,-15.636325 17.472225,-17.460849 2.46081,-0.517647 6.639777,-0.508301 9.213276,0.02061 6.810459,1.399686 13.193206,8.381544 15.764983,12.587712 2.571777,4.206168 1.86214,4.956312 1.874065,9.218157 0.01593,5.693632 -0.19209,6.346206 -4.807429,15.081246 -2.397461,4.53747 -3.071693,6.72709 -2.937256,9.53897 0.106635,2.23035 0.682617,3.89024 1.437196,4.14177 0.609835,0.20327 4.578262,-2.78478 7.257658,-5.46471 5.730611,-5.73174 8.7087,-12.016961 9.546707,-20.148205 C 90.525579,43.015632 83.415285,30.021529 71.473758,23.853971 66.270306,21.166494 61.163996,20.067525 55.022072,20.313273 46.76304,20.64373 39.940769,23.487368 33.864952,29.13192 c -5.213359,4.843315 -8.705005,11.362576 -9.97124,18.617332 -0.638452,3.657939 -0.403231,9.773971 0.511536,13.300602 2.444529,9.424206 8.480663,17.044866 16.916728,21.357476 1.425805,0.72889 2.719615,1.32526 2.875129,1.32526 0.167981,0 0.212688,-0.24165 0.110138,-0.59532 z m 8.529926,-31.119643 c 0.48622,-0.308295 -1.098965,-1.622541 -1.957038,-1.622541 -0.739402,0 -0.816589,0.425542 -0.22928,1.264044 0.422571,0.603305 1.517158,0.782788 2.186318,0.358497 z m 9.689928,-0.358497 c 0.583904,-0.833639 0.511069,-1.264044 -0.2139,-1.264044 -0.521226,0 -1.034325,0.282633 -2.276977,1.254244 -0.246161,0.192468 0.668202,0.589817 1.366398,0.593788 0.439692,0.0024 0.870339,-0.221152 1.124479,-0.583988 z"
       id="path4571"
       inkscape:connector-curvature="0"
       sodipodi:nodetypes="ccccccccccccscsccccccsccsscccscccccscscsccscccsccscccscsssccccsssscccccsccccccccscscccccsccccsccccsccccccccsccccccsssscccsccscscccccccscccccccccccssssssssscssssssssscccssccsscsccscccccsccscscsccsccsccscsssczsssccsssssscscssssssccs" />
    <text
       xml:space="preserve"
       style="font-style:normal;font-weight:normal;font-size:10.58333302px;line-height:6.61458302px;font-family:sans-serif;letter-spacing:0px;word-spacing:0px;fill:#000000;fill-opacity:1;stroke:none;stroke-width:0.26458332"
       id="text4582"><textPath
         xlink:href="#path4574"
         id="textPath4584"><tspan
   style="font-style:normal;font-variant:normal;font-weight:normal;font-stretch:normal;font-family:Impact;-inkscape-font-specification:Impact;stroke-width:0.26458332"
   id="tspan4580">µc³ skunkworks</tspan></textPath></text>
  </g>
  <g
     inkscape:groupmode="layer"
     id="layer2"
     inkscape:label="Layer 2"
     style="display:inline">
    <path
       style="fill:none;stroke:none;stroke-width:0.26458332px;stroke-linecap:butt;stroke-linejoin:miter;stroke-opacity:1"
       d="M 32.042283,50.731602 C 35.571287,22.972707 76.216398,22.695413 79.832646,50.613485"
       id="path4574"
       inkscape:connector-curvature="0"
       sodipodi:nodetypes="cc" />
    <text
       xml:space="preserve"
       style="font-style:normal;font-weight:normal;font-size:10.58333302px;line-height:6.61458302px;font-family:sans-serif;letter-spacing:0px;word-spacing:0px;fill:#ffffff;fill-opacity:1;stroke:none;stroke-width:0.26458332"
       id="text4591"><textPath
         xlink:href="#path4619"
         id="textPath4632"><tspan
   style="font-style:normal;font-variant:normal;font-weight:normal;font-stretch:normal;font-size:5.64444447px;font-family:Impact;-inkscape-font-specification:Impact;fill:#ffffff;fill-opacity:1;stroke-width:0.26458332"
   id="tspan4589">soldering where noone ever</tspan></textPath></text>
  </g>
  <g
     inkscape:groupmode="layer"
     id="layer3"
     inkscape:label="Layer 3"
     style="display:inline">
    <text
       xml:space="preserve"
       style="font-style:normal;font-weight:normal;font-size:10.58333302px;line-height:6.61458302px;font-family:sans-serif;letter-spacing:0px;word-spacing:0px;fill:#ffffff;fill-opacity:1;stroke:none;stroke-width:0.26458332;stroke-opacity:1"
       id="text4656"><textPath
         xlink:href="#path4619-5"
         id="textPath4658"
         style="font-style:normal;font-variant:normal;font-weight:normal;font-stretch:normal;font-size:5.64444447px;font-family:Impact;-inkscape-font-specification:Impact;fill:#ffffff;fill-opacity:1;stroke:none;stroke-width:0.26458332;stroke-opacity:1">dared to solder before</textPath></text>
    <path
       style="fill:none;fill-opacity:0.33204633;stroke:none;stroke-width:0.80000001;stroke-miterlimit:4;stroke-dasharray:none;stroke-opacity:1"
       id="path4619"
       sodipodi:type="arc"
       sodipodi:cx="-56.369736"
       sodipodi:cy="52.34166"
       sodipodi:rx="38.123116"
       sodipodi:ry="39.462616"
       sodipodi:start="5.9823311"
       sodipodi:end="1.5142569"
       d="m -19.958969,40.64746 a 38.123116,39.462616 0 0 1 -5.09136,34.194229 38.123116,39.462616 0 0 1 -29.165096,16.899528"
       transform="scale(-1,1)"
       sodipodi:open="true" />
    <path
       style="fill:none;fill-opacity:0.33204633;stroke:none;stroke-width:0.80000001;stroke-miterlimit:4;stroke-dasharray:none;stroke-opacity:1"
       id="path4619-5"
       sodipodi:type="arc"
       sodipodi:cx="-57.175404"
       sodipodi:cy="52.926197"
       sodipodi:rx="38.123116"
       sodipodi:ry="39.462616"
       sodipodi:start="2.1370864"
       sodipodi:end="3.5327197"
       d="M -77.628644,86.228587 A 38.123116,39.462616 0 0 1 -92.419461,37.881841"
       transform="scale(-1,1)"
       sodipodi:open="true" />
  </g>
</svg>
