<?xml version="1.0" encoding="UTF-8" standalone="no"?>
<!-- Created with Inkscape (http://www.inkscape.org/) -->

<svg
   xmlns:dc="http://purl.org/dc/elements/1.1/"
   xmlns:cc="http://creativecommons.org/ns#"
   xmlns:rdf="http://www.w3.org/1999/02/22-rdf-syntax-ns#"
   xmlns:svg="http://www.w3.org/2000/svg"
   xmlns="http://www.w3.org/2000/svg"
   xmlns:xlink="http://www.w3.org/1999/xlink"
   xmlns:sodipodi="http://sodipodi.sourceforge.net/DTD/sodipodi-0.dtd"
   xmlns:inkscape="http://www.inkscape.org/namespaces/inkscape"
   width="54mm"
   height="54mm"
   viewBox="0 0 54 54"
   version="1.1"
   id="svg8"
   sodipodi:docname="mc3skunk-final.svg"
   inkscape:export-filename="/home/andz/workspace/git/muccc/ci/aufkleber/png_export/mc3skunk-final.png"
   inkscape:export-xdpi="300.1138"
   inkscape:export-ydpi="300.1138"
   inkscape:version="0.92.2 (5c3e80d, 2017-08-06)">
  <defs
     id="defs2">
    <color-profile
       name="ISO-Coated-v2-300---ECI-"
       xlink:href="/home/andz/.local/share/color/icc/ISOcoated_v2_300_eci.icc"
       id="color-profile3706" />
  </defs>
  <sodipodi:namedview
     id="base"
     pagecolor="#ffffff"
     bordercolor="#666666"
     borderopacity="1.0"
     inkscape:pageopacity="0.0"
     inkscape:pageshadow="2"
     inkscape:zoom="1.4"
     inkscape:cx="-305.26307"
     inkscape:cy="108.27775"
     inkscape:document-units="mm"
     inkscape:current-layer="layer1"
     showgrid="false"
     inkscape:window-width="1920"
     inkscape:window-height="1019"
     inkscape:window-x="1920"
     inkscape:window-y="0"
     inkscape:window-maximized="1"
     inkscape:snap-global="false" />
  <metadata
     id="metadata5">
    <rdf:RDF>
      <cc:Work
         rdf:about="">
        <dc:format>image/svg+xml</dc:format>
        <dc:type
           rdf:resource="http://purl.org/dc/dcmitype/StillImage" />
        <dc:title></dc:title>
      </cc:Work>
    </rdf:RDF>
  </metadata>
  <g
     inkscape:label="Layer 1"
     inkscape:groupmode="layer"
     id="layer1"
     style="display:inline"
     transform="translate(0,-243)">
    <rect
       style="fill:#ffffff;fill-opacity:1;stroke:none;stroke-width:0.30000001;stroke-miterlimit:4;stroke-dasharray:none;stroke-opacity:1;paint-order:markers fill stroke"
       id="rect824"
       width="54"
       height="54"
       x="0"
       y="243" />
    <g
       id="g829"
       transform="matrix(0.38935761,0,0,0.38846093,5.0462998,249.30643)">
      <path
         id="path4571"
         transform="scale(0.26458333)"
         d="m 211.38672,26.207031 -10.27539,0.664063 c -15.28632,0.988286 -14.4696,0.291882 -16.49414,14.066406 -1.88984,12.857975 -2.11221,13.53125 -4.49414,13.53125 -0.90166,0 -5.48615,1.17342 -10.1875,2.607422 l -8.54883,2.607422 -5.50391,-6.320313 c -3.02703,-3.476549 -6.88083,-7.856656 -8.56445,-9.734375 l -3.06055,-3.414062 -9.43945,4.705078 c -5.19138,2.588277 -10.09479,5.34276 -10.89648,6.121094 -1.27502,1.237848 -1.10731,2.852942 1.34179,12.894531 1.53994,6.313931 2.64721,11.873252 2.45899,12.353515 -0.18825,0.480269 -4.06636,3.891894 -8.61719,7.582032 L 110.83203,90.582031 99.353516,84.625 87.875,78.667969 l -5.324219,6.15039 c -2.928196,3.38298 -6.511491,7.749231 -7.96289,9.701172 l -2.638672,3.548828 7.060547,9.451171 c 3.883967,5.19806 7.2616,9.93046 7.503906,10.51758 0.242309,0.58711 -1.169219,3.73712 -3.134766,7 -1.965547,3.26289 -4.325292,7.63566 -5.24414,9.7168 -1.426152,3.23014 -2.04238,3.71157 -4.212891,3.29492 -1.398425,-0.26844 -7.281783,-0.78094 -13.074219,-1.13867 l -10.53125,-0.65039 -3.753906,11.73632 c -2.064469,6.45479 -3.625638,11.83179 -3.46875,11.94922 0.156907,0.11743 5.155388,3.09634 11.107422,6.61914 l 10.822266,6.4043 -0.585938,3.76367 c -0.322125,2.06933 -0.870315,7.13374 -1.21875,11.25586 l -0.634766,7.4961 -12.101562,3.8125 -12.103516,3.8125 0.175782,6.42968 c 0.0968,3.53661 0.464166,9.17375 0.814453,12.52539 l 0.636718,6.09375 12.650391,1.90625 12.652344,1.9043 0.939453,3.5 c 0.516967,1.925 1.947758,6.76352 3.179687,10.75195 l 2.240235,7.25196 -9.394531,8.03515 c -5.166879,4.41952 -9.394532,8.73514 -9.394532,9.58985 0,1.31391 7.196258,16.06029 9.845703,20.17578 0.671282,1.04273 3.310431,0.6824 13.146485,-1.80078 6.76786,-1.70865 12.640837,-2.74584 13.052734,-2.30469 0.411893,0.44115 3.560998,4.36548 6.998047,8.7207 l 6.250005,7.91797 -5.646489,11.3418 c -3.105287,6.23837 -5.646485,11.55391 -5.646485,11.81054 0,0.71494 17.978164,15.516 18.789064,15.46875 0.39162,-0.0228 5.20806,-3.35781 10.70312,-7.41211 l 9.99024,-7.37109 4.00976,2.45899 c 2.20494,1.35314 6.64079,3.81735 9.85743,5.47656 l 5.84765,3.01758 -0.63281,8.18554 c -0.34776,4.50229 -0.87334,10.25545 -1.16992,12.78516 l -0.54102,4.59961 9.32422,3.08203 c 15.26921,5.04786 14.10918,5.41408 21.46484,-6.78125 4.48676,-7.43879 6.84708,-10.44611 8.09571,-10.31836 10.41195,1.06454 20.5734,2.30303 20.77734,2.5332 0.1394,0.15723 1.89668,5.57266 3.9043,12.03516 l 3.65039,11.75 3.71484,-0.006 c 5.11669,-0.0105 20.36921,-1.8145 21.04297,-2.48828 0.30252,-0.30251 1.25748,-5.58263 2.12109,-11.73438 l 1.57032,-11.18554 3.99023,-0.79102 c 2.19507,-0.43521 7.33117,-1.99057 11.41406,-3.45703 l 7.42383,-2.66602 5.07617,5.89063 c 2.79212,3.2403 6.43898,7.40436 8.10352,9.25391 l 3.02539,3.36328 10.32031,-5.25977 c 5.67648,-2.89342 10.52714,-5.79522 10.77735,-6.44726 0.25021,-0.65205 -0.87197,-6.43659 -2.49414,-12.85547 l -2.95118,-11.67188 3.64844,-2.69922 c 2.00608,-1.48459 5.97284,-4.64355 8.81446,-7.02148 l 5.16601,-4.32422 11.19922,5.61719 11.19727,5.61523 2.47265,-2.3164 c 3.66573,-3.43559 13.29688,-15.39008 13.29688,-16.50391 0,-0.53095 -3.14999,-5.17185 -7,-10.3125 -3.85002,-5.14065 -7,-9.64101 -7,-10.00195 0,-0.3608 2.02945,-4.21601 4.50976,-8.56836 2.48032,-4.35239 4.77571,-8.74872 5.09961,-9.76953 0.49002,-1.54387 1.28696,-1.76426 4.74024,-1.30274 2.28317,0.30516 8.02048,0.84791 12.75,1.20508 l 8.5996,0.65039 1.53711,-3.85547 c 1.84801,-4.63204 5.76368,-17.63811 5.76368,-19.14453 0,-0.59019 -4.61253,-3.8532 -10.25,-7.25 -5.63751,-3.39679 -10.37913,-6.29451 -10.53711,-6.43945 -0.15795,-0.14496 0.27118,-5.28124 0.95312,-11.41407 l 1.24024,-11.15039 11.77539,-3.72851 11.77343,-3.73047 -0.0508,-7 c -0.0522,-7.22131 -1.16899,-17.0967 -2.03125,-17.95898 -0.26917,-0.2692 -5.83643,-1.30137 -12.37109,-2.29297 l -11.88084,-1.8026 -3.18164,-10.77539 -3.18359,-10.77344 6.12304,-5.35742 c 3.36711,-2.94635 7.6957,-6.70991 9.61914,-8.36328 l 3.4961,-3.00586 -4.37696,-8.93359 c -2.40824,-4.91325 -5.10789,-9.88483 -5.99804,-11.04883 l -1.61914,-2.11719 -11.89649,3.01758 c -6.54338,1.65985 -12.22608,2.65841 -12.6289,2.2168 -0.40288,-0.44161 -3.66288,-4.43558 -7.24414,-8.875 l -6.51172,-8.072268 5.77148,-11.083984 5.76953,-11.083985 -4.6289,-4.431641 c -8.02763,-7.683668 -13.94843,-11.986442 -15.33789,-11.146484 -0.71101,0.429812 -5.37051,3.784148 -10.35547,7.455078 l -9.06446,6.675782 -9.79101,-5.574219 -9.79297,-5.576172 0.67187,-10.544922 c 0.36875,-5.800256 0.88897,-11.310238 1.15625,-12.244141 0.32541,-1.136999 -0.46091,-2.186916 -2.37695,-3.177734 -3.1287,-1.617919 -21.22086,-7.019961 -21.6582,-6.466797 -0.14902,0.188497 -3.14821,5.175859 -6.66406,11.083985 -4.44089,7.462521 -6.85349,10.611094 -7.9043,10.310546 -0.83194,-0.237947 -4.21367,-0.707233 -7.51367,-1.042968 -3.3,-0.335728 -7.60368,-0.83909 -9.56446,-1.117188 L 219.25,50.355469 215.31836,38.28125 Z m 0.8789,50.453125 c 21.31972,-0.271793 39.43367,3.973538 57.8711,13.496094 45.13333,23.31046 72.00666,72.42198 66.875,122.21484 -3.16727,30.73226 -14.42303,54.48713 -36.08203,76.15039 -10.12685,10.12887 -25.1248,21.42257 -27.42969,20.6543 -2.85195,-0.95066 -5.02861,-7.22463 -5.43164,-15.6543 -0.50811,-10.62757 2.04029,-18.90324 11.10156,-36.05273 17.4438,-33.01432 18.23013,-35.48076 18.16992,-57 -0.0451,-16.10776 2.63612,-18.94252 -7.08398,-34.83984 -9.7201,-15.89733 -33.84368,-42.28407 -59.58398,-47.57422 -9.72662,-1.99904 -25.52157,-2.03459 -34.82227,-0.0781 -32.78169,6.89584 -59.05859,33.1537 -66.03711,65.99219 -1.99161,9.37182 -1.52923,28.52887 0.91016,37.69922 5.42035,20.3766 18.88691,39.59319 34.66015,49.46094 3.75116,2.34674 4.4709,3.2741 4.14453,5.33984 -0.21723,1.37499 -1.17697,6.77499 -2.13281,12 -1.66655,9.10991 -1.63801,19.87178 0.0664,25.75 0.38759,1.33671 0.21887,2.25 -0.41602,2.25 -0.58777,0 -5.47832,-2.25295 -10.86719,-5.00781 -31.88434,-16.29963 -54.69833,-45.10166 -63.937496,-80.72071 -3.457387,-13.32899 -4.34664,-36.4462 -1.933593,-50.27148 4.78577,-27.41955 17.983469,-52.05784 37.687499,-70.36328 22.96372,-21.333742 48.74765,-32.081108 79.96289,-33.330079 1.45085,-0.05805 2.88729,-0.09712 4.30859,-0.115235 z m -3.18359,43.892574 c 0.68528,-0.0167 1.254,0.003 1.67578,0.0664 3.32646,-0.12465 1.18939,0.0215 4.46094,-0.0137 1.30289,-0.014 4.91781,-0.30009 13.45313,1.39648 18.48847,3.67496 34.57166,15.6055 41.93164,31.10352 3.32542,7.00242 3.76456,8.85774 4.0996,17.35156 0.65395,16.57769 -2.76772,25.25183 -20.32421,51.51172 -9.36613,14.00926 -15.94609,26.19872 -20.84375,38.61328 -12.24849,31.04746 -7.06149,59.20027 12.84375,69.69727 4.37035,2.30453 6.19634,2.64138 14.5,2.66406 5.225,0.0148 11.075,-0.3483 13,-0.80664 l 3.5,-0.83399 -3.82813,2.67188 c -5.94504,4.1503 -15.40131,8.20714 -24.17187,10.36914 -27.83154,6.86075 -48.70647,-1.36296 -59.11914,-23.28906 -5.19094,-10.93066 -7.05454,-21.69701 -5.55274,-32.08399 1.39927,-9.67786 3.89689,-17.36786 8.73438,-26.89258 6.59079,-12.97682 12.95592,-21.0945 31.4375,-40.09765 19.3242,-19.86956 24.76887,-27.4752 26.46093,-36.96094 0.48564,-2.72254 2.18472,-5.56923 5.46485,-9.1582 5.97574,-6.53842 8.43177,-11.61888 8.44726,-17.47071 0.0238,-9.04531 -7.22639,-16.49668 -15.19922,-15.62304 -4.35274,0.47696 -10.17382,4.64604 -10.17382,7.28711 0,2.3981 -9.0443,19.04125 -13.53907,24.91406 -6.05009,7.90499 -8.38419,12.45021 -11.04101,21.5 l -2.20117,7.5 -1.16797,-4.5 c -0.64254,-2.475 -1.42481,-5.4 -1.73828,-6.5 -1.16169,-4.07622 -5.37698,-11.46708 -10.9043,-19.12305 -3.12777,-4.33232 -7.24288,-11.25195 -9.14649,-15.37695 -1.9036,-4.125 -3.9791,-8.58488 -4.61132,-9.91211 -3.13197,-6.5749 -13.08562,-7.86922 -18.84961,-2.45117 -3.65168,3.43251 -5.80425,8.10952 -5.79102,12.58203 0.0121,4.05588 3.92173,12.59402 6.9961,15.28125 3.69309,3.22805 7.99524,9.631 7.99609,11.90039 10e-4,2.94142 5.23366,13.30672 9.1875,18.19922 1.82155,2.25399 5.76396,7.15373 8.76172,10.88867 5.89449,7.34398 12.20402,12.51172 15.27539,12.51172 1.60611,0 1.41634,-0.42977 -1.14844,-2.58789 -3.45705,-2.90891 -3.90474,-5.91031 -1.55859,-10.44727 2.5104,-4.85457 9.39606,-5.38245 12.58594,-0.96484 3.18285,4.40793 3.31019,7.35323 0.46679,10.73242 -5.25967,6.25076 -19.26618,8.95235 -30.09375,5.80469 -8.83614,-2.56873 -13.26777,-5.16704 -20.26562,-11.88672 -11.94727,-11.47236 -17.39696,-24.18127 -17.43555,-40.65039 -0.0258,-11.01141 1.98325,-19.84685 6.4043,-28.16797 5.53081,-10.40989 17.86771,-20.54696 30.14648,-24.77148 5.58375,-1.92109 16.07805,-3.8598 20.875,-3.97657 z M 77.169922,154.90625 c 0.559575,-0.0177 1.257893,0.0837 2.09375,0.30469 l 0.644531,0.16992 -0.953125,3.60547 -0.845703,-0.22266 c -0.718367,-0.18995 -1.19763,-0.2707 -1.435547,-0.24023 -0.239692,0.0372 -0.393835,0.19043 -0.464844,0.45898 -0.07633,0.28869 -0.06003,0.50875 0.05078,0.66016 0.117522,0.15319 0.407848,0.29157 0.871093,0.41406 0.637803,0.16865 1.057629,0.19885 1.257813,0.0937 0.201959,-0.11181 0.886122,-0.77445 2.054687,-1.98828 0.987362,-1.01752 1.787347,-1.58508 2.400391,-1.70313 0.619758,-0.11626 1.306658,-0.0738 2.058594,0.125 1.067479,0.28227 1.815172,0.62981 2.24414,1.04493 0.435683,0.41689 0.703042,0.99803 0.800782,1.74218 0.09596,0.75087 0.02517,1.57192 -0.210938,2.46485 -0.23433,0.88621 -0.547866,1.60871 -0.939453,2.16601 -0.386649,0.5658 -0.807432,0.96398 -1.263672,1.19532 -0.458015,0.23804 -0.854203,0.34833 -1.1875,0.33203 -0.335072,-0.01 -0.838396,-0.10178 -1.509765,-0.2793 l -0.775391,-0.20508 0.955078,-3.60547 0.724609,0.19141 c 0.617662,0.16332 1.01661,0.23046 1.197266,0.19922 0.185595,-0.0228 0.316065,-0.17701 0.390625,-0.45899 0.06036,-0.22826 0.02853,-0.41926 -0.0957,-0.57421 -0.117523,-0.15319 -0.328743,-0.26973 -0.63086,-0.34961 -0.409535,-0.10829 -0.718835,-0.16044 -0.927734,-0.15821 -0.203961,0.0107 -0.45694,0.12604 -0.759766,0.34766 -0.304599,0.22833 -0.792169,0.72723 -1.46289,1.49805 -0.889819,1.02894 -1.638215,1.66214 -2.246094,1.89648 -0.607879,0.23434 -1.399559,0.22225 -2.373047,-0.0352 -1.08762,-0.28758 -1.87279,-0.64685 -2.355469,-1.07617 -0.475963,-0.42754 -0.775974,-1.01327 -0.902343,-1.75781 -0.121431,-0.73605 -0.05926,-1.5707 0.1875,-2.50391 0.273385,-1.03391 0.668014,-1.87795 1.185547,-2.53125 0.515757,-0.64658 1.085676,-1.03437 1.708984,-1.16406 0.155827,-0.0324 0.327147,-0.0507 0.513672,-0.0566 z m 273.904298,1.54883 c 0.46967,-0.0181 1.00573,0.0964 1.61133,0.34375 0.6056,0.24738 1.11609,0.63046 1.52929,1.15234 0.4047,0.51697 0.72541,1.21815 0.96289,2.10352 0.23029,0.85854 0.31014,1.65111 0.23829,2.375 -0.0719,0.72388 -0.2732,1.3265 -0.60352,1.81054 -0.33882,0.47914 -0.74788,0.85929 -1.22656,1.13868 -0.48539,0.28118 -1.22411,0.55404 -2.2168,0.82031 l -3.89453,1.04492 c -1.16708,0.31305 -2.12752,0.40291 -2.88281,0.26758 -0.762,-0.13353 -1.41685,-0.51244 -1.96485,-1.13477 -0.5547,-0.62053 -0.95695,-1.3958 -1.20703,-2.32812 -0.30585,-1.14025 -0.33963,-2.13939 -0.10156,-2.99414 0.22956,-0.85966 0.66226,-1.5319 1.30078,-2.01953 0.63002,-0.49254 1.59416,-0.91254 2.88867,-1.25977 l 1.76953,-0.47656 1.41211,5.26367 2.88672,-0.77539 c 0.60366,-0.16192 0.98181,-0.30939 1.13281,-0.44336 0.15101,-0.13397 0.19353,-0.32605 0.12696,-0.57422 -0.0828,-0.30854 -0.25278,-0.48204 -0.50782,-0.52148 -0.26354,-0.0444 -0.72659,0.023 -1.39062,0.20117 l -1.76172,0.47266 -1.0332,-3.85352 0.98633,-0.26563 c 0.825,-0.22129 1.47384,-0.33623 1.94531,-0.34765 z m -4.87695,5.50195 -0.97657,0.26172 c -0.69085,0.18531 -1.12716,0.34295 -1.30859,0.4707 -0.18143,0.12776 -0.24086,0.30516 -0.17969,0.53321 0.0756,0.2817 0.20996,0.43283 0.40235,0.45312 0.18567,0.0221 0.65307,-0.068 1.40429,-0.26953 l 0.97656,-0.26172 z m -271.150395,2.66602 c 0.608519,-0.0384 1.488196,0.0534 2.640625,0.27539 l 3.478516,0.66992 c 1.261535,0.24298 2.220302,0.56916 2.876953,0.97852 0.65665,0.40934 1.13082,1.0108 1.423828,1.80273 0.293008,0.79193 0.333867,1.73905 0.121094,2.84375 -0.178625,0.9274 -0.471922,1.69513 -0.878907,2.30273 -0.401479,0.61574 -0.85824,1.06185 -1.371093,1.33789 -0.512854,0.27604 -1.016246,0.43372 -1.511719,0.47266 -0.496787,0.0458 -1.226006,-0.0238 -2.1875,-0.20898 l -3.324219,-0.64063 c -1.22062,-0.2351 -2.105133,-0.47005 -2.654297,-0.70312 -0.542344,-0.23176 -1.025009,-0.59555 -1.445312,-1.09375 -0.413484,-0.4969 -0.678401,-1.08548 -0.794922,-1.76563 -0.111015,-0.67201 -0.0873,-1.41803 0.07031,-2.23633 0.175999,-0.91376 0.424239,-1.66758 0.744141,-2.26367 0.326721,-0.59477 0.724687,-1.03149 1.195313,-1.30859 0.476129,-0.26897 1.015487,-0.4232 1.617187,-0.46289 z M 347.3457,167.5332 c 0.15432,0.75523 0.37008,1.28947 0.64649,1.60157 0.2764,0.31209 0.60614,0.47194 0.99023,0.47851 0.37729,0.008 1.22201,-0.12231 2.53516,-0.39062 l 5.34961,-1.09375 0.84179,4.12304 -13.54296,2.76758 -0.84375,-4.12305 1.81054,-0.19921 c -1.39466,-0.33878 -2.24573,-1.0685 -2.55273,-2.18946 z m -272.583981,1.11914 c -0.213628,-0.0199 -0.373711,-0.0199 -0.480469,0.002 -0.206696,0.0451 -0.332937,0.18711 -0.378906,0.42578 -0.04728,0.24549 0.009,0.42404 0.171875,0.5332 0.161536,0.11598 0.536603,0.22884 1.123047,0.3418 l 6.259765,1.20703 c 0.695549,0.13397 1.138334,0.17953 1.330078,0.13867 0.198564,-0.0395 0.321858,-0.18225 0.369141,-0.42773 0.04728,-0.24549 -0.01329,-0.42568 -0.181641,-0.54297 -0.161535,-0.11598 -0.589607,-0.24103 -1.285156,-0.375 L 75.5625,168.77539 c -0.320498,-0.0617 -0.587153,-0.10312 -0.800781,-0.12305 z m 280.447261,5.55469 c 0.58824,0.0427 1.16315,0.23007 1.72266,0.56445 0.55263,0.33537 0.99474,0.80686 1.32617,1.41211 0.32358,0.59936 0.54301,1.30971 0.66016,2.13477 0.13082,0.92131 0.1418,1.71703 0.0332,2.38476 -0.11547,0.66871 -0.35019,1.20988 -0.70508,1.625 -0.36274,0.40923 -0.82089,0.73158 -1.37695,0.96485 -0.56294,0.23424 -1.42593,0.43267 -2.58789,0.59765 l -3.50586,0.49805 c -1.27196,0.18061 -2.28496,0.18521 -3.03906,0.0117 -0.7541,-0.17349 -1.39891,-0.58669 -1.9336,-1.24023 -0.53468,-0.65355 -0.8809,-1.53852 -1.03906,-2.65235 -0.13277,-0.93506 -0.10712,-1.75594 0.0801,-2.46289 0.17935,-0.71285 0.46812,-1.28308 0.86328,-1.71094 0.39517,-0.42785 0.81953,-0.74145 1.27539,-0.93945 0.45488,-0.20487 1.16728,-0.37602 2.13672,-0.51367 l 3.35156,-0.47461 c 1.23071,-0.17475 2.14317,-0.24097 2.73828,-0.19922 z m -284.533199,0.58399 16.708985,2.2832 -0.585938,4.29492 -16.708984,-2.28516 z m 285.052739,3.43359 c -0.19545,0.007 -0.44069,0.0322 -0.73633,0.0742 l -6.3125,0.89648 c -0.7013,0.0996 -1.13667,0.19977 -1.30469,0.30078 -0.1749,0.10199 -0.24413,0.27592 -0.20898,0.52344 0.0351,0.24752 0.15225,0.39893 0.3496,0.45508 0.19048,0.0571 0.63464,0.0371 1.33594,-0.0625 l 6.17774,-0.87695 c 0.64629,-0.0918 1.06428,-0.19387 1.25195,-0.30469 0.1808,-0.10984 0.25487,-0.28475 0.2207,-0.52539 -0.0351,-0.24752 -0.14839,-0.39702 -0.33789,-0.44727 -0.0952,-0.0286 -0.2401,-0.0399 -0.43554,-0.0332 z m -283.525395,2.45898 c 0.369518,-0.003 0.80766,0.0173 1.316406,0.0586 l 6.447266,0.52148 c 1.059022,0.0859 1.805958,0.21342 2.238281,0.38086 0.431761,0.17437 0.792994,0.51783 1.085938,1.0293 0.299864,0.51203 0.423598,1.10398 0.36914,1.77539 -0.04211,0.51913 -0.17479,0.98445 -0.396484,1.39844 -0.222256,0.42091 -0.535095,0.79254 -0.9375,1.11523 l 3.904297,0.31641 -0.339844,4.19531 -16.810547,-1.36328 0.341797,-4.19531 0.996094,0.082 c -0.382741,-0.43515 -0.660312,-0.88392 -0.832031,-1.34375 -0.171721,-0.45984 -0.238518,-0.9315 -0.199219,-1.41602 0.05277,-0.65064 0.268582,-1.2003 0.646484,-1.65039 0.384823,-0.44953 0.808392,-0.72618 1.269531,-0.82812 0.23029,-0.0475 0.530873,-0.073 0.900391,-0.0762 z m 275.917965,4.13282 0.0859,0.99609 11.25977,-0.96484 0.35937,4.19336 -11.26172,0.96484 0.0742,0.86133 -2.17969,0.18554 -0.0742,-0.86132 c -0.90641,0.0776 -1.51445,0.0987 -1.82422,0.0625 -0.30977,-0.0362 -0.59168,-0.16664 -0.84766,-0.38868 -0.26349,-0.22836 -0.47623,-0.55806 -0.63867,-0.99023 -0.16244,-0.43217 -0.28335,-1.11474 -0.36328,-2.04883 l -0.13282,-1.53711 2.12891,-0.18164 c 0.074,0.8649 0.15921,1.37336 0.25586,1.52539 0.0891,0.14571 0.31973,0.20385 0.69336,0.17188 l 0.43555,-0.0391 -0.15039,-1.76367 z m -275.736324,0.0859 c -0.18684,0.006 -0.326571,0.0263 -0.419922,0.0605 -0.17978,0.069 -0.27974,0.22169 -0.298828,0.45703 -0.0219,0.26995 0.06154,0.4568 0.248046,0.5625 0.193432,0.10627 0.673097,0.19159 1.441407,0.25391 l 6.375,0.51758 c 0.505285,0.041 0.848955,0.0232 1.029297,-0.0527 0.179779,-0.069 0.280008,-0.23218 0.300781,-0.48828 0.02021,-0.24918 -0.04537,-0.42445 -0.197266,-0.52734 -0.14554,-0.0954 -0.489403,-0.1652 -1.029297,-0.20899 l -6.748046,-0.54883 c -0.28033,-0.0227 -0.514332,-0.0311 -0.701172,-0.0254 z m 119.917964,5.56641 c 3.24311,0 9.23417,4.9676 7.39649,6.13281 -2.52911,1.60362 -6.66655,0.92669 -8.26367,-1.35351 -2.21975,-3.16914 -1.92741,-4.7793 0.86718,-4.7793 z m 43.21094,0 c 2.74004,0 3.01548,1.62854 0.8086,4.7793 -0.96053,1.37135 -2.58818,2.2161 -4.25,2.20703 -2.63886,-0.015 -6.09444,-1.5167 -5.16407,-2.24414 4.69664,-3.67223 6.63548,-4.74219 8.60547,-4.74219 z m 119.72656,0.25 c 0.85379,-0.0254 1.51122,0.01 1.97266,0.10742 0.46123,0.0905 0.95784,0.32689 1.49023,0.70703 0.5324,0.38015 0.94069,0.87163 1.22266,1.47461 0.27483,0.59625 0.42582,1.35327 0.45313,2.26953 0.0265,0.8885 -0.0799,1.67538 -0.31641,2.36328 -0.23656,0.68791 -0.57103,1.22999 -1.00391,1.625 -0.44002,0.38828 -0.92493,0.66253 -1.45507,0.82422 -0.53709,0.16191 -1.31839,0.25846 -2.34571,0.28907 L 351.22852,200.5 c -1.2078,0.036 -2.16529,-0.0987 -2.86914,-0.4043 -0.7108,-0.30535 -1.26037,-0.82487 -1.6504,-1.55664 -0.39696,-0.73155 -0.60992,-1.58007 -0.63867,-2.54492 -0.0352,-1.18003 0.16141,-2.15855 0.58985,-2.93555 0.42129,-0.78372 0.99879,-1.33846 1.73242,-1.66601 0.72648,-0.33429 1.75992,-0.52258 3.09961,-0.5625 l 1.83203,-0.0547 0.16211,5.44727 2.98828,-0.0898 c 0.62472,-0.0186 1.02729,-0.0763 1.20508,-0.17187 0.17778,-0.0956 0.26156,-0.27052 0.2539,-0.52735 -0.01,-0.3193 -0.13393,-0.52791 -0.37304,-0.625 -0.24626,-0.10382 -0.7132,-0.14547 -1.40039,-0.125 l -1.82227,0.0547 -0.11719,-3.98828 z m -281.203121,0.82813 4.03125,0.0391 c 1.208278,0.0116 2.15834,0.18452 2.84961,0.51758 0.698214,0.33312 1.227005,0.87257 1.58789,1.61914 0.36783,0.74663 0.546402,1.60312 0.53711,2.56836 -0.01136,1.1805 -0.246357,2.15064 -0.705078,2.91015 -0.451845,0.76652 -1.04896,1.29927 -1.794922,1.59766 -0.739086,0.3054 -1.778925,0.4504 -3.119141,0.4375 l -1.833984,-0.0176 0.05273,-5.44727 -2.990234,-0.0293 c -0.624971,-0.006 -1.027568,0.0365 -1.208985,0.125 -0.181416,0.0885 -0.272917,0.26064 -0.27539,0.51758 -0.0031,0.31943 0.112559,0.53223 0.347656,0.63867 0.241975,0.11344 0.707063,0.17308 1.394531,0.17968 l 1.822266,0.0176 -0.03906,3.99024 -1.019531,-0.01 c -0.854127,-0.008 -1.509554,-0.07 -1.966797,-0.18555 -0.457309,-0.10856 -0.945892,-0.36284 -1.46289,-0.76367 -0.516999,-0.40083 -0.904116,-0.90981 -1.16211,-1.52343 -0.251116,-0.60662 -0.372106,-1.36658 -0.363281,-2.28321 0.0086,-0.88885 0.144719,-1.67351 0.408203,-2.35156 0.263484,-0.67805 0.618306,-1.20634 1.066406,-1.58398 0.454978,-0.37064 0.95218,-0.62495 1.488282,-0.76563 0.543045,-0.14061 1.327738,-0.20716 2.355468,-0.19726 z m 277.164061,3.51367 -1.00976,0.0293 c -0.71496,0.0213 -1.1749,0.0737 -1.38086,0.15625 -0.20597,0.0826 -0.30586,0.24251 -0.29883,0.47852 0.009,0.29154 0.10456,0.46917 0.28711,0.5332 0.1756,0.0642 0.65225,0.0837 1.42969,0.0606 l 1.00976,-0.0293 z m -273.308592,0.73242 -0.01172,1.22851 1.009766,0.01 c 0.715245,0.007 1.17766,-0.0252 1.386719,-0.0996 0.209059,-0.0744 0.314133,-0.2307 0.316406,-0.4668 0.0028,-0.29165 -0.08575,-0.47374 -0.265625,-0.54492 -0.172935,-0.0711 -0.64804,-0.1097 -1.425781,-0.11719 z m 271.039062,5.24609 c 0.33355,0.002 0.7537,0.0139 1.26367,0.0352 l 6.22461,0.25976 c 1.01301,0.0422 1.76599,0.14315 2.25977,0.30274 0.48713,0.15236 0.90504,0.4851 1.25195,1 0.33997,0.5146 0.49543,1.11583 0.4668,1.80273 -0.0205,0.49263 -0.14784,0.94988 -0.38086,1.3711 -0.23274,0.41427 -0.57069,0.78907 -1.01563,1.125 l 1.0293,0.31445 -0.16406,3.93359 -16.84961,-0.70312 0.17383,-4.20313 3.98632,0.16602 c -0.38796,-0.3637 -0.66907,-0.76202 -0.8457,-1.19336 -0.18328,-0.43857 -0.26496,-0.90668 -0.24414,-1.40625 0.024,-0.57589 0.13399,-1.07256 0.33203,-1.48828 0.19804,-0.41573 0.46542,-0.72711 0.80078,-0.93555 0.33536,-0.20843 0.66065,-0.32685 0.97461,-0.35547 0.15713,-0.0178 0.40278,-0.0271 0.73633,-0.0254 z m -266.121093,0.80469 0.210937,4.20313 -1.818359,-0.0742 c 1.327763,0.54488 2.058613,1.39443 2.193359,2.54882 l -4.857422,0.24414 c -0.03885,-0.76984 -0.172167,-1.32953 -0.398437,-1.67968 -0.22627,-0.35015 -0.527526,-0.55677 -0.90625,-0.6211 -0.371788,-0.0647 -1.227832,-0.0636 -2.566406,0.004 l -5.451172,0.27539 -0.212891,-4.20312 z m 266.511723,3.43945 c -0.23338,0.0129 -0.40425,0.0395 -0.51368,0.0801 -0.22579,0.081 -0.34447,0.25392 -0.35547,0.51758 -0.0107,0.25672 0.0784,0.4273 0.26954,0.51172 0.18415,0.0841 0.66147,0.14172 1.43164,0.17383 l 5.95312,0.24804 c 0.74241,0.031 1.22002,0.0101 1.43164,-0.0644 0.21191,-0.0815 0.32329,-0.25109 0.33399,-0.50781 0.011,-0.26366 -0.0889,-0.43815 -0.30078,-0.52344 -0.21162,-0.0922 -0.72815,-0.15533 -1.54688,-0.18945 l -5.81641,-0.24219 c -0.35732,-0.0149 -0.65334,-0.0168 -0.88671,-0.004 z m -263.091801,3.28711 0.408203,4.31446 -2.189453,0.20703 -0.40625,-4.31446 z m -3.027344,0.28516 0.40625,4.31445 -13.761719,1.29883 -0.40625,-4.31445 z m 0.423828,5.05859 0.634766,4.23242 -1.267578,0.11719 c 0.546717,0.22684 0.976833,0.5381 1.289062,0.9336 0.320128,0.40133 0.523735,0.88704 0.609375,1.45703 0.107308,0.7142 0.02621,1.32432 -0.242187,1.82812 -0.268402,0.50381 -0.651037,0.85854 -1.146485,1.06641 -0.48858,0.20683 -1.330469,0.40054 -2.52539,0.58008 l -9.578125,1.43945 -0.626953,-4.16211 9.466796,-1.42187 c 0.940829,-0.14136 1.510297,-0.25881 1.707032,-0.35157 0.196734,-0.0928 0.274725,-0.27898 0.232422,-0.56054 -0.04437,-0.2953 -0.193605,-0.46448 -0.445313,-0.50391 -0.24484,-0.0405 -0.882005,0.0171 -1.912109,0.17187 l -9.240235,1.38868 -0.625,-4.16211 z m 261.837887,0.15235 4.82422,0.61523 c -0.0974,0.76466 -0.0654,1.33813 0.0957,1.72266 0.16105,0.38453 0.42368,0.64145 0.78515,0.77148 0.35459,0.12915 1.19585,0.278 2.52539,0.44727 l 5.41407,0.68945 -0.53126,4.17578 -13.71289,-1.74609 0.53321,-4.17383 1.77539,0.39258 c -1.21103,-0.77023 -1.77968,-1.73445 -1.70899,-2.89453 z m -132.73828,0.56054 c -5.10032,-0.0903 -6.73516,1.83718 -4.4414,5.33789 3.00209,4.58177 11.14105,2.33617 10.39843,-2.86914 -0.25123,-1.76094 -1.08961,-2.17681 -4.89062,-2.42382 -0.37069,-0.0241 -0.72639,-0.0389 -1.06641,-0.0449 z m 135.56055,7.44532 c 0.52458,0.0196 1.1169,0.0924 1.77539,0.21679 l 1.80078,0.33985 -1.01172,5.35351 2.9375,0.55469 c 0.61414,0.11603 1.01872,0.14699 1.21289,0.0918 0.19418,-0.0552 0.31558,-0.20846 0.36328,-0.46094 0.0593,-0.31389 -0.0178,-0.54522 -0.23046,-0.69141 -0.21821,-0.1543 -0.6643,-0.29424 -1.33985,-0.42187 l -1.79297,-0.33789 0.74219,-3.92188 1.00195,0.18946 c 0.83932,0.15857 1.47456,0.33502 1.9043,0.52929 0.43103,0.18745 0.86639,0.52412 1.30469,1.00977 0.43829,0.48564 0.72915,1.05364 0.875,1.70312 0.14031,0.64137 0.12525,1.41177 -0.0449,2.3125 -0.16502,0.87344 -0.43564,1.62117 -0.81446,2.24219 -0.37882,0.62102 -0.82245,1.0783 -1.33008,1.37109 -0.51315,0.28469 -1.0471,0.44816 -1.5996,0.49219 -0.55933,0.0427 -1.34361,-0.0299 -2.35352,-0.2207 l -3.96094,-0.74805 c -1.18733,-0.22432 -2.09111,-0.56208 -2.71289,-1.01172 -0.6286,-0.45092 -1.05558,-1.07653 -1.27929,-1.875 -0.23054,-0.79975 -0.25538,-1.67259 -0.0762,-2.62109 0.21917,-1.16003 0.62168,-2.07343 1.20703,-2.74024 0.57983,-0.67492 1.26197,-1.09356 2.04883,-1.25585 0.39067,-0.0852 0.84847,-0.11922 1.37305,-0.0996 z m -264.832032,2.33398 c 0.486621,0.0115 0.897457,0.10052 1.230469,0.26758 0.666023,0.33411 1.104419,0.97235 1.316406,1.91406 0.115907,0.51489 0.11742,1.00533 0.002,1.47266 -0.113942,0.47409 -0.344138,0.92503 -0.689453,1.35156 l 1.082031,0.0644 0.861328,3.82227 -10.386718,2.33789 c -1.402407,0.31569 -2.317574,0.48644 -2.746094,0.51172 -0.42022,0.0305 -0.900985,-0.0999 -1.443359,-0.39063 -0.549149,-0.28924 -1.022238,-0.76089 -1.417969,-1.41211 -0.400981,-0.64291 -0.721499,-1.49493 -0.960938,-2.55859 -0.294341,-1.30756 -0.307771,-2.40746 -0.03906,-3.30078 0.261934,-0.8918 1.041255,-1.49845 2.335937,-1.81836 l 0.896485,3.98437 c -0.596192,0.13421 -0.845653,0.41797 -0.748047,0.85157 0.07015,0.31164 0.208263,0.49619 0.414062,0.55664 0.205799,0.0604 0.600952,0.0257 1.183594,-0.10547 l 1.015625,-0.22852 c -0.397725,-0.28061 -0.721603,-0.59873 -0.972656,-0.95508 -0.249528,-0.34956 -0.423451,-0.73724 -0.519531,-1.16406 -0.166235,-0.73846 -0.154659,-1.38352 0.03516,-1.93164 0.19134,-0.54135 0.507852,-0.95385 0.949219,-1.23828 0.448141,-0.28595 1.119383,-0.52916 2.013672,-0.73047 l 4.898437,-1.10351 c 0.640229,-0.14413 1.202833,-0.20874 1.689453,-0.19727 z m 263.039062,1.61914 c -0.21889,0.0364 -0.3507,0.17034 -0.39453,0.40234 -0.0541,0.2866 0.001,0.48028 0.16601,0.58204 0.15771,0.10046 0.61856,0.22279 1.38282,0.36718 l 0.99218,0.1875 0.22852,-1.20703 -0.99219,-0.1875 c -0.70284,-0.13279 -1.16392,-0.18091 -1.38281,-0.14453 z m -263.298828,2.60742 c -0.195034,0.019 -0.434203,0.0609 -0.71875,0.125 l -4.533203,1.01953 c -0.602967,0.13574 -0.986197,0.26321 -1.152343,0.37891 -0.159372,0.11418 -0.213535,0.28827 -0.160157,0.52539 0.061,0.271 0.210215,0.42258 0.445313,0.45508 0.235098,0.0325 0.734435,-0.0367 1.5,-0.20899 l 4.177734,-0.93945 c 0.616517,-0.13878 0.999747,-0.2643 1.152344,-0.37695 0.154122,-0.10588 0.205294,-0.2815 0.150391,-0.52539 -0.05338,-0.23712 -0.190808,-0.38401 -0.410157,-0.44141 -0.105524,-0.0261 -0.256136,-0.0307 -0.451172,-0.0117 z m 256.812498,1.77149 16.30469,4.30664 -1.07422,4.06836 -0.9668,-0.25586 c 0.30005,0.49579 0.49406,0.98585 0.58204,1.46875 0.088,0.4829 0.0713,0.95968 -0.0527,1.42969 -0.16663,0.63115 -0.47641,1.13333 -0.92773,1.50976 -0.45804,0.37466 -0.92265,0.57274 -1.39453,0.5918 -0.47012,0.0123 -1.19854,-0.11246 -2.18555,-0.37305 L 344.03906,241.5 c -1.0273,-0.27123 -1.74068,-0.5285 -2.13672,-0.76953 -0.39426,-0.24774 -0.69047,-0.64803 -0.88867,-1.20313 -0.20491,-0.55687 -0.22078,-1.1612 -0.0488,-1.8125 0.13296,-0.50357 0.34553,-0.94016 0.63672,-1.30859 0.29297,-0.37514 0.66616,-0.68493 1.11914,-0.93164 l -3.78711,-1 z m 4.20899,5.60351 c -0.18914,0.0363 -0.31722,0.17931 -0.38282,0.42774 -0.0638,0.24171 -0.0298,0.42662 0.10157,0.55468 0.12644,0.11958 0.45089,0.24845 0.97461,0.38672 l 6.54687,1.72852 c 0.54387,0.14359 0.91353,0.19854 1.10938,0.16406 0.18913,-0.0362 0.31472,-0.16819 0.375,-0.39648 0.0691,-0.26186 0.0204,-0.46269 -0.14453,-0.59961 -0.17168,-0.1387 -0.62971,-0.30518 -1.375,-0.50196 l -6.1836,-1.63281 c -0.49015,-0.12941 -0.83058,-0.17383 -1.02148,-0.13086 z m -256.275394,0.19922 1.169922,3.42969 c -0.332804,0.14288 -2.729039,1.28464 -7.1875,3.42187 0.486676,-0.12199 3.081479,-0.67781 7.785156,-1.66601 l 1.126954,3.30273 -7.207032,3.36133 c 2.224687,-0.61949 4.822818,-1.16892 7.792969,-1.64648 l 1.025391,3.00781 2.859375,-1.25195 1.685547,3.85546 -3.472657,1.51954 c 0.450126,0.19722 0.834596,0.45265 1.154297,0.76757 0.322485,0.32129 0.579426,0.70164 0.771484,1.14063 0.295049,0.67439 0.37391,1.32225 0.236329,1.94336 -0.134799,0.62747 -0.40532,1.0912 -0.8125,1.39062 -0.398035,0.303 -1.191128,0.71582 -2.38086,1.23633 l -8.732422,3.82031 -1.6875,-3.85546 8.914063,-3.9004 c 0.738015,-0.32288 1.194543,-0.56812 1.371094,-0.73632 0.179334,-0.16184 0.212901,-0.37052 0.101562,-0.625 -0.102988,-0.23541 -0.280703,-0.34592 -0.533203,-0.33399 -0.2525,0.0119 -0.699215,0.15833 -1.341797,0.43945 l -9.037109,3.95313 -1.6875,-3.85547 10.582031,-4.6289 -11.470703,2.41992 -1.474609,-4.32813 c 1.516414,-0.78143 3.52537,-1.77169 6.029296,-2.9707 -1.179497,0.28496 -2.386159,0.53175 -3.621093,0.74023 l -2.990235,0.52539 -1.476562,-4.32812 z m 249.392574,3.98438 16.04297,5.19531 -1.33398,4.12305 -16.04492,-5.19727 z m 3.82618,6.84179 c 0.49705,0.0427 1.20158,0.23965 2.11523,0.5918 l 3.1582,1.2168 c 1.15989,0.44705 1.99089,0.83373 2.49024,1.16015 0.49287,0.32393 0.90089,0.76936 1.22656,1.33399 0.3192,0.56212 0.47618,1.18692 0.4707,1.87695 -0.009,0.68106 -0.16319,1.41188 -0.46289,2.18945 -0.33466,0.8683 -0.71263,1.56747 -1.13281,2.09766 -0.42666,0.5277 -0.89602,0.88657 -1.4082,1.07617 -0.51616,0.18062 -1.07458,0.23716 -1.67383,0.16992 -0.60573,-0.0697 -1.45569,-0.3162 -2.55078,-0.73828 l -3.30469,-1.27343 c -1.19876,-0.46204 -2.0842,-0.95373 -2.6582,-1.47266 -0.574,-0.51893 -0.9355,-1.19415 -1.08399,-2.02539 -0.14849,-0.83124 -0.0198,-1.77059 0.38477,-2.82031 0.33966,-0.88126 0.7616,-1.58519 1.26953,-2.11133 0.50395,-0.53512 1.03434,-0.89313 1.58789,-1.07422 0.55355,-0.18109 1.07771,-0.24648 1.57227,-0.19727 z m -1.65625,3.77149 c -0.20243,0.004 -0.34759,0.12219 -0.4375,0.35547 -0.0899,0.23327 -0.063,0.42317 0.082,0.56836 0.1385,0.14269 0.53828,0.34096 1.19922,0.5957 l 5.82226,2.24414 c 0.6091,0.23476 1.02235,0.34908 1.24024,0.34375 0.2114,-0.008 0.3618,-0.12477 0.44922,-0.35156 0.0899,-0.23328 0.0629,-0.41848 -0.0781,-0.55469 -0.13851,-0.14269 -0.48571,-0.32037 -1.04297,-0.53516 l -5.94922,-2.29297 c -0.66094,-0.25474 -1.08921,-0.37939 -1.28515,-0.37304 z m -3.10157,5.37109 c 0.20453,-0.0195 0.38822,-0.0102 0.55078,0.0273 0.32807,0.0688 0.80823,0.25122 1.4375,0.54493 l 0.72657,0.33789 -1.57813,3.3789 -0.67968,-0.3164 c -0.57894,-0.27022 -0.95925,-0.40694 -1.14258,-0.40821 -0.18669,-0.0105 -0.34149,0.11657 -0.46485,0.38086 -0.0999,0.21396 -0.10261,0.40946 -0.008,0.58399 0.0885,0.17159 0.27347,0.32291 0.55664,0.45508 0.38386,0.17916 0.67878,0.28547 0.88477,0.32031 0.20263,0.0256 0.47323,-0.0426 0.81054,-0.20703 0.34025,-0.17073 0.90836,-0.57707 1.70508,-1.2168 1.05811,-0.85493 1.90709,-1.34391 2.54688,-1.4668 0.63979,-0.12288 1.41567,0.0292 2.32812,0.45508 1.01943,0.47581 1.72997,0.96849 2.12891,1.47656 0.39265,0.50514 0.58377,1.13548 0.57617,1.89063 -0.0109,0.74592 -0.22065,1.55499 -0.62891,2.42969 -0.45231,0.96908 -0.9901,1.73002 -1.61523,2.28125 -0.6222,0.54493 -1.25225,0.82659 -1.88867,0.84375 -0.63643,0.0172 -1.47689,-0.21948 -2.52149,-0.70703 l -0.60351,-0.28125 1.57617,-3.37891 0.79297,0.36914 c 0.67332,0.31427 1.12959,0.47805 1.36914,0.49023 0.24249,0.006 0.42353,-0.11743 0.54101,-0.36914 0.1263,-0.27058 0.14863,-0.48954 0.0664,-0.6582 -0.0885,-0.17159 -0.35096,-0.35984 -0.78516,-0.5625 -0.59781,-0.27902 -1.0031,-0.38436 -1.21875,-0.31641 -0.21858,0.0743 -1.01174,0.60627 -2.37695,1.59375 -1.15208,0.8264 -2.0398,1.24249 -2.66406,1.25 -0.63055,0.005 -1.29912,-0.15737 -2.00391,-0.48632 -1.00055,-0.467 -1.67484,-0.94316 -2.02343,-1.42774 -0.3549,-0.48751 -0.51423,-1.10577 -0.47852,-1.85547 0.0386,-0.75599 0.2539,-1.55173 0.64453,-2.38867 0.3877,-0.83064 0.82247,-1.48577 1.30664,-1.96484 0.48081,-0.4883 0.96701,-0.80632 1.45703,-0.95313 0.24648,-0.0765 0.47126,-0.12503 0.67578,-0.14453 z m -241.314449,3.72656 c 0.772649,-0.0386 1.493774,0.18445 2.166015,0.66993 0.678384,0.48223 1.242964,1.15014 1.69336,2.0039 0.550844,1.04417 0.806482,2.01023 0.763672,2.89649 -0.03343,0.88915 -0.307627,1.64085 -0.822266,2.25781 -0.505257,0.61986 -1.351674,1.24377 -2.53711,1.86914 l -1.621093,0.85547 -2.542969,-4.81836 -2.642578,1.39453 c -0.552794,0.29162 -0.888287,0.5195 -1.00586,0.68359 -0.117571,0.1641 -0.115983,0.35868 0.0039,0.58594 0.149052,0.28254 0.351938,0.41648 0.609375,0.39844 0.266819,-0.0151 0.704427,-0.18312 1.3125,-0.50391 l 1.611328,-0.85156 1.861328,3.5293 -0.902344,0.47656 c -0.755484,0.39855 -1.361133,0.65395 -1.818359,0.76953 -0.453986,0.12173 -1.005035,0.13052 -1.650391,0.0234 -0.645356,-0.10709 -1.227549,-0.36973 -1.746094,-0.78711 -0.509161,-0.41448 -0.976582,-1.02713 -1.404296,-1.83789 -0.414753,-0.7862 -0.667527,-1.5399 -0.757813,-2.26172 -0.09029,-0.72182 -0.02738,-1.3552 0.1875,-1.90039 0.224266,-0.54229 0.53846,-1.00238 0.943359,-1.38086 0.411043,-0.38173 1.071431,-0.81341 1.980469,-1.29297 l 3.564453,-1.88086 c 1.068735,-0.5638 1.987399,-0.86309 2.753907,-0.89844 z m 1.294921,3.63868 c -0.185955,0.0196 -0.622625,0.21131 -1.310546,0.57421 l -0.894532,0.47071 0.574219,1.08789 0.894531,-0.47266 c 0.632642,-0.33374 1.023254,-0.58327 1.171875,-0.74805 0.148622,-0.16476 0.16681,-0.34976 0.05664,-0.55859 -0.136091,-0.25797 -0.300089,-0.37634 -0.492187,-0.35351 z m 4.988278,4.01367 2.18946,3.5957 -1.63477,0.79883 c 1.42698,-0.15358 2.47408,0.24653 3.14258,1.19726 l -4.1543,2.5293 c -0.40096,-0.65834 -0.78462,-1.08707 -1.150388,-1.28711 -0.36577,-0.20004 -0.73013,-0.23913 -1.09375,-0.11523 -0.35769,0.12028 -1.109228,0.52938 -2.253906,1.22656 l -4.660157,2.83984 -2.189453,-3.59375 z m 229.78125,0.28906 c 0.26391,0.01 0.51586,0.0469 0.75586,0.11133 0.48353,0.12286 1.14783,0.43192 1.99219,0.92773 l 2.91797,1.71485 c 1.07191,0.62943 1.82785,1.14566 2.26758,1.54882 0.43374,0.39965 0.76641,0.90367 0.99609,1.51368 0.2237,0.60649 0.27564,1.24969 0.1582,1.92968 -0.1199,0.67049 -0.39053,1.36539 -0.8125,2.08399 -0.47119,0.80244 -0.95634,1.43178 -1.45703,1.88672 -0.50667,0.45142 -1.02829,0.7281 -1.56445,0.83203 -0.53864,0.0944 -1.09931,0.0601 -1.67969,-0.10352 -0.58637,-0.16715 -1.38445,-0.54831 -2.39648,-1.14258 l -3.05469,-1.79296 c -1.10784,-0.65053 -1.90263,-1.27758 -2.38477,-1.88282 -0.48213,-0.60523 -0.72867,-1.33146 -0.74023,-2.17578 -0.0116,-0.84432 0.26824,-1.75059 0.83789,-2.7207 0.47823,-0.81442 1.00909,-1.44026 1.5957,-1.87695 0.58414,-0.44621 1.16463,-0.71392 1.74024,-0.80274 0.2878,-0.0444 0.56422,-0.0608 0.82812,-0.0508 z m -1.49023,3.56445 c -0.20037,-0.0291 -0.36365,0.0637 -0.49023,0.2793 -0.12659,0.21558 -0.12926,0.40742 -0.01,0.57422 0.1135,0.16328 0.47512,0.42453 1.08594,0.7832 l 5.38086,3.1582 c 0.5629,0.33054 0.95211,0.51091 1.16797,0.54102 0.20987,0.0266 0.37692,-0.0638 0.5,-0.27344 0.12658,-0.21558 0.13068,-0.40325 0.0137,-0.56054 -0.1135,-0.16329 -0.42836,-0.39486 -0.94336,-0.69727 l -5.4961,-3.22851 c -0.61081,-0.35868 -1.0146,-0.55062 -1.20898,-0.57618 z m -7.03906,3.22657 1.81054,1.21093 0.63086,-0.94531 1.81836,1.2168 -0.63086,0.94336 6.14844,4.10937 c 0.75635,0.50551 1.20308,0.7496 1.33984,0.73242 0.14063,-0.0229 0.40119,-0.32098 0.78321,-0.89257 l 1.85351,1.24023 -0.94336,1.41016 c -0.53251,0.79676 -0.94319,1.34438 -1.23437,1.64257 -0.29695,0.29434 -0.65214,0.49215 -1.0625,0.59375 -0.41614,0.0978 -0.79804,0.0766 -1.14649,-0.0645 -0.35422,-0.14486 -1.10291,-0.59924 -2.24609,-1.36328 l -5.83789,-3.90039 -0.50195,0.75391 -1.82032,-1.2168 0.50391,-0.75391 -1.80859,-1.20898 z m -218.55078,0.0664 c 0.56493,-2.8e-4 1.12081,0.15 1.66601,0.44922 0.73263,0.39499 1.37559,0.98753 1.92774,1.7793 0.67528,0.96835 1.04463,1.89647 1.11132,2.78125 0.0764,0.8865 -0.1024,1.66613 -0.53711,2.34179 -0.42504,0.67739 -1.18579,1.39937 -2.28515,2.16602 l -1.50391,1.04883 -3.11719,-4.46875 -2.451168,1.71094 c -0.512654,0.3575 -0.817601,0.6254 -0.914062,0.80273 -0.09646,0.17733 -0.0708,0.37127 0.07617,0.58203 0.182724,0.26203 0.39909,0.36798 0.652344,0.31836 0.262922,-0.0479 0.676313,-0.26885 1.240234,-0.66211 l 1.496092,-1.04297 2.28125,3.27344 -0.83593,0.58398 c -0.70063,0.48859 -1.27144,0.81725 -1.71094,0.98829 -0.43553,0.17672 -0.97918,0.25137 -1.632816,0.2246 -0.653632,-0.0267 -1.264064,-0.21413 -1.830078,-0.56445 -0.556346,-0.34859 -1.096754,-0.89849 -1.621094,-1.65039 -0.50845,-0.72911 -0.852726,-1.44714 -1.03125,-2.15234 -0.178524,-0.7052 -0.194908,-1.34069 -0.04883,-1.90821 0.155749,-0.56579 0.412391,-1.06279 0.767578,-1.48828 0.360884,-0.42945 0.961654,-0.93749 1.804688,-1.52539 l 3.306642,-2.30664 c 0.99114,-0.69117 1.86478,-1.10096 2.6211,-1.23047 0.1905,-0.0334 0.38005,-0.0507 0.56836,-0.0508 z m 1.30468,3.49414 c -0.0456,-0.006 -0.0917,-0.004 -0.13867,0.008 -0.18213,0.0423 -0.5925,0.28558 -1.23047,0.73047 l -0.82812,0.57813 0.70312,1.00976 0.82813,-0.57812 c 0.5867,-0.40914 0.94507,-0.70489 1.07226,-0.88672 0.12719,-0.18183 0.12334,-0.37078 -0.0117,-0.56445 -0.12512,-0.17943 -0.25759,-0.27807 -0.39453,-0.29688 z m 211.59766,2.61719 13.17969,10.52344 -2.62696,3.28906 -0.78125,-0.625 c 0.0743,0.57474 0.054,1.10082 -0.0605,1.57812 -0.11451,0.47731 -0.32169,0.90724 -0.625,1.28711 -0.40731,0.51013 -0.8941,0.84568 -1.45899,1.00782 -0.57032,0.1578 -1.07622,0.14967 -1.51562,-0.0234 -0.43507,-0.17854 -1.04992,-0.5857 -1.84766,-1.22266 l -5.05664,-4.03711 c -0.8303,-0.66295 -1.37759,-1.18403 -1.64258,-1.56445 -0.26065,-0.38585 -0.36899,-0.87308 -0.32617,-1.46094 0.0374,-0.59219 0.26525,-1.15133 0.68555,-1.67773 0.32497,-0.40701 0.69616,-0.71998 1.11133,-0.93945 0.4195,-0.2249 0.88635,-0.35956 1.40039,-0.40235 l -3.06055,-2.44336 z m -204.35156,3.33984 2.78515,3.25196 -1.01172,0.77148 c 0.58376,-0.0979 1.11336,-0.0621 1.5879,0.10742 0.48431,0.17024 0.91396,0.47253 1.28906,0.91016 0.47,0.54836 0.72376,1.10829 0.76367,1.67773 0.0399,0.56945 -0.0947,1.07259 -0.4043,1.51172 -0.30431,0.43461 -0.91458,1.04568 -1.83203,1.83203 l -7.35547,6.30469 -2.73828,-3.19531 7.26758,-6.23047 c 0.72236,-0.61914 1.14226,-1.02009 1.25977,-1.20313 0.11749,-0.18302 0.0837,-0.38147 -0.10157,-0.59765 -0.19433,-0.22673 -0.40832,-0.28963 -0.64258,-0.18945 -0.22898,0.0956 -0.73839,0.48226 -1.52929,1.16015 l -7.09571,6.08008 -2.73828,-3.19531 z m 205.93945,3.48633 c -0.18767,-0.0432 -0.36116,0.0355 -0.52148,0.23633 -0.15599,0.19537 -0.19935,0.37862 -0.13086,0.54883 0.0674,0.16045 0.31108,0.41007 0.73437,0.74805 l 5.29297,4.2246 c 0.43957,0.35098 0.75417,0.55012 0.94727,0.59766 0.18766,0.0432 0.35658,-0.0284 0.5039,-0.21289 0.16899,-0.21165 0.205,-0.41164 0.10938,-0.60352 -0.10105,-0.1962 -0.45231,-0.53466 -1.05469,-1.01562 l -4.99805,-3.99219 c -0.39616,-0.31631 -0.69081,-0.49347 -0.88281,-0.53125 z m -5.2793,4.45117 c 0.40066,0.005 0.7879,0.0778 1.16407,0.21875 0.75197,0.27212 1.61969,0.8631 2.60156,1.77539 l 1.34179,1.24805 -3.70703,3.99219 2.18946,2.03516 c 0.45786,0.42542 0.78479,0.66589 0.97851,0.72265 0.19372,0.0568 0.37784,-0.009 0.55274,-0.19726 0.21743,-0.23402 0.27394,-0.47001 0.17187,-0.70704 -0.10243,-0.24684 -0.40455,-0.6043 -0.9082,-1.07226 l -1.33594,-1.24024 2.71485,-2.92187 0.74804,0.69336 c 0.62575,0.58141 1.06994,1.06952 1.33008,1.46289 0.26486,0.38829 0.45233,0.90433 0.56445,1.54883 0.11212,0.6445 0.0566,1.28089 -0.16601,1.9082 -0.22301,0.6175 -0.64558,1.26206 -1.26953,1.93359 -0.60505,0.65119 -1.2333,1.13923 -1.88477,1.46289 -0.65147,0.32367 -1.26989,0.47389 -1.85547,0.45118 -0.58593,-0.0325 -1.12424,-0.17841 -1.61523,-0.43555 -0.49608,-0.26186 -1.12207,-0.74182 -1.875,-1.44141 l -2.95313,-2.74414 c -0.88521,-0.82248 -1.47123,-1.58898 -1.75781,-2.30078 -0.29166,-0.71652 -0.31818,-1.4727 -0.082,-2.26758 0.23106,-0.7996 0.67499,-1.55261 1.33203,-2.25976 0.80357,-0.86486 1.62983,-1.42342 2.48047,-1.67578 0.42514,-0.13109 0.83958,-0.19439 1.24023,-0.18946 z m -194.26172,1.1875 c 0.38184,-0.0276 0.77765,0.008 1.1875,0.10938 0.81972,0.20268 1.6277,0.70319 2.42188,1.5 0.66672,0.66892 1.13629,1.34143 1.41016,2.01953 0.28369,0.67811 0.39581,1.30738 0.33593,1.88672 -0.0599,0.57934 -0.21275,1.08586 -0.45898,1.51758 -0.24133,0.43663 -0.70883,1.00017 -1.40235,1.6914 l -2.39843,2.39063 c -0.88042,0.87752 -1.57087,1.47751 -2.07227,1.80078 -0.49648,0.31836 -1.0685,0.51045 -1.7168,0.57812 -0.64336,0.0628 -1.28013,-0.0481 -1.9082,-0.33398 -0.61825,-0.28583 -1.22031,-0.72423 -1.80859,-1.31445 -0.65692,-0.65909 -1.1418,-1.28909 -1.45508,-1.88867 -0.30836,-0.6045 -0.44543,-1.17766 -0.41016,-1.72266 0.0451,-0.54499 0.22009,-1.07765 0.52539,-1.59766 0.31023,-0.52491 0.88166,-1.20275 1.7129,-2.03125 l 2.50781,-2.5 c 0.90993,-0.90694 1.71816,-1.51697 2.42578,-1.83008 0.35381,-0.15655 0.72168,-0.24778 1.10351,-0.27539 z m 192.72657,2.03516 c -0.0913,0.0218 -0.17746,0.0776 -0.25782,0.16406 -0.19853,0.21367 -0.25492,0.40631 -0.16992,0.58008 0.0799,0.16905 0.40482,0.51942 0.97461,1.04883 l 0.74024,0.6875 0.83593,-0.90039 -0.74023,-0.6875 c -0.524,-0.48687 -0.88718,-0.77353 -1.0918,-0.85938 -0.10231,-0.0429 -0.19968,-0.055 -0.29101,-0.0332 z m -191.01953,1.23438 c -0.092,-0.0259 -0.18544,-0.0211 -0.28125,0.0156 -0.18671,0.0684 -0.53152,0.35347 -1.03321,0.85352 l -4.41797,4.40429 c -0.46234,0.46083 -0.7365,0.791 -0.82031,0.99219 -0.0789,0.19629 -0.0329,0.38059 0.13867,0.55273 0.17649,0.17707 0.35726,0.22961 0.53907,0.15625 0.18671,-0.0684 0.49106,-0.31277 0.91406,-0.73437 l 4.51562,-4.50195 c 0.50169,-0.50005 0.78933,-0.83992 0.86328,-1.02149 0.0789,-0.18647 0.03,-0.36785 -0.14648,-0.54492 -0.0882,-0.0885 -0.17946,-0.14595 -0.27148,-0.17187 z m 185.69921,0.72851 3.34766,3.53125 c -0.55947,0.53026 -0.89879,0.99491 -1.01758,1.39453 -0.11878,0.39962 -0.0803,0.76425 0.11719,1.09375 0.1927,0.32446 0.7499,0.97253 1.67188,1.94531 l 3.75585,3.96289 -3.05468,2.89454 -9.50977,-10.03321 3.05469,-2.89453 1.12695,1.42969 c -0.44977,-1.36292 -0.28137,-2.471 0.50781,-3.32422 z m -179.72461,2.9668 c 0.19875,0.004 0.40319,0.0234 0.61133,0.0586 0.83258,0.14081 1.67384,0.57733 2.52539,1.3125 0.71489,0.61719 1.23478,1.25444 1.5586,1.91016 0.33361,0.65499 0.49099,1.27327 0.47461,1.85547 -0.0164,0.58219 -0.1305,1.09795 -0.34375,1.54687 -0.208,0.45346 -0.63161,1.04985 -1.27149,1.79102 l -2.21289,2.5625 c -0.81232,0.94091 -1.45582,1.59131 -1.93164,1.95117 -0.47128,0.3546 -1.0285,0.59106 -1.66992,0.70703 -0.63688,0.11072 -1.27809,0.0467 -1.92578,-0.19141 -0.6379,-0.23878 -1.27157,-0.6312 -1.90235,-1.17578 -0.70437,-0.60811 -1.2365,-1.19896 -1.59375,-1.77343 -0.35271,-0.57975 -0.53153,-1.1414 -0.5371,-1.6875 0.004,-0.54684 0.13873,-1.09143 0.40429,-1.63282 0.2701,-0.54664 0.7897,-1.26399 1.55664,-2.15234 l 2.31446,-2.68164 c 0.83955,-0.97245 1.59902,-1.64071 2.28125,-2.00586 0.51166,-0.27386 1.06587,-0.40527 1.6621,-0.39453 z m 1.36524,3.16992 c -0.0937,-0.019 -0.18649,-0.007 -0.2793,0.0371 -0.18107,0.0822 -0.50391,0.38962 -0.96679,0.92578 l -4.07813,4.72461 c -0.42658,0.49411 -0.67366,0.84388 -0.74219,1.05078 -0.064,0.20164 -0.004,0.38218 0.17969,0.54102 0.18923,0.16337 0.37302,0.20198 0.54883,0.11523 0.18107,-0.0822 0.46714,-0.35068 0.85742,-0.80273 l 4.16602,-4.82422 c 0.46288,-0.53616 0.72303,-0.8974 0.7832,-1.08399 0.0647,-0.19184 0.004,-0.36983 -0.18555,-0.5332 -0.0946,-0.0817 -0.18949,-0.13141 -0.2832,-0.15039 z m 173.0625,0.43359 c 0.60153,0.0441 1.12091,0.24384 1.55859,0.59766 0.57914,0.46643 1.60068,1.57585 3.06446,3.33008 l 4.44336,5.32617 -3.14258,2.62305 -0.78711,-0.94336 c 0.11861,0.54319 0.0997,1.04164 -0.0547,1.49609 -0.15353,0.44467 -0.44506,0.84665 -0.87695,1.20703 -0.56519,0.47161 -1.21608,0.74869 -1.95313,0.83008 -0.73616,0.0716 -1.55298,-0.42827 -2.44726,-1.5 l -0.72657,-0.87109 c -0.66292,-0.79447 -0.98886,-1.44046 -0.97851,-1.9375 0.0103,-0.49704 0.35007,-1.35105 1.02148,-2.5625 0.71404,-1.30128 1.04939,-2.05547 1.00391,-2.26172 -0.0455,-0.20625 -0.25377,-0.5301 -0.62305,-0.97266 -0.46271,-0.55453 -0.80606,-0.87855 -1.02929,-0.97265 -0.22236,-0.10389 -0.42915,-0.0762 -0.6211,0.084 -0.21861,0.18242 -0.29337,0.36818 -0.22656,0.55664 0.0624,0.18312 0.34013,0.57026 0.83398,1.16211 l 0.92774,1.11133 -3.03125,2.52929 -0.59375,-0.71093 c -0.68517,-0.82113 -1.12007,-1.53259 -1.30274,-2.13086 -0.18177,-0.60806 -0.12952,-1.31941 0.15625,-2.13672 0.28578,-0.81731 0.88511,-1.60638 1.79688,-2.36719 1.09306,-0.91208 2.07967,-1.40504 2.95898,-1.47851 0.21872,-0.0197 0.4284,-0.0225 0.62891,-0.008 z m -167.43164,1.41602 3.44531,2.54101 -0.81445,0.98047 c 0.54691,-0.22637 1.0718,-0.31066 1.57226,-0.25195 0.51017,0.0573 0.99723,0.25728 1.46094,0.59961 0.58104,0.42895 0.95446,0.91691 1.1211,1.46289 0.16662,0.54598 0.14849,1.06707 -0.0547,1.56445 -0.19906,0.4918 -0.65734,1.22319 -1.375,2.19532 l -5.75391,7.79492 -3.38672,-2.5 5.68555,-7.70117 c 0.56505,-0.76542 0.88553,-1.25035 0.95898,-1.45508 0.0735,-0.20473 -0.005,-0.3934 -0.23437,-0.5625 -0.24024,-0.17736 -0.46216,-0.18923 -0.66797,-0.0391 -0.20169,0.14459 -0.6118,0.63462 -1.23047,1.47266 l -5.55078,7.51758 -3.38477,-2.5 z m 158.36133,1.0039 9.80078,13.72461 -3.42383,2.44532 -0.58203,-0.81446 c -0.0856,0.57316 -0.24768,1.07412 -0.48828,1.50196 -0.2406,0.42784 -0.5595,0.78388 -0.95508,1.0664 -0.53121,0.37938 -1.09004,0.56874 -1.67773,0.57032 -0.59174,-0.004 -1.07581,-0.14894 -1.45118,-0.43555 -0.36971,-0.29065 -0.85202,-0.85091 -1.44531,-1.68164 l -3.75781,-5.26367 c -0.61751,-0.86464 -1.00337,-1.51672 -1.1543,-1.95508 -0.14528,-0.4424 -0.11592,-0.94037 0.0859,-1.49414 0.19782,-0.55943 0.57097,-1.03429 1.11914,-1.42578 0.42384,-0.3027 0.86487,-0.50392 1.32422,-0.60157 0.465,-0.10168 0.95087,-0.10323 1.45703,-0.004 l -2.27734,-3.1875 z m 10.69531,4.48438 c -0.20131,0.81014 -0.23762,1.37796 -0.10938,1.70508 0.13358,0.32267 0.40036,0.7252 0.80079,1.20508 0.45826,0.54919 0.78939,0.87444 0.99218,0.97656 0.20813,0.0977 0.41758,0.0569 0.63086,-0.1211 0.20262,-0.16906 0.28196,-0.33818 0.23828,-0.50976 -0.0428,-0.18136 -0.28555,-0.53907 -0.73047,-1.07227 z m -160.00977,1.79297 c 0.19526,-0.0109 0.39528,-0.007 0.60157,0.0137 0.82881,0.0763 1.65242,0.37077 2.4707,0.88281 1.00077,0.62624 1.70517,1.33324 2.11328,2.1211 0.41768,0.78565 0.55897,1.5752 0.42383,2.36718 -0.12557,0.78978 -0.54294,1.75251 -1.25391,2.88868 l -0.97265,1.55468 -4.61914,-2.89062 -1.58399,2.53515 c -0.33154,0.52982 -0.50809,0.89476 -0.52734,1.09571 -0.0192,0.20095 0.081,0.36956 0.29883,0.50586 0.27079,0.16945 0.51301,0.182 0.72656,0.0371 0.22312,-0.1471 0.51617,-0.51291 0.88086,-1.09571 l 0.96679,-1.54492 3.38282,2.11719 -0.54297,0.86523 c -0.4531,0.72409 -0.84823,1.25049 -1.18555,1.58008 -0.33143,0.33328 -0.80223,0.61612 -1.41406,0.84766 -0.61183,0.23154 -1.24627,0.29578 -1.9043,0.19531 -0.64845,-0.10267 -1.3616,-0.39656 -2.13867,-0.88281 -0.75352,-0.47152 -1.3504,-0.99735 -1.79102,-1.57617 -0.44061,-0.57883 -0.70495,-1.15697 -0.79296,-1.73633 -0.0785,-0.58157 -0.037,-1.13732 0.12304,-1.66797 0.16371,-0.53654 0.51731,-1.24202 1.0625,-2.11328 l 2.13867,-3.41602 c 0.64098,-1.02431 1.28463,-1.7446 1.92969,-2.16015 0.48656,-0.31608 1.02165,-0.49064 1.60742,-0.52344 z m 148.70703,0.67383 c -0.0944,0.0141 -0.19428,0.0601 -0.29882,0.13476 -0.20345,0.1453 -0.29476,0.30779 -0.27539,0.49024 0.021,0.17276 0.1891,0.48108 0.5039,0.92187 l 3.93555,5.50977 c 0.32691,0.45775 0.5753,0.73548 0.74805,0.83398 0.16871,0.0928 0.35082,0.0708 0.54297,-0.0664 0.22039,-0.15741 0.30907,-0.34204 0.26953,-0.55274 -0.0436,-0.21635 -0.28834,-0.63834 -0.73633,-1.26562 l -3.7168,-5.20508 c -0.29463,-0.41254 -0.52876,-0.66314 -0.70312,-0.75196 -0.0844,-0.0464 -0.17508,-0.0629 -0.26954,-0.0488 z m -147.10156,2.27343 c -0.10047,-0.01 -0.1883,0.0142 -0.26562,0.0723 -0.15097,0.11033 -0.43312,0.49497 -0.84571,1.1543 l -0.53515,0.85547 1.04101,0.65234 0.53711,-0.85547 c 0.37943,-0.60635 0.59096,-1.0192 0.63672,-1.23633 0.0458,-0.21712 -0.0323,-0.38842 -0.23242,-0.51367 -0.12362,-0.0774 -0.23546,-0.11928 -0.33594,-0.12891 z m 10.45703,3.76758 c 0.83227,-0.009 1.68233,0.19769 2.54883,0.62305 1.05976,0.52022 1.83155,1.15272 2.31836,1.89453 0.49611,0.73864 0.71916,1.50888 0.66602,2.31055 -0.0439,0.79849 -0.36252,1.79882 -0.95313,3.00195 l -0.80664,1.64453 -4.89062,-2.40039 -1.31836,2.68359 c -0.27541,0.56105 -0.41164,0.94267 -0.41016,1.14454 0.001,0.20186 0.117,0.35943 0.34766,0.47265 0.28675,0.14077 0.52901,0.12894 0.72656,-0.0371 0.20685,-0.16922 0.46267,-0.56253 0.76562,-1.17968 l 0.80274,-1.63672 3.58203,1.75781 -0.45117,0.91601 c -0.3764,0.76677 -0.71587,1.33285 -1.01758,1.69532 -0.29548,0.36553 -0.73547,0.69321 -1.32031,0.98633 -0.58484,0.29311 -1.20819,0.42498 -1.87305,0.39257 -0.65557,-0.0356 -1.39588,-0.25622 -2.21875,-0.66015 -0.79793,-0.3917 -1.44567,-0.85228 -1.94336,-1.38281 -0.49769,-0.53055 -0.81978,-1.07922 -0.9668,-1.64649 -0.13772,-0.57045 -0.15354,-1.1276 -0.0488,-1.67187 0.10777,-0.55051 0.38694,-1.28833 0.83984,-2.21094 l 1.77734,-3.61719 c 0.53247,-1.08469 1.09827,-1.8681 1.69727,-2.34766 0.60206,-0.48579 1.31727,-0.72946 2.14648,-0.73242 z m 1.29883,2.8125 c -0.10093,7.4e-4 -0.18686,0.0339 -0.25781,0.0996 -0.13884,0.12525 -0.37992,0.53814 -0.72266,1.23633 l -0.44531,0.90625 1.10352,0.54297 0.44531,-0.9082 c 0.31519,-0.64209 0.48458,-1.0723 0.50781,-1.29297 0.0232,-0.22068 -0.0712,-0.38424 -0.2832,-0.48828 -0.13091,-0.0643 -0.24673,-0.0965 -0.34766,-0.0957 z m 5.19531,0.0449 3.48438,1.41211 -2.69336,9.78711 c 0.36001,-0.64838 1.18017,-2.26374 2.45898,-4.84765 0.71807,-1.43992 1.42941,-2.83056 2.13672,-4.16992 l 3.48633,1.4121 -7.01367,12.07227 -5.08789,-2.06055 z m 10.94336,4.31836 c 0.63481,-0.0163 1.29558,0.0857 1.98438,0.3086 1.12322,0.36342 1.98052,0.87834 2.56836,1.54297 0.59658,0.66015 0.92435,1.39037 0.98633,2.1914 0.0707,0.79657 -0.0991,1.83223 -0.51172,3.10742 l -0.56446,1.74414 -5.18359,-1.67578 -0.91992,2.84375 c -0.1924,0.59465 -0.27445,0.99183 -0.24414,1.19141 0.0303,0.19958 0.16764,0.33887 0.41211,0.41797 0.30393,0.0983 0.54305,0.0519 0.71484,-0.14063 0.18054,-0.19704 0.37625,-0.62323 0.58789,-1.27734 l 0.56055,-1.73438 3.79687,1.22852 -0.31445,0.9707 c -0.26295,0.81269 -0.51882,1.4204 -0.76562,1.82227 -0.24021,0.40401 -0.62908,0.79234 -1.16602,1.16601 -0.53694,0.37369 -1.13616,0.59135 -1.79883,0.6543 -0.65392,0.0585 -1.41691,-0.0518 -2.28906,-0.33398 -0.84572,-0.27364 -1.55269,-0.63783 -2.12109,-1.0918 -0.56841,-0.45397 -0.96678,-0.95175 -1.19336,-1.49219 -0.21784,-0.54491 -0.31297,-1.09479 -0.28711,-1.64843 0.028,-0.56026 0.19923,-1.32879 0.51562,-2.30664 l 1.24219,-3.83594 c 0.37197,-1.14966 0.81943,-2.00421 1.34375,-2.56446 0.52645,-0.56685 1.19926,-0.9098 2.01953,-1.03125 0.2056,-0.032 0.41535,-0.0512 0.62695,-0.0566 z m 7.13672,2.16211 4.08203,1.02735 -0.60546,1.71679 c 0.90982,-1.10997 1.93683,-1.56079 3.08007,-1.35156 l -1.18945,4.71875 c -0.74748,-0.18831 -1.32159,-0.22709 -1.72266,-0.11328 -0.40106,0.11381 -0.68695,0.34227 -0.85937,0.68555 -0.17072,0.33654 -0.42063,1.1554 -0.74805,2.45508 l -1.33203,5.29296 L 176.00586,342 Z m -6.07422,0.49219 c -0.0998,0.0152 -0.18136,0.0615 -0.24218,0.13672 -0.11952,0.1438 -0.29768,0.58421 -0.53711,1.32422 l -0.31055,0.96289 1.16797,0.37695 0.3125,-0.96094 c 0.22019,-0.68054 0.32495,-1.13178 0.3164,-1.35351 -0.009,-0.22173 -0.12496,-0.36872 -0.3496,-0.44141 -0.13876,-0.0449 -0.25764,-0.0601 -0.35743,-0.0449 z"
         style="fill:#000000;stroke-width:0.99999994"
         inkscape:connector-curvature="0" />
      <text
         transform="matrix(0.99203777,0.06045643,-0.05929343,1.0114959,4.1071445,-4.1127335)"
         y="-3.3952296"
         x="2.0581112"
         id="text4582"
         style="font-style:normal;font-weight:normal;font-size:10.58333302px;line-height:6.61458302px;font-family:sans-serif;letter-spacing:0px;word-spacing:0px;fill:#000000;fill-opacity:1;stroke:none;stroke-width:0.26458332"
         xml:space="preserve"><textPath
           id="textPath4584"
           xlink:href="#path4574"><tspan
   id="tspan4580"
   style="font-style:normal;font-variant:normal;font-weight:normal;font-stretch:normal;font-family:Impact;-inkscape-font-specification:Impact;stroke-width:0.26458332">c skunkworks</tspan></textPath></text>
      <g
         transform="translate(8.3253322,-181.60822)"
         inkscape:label="Layer 1"
         id="layer1-3">
        <path
           style="fill:#000000;fill-opacity:1;stroke-width:0.05051046"
           d="m 48.089178,233.09343 c -0.0525,-0.004 -0.12354,-0.34696 -0.19644,-0.94572 -0.0905,-0.74314 -0.13612,-0.93977 -0.21967,-0.94535 -0.23039,-0.0154 -0.30431,-0.12201 -0.32225,-0.46471 -0.01,-0.18818 0.0122,-0.3501 0.0495,-0.35981 0.0371,-0.01 0.0448,-0.0461 0.0173,-0.0808 -0.0276,-0.0348 -0.0349,-0.83206 -0.0163,-1.77182 0.0188,-0.93975 0.0347,-2.18848 0.0356,-2.77495 l 0.001,-1.06629 -0.32331,-0.0498 c -0.2117,-0.0326 -0.41292,-0.099 -0.58283,-0.1923 -0.23158,-0.12717 -0.26034,-0.15983 -0.26731,-0.30378 -0.004,-0.0887 0.0239,-0.16961 0.0628,-0.17976 0.0409,-0.0107 0.0387,-0.0214 -0.005,-0.0253 -0.0421,-0.004 -0.072,-0.0792 -0.0673,-0.16932 0.005,-0.0894 -0.0207,-0.19462 -0.0561,-0.23391 -0.11511,-0.12704 -0.0285,-0.37152 0.21011,-0.59345 l 0.21925,-0.20386 0.15958,-1.46038 c 0.11185,-1.02385 0.19005,-1.48858 0.26152,-1.55474 0.10533,-0.0975 0.30164,-1.64526 0.47306,-3.73038 0.0901,-1.09561 0.12299,-1.25303 0.2944,-1.41053 0.0627,-0.0576 0.12408,-0.14093 0.13633,-0.18513 0.0458,-0.16543 0.28118,-0.39819 0.41342,-0.40894 0.11361,-0.009 0.12381,-0.0187 0.0991,-0.0932 -0.0221,-0.0663 0.0136,-0.10841 0.17449,-0.21026 0.11117,-0.0701 0.25684,-0.12563 0.32375,-0.12346 0.10587,0.004 0.11674,-0.005 0.084,-0.0648 -0.0571,-0.10419 0.37834,-0.35096 0.4964,-0.28137 0.0463,0.0273 0.10071,0.0344 0.12096,0.0158 0.0202,-0.0186 0.0147,-0.0468 -0.0122,-0.0628 -0.027,-0.0159 -0.005,-0.0593 0.0484,-0.0964 0.0688,-0.0476 0.13676,-0.0493 0.23076,-0.006 0.0885,0.0408 0.22343,0.0418 0.40153,0.003 0.342,-0.0749 0.93681,-0.0672 1.39911,0.0183 0.28147,0.0521 0.44171,0.11236 0.72822,0.27428 0.20203,0.11417 0.37032,0.1906 0.37395,0.16983 0.815371,0.73374 0.263863,0.62922 -0.39636,0.2522 -0.54182,-0.31925 -0.89202,-0.39639 -1.55788,-0.34316 -0.31813,0.0254 -0.5175,0.063 -0.50222,0.0946 0.0254,0.0526 -0.16533,0.18574 -0.22011,0.15369 -0.016,-0.009 -0.0779,0.0247 -0.13759,0.0757 -0.18672,0.15987 -0.35634,0.23461 -0.45723,0.20148 -0.0872,-0.0287 -0.0889,-0.0264 -0.0158,0.0226 0.0626,0.0419 0.0559,0.0681 -0.0299,0.11377 -0.0611,0.0326 -0.24475,0.16177 -0.40782,0.28705 l -0.2965,0.22777 0.10206,0.11978 c 0.0561,0.0659 0.0942,0.18 0.0847,0.25364 -0.0162,0.12458 0.13006,2.08257 0.29148,3.90068 0.0383,0.43217 0.11334,0.85112 0.16669,0.93099 0.0567,0.0848 0.1215,0.50586 0.15598,1.01273 0.12653,1.85984 0.13767,1.92802 0.35192,2.15241 0.23826,0.24948 0.31101,0.40368 0.247,0.52338 -0.0269,0.0501 -0.0386,0.20349 -0.0265,0.34073 0.0122,0.13725 6.7e-4,0.29902 -0.0258,0.35948 -0.0866,0.1975 -0.48838,0.38689 -0.99396,0.46851 l -0.22179,0.0358 -0.01,0.63332 c -0.0277,2.03106 -0.0291,3.13269 -0.005,4.06174 0.0122,0.4563 -10e-4,0.85141 -0.0309,0.87802 -0.0289,0.0266 -0.0329,0.0733 -0.01,0.10377 0.0242,0.0305 0.04,0.20871 0.0349,0.39607 -0.01,0.3404 -0.01,0.34071 -0.19388,0.39411 -0.10165,0.0294 -0.20029,0.0677 -0.21922,0.085 -0.0189,0.0174 -0.0887,0.42458 -0.15523,0.90489 -0.0665,0.48031 -0.13593,0.88717 -0.15439,0.90413 -0.0185,0.0169 -0.0705,0.0275 -0.11579,0.0235 z m 0.7035,-2.6538 c -0.0122,-0.0582 -0.0413,-0.0891 -0.0635,-0.0687 -0.0222,0.0203 -0.0299,0.0586 -0.0171,0.085 0.0122,0.0264 0.005,0.0642 -0.0159,0.0839 -0.0234,0.0214 -0.0512,-0.001 -0.069,-0.0578 -0.0272,-0.0853 -0.03,-0.0849 -0.0313,0.004 -7.2e-4,0.0537 0.0182,0.0961 0.0421,0.0942 0.0559,-0.004 0.10139,0.19721 0.0542,0.24047 -0.0196,0.018 -0.0491,-0.01 -0.0655,-0.0611 -0.027,-0.0849 -0.03,-0.0847 -0.0312,0.001 -7.5e-4,0.0527 0.0239,0.098 0.0548,0.10081 0.0309,0.003 0.0523,0.0281 0.0477,0.0565 -0.005,0.0282 0.0122,0.0636 0.0375,0.0786 0.0508,0.03 0.0939,-0.3899 0.0571,-0.55757 z m -0.73275,0.78853 c -0.0379,-0.0224 -0.0911,-0.0204 -0.11796,0.004 -0.0522,0.048 -0.01,0.0932 0.0828,0.0857 0.0924,-0.008 0.10804,-0.0473 0.0353,-0.0902 z m 0.339,-1.24695 c 9.4e-4,-0.0771 -0.0143,-0.12746 -0.0338,-0.11195 -0.0194,0.0155 -0.0204,-0.0128 -10e-4,-0.0631 0.0183,-0.0502 0.0334,-0.63112 0.0332,-1.2909 -6e-4,-3.07827 -0.01,-4.21886 -0.0328,-4.23259 -0.0261,-0.0155 -0.0281,0.012 -0.0298,0.42659 -5.4e-4,0.13708 -0.004,0.55982 -0.007,0.93943 -0.003,0.37962 -0.008,0.91429 -0.01,1.18818 -0.01,1.617 -0.0395,3.12865 -0.0639,3.1845 -0.0266,0.0614 0.0758,0.16227 0.12177,0.12002 0.0122,-0.011 0.0226,-0.0831 0.0235,-0.1602 z m -0.42972,0.0554 c -0.0273,-0.0336 -0.0238,-0.63983 0.0167,-2.86394 0.04,-2.18716 0.0372,-2.78025 -0.0122,-2.89109 l -0.0526,-0.11696 -0.0427,0.15614 c -0.0234,0.0859 -0.0264,0.26431 -0.007,0.39653 0.0199,0.1322 0.0241,0.25209 0.01,0.2664 -0.0296,0.0291 -0.0332,0.1524 -0.0352,1.24333 -7.9e-4,0.42 -0.004,0.93967 -0.007,1.15482 -0.003,0.21516 -0.01,0.75151 -0.0122,1.19189 -0.005,0.69521 -0.0238,1.47171 -0.0344,1.52581 -0.005,0.0305 0.14181,0.0319 0.17472,0.001 0.0174,-0.016 0.0186,-0.045 0.003,-0.0646 z m 1.381,-6.0387 c -0.0841,0.007 -0.0447,0.0767 0.0481,0.085 0.0701,0.006 0.0788,-0.001 0.0444,-0.0406 -0.0234,-0.0266 -0.065,-0.0467 -0.0926,-0.0444 z m -0.62847,-0.33856 c -0.0701,-0.01 -0.15989,-0.009 -0.19929,0.001 -0.0394,0.0103 0.0109,0.0246 0.11212,0.0317 0.21409,0.0151 0.27354,-0.007 0.0871,-0.0329 z m -0.83293,-0.18996 c -0.0217,0.001 -0.0522,-0.10549 -0.0675,-0.23834 l -0.028,-0.24155 -0.25179,0.0204 c -0.25832,0.021 -0.37021,0.0702 -0.28019,0.12329 0.028,0.0165 0.0122,0.0464 -0.0336,0.0663 -0.0465,0.02 -0.0569,0.0389 -0.0234,0.0418 0.0337,0.003 0.034,0.0706 5.4e-4,0.15011 -0.0333,0.0795 -0.0651,0.16147 -0.0707,0.18209 -0.005,0.0206 -0.0304,0.0183 -0.0556,-0.005 -0.0251,-0.0234 -0.0758,-0.0291 -0.1128,-0.0127 -0.0446,0.0198 -0.0326,0.038 0.0356,0.0539 0.0968,0.0227 0.0919,0.0271 -0.0826,0.0762 -0.18386,0.0518 -0.18393,0.0519 -0.01,0.0167 0.0964,-0.0195 0.35364,-0.0541 0.57156,-0.0768 0.21792,-0.0227 0.4078,-0.0681 0.42195,-0.10066 0.0141,-0.0326 0.008,-0.0578 -0.0139,-0.0561 z"
           id="path877"
           inkscape:connector-curvature="0"
           sodipodi:nodetypes="ccscccccccccccccccscsccccccccccccccccccccccccccccsccccccccscccssscsccccccccccccccccccccccccccccccsccccsccccccccccccccccccccccccccccccccccccsccc" />
      </g>
    </g>
  </g>
  <g
     inkscape:groupmode="layer"
     id="layer2"
     inkscape:label="Layer 2"
     style="display:inline"
     transform="translate(0,-243)">
    <path
       style="fill:none;stroke:none;stroke-width:0.26458332px;stroke-linecap:butt;stroke-linejoin:miter;stroke-opacity:1"
       d="M 32.042283,50.731602 C 35.571287,22.972707 76.216398,22.695413 79.832646,50.613485"
       id="path4574"
       inkscape:connector-curvature="0"
       sodipodi:nodetypes="cc" />
  </g>
  <g
     inkscape:groupmode="layer"
     id="layer3"
     inkscape:label="Layer 3"
     style="display:inline"
     transform="translate(0,-243)">
    <path
       style="fill:none;fill-opacity:0.33204633;stroke:none;stroke-width:0.80000001;stroke-miterlimit:4;stroke-dasharray:none;stroke-opacity:1"
       id="path4619"
       sodipodi:type="arc"
       sodipodi:cx="-56.369736"
       sodipodi:cy="52.34166"
       sodipodi:rx="38.123116"
       sodipodi:ry="39.462616"
       sodipodi:start="5.9823311"
       sodipodi:end="1.5142569"
       d="m -19.958969,40.64746 a 38.123116,39.462616 0 0 1 -5.09136,34.194229 38.123116,39.462616 0 0 1 -29.165096,16.899528"
       transform="scale(-1,1)"
       sodipodi:open="true" />
    <path
       style="fill:none;fill-opacity:0.33204633;stroke:none;stroke-width:0.80000001;stroke-miterlimit:4;stroke-dasharray:none;stroke-opacity:1"
       id="path4619-5"
       sodipodi:type="arc"
       sodipodi:cx="-57.175404"
       sodipodi:cy="52.926197"
       sodipodi:rx="38.123116"
       sodipodi:ry="39.462616"
       sodipodi:start="2.1370864"
       sodipodi:end="3.5327197"
       d="M -77.628644,86.228587 A 38.123116,39.462616 0 0 1 -92.419461,37.881841"
       transform="scale(-1,1)"
       sodipodi:open="true" />
  </g>
</svg>
