<?xml version="1.0" encoding="UTF-8" standalone="no"?>
<!-- Created with Inkscape (http://www.inkscape.org/) -->

<svg
   xmlns:dc="http://purl.org/dc/elements/1.1/"
   xmlns:cc="http://creativecommons.org/ns#"
   xmlns:rdf="http://www.w3.org/1999/02/22-rdf-syntax-ns#"
   xmlns:svg="http://www.w3.org/2000/svg"
   xmlns="http://www.w3.org/2000/svg"
   xmlns:sodipodi="http://sodipodi.sourceforge.net/DTD/sodipodi-0.dtd"
   xmlns:inkscape="http://www.inkscape.org/namespaces/inkscape"
   width="210mm"
   height="297mm"
   viewBox="0 0 210 297"
   version="1.1"
   id="svg8"
   inkscape:version="0.92.2 5c3e80d, 2017-08-06"
   sodipodi:docname="solderiron.svg">
  <defs
     id="defs2" />
  <sodipodi:namedview
     id="base"
     pagecolor="#ffffff"
     bordercolor="#666666"
     borderopacity="1.0"
     inkscape:pageopacity="0.0"
     inkscape:pageshadow="2"
     inkscape:zoom="2.8"
     inkscape:cx="343.82917"
     inkscape:cy="535.45082"
     inkscape:document-units="mm"
     inkscape:current-layer="layer1"
     showgrid="false"
     inkscape:window-width="1366"
     inkscape:window-height="707"
     inkscape:window-x="0"
     inkscape:window-y="26"
     inkscape:window-maximized="1" />
  <metadata
     id="metadata5">
    <rdf:RDF>
      <cc:Work
         rdf:about="">
        <dc:format>image/svg+xml</dc:format>
        <dc:type
           rdf:resource="http://purl.org/dc/dcmitype/StillImage" />
        <dc:title></dc:title>
      </cc:Work>
    </rdf:RDF>
  </metadata>
  <g
     inkscape:label="Layer 1"
     inkscape:groupmode="layer"
     id="layer1">
    <path
       style="fill:#000000;stroke-width:0.35277781"
       d="m 91.422579,303.9363 c -0.314456,-0.0385 -0.740314,-2.82494 -1.176837,-7.70011 -0.541775,-6.05076 -0.815512,-7.65171 -1.316107,-7.69716 -1.380201,-0.12531 -1.823127,-0.99338 -1.930584,-3.78369 -0.05901,-1.53223 0.0745,-2.85055 0.296701,-2.92961 0.222196,-0.079 0.268664,-0.3752 0.103345,-0.65805 -0.165358,-0.28287 -0.209203,-6.7747 -0.09742,-14.42627 0.111774,-7.65158 0.207602,-17.81881 0.212961,-22.59384 l 0.0097,-8.68187 -1.937048,-0.40554 c -1.268233,-0.2655 -2.473813,-0.80608 -3.491696,-1.56566 -1.387482,-1.0354 -1.559694,-1.30137 -1.601465,-2.47339 -0.02574,-0.72229 0.143462,-1.38095 0.376012,-1.46368 0.244973,-0.0872 0.231647,-0.17385 -0.03164,-0.20607 -0.252005,-0.0309 -0.43161,-0.64501 -0.403156,-1.3786 0.02822,-0.72764 -0.123187,-1.58466 -0.336439,-1.9045 -0.689712,-1.03442 -0.171132,-3.02505 1.258793,-4.83197 l 1.313522,-1.65985 0.956017,-11.89053 c 0.67025,-8.33626 1.138607,-12.12018 1.566845,-12.65879 0.630995,-0.79408 1.807114,-13.39593 2.834104,-30.37311 0.539625,-8.92057 0.736467,-10.20228 1.763758,-11.48467 0.375799,-0.46912 0.743353,-1.14739 0.816797,-1.50727 0.274896,-1.34703 1.684606,-3.24214 2.476797,-3.32964 0.680778,-0.0752 0.741575,-0.15294 0.593106,-0.75846 -0.132255,-0.53936 0.07744,-0.88276 1.045383,-1.712 0.665951,-0.57053 1.538765,-1.02287 1.939586,-1.00522 0.633896,0.0279 0.699429,-0.0407 0.503435,-0.52752 -0.341573,-0.84829 2.266649,-2.85749 2.973941,-2.29089 0.27734,0.22217 0.60352,0.28006 0.72483,0.12862 0.1213,-0.15142 0.088,-0.38147 -0.0739,-0.51121 -0.16197,-0.12975 -0.0316,-0.48296 0.28975,-0.78492 0.41217,-0.38735 0.81935,-0.40155 1.3826,-0.0483 0.53001,0.33245 1.33848,0.33988 2.40553,0.0222 2.04903,-0.61009 5.61253,-0.54683 8.38223,0.14878 1.68626,0.42351 2.64619,0.91487 4.36277,2.23316 1.21041,0.92965 2.21861,1.55187 2.24034,1.38283 17.3396,15.68758 3.49151,8.58536 -2.37459,2.0535 -3.24608,-2.59945 -5.34414,-3.2275 -9.33338,-2.79415 -1.90591,0.20705 -3.10035,0.51271 -3.00882,0.76997 0.15225,0.42795 -0.9905,1.51238 -1.31869,1.25141 -0.0961,-0.0766 -0.46712,0.20094 -0.8243,0.61652 -1.11867,1.30162 -2.13486,1.91012 -2.73929,1.64037 -0.522795,-0.23331 -0.53244,-0.21449 -0.0941,0.1837 0.37583,0.34144 0.33466,0.55485 -0.178709,0.92631 -0.366885,0.26546 -1.466397,1.3172 -2.443368,2.33719 l -1.776284,1.85453 0.611355,0.9752 c 0.336246,0.53635 0.564446,1.46571 0.507102,2.06521 -0.09702,1.01436 0.779542,16.95645 1.746275,31.75967 0.229802,3.51885 0.679202,6.92994 0.99867,7.58022 0.33939,0.69081 0.727839,4.11877 0.934439,8.24577 0.75801,15.14291 0.8248,15.69803 2.10849,17.52501 1.42732,2.03139 1.86324,3.28683 1.47969,4.26141 -0.16071,0.40839 -0.23193,1.65684 -0.15826,2.77434 0.0737,1.1175 0.004,2.4346 -0.15482,2.92688 -0.51878,1.60806 -2.92589,3.15006 -5.954854,3.81468 l -1.328798,0.29157 -0.05193,5.15656 c -0.166542,16.53705 -0.173999,25.50663 -0.02748,33.071 0.07195,3.71527 -0.01115,6.93228 -0.184688,7.14891 -0.173537,0.21663 -0.196861,0.59686 -0.05184,0.84495 0.145035,0.2481 0.239299,1.69929 0.209475,3.22486 -0.05418,2.7715 -0.05512,2.77412 -1.161495,3.20882 -0.609002,0.23928 -1.200033,0.55085 -1.313403,0.69237 -0.11337,0.14152 -0.531867,3.45701 -0.929997,7.36775 -0.398123,3.91075 -0.814371,7.22343 -0.924993,7.36152 -0.110622,0.13809 -0.422881,0.22393 -0.693915,0.19074 z m 4.214788,-21.60746 c -0.07637,-0.47374 -0.247634,-0.72556 -0.380583,-0.55959 -0.132949,0.16596 -0.179169,0.47757 -0.102709,0.69247 0.07645,0.21489 0.03346,0.52247 -0.09554,0.68351 -0.139728,0.17443 -0.306961,-0.016 -0.413667,-0.47106 -0.162875,-0.69457 -0.179839,-0.69169 -0.187035,0.0317 -0.0043,0.43759 0.109547,0.78265 0.253098,0.76679 0.334446,-0.0369 0.60708,1.60565 0.32496,1.95783 -0.117359,0.1465 -0.29399,-0.0774 -0.392507,-0.49749 -0.162091,-0.69123 -0.179892,-0.68974 -0.187308,0.0156 -0.0045,0.42871 0.143252,0.79802 0.32836,0.82068 0.185108,0.0227 0.313514,0.22947 0.285342,0.45957 -0.02817,0.23009 0.07306,0.51791 0.224965,0.6396 0.304684,0.24407 0.562694,-3.17458 0.342624,-4.5397 z m -4.389961,6.42029 c -0.227144,-0.18196 -0.545331,-0.16565 -0.707074,0.0363 -0.313071,0.39081 -0.05207,0.75866 0.495395,0.69819 0.553735,-0.0612 0.64723,-0.38554 0.211679,-0.73445 z m 2.030945,-10.15274 c 0.0056,-0.62765 -0.08554,-1.03783 -0.202484,-0.91152 -0.11694,0.1263 -0.122348,-0.1048 -0.01197,-0.51365 0.110351,-0.40882 0.199996,-5.1386 0.199215,-10.51062 -0.0036,-25.0635 -0.05644,-34.35035 -0.195942,-34.4621 -0.156935,-0.12572 -0.168356,0.0971 -0.178294,3.47328 -0.0033,1.1161 -0.02307,4.55815 -0.04398,7.649 -0.0209,3.09085 -0.0457,7.44421 -0.05512,9.67414 -0.05554,13.16578 -0.236908,25.47377 -0.382061,25.9285 -0.159501,0.49968 0.454188,1.32134 0.729867,0.97721 0.07185,-0.0897 0.135191,-0.6766 0.140762,-1.30424 z m -2.574475,0.45105 c -0.163521,-0.27322 -0.142257,-5.2096 0.100449,-23.31851 0.238677,-17.808 0.223143,-22.63706 -0.07569,-23.53951 l -0.315327,-0.95222 -0.255253,1.27129 c -0.140388,0.69922 -0.15798,2.15203 -0.03909,3.22848 0.118896,1.07646 0.144831,2.05259 0.05764,2.1692 -0.177243,0.23725 -0.198209,1.2408 -0.210539,10.1232 -0.0048,3.41968 -0.02357,7.65088 -0.04181,9.40268 -0.01826,1.75178 -0.05274,6.1188 -0.07663,9.70446 -0.03772,5.66046 -0.142772,11.9828 -0.206409,12.42329 -0.03583,0.24803 0.849671,0.25921 1.046728,0.0132 0.10404,-0.12988 0.111211,-0.36639 0.01593,-0.52558 z m 8.273623,-49.16761 c -0.504083,0.0557 -0.267712,0.62414 0.287803,0.69216 0.419627,0.0514 0.471798,-0.0133 0.2664,-0.33095 -0.140219,-0.21701 -0.389755,-0.37967 -0.554541,-0.36147 z m -3.765186,-2.75658 c -0.420656,-0.0783 -0.957946,-0.0736 -1.193977,0.0103 -0.236035,0.084 0.06644,0.20009 0.672154,0.25803 1.282569,0.12268 1.638744,-0.0605 0.521823,-0.26837 z m -4.990137,-1.54676 c -0.13044,0.0144 -0.312593,-0.85883 -0.404796,-1.94052 l -0.167644,-1.9667 -1.508418,0.16659 c -1.547697,0.17094 -2.21799,0.57175 -1.678685,1.00377 0.167635,0.13429 0.07698,0.37734 -0.201477,0.5401 -0.278442,0.16277 -0.341171,0.31617 -0.139433,0.34085 0.201759,0.0247 0.20326,0.57471 0.0033,1.22224 -0.199918,0.64753 -0.390379,1.31469 -0.423245,1.48259 -0.03288,0.16788 -0.182875,0.14943 -0.333273,-0.041 -0.150437,-0.19043 -0.454477,-0.2368 -0.67563,-0.10304 -0.26674,0.16134 -0.195108,0.3093 0.212721,0.43947 0.579298,0.18492 0.550756,0.22079 -0.494548,0.62056 -1.101584,0.42186 -1.10197,0.42276 -0.05852,0.13607 0.577717,-0.15873 2.11862,-0.44007 3.424215,-0.62523 1.305595,-0.18516 2.443164,-0.55394 2.527939,-0.81951 0.08475,-0.26558 0.04741,-0.47106 -0.08302,-0.45665 z"
       id="path877"
       inkscape:connector-curvature="0"
       sodipodi:nodetypes="ccscccccccccccccccscsccccccccccccccccccccccccccccsccccccccscccssscsccccccccccccccccccccccccccccccsccccsccccccccccccccccccccccccccccccccccccsccc" />
  </g>
</svg>
