<?xml version="1.0" encoding="UTF-8" standalone="no"?>
<!-- Created with Inkscape (http://www.inkscape.org/) -->

<svg
   xmlns:dc="http://purl.org/dc/elements/1.1/"
   xmlns:cc="http://creativecommons.org/ns#"
   xmlns:rdf="http://www.w3.org/1999/02/22-rdf-syntax-ns#"
   xmlns:svg="http://www.w3.org/2000/svg"
   xmlns="http://www.w3.org/2000/svg"
   xmlns:sodipodi="http://sodipodi.sourceforge.net/DTD/sodipodi-0.dtd"
   xmlns:inkscape="http://www.inkscape.org/namespaces/inkscape"
   width="17.700001mm"
   height="19.700001mm"
   viewBox="0 0 17.700001 19.700001"
   version="1.1"
   id="svg8"
   inkscape:version="0.92.2 5c3e80d, 2017-08-06"
   sodipodi:docname="briefmarke.svg">
  <defs
     id="defs2" />
  <sodipodi:namedview
     id="base"
     pagecolor="#ffffff"
     bordercolor="#666666"
     borderopacity="1.0"
     inkscape:pageopacity="0.0"
     inkscape:pageshadow="2"
     inkscape:zoom="4.0905855"
     inkscape:cx="27.876824"
     inkscape:cy="26.046345"
     inkscape:document-units="mm"
     inkscape:current-layer="layer1"
     showgrid="false"
     inkscape:measure-start="118.871,678.876"
     inkscape:measure-end="118.626,671.053"
     fit-margin-top="1"
     fit-margin-left="1"
     fit-margin-bottom="1"
     fit-margin-right="1"
     inkscape:window-width="1920"
     inkscape:window-height="1064"
     inkscape:window-x="0"
     inkscape:window-y="16"
     inkscape:window-maximized="0" />
  <metadata
     id="metadata5">
    <rdf:RDF>
      <cc:Work
         rdf:about="">
        <dc:format>image/svg+xml</dc:format>
        <dc:type
           rdf:resource="http://purl.org/dc/dcmitype/StillImage" />
        <dc:title></dc:title>
      </cc:Work>
    </rdf:RDF>
  </metadata>
  <g
     inkscape:label="Layer 1"
     inkscape:groupmode="layer"
     id="layer1"
     transform="translate(-25.945401,-112.86137)">
    <g
       id="g4580">
      <rect
         y="114.21137"
         x="27.295401"
         height="17"
         width="15"
         id="rect4504"
         style="opacity:1;fill:#ffffff;fill-opacity:1;fill-rule:nonzero;stroke:#000000;stroke-width:0.69999999;stroke-linecap:square;stroke-linejoin:miter;stroke-miterlimit:4;stroke-dasharray:none;stroke-dashoffset:0;stroke-opacity:0.98623855;paint-order:normal" />
      <g
         id="text4508"
         style="font-style:normal;font-variant:normal;font-weight:normal;font-stretch:normal;font-size:3.17499995px;line-height:2.11666656px;font-family:'Nimbus Sans';-inkscape-font-specification:'Nimbus Sans';text-align:center;writing-mode:lr-tb;text-anchor:middle;opacity:1;fill:#ffffff;fill-opacity:1;fill-rule:nonzero;stroke:#000000;stroke-width:0.3882823;stroke-linecap:square;stroke-linejoin:round;stroke-miterlimit:4;stroke-dasharray:none;stroke-dashoffset:0;stroke-opacity:0.98623855;paint-order:normal"
         aria-label="Entgelt
zahlt
Empfänger">
        <path
           id="path4514"
           style="font-size:3.17499995px;line-height:3.4395833px;letter-spacing:-0.26458332px;fill:#000000;stroke:none;stroke-width:0.3882823"
           d="m 31.133484,119.0289 h 1.260475 v -0.26035 h -1.260475 v -0.73977 h 1.3081 v -0.26035 h -1.603375 v 2.31457 h 1.660525 v -0.26035 h -1.36525 z" />
        <path
           id="path4516"
           style="font-size:3.17499995px;line-height:3.4395833px;letter-spacing:-0.26458332px;fill:#000000;stroke:none;stroke-width:0.3882823"
           d="m 32.630926,118.4193 v 1.6637 h 0.2667 v -0.91757 c 0,-0.33973 0.1778,-0.56198 0.45085,-0.56198 0.20955,0 0.3429,0.127 0.3429,0.32703 v 1.15252 h 0.263525 v -1.2573 c 0,-0.27622 -0.206375,-0.45402 -0.52705,-0.45402 -0.24765,0 -0.4064,0.0953 -0.55245,0.32702 v -0.2794 z" />
        <path
           id="path4518"
           style="font-size:3.17499995px;line-height:3.4395833px;letter-spacing:-0.26458332px;fill:#000000;stroke:none;stroke-width:0.3882823"
           d="m 34.717877,118.4193 h -0.27305 v -0.4572 h -0.263525 v 0.4572 h -0.225425 v 0.2159 h 0.225425 v 1.2573 c 0,0.17145 0.1143,0.26353 0.320675,0.26353 0.06985,0 0.127,-0.006 0.2159,-0.0222 v -0.22225 c -0.0381,0.01 -0.07303,0.0127 -0.127,0.0127 -0.1143,0 -0.14605,-0.0318 -0.14605,-0.14922 v -1.13983 h 0.27305 z" />
        <path
           id="path4520"
           style="font-size:3.17499995px;line-height:3.4395833px;letter-spacing:-0.26458332px;fill:#000000;stroke:none;stroke-width:0.3882823"
           d="m 35.779104,118.4193 v 0.2413 c -0.13335,-0.20002 -0.2794,-0.28892 -0.48895,-0.28892 -0.403225,0 -0.682625,0.37465 -0.682625,0.90805 0,0.2794 0.06668,0.4826 0.20955,0.65087 0.123825,0.14605 0.282575,0.22543 0.454025,0.22543 0.200025,0 0.3429,-0.0889 0.4826,-0.29845 v 0.0857 c 0,0.4445 -0.123825,0.6096 -0.454025,0.6096 -0.225425,0 -0.3429,-0.0889 -0.3683,-0.2794 h -0.269875 c 0.0254,0.30798 0.269875,0.50165 0.631825,0.50165 0.244475,0 0.447675,-0.0794 0.555625,-0.21272 0.127,-0.15558 0.174625,-0.36195 0.174625,-0.75248 v -1.39065 z m -0.46355,0.19685 c 0.2794,0 0.43815,0.23495 0.43815,0.65723 0,0.40322 -0.161925,0.63817 -0.43815,0.63817 -0.27305,0 -0.4318,-0.23812 -0.4318,-0.6477 0,-0.4064 0.15875,-0.6477 0.4318,-0.6477 z" />
        <path
           id="path4522"
           style="font-size:3.17499995px;line-height:3.4395833px;letter-spacing:-0.26458332px;fill:#000000;stroke:none;stroke-width:0.3882823"
           d="m 37.609326,119.34005 c 0,-0.254 -0.01905,-0.4064 -0.06668,-0.53022 -0.10795,-0.27305 -0.36195,-0.43815 -0.6731,-0.43815 -0.46355,0 -0.762,0.35242 -0.762,0.9017 0,0.54927 0.28575,0.88265 0.75565,0.88265 0.381,0 0.644525,-0.2159 0.7112,-0.57785 h -0.2667 c -0.07303,0.21907 -0.22225,0.33337 -0.434975,0.33337 -0.168275,0 -0.31115,-0.0762 -0.40005,-0.2159 -0.0635,-0.0953 -0.08572,-0.1905 -0.0889,-0.3556 z m -1.2192,-0.2159 c 0.02222,-0.30797 0.20955,-0.508 0.47625,-0.508 0.269875,0 0.4572,0.20955 0.4572,0.508 z" />
        <path
           id="path4524"
           style="font-size:3.17499995px;line-height:3.4395833px;letter-spacing:-0.26458332px;fill:#000000;stroke:none;stroke-width:0.3882823"
           d="m 37.9535,117.76843 h -0.2667 v 2.31457 h 0.2667 z" />
        <path
           id="path4526"
           style="font-size:3.17499995px;line-height:3.4395833px;letter-spacing:-0.26458332px;fill:#000000;stroke:none;stroke-width:0.3882823"
           d="m 38.7197,118.4193 h -0.27305 v -0.4572 h -0.263525 v 0.4572 H 37.9577 v 0.2159 h 0.225425 v 1.2573 c 0,0.17145 0.1143,0.26353 0.320675,0.26353 0.06985,0 0.127,-0.006 0.2159,-0.0222 v -0.22225 c -0.0381,0.01 -0.07303,0.0127 -0.127,0.0127 -0.1143,0 -0.14605,-0.0318 -0.14605,-0.14922 v -1.13983 h 0.27305 z" />
        <path
           id="path4528"
           style="font-size:3.17499995px;line-height:3.4395833px;letter-spacing:-0.26458332px;fill:#000000;stroke:none;stroke-width:0.3882823"
           d="m 33.266398,121.85888 h -1.241425 v 0.23178 h 0.9271 l -0.993775,1.1938 v 0.23812 h 1.35255 v -0.23177 h -1.031875 l 0.987425,-1.19698 z" />
        <path
           id="path4530"
           style="font-size:3.17499995px;line-height:3.4395833px;letter-spacing:-0.26458332px;fill:#000000;stroke:none;stroke-width:0.3882823"
           d="m 34.85661,123.36701 c -0.02858,0.006 -0.04128,0.006 -0.05715,0.006 -0.09208,0 -0.142875,-0.0476 -0.142875,-0.13018 v -0.9779 c 0,-0.29527 -0.2159,-0.45402 -0.625475,-0.45402 -0.244475,0 -0.43815,0.0699 -0.55245,0.19367 -0.0762,0.0857 -0.10795,0.18098 -0.1143,0.34608 h 0.2667 c 0.02222,-0.2032 0.142875,-0.29528 0.390525,-0.29528 0.2413,0 0.371475,0.0889 0.371475,0.24765 v 0.0699 c -0.0032,0.1143 -0.06032,0.15558 -0.276225,0.18415 -0.37465,0.0476 -0.4318,0.0603 -0.5334,0.1016 -0.193675,0.0825 -0.2921,0.2286 -0.2921,0.4445 0,0.30163 0.20955,0.49213 0.5461,0.49213 0.20955,0 0.377825,-0.073 0.56515,-0.24448 0.01905,0.17145 0.1016,0.24448 0.27305,0.24448 0.05715,0 0.09208,-0.006 0.180975,-0.0286 z m -0.46355,-0.3683 c 0,0.0889 -0.0254,0.14287 -0.104775,0.2159 -0.10795,0.0984 -0.238125,0.14922 -0.3937,0.14922 -0.206375,0 -0.327025,-0.0984 -0.327025,-0.2667 0,-0.17462 0.1143,-0.26352 0.40005,-0.3048 0.282575,-0.0381 0.33655,-0.0508 0.42545,-0.0921 z" />
        <path
           id="path4532"
           style="font-size:3.17499995px;line-height:3.4395833px;letter-spacing:-0.26458332px;fill:#000000;stroke:none;stroke-width:0.3882823"
           d="m 34.882985,121.20801 v 2.31457 h 0.263525 v -0.91757 c 0,-0.33973 0.1778,-0.56198 0.45085,-0.56198 0.0889,0 0.17145,0.0254 0.23495,0.073 0.0762,0.0571 0.10795,0.13652 0.10795,0.254 v 1.15252 h 0.263525 v -1.2573 c 0,-0.2794 -0.200025,-0.45402 -0.523875,-0.45402 -0.23495,0 -0.377825,0.073 -0.5334,0.27622 v -0.87947 z" />
        <path
           id="path4534"
           style="font-size:3.17499995px;line-height:3.4395833px;letter-spacing:-0.26458332px;fill:#000000;stroke:none;stroke-width:0.3882823"
           d="m 36.646086,121.20801 h -0.2667 v 2.31457 h 0.2667 z" />
        <path
           id="path4536"
           style="font-size:3.17499995px;line-height:3.4395833px;letter-spacing:-0.26458332px;fill:#000000;stroke:none;stroke-width:0.3882823"
           d="m 37.412286,121.85888 h -0.27305 v -0.4572 h -0.263525 v 0.4572 h -0.225425 v 0.2159 h 0.225425 v 1.2573 c 0,0.17145 0.1143,0.26353 0.320675,0.26353 0.06985,0 0.127,-0.006 0.2159,-0.0222 v -0.22225 c -0.0381,0.01 -0.07303,0.0127 -0.127,0.0127 -0.1143,0 -0.14605,-0.0317 -0.14605,-0.14922 v -1.13983 h 0.27305 z" />
        <path
           id="path4538"
           style="font-size:3.17499995px;line-height:3.4395833px;letter-spacing:-0.26458332px;fill:#000000;stroke:none;stroke-width:0.3882823"
           d="m 28.557931,125.90807 h 1.260475 v -0.26035 h -1.260475 v -0.73978 h 1.3081 v -0.26035 h -1.603375 v 2.31458 h 1.660525 v -0.26035 h -1.36525 z" />
        <path
           id="path4540"
           style="font-size:3.17499995px;line-height:3.4395833px;letter-spacing:-0.26458332px;fill:#000000;stroke:none;stroke-width:0.3882823"
           d="m 30.055373,125.29847 v 1.6637 h 0.2667 v -1.04458 c 0,-0.2413 0.174625,-0.43497 0.390525,-0.43497 0.19685,0 0.307975,0.12065 0.307975,0.33337 v 1.14618 h 0.2667 v -1.04458 c 0,-0.2413 0.174625,-0.43497 0.390525,-0.43497 0.193675,0 0.307975,0.12382 0.307975,0.33337 v 1.14618 h 0.2667 v -1.24778 c 0,-0.29845 -0.17145,-0.46355 -0.4826,-0.46355 -0.22225,0 -0.3556,0.0667 -0.511175,0.254 -0.09842,-0.1778 -0.231775,-0.254 -0.447675,-0.254 -0.22225,0 -0.371475,0.0825 -0.511175,0.28258 v -0.23495 z" />
        <path
           id="path4542"
           style="font-size:3.17499995px;line-height:3.4395833px;letter-spacing:-0.26458332px;fill:#000000;stroke:none;stroke-width:0.3882823"
           d="m 32.394091,127.65432 h 0.2667 v -0.86678 c 0.1397,0.17145 0.295275,0.24765 0.511175,0.24765 0.4318,0 0.7112,-0.34607 0.7112,-0.8763 0,-0.5588 -0.27305,-0.90805 -0.714375,-0.90805 -0.225425,0 -0.4064,0.1016 -0.530225,0.29845 v -0.25082 h -0.244475 z m 0.73025,-2.15583 c 0.2921,0 0.4826,0.25718 0.4826,0.65405 0,0.37783 -0.193675,0.635 -0.4826,0.635 -0.282575,0 -0.46355,-0.254 -0.46355,-0.64452 0,-0.39053 0.180975,-0.64453 0.46355,-0.64453 z" />
        <path
           id="path4544"
           style="font-size:3.17499995px;line-height:3.4395833px;letter-spacing:-0.26458332px;fill:#000000;stroke:none;stroke-width:0.3882823"
           d="m 34.544542,125.29847 h -0.276225 v -0.26035 c 0,-0.11113 0.06032,-0.16828 0.18415,-0.16828 0.02222,0 0.03175,0 0.09208,0.003 v -0.21908 c -0.06032,-0.0127 -0.09525,-0.0159 -0.149225,-0.0159 -0.244475,0 -0.390525,0.1397 -0.390525,0.37782 v 0.28258 h -0.22225 v 0.2159 h 0.22225 v 1.4478 h 0.263525 v -1.4478 h 0.276225 z" />
        <path
           id="path4546"
           style="font-size:3.17499995px;line-height:3.4395833px;letter-spacing:-0.26458332px;fill:#000000;stroke:none;stroke-width:0.3882823"
           d="m 36.015196,126.80659 c -0.02858,0.006 -0.04128,0.006 -0.05715,0.006 -0.09208,0 -0.142875,-0.0476 -0.142875,-0.13017 v -0.9779 c 0,-0.29528 -0.2159,-0.45403 -0.625475,-0.45403 -0.244475,0 -0.43815,0.0699 -0.55245,0.19368 -0.0762,0.0857 -0.10795,0.18097 -0.1143,0.34607 h 0.2667 c 0.02222,-0.2032 0.142875,-0.29527 0.390525,-0.29527 0.2413,0 0.371475,0.0889 0.371475,0.24765 v 0.0699 c -0.0032,0.1143 -0.06032,0.15557 -0.276225,0.18415 -0.37465,0.0476 -0.4318,0.0603 -0.5334,0.1016 -0.193675,0.0826 -0.2921,0.2286 -0.2921,0.4445 0,0.30162 0.20955,0.49212 0.5461,0.49212 0.20955,0 0.377825,-0.073 0.56515,-0.24447 0.01905,0.17145 0.1016,0.24447 0.27305,0.24447 0.05715,0 0.09208,-0.006 0.180975,-0.0286 z m -0.46355,-0.3683 c 0,0.0889 -0.0254,0.14288 -0.104775,0.2159 -0.10795,0.0984 -0.238125,0.14923 -0.3937,0.14923 -0.206375,0 -0.327025,-0.0984 -0.327025,-0.2667 0,-0.17463 0.1143,-0.26353 0.40005,-0.3048 0.282575,-0.0381 0.33655,-0.0508 0.42545,-0.0921 z m -0.460375,-1.74625 h -0.3302 v 0.32703 h 0.3302 z m 0.51435,0 h -0.3302 v 0.32703 h 0.3302 z" />
        <path
           id="path4548"
           style="font-size:3.17499995px;line-height:3.4395833px;letter-spacing:-0.26458332px;fill:#000000;stroke:none;stroke-width:0.3882823"
           d="m 36.041571,125.29847 v 1.6637 h 0.2667 v -0.91758 c 0,-0.33972 0.1778,-0.56197 0.45085,-0.56197 0.20955,0 0.3429,0.127 0.3429,0.32702 v 1.15253 h 0.263525 v -1.2573 c 0,-0.27623 -0.206375,-0.45403 -0.52705,-0.45403 -0.24765,0 -0.4064,0.0953 -0.55245,0.32703 v -0.2794 z" />
        <path
           id="path4550"
           style="font-size:3.17499995px;line-height:3.4395833px;letter-spacing:-0.26458332px;fill:#000000;stroke:none;stroke-width:0.3882823"
           d="m 38.604772,125.29847 v 0.2413 c -0.13335,-0.20003 -0.2794,-0.28893 -0.48895,-0.28893 -0.403225,0 -0.682625,0.37465 -0.682625,0.90805 0,0.2794 0.06668,0.4826 0.20955,0.65088 0.123825,0.14605 0.282575,0.22542 0.454025,0.22542 0.200025,0 0.3429,-0.0889 0.4826,-0.29845 v 0.0857 c 0,0.4445 -0.123825,0.6096 -0.454025,0.6096 -0.225425,0 -0.3429,-0.0889 -0.3683,-0.2794 h -0.269875 c 0.0254,0.30797 0.269875,0.50165 0.631825,0.50165 0.244475,0 0.447675,-0.0794 0.555625,-0.21273 0.127,-0.15557 0.174625,-0.36195 0.174625,-0.75247 v -1.39065 z m -0.46355,0.19685 c 0.2794,0 0.43815,0.23495 0.43815,0.65722 0,0.40323 -0.161925,0.63818 -0.43815,0.63818 -0.27305,0 -0.4318,-0.23813 -0.4318,-0.6477 0,-0.4064 0.15875,-0.6477 0.4318,-0.6477 z" />
        <path
           id="path4552"
           style="font-size:3.17499995px;line-height:3.4395833px;letter-spacing:-0.26458332px;fill:#000000;stroke:none;stroke-width:0.3882823"
           d="m 40.434994,126.21922 c 0,-0.254 -0.01905,-0.4064 -0.06668,-0.53023 -0.10795,-0.27305 -0.36195,-0.43815 -0.6731,-0.43815 -0.46355,0 -0.762,0.35243 -0.762,0.9017 0,0.54928 0.28575,0.88265 0.75565,0.88265 0.381,0 0.644525,-0.2159 0.7112,-0.57785 h -0.2667 c -0.07303,0.21908 -0.22225,0.33338 -0.434975,0.33338 -0.168275,0 -0.31115,-0.0762 -0.40005,-0.2159 -0.0635,-0.0953 -0.08573,-0.1905 -0.0889,-0.3556 z m -1.2192,-0.2159 c 0.02222,-0.30798 0.20955,-0.508 0.47625,-0.508 0.269875,0 0.4572,0.20955 0.4572,0.508 z" />
        <path
           id="path4554"
           style="font-size:3.17499995px;line-height:3.4395833px;letter-spacing:-0.26458332px;fill:#000000;stroke:none;stroke-width:0.3882823"
           d="m 40.528044,125.29847 v 1.6637 h 0.2667 v -0.8636 c 0.0032,-0.40005 0.168275,-0.57785 0.5334,-0.56833 v -0.26987 c -0.04445,-0.006 -0.06985,-0.01 -0.1016,-0.01 -0.17145,0 -0.301625,0.1016 -0.454025,0.34925 v -0.30162 z" />
      </g>
    </g>
  </g>
</svg>
