<?xml version="1.0" encoding="UTF-8" standalone="no"?>
<!-- Created with Inkscape (http://www.inkscape.org/) -->

<svg
   xmlns:dc="http://purl.org/dc/elements/1.1/"
   xmlns:cc="http://creativecommons.org/ns#"
   xmlns:rdf="http://www.w3.org/1999/02/22-rdf-syntax-ns#"
   xmlns:svg="http://www.w3.org/2000/svg"
   xmlns="http://www.w3.org/2000/svg"
   xmlns:sodipodi="http://sodipodi.sourceforge.net/DTD/sodipodi-0.dtd"
   xmlns:inkscape="http://www.inkscape.org/namespaces/inkscape"
   width="5.1999998cm"
   height="5.1999998cm"
   viewBox="0 0 51.999998 51.999997"
   version="1.1"
   id="svg4528"
   inkscape:version="0.92.2 (5c3e80d, 2017-08-06)"
   sodipodi:docname="muc3_34c3.svg">
  <title
     id="title4530">34c3 muc3 sticker</title>
  <defs
     id="defs4522" />
  <sodipodi:namedview
     id="base"
     pagecolor="#000000"
     bordercolor="#666666"
     borderopacity="1.0"
     inkscape:pageopacity="0"
     inkscape:pageshadow="2"
     inkscape:zoom="4.65"
     inkscape:cx="96.993949"
     inkscape:cy="163.73068"
     inkscape:document-units="cm"
     inkscape:current-layer="layer2"
     showgrid="true"
     units="cm"
     inkscape:showpageshadow="false"
     inkscape:measure-start="8.41584,196.411"
     inkscape:measure-end="8.41584,191.832"
     inkscape:window-width="1440"
     inkscape:window-height="900"
     inkscape:window-x="0"
     inkscape:window-y="23"
     inkscape:window-maximized="0">
    <inkscape:grid
       type="xygrid"
       id="grid5144"
       units="cm"
       spacingx="0.99999996"
       spacingy="0.99999996" />
  </sodipodi:namedview>
  <metadata
     id="metadata4525">
    <rdf:RDF>
      <cc:Work
         rdf:about="">
        <dc:format>image/svg+xml</dc:format>
        <dc:type
           rdf:resource="http://purl.org/dc/dcmitype/StillImage" />
        <dc:title>34c3 muc3 sticker</dc:title>
        <cc:license
           rdf:resource="http://creativecommons.org/licenses/by/4.0/" />
      </cc:Work>
      <cc:License
         rdf:about="http://creativecommons.org/licenses/by/4.0/">
        <cc:permits
           rdf:resource="http://creativecommons.org/ns#Reproduction" />
        <cc:permits
           rdf:resource="http://creativecommons.org/ns#Distribution" />
        <cc:requires
           rdf:resource="http://creativecommons.org/ns#Notice" />
        <cc:requires
           rdf:resource="http://creativecommons.org/ns#Attribution" />
        <cc:permits
           rdf:resource="http://creativecommons.org/ns#DerivativeWorks" />
      </cc:License>
    </rdf:RDF>
  </metadata>
  <g
     inkscape:label="Layer 1"
     inkscape:groupmode="layer"
     id="layer1"
     transform="translate(0,-245.00002)" />
  <g
     inkscape:groupmode="layer"
     id="layer2"
     inkscape:label="Druckbereich">
    <rect
       style="fill:#000000;fill-opacity:1;stroke-width:0.26458332"
       id="rect4533"
       width="50"
       height="50"
       x="1.0272057"
       y="1.2345854" />
    <g
       aria-label="µc3"
       transform="matrix(0.26458332,0,0,0.26458332,2.6310312,2.0925075)"
       style="font-style:normal;font-variant:normal;font-weight:normal;font-stretch:normal;font-size:146.66667175px;line-height:1.25;font-family:'3 The Hard Way Overrun';-inkscape-font-specification:'3 The Hard Way Overrun, Normal';font-variant-ligatures:normal;font-variant-caps:normal;font-variant-numeric:normal;font-feature-settings:normal;text-align:start;letter-spacing:0px;word-spacing:0px;writing-mode:lr-tb;text-anchor:start;display:inline;fill:#a41c31;fill-opacity:1;stroke:none"
       id="flowRoot4555">
      <path
         d="m 2.0090106,149.71134 c 0.2933333,-0.29333 0.88,-0.29333 1.76,0.14667 0.44,0.29333 1.0266667,0.29333 1.7600001,0.14666 1.0266667,-0.14666 2.2000001,-0.29333 3.5200001,-0.14666 l 1.7600002,0.29333 c 0.733333,-0.44 1.173333,-0.73333 1.613333,-0.88 1.026667,-0.44 1.32,0.44 1.466667,0.88 h 6.306667 c 0,-0.29333 -0.146667,-1.17333 -0.586667,-2.49333 -0.146667,-0.44 -0.146667,-0.73334 0,-0.88 0.293334,-0.29334 0.44,-0.58667 0.44,-0.73334 -0.146666,-1.02666 -0.293333,-1.46666 -0.293333,-1.32 0,0 -0.293334,0 -0.733334,0 0,-1.32 0.586667,-2.05333 1.026667,-2.49333 v -4.4 c -0.293333,-0.29333 -0.293333,-0.73333 0,-1.46667 0.146667,-0.58666 0.293334,-1.17333 0.293334,-1.61333 -0.146667,-1.17333 -0.293334,-2.2 -0.586667,-2.93333 v -0.29334 c 0.146667,-0.44 0.293333,-1.61333 0.293333,-3.81333 v -3.96 c 0,-0.73334 0.44,-1.76 1.173334,-1.17334 5.866666,4.25334 11.44,6.30667 16.72,6.30667 0.293333,-0.14667 0.586667,-0.14667 0.733333,-0.29333 h 1.026667 c 0.733334,0 1.466667,0 2.493334,0.14666 l 4.546666,0.44 c 1.026667,0.14667 1.906667,0.14667 2.346667,0.29334 1.32,0 2.053334,0 2.346667,-0.14667 1.026667,-0.44 1.613333,-0.58667 2.053333,-0.44 0.733334,0.14667 1.173334,0.29333 1.466667,0.29333 l 1.466667,-0.29333 h 0.146666 c 0,0 0.146667,0.14667 0.44,0.29333 0.293334,0.14667 0.44,0.14667 0.586667,0 0.44,-0.44 0.733334,-0.44 1.026667,-0.29333 1.026667,0.58667 1.76,0 1.906667,-1.76 0.146666,-0.88 0,-1.46667 -0.44,-1.90667 -0.733334,-0.44 -1.173334,-0.88 -1.613334,-1.02666 -0.44,-0.73334 0,-1.02667 1.026667,-1.02667 0.44,0 0.88,0.58667 1.32,0.58667 0,0 -0.146667,-0.73334 -0.293333,-2.2 0,-0.44 0.293333,-1.46667 0.293333,-1.61334 h -1.026667 c 0,-2.49333 1.026667,-2.05333 1.026667,-2.78666 v -2.64 c -0.44,-0.14667 -0.586667,-0.44 -0.586667,-0.88 0,0.58666 0.586667,-1.46667 0.733334,-3.37334 0,-2.05333 -0.146667,-3.37333 -0.44,-3.81333 -1.173334,0.14667 -2.053334,-0.14667 -2.640001,-0.88 0.880001,-0.58667 1.613334,-0.88 2.346667,-0.73333 0.44,0 0.586667,-0.44 0.586667,-1.32 v -1.32 c 0,-0.58667 -1.906667,-0.73334 -1.76,-1.76 0.146667,-0.440003 0.44,-0.586669 0.88,-0.586669 0.146667,0 0.586667,0.293329 1.026667,0.293329 0,-1.026663 -0.44,-1.466663 -0.293334,-2.053329 0.146667,-0.44 0.293334,-0.88 0.146667,-1.173334 -1.32,-1.32 -1.173333,-2.2 -2.64,-3.226667 -3.08,-3.373333 -3.813334,-4.546666 -3.226667,-4.693333 0.146667,0 1.613333,1.026667 2.2,1.613333 1.76,1.76 2.346667,2.786667 2.786667,2.64 0.44,-0.146666 0.733333,-0.44 0.88,-0.586666 -0.146667,-0.146667 -0.293333,-0.293334 -0.293333,-0.586667 0.146666,-0.44 0.293333,-1.466667 0.293333,-3.373333 v -3.226667 c -0.293333,-0.44 -0.44,-0.733334 -0.293333,-1.173334 0.293333,-0.733333 0.44,-1.173333 0.44,-1.32 -0.146667,0 -0.586667,0.146667 -1.026667,0.44 h -0.146667 c -0.44,0 -0.733333,-0.146666 -0.88,-0.44 -0.44,-0.586666 0.293334,-1.026666 2.053334,-1.026666 0,-1.32 -1.32,-3.52 -1.32,-4.253334 0,-0.586666 1.173333,-0.44 1.173333,-2.786667 v -5.28 c 0,-0.146666 -0.293333,-0.293333 -0.88,-0.293333 0.146667,0.293333 0.293333,0.586667 0.293333,1.026667 0,0.44 -0.146666,0.88 -0.586666,1.026666 -0.733334,0.146667 -0.586667,-1.173333 -0.733334,-1.32 -0.586666,-0.44 -0.88,-0.733333 -0.88,-0.586666 0,-0.146667 2.64,-0.88 2.786667,-2.2 0.146667,-1.613334 0.44,-2.200001 -2.933334,-2.200001 0,-0.44 0.146667,-1.173333 0.586667,-2.053333 0,-0.146667 0,-0.146667 0,-0.146667 0.44,0 -0.146666,-0.293333 -1.906667,-0.733333 0.733334,0.146667 0.146667,0.293333 -1.613333,0.293333 -0.733333,0 -0.733333,-0.293333 -0.293333,-0.733333 l 0.88,-0.88 c 0,-0.733333 -0.44,-1.466667 -1.32,-1.906667 l -2.053334,-1.32 c 0.146667,-0.293333 0.44,-0.44 0.586667,-0.293333 1.026667,0 1.613333,0 1.466667,0 0,0 0.293333,0.293333 1.026666,1.026667 0,0 1.026667,0 2.933334,0 v 0.44 c -1.173334,0.146666 -1.76,0.44 -1.76,0.88 0,0.88 1.026666,1.76 3.08,2.64 0.733333,0.146666 1.173333,0.146666 1.32,-0.146667 0.44,-0.733333 -1.026667,-1.906667 -0.88,-2.493333 l 0.733333,-1.32 c 0.44,-0.586667 0.293334,-1.760001 -0.293333,-3.520001 l -0.586667,-2.053333 c -1.026666,-1.173333 -2.053333,-1.026667 -1.613333,-2.053333 0.146667,-0.44 0.44,-0.733334 0.88,-0.586667 0.44,0 0.586667,-1.32 0.586667,-1.76 -0.146667,-0.44 -0.586667,-0.586667 -1.32,-0.586667 -0.440001,0 -0.733334,0.293334 -0.880001,0.88 -0.733333,1.906667 -1.026666,2.933334 -1.026666,2.933334 -0.586667,0.586666 -1.026667,0.586666 -1.173334,0 -0.146666,-0.146667 0,-0.44 0.293334,-0.88 0.146666,-0.44 0.733333,-1.173334 0.88,-1.613334 l -0.44,-0.44 c -2.2,0 -2.346667,2.346667 -2.346667,2.346667 -0.586667,0.146667 -1.32,-0.146667 -2.053333,-0.586667 0,-0.586666 0.146666,-0.88 0.293333,-1.026666 1.026667,-0.586667 1.906667,-0.88 2.64,-1.026667 0.44,-0.293333 0.586667,-0.586667 0.44,-0.88 -0.44,-0.146667 -0.88,-0.146667 -1.32,-0.146667 -0.733333,-0.44 -1.173333,-0.733333 -1.466667,-1.173333 -0.586666,0 -1.026666,0.586666 -1.173333,1.613333 -0.44,0.146667 -0.733333,0.146667 -1.173333,0 -1.173334,0.586667 -1.760001,0.88 -1.760001,0.88 -0.293333,-0.88 -0.293333,-1.613333 0,-2.053333 -0.586666,-0.293334 -1.026666,-0.293334 -1.32,-0.146667 -1.32,-0.293333 -2.053333,-0.44 -2.053333,-0.293333 -0.44,0.733333 -1.173333,1.026666 -1.906667,0.88 -0.586666,-0.146667 -1.173333,-0.293334 -1.906666,-0.293334 -0.44,0.146667 -0.733334,0.146667 -0.88,0.293334 -0.293334,0.44 -0.44,0.586667 -0.293334,0.733333 0.586667,0.733334 0.88,1.173334 0.88,1.026667 l -0.586666,0.44 c -0.44,0.586667 -0.733334,1.32 -0.586667,2.053333 l 0.586667,1.173334 v 0.293333 c -0.44,2.786667 -0.586667,3.813333 -0.586667,3.08 l 1.026667,-0.586667 c 0.146666,-0.146666 0.586666,-0.146666 1.026666,0 0.44,0 0.586667,0.293334 0.733334,0.733334 0,0.44 -0.146667,0.733333 -0.293334,1.026666 -0.733333,0.586667 -1.32,0.880001 -1.76,1.026667 -0.146666,0.44 -0.146666,1.173334 0.293334,2.493334 0.586666,1.613333 -1.026667,1.32 -1.026667,2.346666 v 2.493334 c 0.88,0.293333 1.173333,0.733333 0.88,1.32 -0.44,0.293333 -0.88,0.44 -1.173333,0.44 0,1.026667 0.293333,3.226667 0.293333,3.813333 l -0.293333,1.466667 c -0.146667,0.733333 0.146666,1.173333 0.586666,1.32 1.613334,0.44 2.346667,0.586667 2.346667,0.733333 0,0.146667 -0.146667,0.293334 -0.293333,0.44 h -2.346667 c -0.44,0 -0.44,0.733334 -0.146667,2.053334 0.146667,0.44 0.146667,1.026667 0.146667,1.466667 0.293333,0 0.586667,0.146666 0.88,0.293333 1.026667,0.733333 1.026667,1.173333 0.146667,1.32 -0.44,0 -0.88,0 -1.173334,-0.146667 -0.293333,0.293334 -0.293333,0.88 0,1.906667 0.293334,1.32 0.44,2.053333 0.44,2.493333 -0.146666,0.733334 -0.44,1.173334 -0.586666,1.32 v 1.613334 c 0.44,1.32 0.586666,1.906667 0.586666,1.906667 0,0.44 -0.586666,1.026666 -0.586666,1.173333 v 5.573334 c 0,0.44 1.466666,1.026666 1.613333,1.173333 0.44,0.586667 0.293333,1.026667 -0.733333,1.173333 -0.733334,1.32 -0.733334,2.053333 -1.173334,2.786663 0,0 0.293334,0.29334 0.88,1.02667 0.146667,0.14667 0.293334,0.44 0.293334,0.73333 -0.146667,0.14667 -0.293334,0.29334 -0.44,0.29334 -0.146667,0 -1.026667,-0.29334 -1.173334,-0.29334 -0.293333,0 -0.586667,0.29334 -1.026667,0.73334 -1.76,3.08 -3.08,2.64 -3.373333,3.22666 l -6.16,0.58667 c 0.293333,0.44 0.293333,0.73333 0.146666,1.17333 -0.146666,0.44 -0.586666,0.44 -1.026666,0.14667 -0.586667,-0.29333 -0.733334,-0.58667 -0.44,-1.02667 0.146666,-0.29333 0.146666,-0.44 0.146666,-0.58666 -0.88,-0.58667 -1.613333,-1.02667 -2.346666,-1.17334 -1.906667,-1.61333 -2.493334,-2.34666 -2.493334,-2.49333 -1.026666,-1.17333 -2.346667,-1.02667 -1.613333,-2.34667 0.146667,-0.29333 0.293333,-0.73333 0.146667,-1.173329 0,-0.44 -0.146667,-0.586667 -0.44,-0.733334 -0.586667,-0.146666 -0.733334,-0.44 -0.293334,-0.586666 0.293334,-0.146667 0.44,-0.293334 0.44,-0.293334 V 73.44467 c 0.293334,-1.906667 0.44,-4.986667 0.44,-9.240001 0,-3.813333 -0.146666,-6.306666 -0.586666,-7.48 0,-0.146667 -0.733334,-1.026667 -0.733334,-1.173333 0,-0.44 0.88,-0.88 0.88,-1.32 0,-0.44 -0.293333,-1.466667 -0.293333,-1.906667 0,0 0.146667,-0.293333 0.293333,-0.88 0.146667,-1.026667 -1.173333,-1.026667 -0.733333,-2.346667 0.293333,-0.733333 0.293333,-1.466666 -0.146667,-1.906667 -0.88,-0.44 -1.613333,-0.586666 -2.2,-0.586666 -1.466667,-0.146667 -2.2,-0.44 -2.2,-0.88 -0.88,0 -1.613333,0.44 -2.2,1.466666 -0.586667,-0.44 -1.026667,-0.733333 -1.32,-0.586666 l -1.6133335,0.293333 c -2.0533334,-0.44 -3.5200001,-0.88 -4.4000002,-1.32 -0.1466666,0 -0.7333333,0.586667 -0.88,0.586667 -1.0266667,0.146666 -1.7600001,0.146666 -2.2000001,0.146666 -1.17333334,0.44 -1.9066667,1.026667 -2.05333337,1.466667 -0.44000002,0 -0.88000003,0.586667 -1.46666673,1.906667 0.1466667,0.44 0.44000002,0.733333 0.5866667,0.88 -0.14666668,0.733333 -0.2933333,1.173333 -0.2933333,1.026667 0,0.586666 1.02666665,1.613333 0.87999998,2.2 -0.44000001,1.906666 -0.73333336,3.52 -0.87999998,4.84 -0.1466667,1.613333 -0.1466667,2.053333 -0.2933334,1.613333 0,0.44 0.2933334,0.88 0.2933334,1.32 -0.1466667,0.586667 -0.1466667,1.026667 -0.2933334,1.173334 0,0 -0.1466667,0 -0.5866667,0 0,0.146666 0.1466667,0.293333 0.2933334,0.586666 0.1466666,0.293334 0,0.44 -0.2933334,0.586667 1.02666672,-0.44 1.90666675,0.44 1.76000008,1.466667 -0.14666667,1.026666 -1.17333338,1.76 -1.90666678,2.2 1.0266668,0 1.46666677,0.293333 1.61333344,0.733333 0,0.88 -0.14666667,1.466667 -0.29333334,1.906667 0.14666667,0.44 0.29333334,0.733333 0.29333334,0.88 -0.14666667,0.44 -0.14666667,0.586667 -0.29333334,0.733333 0.14666667,0.733334 0.14666667,1.32 0.29333334,1.613334 l -0.29333334,0.88 c -0.44,0.733333 -0.5866667,1.32 -0.5866667,1.613333 0,0.146667 0.5866667,0.733334 0.5866667,0.88 v 1.613334 c 0,0.733333 -0.2933333,1.026666 -0.2933333,1.026666 v 3.226667 1.906667 c -0.1466667,0.88 -0.1466667,1.613333 -0.2933334,2.053333 l 1.17333338,2.346667 -1.76000008,0.586667 c 0.2933334,0.293333 0.44,0.586666 0.2933334,1.026666 -0.2933334,0.146667 -0.4400001,0.44 -0.4400001,0.88 -0.1466666,0 0.1466667,-0.146666 0.8800001,-0.586666 0.29333332,-0.146667 0.73333334,-0.293334 1.32000003,-0.293334 v 0.88 c -0.14666668,-0.293333 -0.44000002,-0.44 -0.73333336,-0.293333 -0.14666667,0.146667 -0.29333335,0.293333 -0.43999997,0.733333 -0.1466667,0.88 -0.2933334,1.613334 -0.2933334,2.053334 -0.44,0.586666 -0.5866667,1.026666 -0.44,1.173333 l 0.7333334,0.733334 c 0,0.44 -0.2933334,0.733333 -0.2933334,0.88 v 3.08 c 1.17333338,0.439999 -0.88,2.639999 -0.2933333,3.226669 0.1466666,0.44 0.2933333,1.90666 0.2933333,4.10666 v 3.96 c -0.44,0.44 -0.5866667,0.73334 -0.44,1.17334 0.2933333,0.73333 0.44,1.17333 0.44,1.32 0,1.61333 0,3.66666 0.1466667,6.45333 0.29333332,3.22667 0.44,5.28 0.44,6.30667 -0.14666668,1.61333 -0.14666668,2.64 -0.2933333,3.22667 0.43999997,3.66666 -0.8800001,4.4 -0.8800001,4.84 -0.1466667,2.05333 0.44,3.52 1.76000008,4.54666 -0.58666668,0.29334 -0.87999998,1.17334 -0.87999998,2.78667 0.14666662,0.44 0.14666662,0.73333 0,1.02667 -0.1466667,0.29333 -0.2933334,0.44 -0.1466667,0.58666 0.29333332,0.73334 0.44,1.02667 0.44,1.17334 -0.14666668,0.29333 -0.2933333,0.58666 -0.2933333,0.88 0,1.61333 1.61333334,4.4 2.64,4.4 0.1466667,0 0.2933334,0 0.4400001,-0.14667 z m -3.8133335,-1.61333 c 0.1466667,0 0.1466667,0 0.1466667,-0.14667 0,-0.14667 0,-0.14667 -0.1466667,-0.14667 -0.44,0 -0.44,0.14667 0,0.29334 z M -1.9509896,77.991337 v 0.293333 h 0.2933334 v -0.293333 z m 0.1466667,60.133333 c -0.1466667,0 -0.1466667,0.14667 -0.1466667,0.29334 h 0.5866667 c -0.1466667,-0.29334 -0.2933333,-0.44 -0.44,-0.29334 z m -0.1466667,6.6 v 0.29334 h 0.2933334 v -0.29334 z m 0.5866667,5.13334 c 0,-0.14667 -0.1466667,-0.29334 -0.2933333,-0.29334 -0.1466667,0 -0.1466667,0.14667 -0.2933334,0.29334 0,0.14666 0.1466667,0.14666 0.2933334,0.29333 0.1466666,0 0.1466666,-0.14667 0.2933333,-0.29333 z m 2.34666676,-1.61334 H 1.7156772 c 0,0.44 -0.2933333,0.73334 -0.73333334,0.73334 z m 8.06666694,-56.76 h 0.2933333 v 0.293334 z m 1.3200002,55.44 c -0.5866668,0.58667 -1.1733335,-0.29333 -1.0266669,-1.02666 0.1466667,-0.44 0.2933334,-0.58667 0.7333339,-0.58667 0.44,0 0.733333,0.29333 0.733333,0.73333 0,0.44 -0.146667,0.73334 -0.44,0.88 z m 0,-14.08 c -0.7333335,-0.14666 -0.8800002,-0.73333 -0.8800002,-1.46666 0.5866672,0 1.7600002,0.73333 1.6133332,1.17333 -0.146666,0.14667 -0.293333,0.29333 -0.733333,0.29333 z m 0.146667,8.21334 h 0.586666 l -0.293333,0.44 z m 1.173333,-4.69334 c 0,-0.29333 0.146667,-0.44 0.293333,-0.58666 0.293334,-0.14667 0.44,0 0.586667,0.29333 0.146667,0.29333 0,0.44 -0.293333,0.58667 -0.146667,0.14666 -0.44,0 -0.586667,-0.29334 z m 2.786667,-25.81333 0.293333,-0.29334 0.293333,0.29334 -0.293333,0.29333 z m 0.146666,2.64 c -0.44,-0.14667 -0.293333,-0.44 0.44,-0.73334 0.293334,-0.14666 0.733334,-0.14666 1.173334,-0.14666 0,0.58666 -0.146667,0.88 -0.44,1.02666 -0.586667,0.14667 -1.026667,0 -1.173334,-0.14666 z m 1.173334,-9.53334 c 0,-0.73333 1.026666,-1.32 3.226666,-1.46666 0.44,0.29333 0.733334,0.58666 0.586667,0.88 -0.146667,0.73333 -0.44,1.02666 -0.733333,0.88 -1.026667,-0.14667 -1.906667,-0.29334 -2.493334,-0.29334 z m 0.146666,-38.866664 0.293334,0.293333 -0.293334,0.293334 z m 0.146667,69.960004 c -0.44,-0.44 -0.146667,-0.58667 0.733333,-0.58667 0.586667,0 0.88,0.29334 0.88,0.73334 0,1.02666 -0.586666,0.88 -1.613333,-0.14667 z M 17.115678,107.618 c 0.293333,0 0.44,0.14667 0.44,0.29334 0,0.14666 -0.146667,0.29333 -0.44,0.29333 z m 0.293333,8.94667 0.293333,-0.29333 0.293334,0.29333 -0.293334,0.29333 z m 1.173333,-4.84 c -0.146666,-0.58667 0.293334,-0.88 1.466667,-0.88 v 0.29333 l -1.173333,0.88 c -0.146667,0 -0.146667,-0.14666 -0.293334,-0.29333 z m 0,-13.639999 h 0.293334 v 0.293333 h -0.293334 z m 0.733334,8.799999 c -0.44,-0.14667 -0.44,-0.44 0.146666,-0.73333 0.146667,-0.14667 0.586667,-0.14667 1.026667,-0.14667 0,1.02667 -0.44,1.32 -1.173333,0.88 z m 0.733333,0.73333 h 0.293334 v 0.29334 z m 1.32,7.33334 c -0.44,-0.14667 -0.293333,-0.44 0.146667,-0.73334 0.146667,-0.14666 0.586667,-0.14666 1.32,-0.14666 0,1.17333 -0.44,1.46666 -1.466667,0.88 z m 1.026667,-5.13334 c 0,-0.29333 0.293333,-0.44 0.733333,-0.44 0.88,0 1.466667,0.14667 1.613334,0.29334 -0.146667,0.44 -0.293334,0.73333 -0.586667,0.88 z m 0.88,5.57334 c 0.146667,-0.29334 0.44,-0.44 0.733333,-0.29334 -0.146666,0.14667 -0.44,0.29334 -0.733333,0.29334 z m 1.32,2.78666 c -0.293333,-0.44 -0.146667,-0.88 0.586667,-1.32 0.146666,-0.14666 0.293333,0 0.44,0.29334 l 1.32,1.17333 c -0.146667,0.44 -0.44,0.58667 -1.026667,0.44 -0.733333,-0.14667 -1.173333,-0.29333 -1.32,-0.58667 z m 0.733333,-5.28 c -0.146666,-0.14666 -0.146666,-0.44 0.293334,-0.58666 0.733333,-0.44 1.173333,-0.44 1.466666,0 0.586667,0.88 0.733334,1.32 0.586667,1.46666 -0.44,0.44 -1.026667,0.29334 -1.76,-0.29333 z m 3.666667,3.52 c -0.733333,-0.29333 -1.026667,-0.58666 -0.733333,-0.88 0.293333,-0.29333 0.586666,-0.44 1.026667,-0.44 0.44,0 0.733333,0.29334 1.026666,0.73334 -0.146666,0.29333 -0.146666,0.58666 -0.293333,0.73333 -0.293333,0 -0.586667,0 -1.026667,-0.14667 z m -0.88,4.10667 c 0.733333,0 1.026667,0.14667 0.586667,0.58667 z m 1.32,-9.24 c -0.586667,-0.58667 -0.44,-1.02667 0.586667,-1.32 0.586667,-0.14667 1.026667,0.29333 1.32,1.02667 0.146667,0.44 0.146667,0.88 -0.146667,1.02666 -0.44,0.14667 -1.32,-0.14666 -1.76,-0.73333 z m 3.813334,8.50667 c -0.88,0.44 -1.906667,-0.88 -1.906667,-0.88 0,-0.44 0.293333,-0.58667 0.88,-0.44 0.586667,0 1.026667,0.14666 1.173333,0.58666 0.146667,0.44 0.146667,0.58667 -0.146666,0.73334 z m -0.586667,-4.98667 c -0.733333,-0.58667 -0.88,-1.02667 -0.146667,-1.46667 1.026667,-0.44 2.786667,1.02667 1.613334,1.61334 -0.44,0.29333 -1.026667,0.29333 -1.466667,-0.14667 z m 0.44,-5.72 c -0.586667,-0.58667 -0.44,-0.88 0.586667,-0.88 0.733333,0 1.76,1.02667 1.32,1.46667 -0.293334,0.14666 -0.586667,0.29333 -0.733334,0.29333 -0.146666,0 -0.44,-0.29333 -1.173333,-0.88 z m 3.96,8.94667 c -1.026667,0.14666 -1.613333,-0.58667 -2.053333,-1.17334 0.146666,-0.14666 0.44,-0.29333 0.586666,-0.29333 0.586667,0 1.026667,0.14667 1.466667,0.44 0.586667,0.58667 0.586667,0.88 0,1.02667 z M 35.889012,112.018 c 0.293333,-0.44 0.733333,-0.73333 1.173333,-0.73333 1.173333,0.14667 1.613333,0.73333 1.173333,1.46667 -0.146666,0.14666 -0.44,0.44 -0.88,0.58666 -0.44,-0.14666 -0.88,-0.58666 -1.466666,-1.32 z m 3.226667,-4.10666 c -0.586667,1.17333 -2.933334,-0.88 -1.906667,-1.32 0.293333,-0.14667 0.586666,-0.14667 1.026666,-0.14667 0.733334,0.58667 1.026667,1.02667 0.880001,1.46667 z m 0.733333,13.05333 c -0.586667,0.58667 -2.346667,-0.73333 -1.613334,-1.17333 0.44,-0.44 0.880001,-0.44 1.466667,0 0.44,0.44 0.586667,0.73333 0.146667,1.17333 z m -1.026667,-5.57333 c -0.146667,-0.58667 1.613334,-1.76 1.76,-1.17334 l 0.586667,1.46667 -0.586667,0.58667 z m 0.733334,-58.666671 c 0,-0.146667 0,-0.293333 -0.146667,-0.293333 -0.146667,0 -0.146667,0.146666 -0.146667,0.293333 0,0.146667 0,0.293333 0.146667,0.293333 0.146667,0 0.146667,-0.146666 0.146667,-0.293333 z m 0.733333,53.826671 c -0.44,-0.14667 -0.586667,-0.29334 -0.44,-0.58667 0,-0.29333 0.146667,-0.44 0.586667,-0.58667 0.586666,-0.14666 1.026666,0.29334 1.32,1.17334 -1.026667,0 -1.466667,0 -1.466667,0 z m 0.586667,-17.600003 c -0.733334,-0.44 -1.026667,-0.733333 -0.733334,-1.026667 0.293334,-0.44 0.586667,-0.586666 0.88,-0.44 0.586667,0.146667 0.88,0.733334 0.88,1.613334 -0.44,0 -0.733333,0 -1.026666,-0.146667 z M 40.582345,51.004669 c 0.293334,-0.44 0.733334,-0.586667 1.173334,-0.586667 l 1.32,1.026667 c 0.44,0.146667 -0.586667,1.026667 -1.026667,1.026667 z m 0.44,54.706671 c -0.733333,-0.14667 -0.733333,-0.44 0,-0.88 0.44,-0.29334 0.733334,-0.29334 1.026667,0 0.44,0.44 0.586667,0.73333 0.44,0.88 -0.146667,0.14666 -0.733333,0.14666 -1.466667,0 z m 0,-36.080004 c 0.146667,-0.586666 0.44,-0.88 0.88,-1.026666 0.44,0.146666 0.733334,0.293333 1.026667,0.733333 0.44,0.586667 0.293333,0.88 -0.44,0.88 -0.586667,0 -1.026667,-0.146667 -1.466667,-0.586667 z m 0.44,53.826664 c -0.293333,0 -0.293333,-0.14666 0,-0.58666 0.293334,-0.44 0.586667,-0.44 0.733334,-0.14667 0.44,0.29333 0.44,0.58667 0.293333,0.73333 -0.146667,0.14667 -0.44,0.14667 -1.026667,0 z m 0.293334,-58.959997 c -0.733334,-0.733334 -0.586667,-1.026667 0.733333,-1.173334 0.44,-0.146666 1.026667,0.293334 1.466667,1.026667 0.44,0.733333 0.293333,1.026667 -0.44,1.026667 -0.44,0 -1.026667,-0.293334 -1.76,-0.88 z M 42.049012,118.618 c -0.586667,-0.14666 -0.586667,-0.29333 -0.146667,-0.73333 0.293334,-0.14667 0.733334,-0.14667 1.32,0 0.586667,0.14667 0.586667,0.44 0.146667,0.73333 -0.146667,0.14667 -0.586667,0.14667 -1.32,0 z m 0,-40.919997 c -0.146667,-0.44 0,-0.733333 0.44,-0.88 0.293333,-0.146666 0.733333,-0.146666 1.173333,0 0.44,0 0.88,0.146667 1.026667,0.586667 0.146667,0.146667 0,0.44 -0.146667,0.586667 h -2.2 c -0.146666,0 -0.146666,-0.146667 -0.293333,-0.293334 z m 0.44,5.28 c -0.293333,-0.146666 -0.44,-0.44 -0.44,-0.733333 0,-0.44 0.146667,-0.586667 0.586667,-0.733333 0.293333,-0.146667 0.586666,0 0.733333,0.44 0.44,0.733333 0.586667,1.026666 0.44,1.173333 -0.44,0.44 -0.88,0.44 -1.32,-0.146667 z m 0.44,-23.613334 c -0.146667,-0.146666 -0.293333,-0.293333 -0.293333,-0.44 l 0.44,-0.44 h 1.026666 c 0.586667,0.146667 0.586667,0.293334 0,0.733334 -0.146666,0.293333 -0.586666,0.293333 -1.173333,0.146666 z m 1.906667,36.666668 c -1.906667,0 -2.64,-0.586667 -2.053334,-1.173333 0.293334,-0.293334 0.586667,-0.44 0.88,-0.44 0.733334,0 1.173334,0.586666 1.173334,1.613333 z M 43.662345,101.018 c -0.586666,0.14667 -0.88,-0.73333 -1.026666,-0.88 0.733333,0 1.173333,0.14667 1.173333,0.29334 0.146667,0.29333 0.146667,0.44 -0.146667,0.58666 z m -0.44,12.76 c -0.44,-0.14666 -0.586666,-0.58666 -0.146666,-1.02666 0.293333,-0.14667 0.733333,-0.14667 1.173333,0.14666 0.44,0.29334 0.44,0.58667 0,0.88 -0.44,0.14667 -0.733333,0.14667 -1.026667,0 z m 2.2,-4.84 c -1.76,0 -2.2,-0.29333 -1.76,-0.73333 0.146667,-0.14667 0.44,-0.29333 0.733334,-0.29333 0.733333,0 1.026666,0.29333 1.026666,1.02666 z M 43.809012,72.56467 c -0.44,-0.44 -0.293333,-0.733334 0.44,-0.88 0.733333,-0.146667 1.173333,0 1.32,0.586666 0.293333,0.733334 0.146667,1.173334 -0.586667,1.173334 -0.146666,0 -0.44,-0.293334 -1.173333,-0.88 z m 1.906667,-17.306668 c -1.32,0 -2.2,-1.026666 -1.76,-1.613333 0.146666,-0.146667 0.44,-0.293333 0.88,-0.146667 0.586666,0.146667 0.88,0.733334 0.88,1.76 z m -1.173334,-6.013333 c -0.146666,-0.733333 0.146667,-1.026667 0.88,-1.173333 1.173334,0 1.466667,0.44 1.026667,1.32 -0.146667,0.44 -0.586667,0.586666 -1.026667,0.44 -0.44,-0.146667 -0.733333,-0.293334 -0.88,-0.586667 z m 2.2,19.360001 c -0.733333,0.733333 -3.373333,-1.173334 -2.053333,-1.906667 1.173333,-0.733334 3.226667,0.586667 2.053333,1.906667 z m -1.173333,18.333334 c -0.733333,0 -1.466667,-0.586667 -1.026667,-1.760001 0.146667,-0.44 0.44,-0.733333 0.88,-0.733333 0.146667,0 0.44,0.146667 0.586667,0.293333 0.733333,0.733334 1.026667,1.173334 0.733333,1.466667 -0.44,0.44 -0.733333,0.733334 -1.173333,0.733334 z m -0.733333,16.573336 c -0.146667,-0.29334 -0.146667,-0.58667 0,-0.73334 0.146666,-0.14666 0.44,-0.29333 0.88,-0.29333 0.44,0.14667 0.44,0.58667 0,1.02667 -0.44,0.44 -0.733334,0.44 -0.88,0 z m 1.466666,20.53333 c -0.146666,-0.44 -0.146666,-0.73333 -0.146666,-1.02667 l -1.32,-1.61333 c 0.293333,-0.44 0.733333,-0.73333 1.173333,-0.58667 0.733333,0 1.32,0.29334 1.466667,1.02667 0.146666,0.88 0.146666,1.61333 -0.293334,2.34667 -0.293333,0.73333 -0.586666,0.58666 -0.88,-0.14667 z M 44.835679,59.658003 h 0.293333 v 0.293333 h -0.293333 z m 0.586666,2.786666 c -0.733333,-0.44 -0.586666,-0.733333 0.44,-0.88 0.733334,-0.146666 1.173334,0 1.613334,0.586667 0.146666,0.146667 0.293333,0.293333 0.293333,0.733333 l -0.44,0.293334 z m 0.44,56.466671 c -0.146666,-0.14667 -0.146666,-0.14667 -0.146666,-0.29334 0.733333,-0.29333 0.88,-0.73333 0.44,-1.17333 -0.586667,-0.88 -0.88,-1.32 -0.88,-1.32 0,-0.44 0.44,-0.58667 1.173333,-0.58667 1.613333,0.14667 2.2,1.02667 1.76,1.46667 l -1.906667,1.90667 c -0.146666,0.14666 -0.293333,0.14666 -0.44,0 z M 45.569012,98.671337 c -0.146667,-0.146666 -0.146667,-0.293333 -0.146667,-0.44 0,-0.293333 0.146667,-0.44 0.586667,-0.586666 0.44,-0.146667 0.733333,0 0.88,0.293333 0.146667,0.293333 0,0.586667 -0.44,0.733333 -0.44,0.146667 -0.733333,0.146667 -0.88,0 z m 0.44,-17.746667 c -0.44,-0.293333 -0.44,-0.586667 -0.146667,-0.88 0.44,-0.293333 0.733334,-0.293333 1.026667,0 0.293333,0.293333 0.293333,0.586667 0,0.88 -0.146667,0.146667 -0.44,0.146667 -0.88,0 z m 1.173333,-23.320001 c -0.44,0 -0.586666,-0.146666 -0.586666,-0.586667 0,-0.44 0.146666,-0.586666 0.586666,-0.586666 0.44,0 0.733334,0.146666 0.88,0.586666 -0.146666,0.440001 -0.44,0.586667 -0.88,0.586667 z m 1.320001,18.920001 c -0.586667,1.173333 -2.786667,-0.88 -1.760001,-1.613334 0.586667,-0.586666 1.173334,-0.586666 1.613334,0 0.44,0.44 0.586667,1.026667 0.146667,1.613334 z m -1.760001,35.2 c -0.733333,-0.58667 -0.44,-1.02667 0.88,-1.17333 0.44,0 0.733334,0.14666 1.026667,0.58666 0.44,0.58667 0.44,0.88 -0.293333,1.02667 -0.733334,0 -1.173334,-0.14667 -1.613334,-0.44 z m 0,-18.04 c 0,-0.44 0,-1.173333 0.586667,-1.026666 0.293333,0 0.44,0.146666 0.44,0.44 0,0.44 -0.293333,0.586666 -1.026667,0.586666 z m 0.44,-48.400001 v 0.293333 h 1.173334 v -0.293333 z m 0.146667,7.333333 c 0,-0.733333 0.146667,-1.026666 1.173334,-1.026666 0.44,0 0.733333,0.146666 0.733333,0.293333 -0.293333,0.44 -0.88,0.733333 -1.906667,0.733333 z m 0.88,18.480001 c -0.733333,-0.586667 -1.026667,-1.026667 -0.586667,-1.173333 0.44,-0.146667 1.026667,-0.146667 1.760001,0.146666 l 0.44,0.586667 c 0.146666,0.44 0,0.586667 -0.293334,0.733333 -0.586666,0.146667 -1.026666,0 -1.32,-0.293333 z m -0.293333,35.493337 c -0.586667,-0.58667 -0.293334,-0.88 0.88,-0.88 0.733333,0 0.88,0.44 0.733333,1.17333 -0.146666,0.73333 -0.733333,0.58667 -1.613333,-0.29333 z m 0,18.04 c -0.586667,-0.58667 -0.293334,-0.88 0.733333,-0.88 0.733334,0 1.026667,0.29333 1.173334,0.88 -0.146667,0.44 -0.44,0.73333 -0.733334,0.88 z m 2.933333,-58.520004 c -1.906666,0 -2.346666,-0.293333 -2.493333,-0.733333 0.44,-0.586667 0.88,-0.88 1.32,-0.88 0.733333,0 1.173333,0.586666 1.173333,1.613333 z m -2.2,17.600001 c -0.733333,-0.44 -0.586667,-0.88 0.44,-1.026667 0.44,0 0.88,0.293333 1.173334,0.88 0.293333,0.44 0.146666,0.733333 -0.293334,0.733333 -0.293333,0 -0.733333,-0.146666 -1.32,-0.586666 z m 1.906667,18.773333 c -1.026667,0.44 -1.76,-0.58667 -2.2,-1.17333 l 0.586667,-0.44 c 1.026666,-0.58667 2.346666,1.02666 1.613333,1.61333 z m 0,17.89333 c -1.026667,0.44 -2.786667,-0.58666 -1.76,-1.32 0.44,-0.44 1.026667,-0.44 1.466667,0 0.733333,0.58667 0.88,1.02667 0.293333,1.32 z m -1.76,-62.333331 c -1.173334,-0.44 0.733333,-0.44 0,0 z m 1.173333,20.826668 c -1.026666,-0.586667 -1.026666,-0.88 -0.293333,-0.88 0.733333,-0.146667 1.173333,0 1.32,0.146666 0.88,0.293334 1.026667,0.586667 0.44,1.026667 -0.44,0.146667 -0.88,0.146667 -1.466667,-0.293333 z M 49.675679,60.831336 c -0.44,-0.44 -0.293333,-0.733333 0.146667,-1.026667 0.44,-0.293333 0.733333,-0.293333 1.026666,0 l 1.32,1.466667 c -1.32,0 -2.2,-0.146667 -2.493333,-0.44 z m 0.293333,53.973334 c -0.293333,-0.44 -0.146666,-0.73333 0.44,-1.17333 0.44,-0.14667 0.733334,0.14666 1.173334,0.73333 0.44,0.73333 0.293333,1.02667 -0.293334,1.02667 -0.44,0 -0.88,-0.14667 -1.32,-0.58667 z m 0.44,-18.186666 c 0,-0.146667 0.146667,-0.293333 0.586667,-0.44 0.146667,0.293333 0,0.44 -0.293333,0.586667 0,0 -0.146667,0 -0.293334,-0.146667 z m 0.146667,-22.880001 c -0.293333,-0.293333 -0.293333,-0.586667 0,-0.733333 0.44,-0.146667 0.733333,-0.293334 1.026667,-0.146667 0.44,0.146667 0.586666,0.586667 0.586666,1.173333 -0.146666,0.44 -0.733333,0.44 -1.613333,-0.293333 z m 0.733333,-17.746667 c -0.44,-0.146667 -0.733333,-0.44 -0.88,-0.733334 0.146667,-0.44 0.44,-0.586666 0.733334,-0.586666 0.586666,-0.146667 1.32,0.586666 1.76,0.586666 0.586666,0 1.026666,-2.2 1.466666,-2.346666 1.026667,-0.44 1.613334,-0.293334 1.906667,0.586666 0.146667,0.146667 0,0.586667 -0.733333,1.026667 -2.053334,1.32 -3.52,1.76 -4.253334,1.466667 z m 1.173334,53.973334 c -0.586667,0.44 -2.346667,-0.29333 -1.613334,-1.02667 0.44,-0.29333 0.733334,-0.29333 1.173334,0 0.586666,0.44 0.733333,0.73334 0.44,1.02667 z M 50.995679,90.898004 52.462346,89.28467 h 0.44 c 0,1.76 -0.586667,2.64 -1.906667,2.64 z m 0.293333,13.786666 c 0,-0.58667 0.586667,-1.02667 1.173334,-1.02667 0.586666,0.29334 0.586666,0.58667 0.146666,0.88 -0.146666,0.14667 -0.586666,0.14667 -1.32,0.14667 z m 0.586667,-35.786667 c -0.586667,-0.146667 -0.586667,-0.586667 -0.146667,-1.026667 0.586667,-0.44 2.64,0.44 1.466667,1.026667 -0.44,0.146667 -0.88,0.146667 -1.32,0 z m -0.146667,17.893334 c -0.146666,-0.44 -0.146666,-0.733333 0.146667,-1.026667 0.293333,-0.146667 0.586667,-0.146667 0.88,0.146667 0.146667,0.146667 0.146667,0.44 -0.293333,0.88 -0.44,0.293333 -0.586667,0.293333 -0.733334,0 z M 52.462346,123.458 c -0.733334,-0.44 -0.88,-0.88 -0.586667,-1.17333 0.44,-0.44 0.733333,-0.44 1.026667,-0.29333 0.733333,0.73333 1.173333,1.17333 1.173333,1.46666 -0.146667,0.14667 -0.293333,0.29334 -0.586667,0.29334 -0.44,0 -0.733333,-0.14667 -1.026666,-0.29334 z M 52.315679,63.911336 c -0.293333,-0.293333 -0.146667,-0.733333 0.586667,-1.32 0.44,-0.293333 0.733333,-0.146667 1.173333,0.44 0.733333,0.88 0.733333,1.32 0,1.466667 -0.733333,0.146666 -1.32,-0.146667 -1.76,-0.586667 z m -0.146667,35.640001 c -0.146666,-0.293333 0.146667,-0.44 0.586667,-0.586666 0.733333,-0.146667 1.613333,0.146666 1.613333,1.173329 -0.146666,0.44 -0.293333,0.58667 -0.44,0.58667 -0.44,0 -1.026666,-0.44 -1.76,-1.173333 z M 52.755679,82.24467 c -0.586667,-0.44 -0.586667,-1.026667 0.146667,-1.466667 0.44,-0.44 1.906666,1.026667 1.32,1.466667 -0.44,0.44 -0.88,0.44 -1.466667,0 z M 52.462346,117.738 c -0.146667,-0.44 0.146666,-0.73333 0.88,-0.88 0.733333,0 1.026666,0.29334 1.026666,0.73334 0,0.44 -0.293333,0.58666 -1.026666,0.73333 -0.293334,0.14667 -0.586667,-0.14667 -0.88,-0.58667 z m 0.293333,-72.159998 0.293333,0.293333 v -0.586666 z m 0.586667,49.133335 c -0.44,-0.146667 -0.586667,-0.293333 -0.146667,-0.586667 0.146667,-0.146666 0.586667,-0.146666 1.026667,0 0.586666,0.146667 0.586666,0.293334 0.146666,0.586667 -0.146666,0.146667 -0.44,0.146667 -1.026666,0 z m 0.44,18.626663 c -0.733334,-0.44 -0.733334,-1.02666 -0.293334,-1.46666 0.44,-0.29334 0.88,-0.29334 1.613334,0.14666 0.293333,0.14667 0.44,0.44 0.44,0.73334 0,0.29333 -0.146667,0.58666 -0.586667,0.73333 -0.44,0.14667 -0.88,0.14667 -1.173333,-0.14667 z M 53.635679,76.671337 c -0.293333,-0.146667 -0.293333,-0.440001 0.146667,-0.586667 0.293333,-0.146667 0.586666,-0.146667 0.88,0 0.44,0.44 0.586666,0.88 0.586666,1.32 -0.293333,0.44 -0.88,0.146667 -1.613333,-0.733333 z m 2.64,31.680003 c -0.586667,0.73333 -2.346667,-0.58667 -1.613333,-1.17334 0.44,-0.44 0.88,-0.44 1.32,0 0.44,0.44 0.586666,0.73334 0.293333,1.17334 z M 54.809012,71.24467 c -0.586666,1.173333 -0.586666,-1.026667 0,0 z m 0.586667,-4.4 c 0.146667,-0.586667 0.293333,-1.026667 0.733333,-1.173334 l 1.173334,0.733333 c 0.146666,0.146667 0.146666,0.293334 0,0.586667 -0.146667,0.293334 -0.146667,0.44 -0.293334,0.44 -0.586666,0 -1.173333,-0.146666 -1.613333,-0.586666 z m 2.053333,18.48 c -0.733333,0.733334 -3.08,-0.733333 -1.76,-1.32 0.733334,-0.44 2.493334,0.586667 1.76,1.32 z m -2.2,17.30667 c 0.293334,-0.29334 0.733334,-0.44 1.32,-0.58667 -0.146666,0.44 -0.586666,0.58667 -1.026666,0.73333 -0.146667,0 -0.146667,0 -0.293334,-0.14666 z m 0.146667,18.62666 c 0,-0.58666 0.293333,-1.46666 1.026667,-1.32 0.44,0.14667 0.586666,0.44 0.586666,0.73334 0,0.44 -0.586666,0.58666 -1.613333,0.58666 z m 0.44,-74.653331 c 0.146667,0.293333 0.293333,0.733333 0.293333,1.466667 0.586667,0 1.026667,-0.880001 1.466667,-2.493334 z m 0.293333,33.146668 c 0.293334,-0.44 0.586667,-0.733334 1.026667,-0.88 0.586667,0.146666 0.88,0.44 1.026667,1.026666 v 0.733334 c -0.146667,0.293333 -0.44,0.44 -0.733334,0.293333 -0.44,-0.146667 -0.88,-0.44 -1.32,-1.173333 z m 0.293334,18.48 c -0.44,0 -0.44,-0.293333 -0.293334,-0.733333 0.146667,-0.44 0.44,-0.733333 0.88,-0.733333 0.44,0 0.586667,0.146666 0.733334,0.586666 0.146666,0.293334 0.146666,0.586667 0,0.88 -0.146667,0.146667 -0.586667,0.146667 -1.32,0 z m 0.146666,18.040003 c -0.44,-0.29334 -0.44,-0.58667 0,-1.02667 0.44,-0.44 0.733334,-0.44 1.173334,0 0.733333,0.58667 -0.586667,1.17333 -1.173334,1.02667 z m 0.88,-59.400004 c -0.44,-0.293334 -0.44,-0.733334 0,-1.466667 0.293334,-0.586667 0.733334,-0.88 1.173334,-0.88 0,0.586667 0.44,2.2 0.44,2.933334 -0.733333,0 -1.173334,-0.146667 -1.613334,-0.586667 z m 0,54.266664 c -0.293333,-0.14666 -0.146666,-0.58666 0.44,-1.17333 0.146667,-0.14667 0.293334,-0.29333 0.440001,-0.14667 0.293333,0.14667 0.586666,0.14667 0.733333,0.29334 0.733333,0.44 0.733333,0.88 0,1.32 -0.44,0.29333 -1.026667,0.14666 -1.613334,-0.29334 z m 0.146667,-36.81333 c -0.146667,-0.146667 -0.146667,-0.293334 -0.146667,-0.44 1.320001,0 1.760001,0.293333 1.613334,1.026666 -0.44,0.733334 -0.88,0.586667 -1.466667,-0.586666 z m 0.586667,48.84 c -0.586667,0 -0.733334,-0.44 -0.733334,-1.02667 1.026667,0 1.466667,0.29334 1.320001,0.73334 -0.146667,0.14666 -0.293334,0.29333 -0.586667,0.29333 z m 0.146667,-35.053333 c -0.293334,-0.146667 -0.440001,-0.293333 -0.440001,-0.44 0,-0.293333 0.146667,-0.44 0.293334,-0.44 h 1.173333 c 0.586667,0.146667 0.586667,0.293333 0.146667,0.733333 -0.293333,0.293334 -0.733333,0.293334 -1.173333,0.146667 z m 0.733333,-42.093335 c 0,-0.44 -0.293333,-0.733333 -0.733333,-0.733333 0,0.44 0.293333,0.733333 0.733333,0.733333 z m 0.293333,17.600001 0.293334,0.293333 v -0.293333 z m 1.173334,29.920001 c 0,-0.146667 -0.146667,-0.293334 -0.293334,-0.293334 -0.146666,0 -0.146666,0.146667 -0.293333,0.293334 0,0.146666 0.146667,0.293333 0.293333,0.293333 0.146667,0 0.146667,-0.146667 0.293334,-0.293333 z m 0.146666,-46.493335 c -0.44,-1.173334 -0.44,0.733333 0,0 z m -0.146666,-1.76 v 0.293333 h 0.293333 z"
         style=""
         id="path5165" />
      <path
         d="m 98.731095,129.47134 1.759995,-0.73334 c 0,-1.17333 0.44,-1.61333 1.17334,-1.46666 0.44,0.14666 0.29333,0.73333 -0.29334,1.76 v 0.29333 c 0.44,0 0.73334,0 1.02667,-0.14667 0.14667,-0.14666 0.29333,0 0.73333,0.14667 0.44,0.14667 1.02667,0.14667 1.90667,-0.29333 -0.44,0.14666 0.14667,0.29333 1.76,0.29333 h 13.64 v -2.93333 c 0,-0.58667 -0.29333,-0.73334 -0.73333,-0.29334 0,0 0,0.44 0,1.32 -1.17333,0 -1.76,-0.29333 -1.90667,-0.88 -0.14666,-0.73333 0.44,-1.76 1.17334,-1.76 1.02666,0.14667 1.46666,0 1.46666,-0.14666 V 107.178 l -0.29333,-0.29333 h -2.05333 c -0.14667,0 -0.58667,0.29333 -1.02667,0.29333 -0.88,-0.14666 -1.17333,-0.29333 -0.73333,-0.29333 h -8.36 c 0,0.44 -0.29334,1.17333 -0.73334,2.05333 -0.14666,0.29334 -0.29333,0.44 -0.58666,0.29334 -0.44,0 -0.58667,-0.14667 -0.44,-0.58667 l 0.29333,-1.17333 V 107.178 c -0.29333,-0.58666 -1.17333,-0.58666 -2.49334,-0.14666 -0.44,0.14666 -1.02666,0.14666 -1.61333,0 -1.02667,-0.14667 -1.61333,-0.14667 -1.76,-0.14667 -1.466665,0 -2.199999,0.14667 -2.053332,0.58667 v 0.58666 c 0,1.02667 -0.733333,1.32 -2.053333,1.17334 -0.586667,-0.14667 -0.88,-0.29334 -0.88,-0.73334 0.146666,-1.17333 0.146666,-1.61333 0.146666,-1.32 -0.146666,-0.29333 -0.88,-0.14666 -2.346666,0.29334 -0.733334,0.29333 -1.32,0.29333 -1.613334,0.14666 -1.613333,-1.02666 -2.493333,-1.61333 -2.64,-1.61333 -0.146667,0 -0.586667,0.29333 -0.733333,0.29333 -1.026667,0 -1.026667,-0.58666 0,-1.76 0.44,-0.73333 1.173333,-1.02666 1.906667,-1.02666 0,0 0,-0.44 0,-1.46667 v -4.106666 c -0.586667,-0.146667 -0.586667,-1.32 0,-3.226667 0.146666,-0.44 0.146666,-1.026667 0.146666,-1.906667 -0.146666,-0.733333 -1.906667,-1.466666 -1.76,-1.613333 l 1.613334,-1.76 v -3.373333 h -0.880001 l 0.880001,-1.026667 v -7.48 c -0.146667,-0.293334 -0.293334,-0.586667 -0.293334,-0.88 0.146667,-0.440001 0.293334,-1.173334 0.293334,-2.200001 -0.146667,-2.2 0,-4.106666 0.293333,-5.72 0.146667,-0.733333 0.44,-1.173333 1.026667,-1.32 0.146666,-0.146666 0.88,-0.146666 2.2,0 h 2.346666 5.719999 c 3.81334,0 8.94667,-0.146666 15.25334,-0.293333 h 2.2 c 0.44,0 0.88,-0.146667 1.02666,-0.44 V 44.844669 H 98.731095 c -0.44,0 -0.733334,0.146666 -1.026667,0.44 0.146667,-0.146667 0.293333,0 0.293333,0.733333 -0.44,0 -1.026666,-0.146667 -2.053333,-0.586667 -1.32,-0.44 -3.373333,-0.733333 -6.16,-0.586666 -2.933334,0.146666 -3.52,1.906666 -5.133334,1.466666 -0.733333,-0.293333 -1.32,-0.586666 -1.613333,-1.026666 -0.293333,0 -1.026667,0 -2.053333,-0.146667 h -2.053334 c -1.76,0.146667 -2.64,0.293333 -2.786667,0.44 -0.88,0.733333 -1.32,1.173333 -1.466666,1.173333 -1.026667,0.146667 -1.76,0.293334 -1.906667,0.44 -0.733333,0.293334 -0.88,0.733334 -0.44,1.173334 0.44,0.44 0.733333,1.026667 0.733333,1.466667 -2.2,0 -3.226667,0.44 -3.226667,1.32 0,0.44 1.026667,1.466666 1.466667,1.613333 h 1.173334 c 1.026666,0.146667 1.906666,0.293333 2.64,0.293333 0,-0.146666 -0.146667,-0.586666 -0.586667,-1.613333 -0.293333,-0.733333 -0.293333,-1.173333 0,-1.466667 0.44,-0.44 0.88,-0.733333 1.173333,-0.586666 0.733334,0.293333 1.173334,0.586666 1.32,0.88 0.146667,0.586666 -0.586666,2.493333 -1.32,3.226666 -0.88,1.173334 -1.76,1.466667 -2.493333,0.733334 -0.44,1.32 -1.026667,1.466666 -1.613333,0.44 -0.44,-0.88 -1.026667,-1.32 -1.760001,-1.466667 -0.88,0 -1.32,0.586667 -1.466666,1.613333 0,-0.146666 0,0.88 0,2.786667 0.586666,0 1.32,-1.466667 1.906666,-1.32 1.760001,0.293333 2.346667,0.88 1.613334,1.613334 -0.586667,0.293333 -1.026667,0.44 -1.32,0.44 h -1.026667 c -0.293333,0 -0.586667,0 -0.733333,-0.146667 l -0.44,0.293333 c 0,-0.44 0.293333,0.293334 0.88,2.346667 0.146666,0.44 0.146666,0.88 0,1.026667 l -0.586667,0.44 v 2.053333 c 1.32,0.293333 1.906667,0.88 1.906667,1.906667 0,0.44 -0.293334,0.586667 -0.88,0.733333 -0.88,0.146667 -1.32,0.586667 -1.32,1.026667 v 4.693333 c 0.733333,0.733334 1.026666,1.32 0.88,1.76 -0.44,0.88 -0.586667,1.173334 -0.586667,1.026667 v 2.933334 c 0.88,0 1.466667,0.293333 1.76,0.733333 0.293333,0.44 0.146667,0.733333 -0.293333,0.733333 -0.146667,0 -0.44,0 -0.586667,-0.146666 -0.733333,-0.293334 -1.173333,0.146666 -1.173333,1.466666 v 4.4 c 0.293333,0.293334 0.44,0.586667 0.293333,0.880001 -0.146667,0.44 -0.293333,1.76 -0.293333,3.96 0,0.146666 1.32,0.44 0.88,0.88 l -0.586667,0.88 c -0.146667,0.44 -0.293333,1.466666 -0.293333,3.373333 v 3.226667 c 0.44,0.733333 0.586666,1.173333 0.586666,1.319996 -0.146666,1.02667 -0.44,1.61334 -0.586666,2.05334 -0.146667,0.88 -0.146667,1.46666 0.146666,1.90666 0.146667,0 1.32,0.44 1.32,1.02667 0,0.58667 -1.32,0.58667 -1.466666,1.02667 0,0 0,0.58666 0,1.90666 v 1.90667 c 0.44,0 1.466666,-1.02667 2.2,-0.58667 0.293333,0.14667 0.44,0.58667 0.586667,1.02667 0,1.90667 -2.053334,0.73333 -2.786667,1.46667 0,0 0,0.14666 0,0.58666 v 4.84 c 1.026666,0.73334 1.466666,1.17334 1.173333,1.61334 l -0.88,1.17333 v 0.14667 c 0,0.73333 0.146667,1.17333 0.293333,1.46666 1.466667,1.02667 1.613334,2.64 2.200001,3.96 0.586666,0 1.026666,-0.88 2.933333,-0.88 0.44,0.14667 0.44,0.44 0.293333,1.02667 -0.146666,0.58667 -0.44,0.88 -0.88,0.88 l -0.586666,-0.29333 c -0.146667,-0.14667 -0.146667,-0.14667 -0.293334,-0.14667 v 0.73333 c 0,0 1.76,1.17334 2.786667,1.61334 1.466667,0.58666 2.64,0.73333 3.52,0.29333 l 1.466667,-1.02667 c 0.44,-0.14666 0.88,0 1.32,0.29334 0.733333,0.73333 1.026667,1.17333 0.88,1.17333 h 6.6 c 0.586667,0 1.466667,-0.29333 2.053334,-0.29333 z M 70.864427,71.831336 c -1.76,0.44 -1.906667,-0.44 -1.906667,-0.88 0,-0.44 0.44,-0.733333 1.173334,-0.88 0.733333,-0.146666 1.173333,0 1.466667,0.44 0.293333,0.586667 0,1.026667 -0.733334,1.32 z m -1.613333,25.373335 c -0.733334,-0.146667 -0.586667,-0.44 0.44,-1.173334 0.44,-0.293333 0.733333,-0.293333 1.173333,0 0.44,0.586667 0.44,1.026667 0,1.173334 -0.586667,0.146666 -1.173333,0.146666 -1.613333,0 z m 0,-12.466668 c 0.44,-0.88 0.88,-1.613333 1.32,-2.053333 0,0.88 0,1.466667 -0.146667,1.76 -0.44,1.026667 -0.733333,1.026667 -1.173333,0.293333 z m 1.026666,29.773337 c 0.733334,-0.44 1.466667,-0.14667 2.200001,0.58666 0.146666,0.14667 0,0.29334 -0.293334,0.58667 -0.586666,0.73333 -1.466667,1.17333 -2.64,1.61333 -0.44,-1.17333 -0.146667,-2.05333 0.733333,-2.78666 z M 69.984427,91.778004 c -0.44,1.173333 -0.44,-1.026667 0,0 z m 1.906667,11.146666 c -1.32,0.44 -1.76,-0.14667 -1.76,-0.58667 0,-1.02666 0.586666,-1.61333 1.76,-1.61333 0.733333,0 1.026667,0.29333 1.026667,1.02667 0,0.44 -0.293334,0.88 -1.026667,1.17333 z m -1.32,-39.746667 c -0.293334,-1.026667 -0.146667,-1.613334 0.586667,-1.76 0.88,-0.293334 1.613333,-0.146667 2.053333,0.586666 0.586667,0.733334 0.293333,1.32 -0.733333,1.466667 -1.173334,0.146667 -1.760001,0.146667 -1.906667,-0.293333 z m -0.146667,13.2 c -0.146667,-0.586667 0.293333,-0.88 1.173334,-1.026667 0.88,0 1.466666,0.293334 1.613333,0.733334 -0.293333,0.44 -1.173333,0.733333 -2.493334,0.586667 z m 1.173334,43.266667 c 0.44,-0.14667 0.733333,-0.29333 1.173333,-0.14667 0.44,0.14667 0.733333,0.44 0.733333,0.88 0,0.58667 -1.026666,0.88 -2.933333,0.88 0,-0.73333 0.293333,-1.17333 1.026667,-1.61333 z M 70.71776,88.258004 c 0.293334,-0.44 0.733334,-0.586667 1.320001,-0.586667 l -0.88,0.88 z m 0.440001,19.213336 c -0.146667,-0.14667 0.44,-0.73334 1.466666,-1.76 0.733334,0 1.32,0.14666 1.466667,0.58666 0.146667,0.73334 0,1.02667 -0.44,1.17334 -0.733333,0.14666 -1.32,0.14666 -1.76,0 -0.44,0.14666 -0.586667,0.14666 -0.733333,0 z m 0.586666,-26.400003 c -0.293333,-0.146667 0,-0.733334 0.733334,-1.466667 0.293333,-0.146667 0.44,-0.146667 0.586666,0 l 1.32,1.173333 c 0.146667,0.44 -0.733333,0.586667 -2.346666,0.586667 z m 0,1.906666 0.293334,0.293334 h -0.293334 z m 0,10.560001 c -0.44,-0.44 -0.146666,-0.733334 1.026667,-0.733334 1.026667,0 1.466667,0.146667 1.466667,0.586667 h -1.32 c -0.586667,0.293333 -1.026667,0.293333 -1.173334,0.146667 z m 2.2,-24.933334 c -1.76,0 -2.053333,-0.586667 -1.906666,-1.613334 l 0.44,-0.88 c 0.733333,-0.293333 1.32,0 1.76,0.88 0.44,1.026667 0.293333,1.613334 -0.293334,1.613334 z m -1.613333,44.14667 c -0.146667,-0.14667 -0.146667,-0.29334 -0.146667,-0.44 0,-0.88 0.586667,-1.32 1.906667,-1.32 0.293333,0 0.586667,0.14666 0.733333,0.44 0.44,0.73333 0.146667,1.17333 -0.586666,1.32 -0.88,0.29333 -1.466667,0.29333 -1.906667,0 z m 0.293333,-13.493336 c 0.293334,-0.733333 0.733334,-1.173333 1.466667,-1.613333 l 1.173333,0.293333 c 0.293334,0.146667 0.293334,0.586667 0,1.026667 -0.146666,0.293333 -0.88,0.44 -2.346666,0.44 -0.146667,0 -0.146667,0 -0.293334,-0.146667 z m 0.586667,-39.600001 c -0.146667,-1.026667 0,-1.76 0.44,-1.906667 0.88,-0.44 1.466667,-0.146667 1.76,0.586667 0.44,1.026666 0.293333,1.613333 -0.44,1.76 -1.026667,0.44 -1.613333,0.293333 -1.76,-0.44 z m 0.293333,13.346667 c -0.733333,0 -0.733333,-0.44 0.293334,-1.466667 0.146666,-0.44 1.906666,1.173333 1.466666,1.32 -0.586666,0.146667 -1.173333,0.293333 -1.76,0.146667 z m 0.586667,43.41333 c 0.146667,-0.29333 0.44,-0.29333 0.733333,-0.14666 0.146667,0.14666 0.293334,0.44 0.146667,0.73333 -0.293333,0.73333 -0.88,1.02667 -1.613333,1.02667 0,-0.58667 0.293333,-1.17334 0.733333,-1.61334 z m -0.293333,-12.61333 c 0.44,-0.44 0.88,-1.02667 1.466666,-1.46667 1.32,0.44 1.76,1.02667 1.32,1.46667 -0.146666,0.29333 -1.026666,0.44 -2.493333,0.44 z m 0.88,-25.813333 c -0.44,-0.146667 -0.146667,-0.733334 0.733333,-2.053334 0.293333,-0.44 0.586667,-0.44 1.026667,0 0.146666,0.146667 0,0.44 -0.44,0.586667 -0.293334,0.146667 0,0.44 0.733333,0.733333 0.44,0.146667 0.44,0.586667 0.293333,1.026667 -0.293333,0.44 -1.026666,0.44 -2.346666,-0.293333 z M 74.384427,63.911336 c 0,-0.733333 0.44,-0.88 1.32,-0.733333 1.32,0.146666 1.76,0.586666 1.32,1.173333 -0.44,0.586667 -1.026666,0.88 -1.613333,0.88 -0.586667,0 -0.88,-0.44 -1.026667,-1.173333 z m 0.146667,58.960004 c -0.44,-0.44 -0.293333,-0.88 0.733333,-1.46667 1.026667,-0.58667 1.613334,-0.44 1.76,0.44 0.146667,0.73333 -0.146666,1.17333 -1.173333,1.17333 -0.733333,0.14667 -1.173333,0 -1.32,-0.14666 z m 0.733333,-33.733336 c 0,0 0.146667,0 0.293334,0 -0.293334,0.733333 -0.586667,1.026666 -1.026667,1.026666 0,-0.293333 0.293333,-0.586666 0.733333,-1.026666 z m -0.44,20.533336 c 0,-1.02667 0.586667,-1.61334 1.32,-2.2 0.146667,0.58666 0.44,0.73333 1.026667,0.29333 0.293333,0.14667 0.44,0.44 0.44,0.73333 -0.44,0.73334 -1.466667,1.17334 -2.786667,1.17334 z m 0.44,7.62666 c 0.146667,-0.14666 0.44,-0.29333 0.88,-0.29333 0,0 -0.146666,0.14667 -0.586666,0.58667 -0.146667,0 -0.146667,-0.14667 -0.293334,-0.29334 z m 0.586667,10.70667 c -0.586667,-0.14667 -0.733333,-0.29333 -0.586667,-0.58667 0.733334,-0.88 1.466667,-1.17333 2.053334,-1.02666 1.173333,0.44 1.32,0.88 0.44,1.46666 -0.586667,0.29334 -1.173334,0.29334 -1.906667,0.14667 z m 0.146667,-71.426668 c -0.44,-1.026666 -0.44,-1.76 0.146666,-2.053333 0.733334,-0.44 1.466667,-0.293333 1.906667,0.44 0.586667,0.88 0.586667,1.466667 -0.146667,1.76 -1.026666,0.44 -1.613333,0.44 -1.906666,-0.146667 z m 0.146666,13.200001 c -0.146666,0 -0.293333,-0.146667 -0.293333,-0.586667 -0.146667,-0.293333 0,-0.44 0.293333,-0.586666 1.026667,-0.586667 2.933334,0.586666 1.76,1.173333 -0.146666,0.146667 -0.733333,0.146667 -1.76,0 z m 0,44.586667 c -0.733333,-0.58667 1.32,-1.76 1.32,-1.76 0.733334,0 1.173334,0.14667 1.32,0.58667 0.146667,0.73333 -0.293333,1.76 -1.32,1.76 -0.44,-0.14667 -0.88,-0.29334 -1.32,-0.58667 z m 0.293334,-31.386667 c -0.586667,-0.146666 -0.586667,-0.293333 -0.146667,-0.586666 0.146667,-0.146667 0.586667,-0.146667 1.026667,0 0.586666,0 0.586666,0.146666 0.146666,0.44 -0.146666,0.146666 -0.586666,0.146666 -1.026666,0.146666 z M 76.144427,94.56467 c 0.146667,-0.44 0.44,-0.44 1.173334,-0.293333 0.293333,0.146667 0.44,0.44 0.44,1.026667 -0.146667,0 -0.293334,0 -0.44,-0.146667 z m 1.466667,6.16 c -0.293333,-0.14667 -0.586667,-0.29333 -1.026667,-0.29333 0,-0.880003 0.44,-1.320003 1.173334,-1.320003 0.733333,0 1.173333,0.146667 1.32,0.293334 0.293333,0.44 0.293333,0.879999 0,1.319999 -0.293334,0.44 -0.733334,0.44 -1.466667,0 z m -0.586667,-20.24 c 0.146667,0 0.146667,0.146667 0.293334,0.293333 0,0.146667 -0.146667,0.293334 -0.293334,0.293334 -0.146666,0 -0.293333,-0.146667 -0.293333,-0.293334 z m 0.146667,46.78667 c 0,-0.14667 0,-0.29334 -0.146667,-0.29334 -0.146666,0 -0.146666,0.14667 -0.146666,0.29334 0,0.14666 0,0.29333 0.146666,0.29333 0.146667,-0.14667 0.146667,-0.14667 0.146667,-0.29333 z M 77.024427,47.338002 c -0.146666,-0.733333 0.88,-1.32 1.466667,-1.173333 0.44,0.146666 0.88,0.586666 1.32,1.32 0.146667,0.146667 0,0.293333 -0.146667,0.44 h -2.346666 z m 0.293334,14.080001 c -0.586667,-0.44 -0.44,-1.173334 0.293333,-1.906667 0.586667,-0.733333 2.786667,1.32 1.76,1.906667 -1.026667,0.44 -1.613333,0.44 -2.053333,0 z m -0.146667,13.493333 c 0,-0.586666 -0.146667,-1.76 1.466667,-1.173333 0.88,0.44 1.173333,0.733333 1.026666,0.88 0,0 -0.293333,0 -1.026666,-0.146667 -0.44,0 -1.026667,0.44 -1.466667,0.44 z m 0.586667,11.880001 c -0.733334,0 -0.733334,-0.293333 0,-1.026667 0.293333,-0.293333 0.733333,-0.146667 1.173333,0.293334 0.44,0.44 0.44,0.586666 0,0.733333 -0.146667,0.146667 -0.586667,0.146667 -1.173333,0 z m -0.44,32.706663 c -0.44,-1.32 0.146666,-2.05333 1.613333,-2.05333 0,0.44 -0.146667,1.02667 -0.586667,1.46667 -0.586666,0.73333 -0.88,1.02666 -1.026666,0.58666 z m 0.44,-13.78666 c 0,-1.02667 0.44,-1.46667 1.32,-1.61334 1.026666,0 1.32,0.14667 1.173333,1.32 0,0.14667 -0.88,0.29334 -2.493333,0.29334 z m 0.44,18.48 c -0.146667,-0.29334 0.146666,-0.58667 0.733333,-1.02667 0.293333,0.14667 0.586667,0.14667 0.733333,0.29333 0,0.73334 -0.44,1.17334 -1.173333,1.02667 -0.146667,0 -0.146667,-0.14667 -0.293333,-0.29333 z m 0.586666,-72.746671 c 0.293334,-0.44 0.88,-0.44 1.760001,0 0.44,0.293333 0.733333,0.733333 0.586666,1.173333 -0.146666,0.146667 -1.173333,0.293334 -2.786667,0.293334 0,-0.733334 0.146667,-1.173334 0.44,-1.466667 z m -0.146666,14.96 c -0.44,-0.44 -0.293334,-0.88 0.44,-1.32 0.293333,-0.146666 0.88,0 1.613333,0.733334 -0.146666,0.44 -0.293333,0.586666 -0.733333,0.733333 -0.733334,-0.146667 -1.173334,-0.146667 -1.32,-0.146667 z m 0.146666,13.200001 c 0,-1.026667 0.44,-1.026667 1.466667,-1.026667 0,0.733334 -0.44,1.026667 -1.466667,1.026667 z m 0.293334,12.173334 c -0.146667,-0.146667 -0.293334,-0.44 -0.293334,-0.586667 0,-0.146667 0.146667,-0.293333 0.586667,-0.44 0.733333,-0.146667 1.173334,0.146667 1.173334,0.586667 0,0.146666 -0.146667,0.293333 -0.586667,0.44 -0.293334,0.146666 -0.586667,0.146666 -0.88,0 z m -0.293334,18.773336 c 0,-0.73334 0.44,-1.17334 1.173334,-1.32 1.026667,-0.14667 1.466667,0 1.613333,0.44 0.146667,0.58666 -0.293333,1.02666 -1.026666,1.32 -1.026667,0.14666 -1.613334,0.14666 -1.760001,-0.29334 z m 0.586667,-13.346669 c 0,-1.32 0.733333,-2.200001 1.466667,-1.613334 0.146667,0.293334 0,0.88 -0.586667,1.613334 -0.44,0.586666 -0.733333,0.586666 -0.88,0 z m 0,-19.946668 h 0.88 v 0.293334 h -0.88 z m 0.293333,-19.506667 c -0.146666,-1.026667 0.146667,-1.613334 0.586667,-1.76 0.586667,-0.146667 2.2,0.733333 2.2,1.32 0,0.44 -0.44,0.586667 -1.32,0.733333 -0.88,0.146667 -1.32,0 -1.466667,-0.293333 z m 0.44,13.64 c -0.146666,-0.146666 -0.146666,-0.293333 0,-0.586666 0.146667,-0.293334 0.440001,-0.44 0.586667,-0.44 0.586667,0 1.026667,0 1.32,0.146666 0.586667,0.44 0.733334,0.733334 0.293334,0.88 -0.733334,0.44 -1.466667,0.44 -2.200001,0 z m 0,44.293334 c -0.586666,-0.58667 -0.293333,-1.02667 0.880001,-1.32 1.173333,-0.29333 1.76,0 1.76,0.73333 0,0.44 -0.44,0.73334 -1.466667,0.73334 -0.733333,0 -1.026667,0 -1.173334,-0.14667 z m 0.293334,-13.49333 c -0.293334,-0.14667 -0.146667,-0.58667 0.586667,-1.32 0.44,-0.44 1.026666,-0.44 1.613333,-0.14667 0.44,0.29333 0.586667,0.73333 0.293333,1.32 -0.293333,0.44 -0.586666,0.73333 -1.026666,0.58667 z m 0.44,-53.093338 c 0,-0.586666 0.88,-1.613333 1.466667,-1.466666 1.026666,0.293333 1.613333,0.88 1.613333,1.76 -0.146667,0.293333 -0.44,0.44 -0.586667,0.293333 -1.173333,0 -1.613333,0 -1.32,-0.146667 -0.44,0.146667 -0.88,0 -1.173333,-0.44 z m 0.293333,27.426668 c -0.293333,-0.146667 -0.293333,-0.586667 0,-1.173334 0.44,-0.733333 0.586667,-1.026666 0.586667,-1.173333 0.88,0 1.32,0.88 1.32,2.493334 0,0.733333 -0.586667,0.586666 -1.906667,-0.146667 z m 0.586667,-13.640001 c -0.146667,-0.146666 -0.44,-0.146666 -0.733333,-0.146666 0,-1.026667 0.293333,-1.466667 1.026666,-1.466667 0.733334,0 2.786667,1.466667 1.466667,1.906667 0,0 -0.586667,-0.146667 -1.76,-0.293334 z m -0.146667,58.520001 c -0.293333,-0.14667 -0.44,-0.29333 -0.44,-0.58667 0,-0.73333 1.026667,-1.76 2.053334,-1.32 0.733333,0.44 0.733333,1.02667 0,1.76 -0.293334,0.29334 -0.88,0.29334 -1.613334,0.14667 z m -0.44,-33.44 c -0.146666,-0.586666 0.293334,-0.88 1.026667,-0.88 0.733333,0 1.173333,0.146667 1.466667,0.586667 l -1.173334,0.586667 c -0.586666,0.146666 -1.026666,0 -1.32,-0.293334 z m 0.44,9.093334 c -0.146666,-0.293333 0,-0.586667 0.293334,-0.733333 v 1.026666 c -0.146667,-0.146666 -0.293334,-0.146666 -0.293334,-0.293333 z m 0,10.266666 c 0,-0.73333 0.293334,-1.32 0.88,-1.61333 0.733334,-0.29334 1.32,-0.14667 1.613334,0.29333 0.44,0.58667 0.293333,1.02667 -0.44,1.46667 -0.88,0.44 -1.613334,0.44 -2.053334,0 z m 0.586667,18.62667 c -0.146667,-0.14667 0.146667,-0.58667 0.733333,-1.32 0.586667,-0.73334 1.173334,-0.73334 1.76,0 0.586667,0.73333 0.44,1.17333 -0.44,1.46666 l -0.88,-0.44 c -0.88,0 -1.32,0.14667 -1.173333,0.29334 z m 0.44,-71.866671 c -0.733333,-1.026667 -0.44,-1.466667 1.026667,-1.466667 0.586666,0 1.026666,0.293334 1.173333,0.88 0.146667,0.88 0.146667,1.32 -0.293333,1.32 -0.88,0 -1.466667,-0.293333 -1.906667,-0.733333 z m 2.053333,14.226667 c -1.76,0 -2.346666,-0.586666 -2.2,-1.613333 0.146667,-0.44 0.293334,-0.586667 0.733334,-0.586667 0.293333,0 0.733333,0.44 1.466666,1.173334 0.586667,0.44 0.586667,0.88 0,1.026666 z m -2.053333,13.200001 c 0,-0.586667 0.44,-1.026667 1.026667,-1.026667 0,0.733333 -0.293334,1.026667 -1.026667,1.026667 z m 0,11.733333 c 0,-0.586666 0.44,-1.026666 1.026667,-1.026666 0.44,0 0.586666,0.146666 0.586666,0.44 0,0.44 -0.586666,0.586666 -1.613333,0.586666 z m 0.146667,19.21333 c 0,-1.17333 0.586666,-1.76 1.613333,-1.76 0.44,0 0.733333,0.14667 0.88,0.58667 0.586667,1.32 -0.88,1.61333 -2.2,1.61333 -0.146667,-0.14666 -0.293333,-0.14666 -0.293333,-0.29333 z m 0.293333,-33.146663 c -0.146667,-0.293334 0,-0.44 0.293333,-0.586667 0.146667,-0.146667 0.44,0 0.586667,0.293333 -0.146667,0.293334 -0.44,0.44 -0.586667,0.586667 -0.146666,-0.146667 -0.293333,-0.146667 -0.293333,-0.293333 z m 0.44,19.653334 c -0.146667,0 -0.293333,-0.146667 -0.293333,-0.44 0,-1.026667 0.44,-1.613334 1.32,-1.613334 0.733333,0 1.173333,0.44 1.173333,1.173334 0,0.44 -0.293333,0.733333 -0.733333,0.88 -0.44,0.146666 -1.026667,0.146666 -1.466667,0 z m 0.146667,-23.173335 v 0.293334 h -0.293334 z m 0.146666,-2.933333 c -0.146666,-0.146667 0.146667,-0.44 0.733334,-1.026667 0.44,0.146667 0.44,0.44 0.146666,0.88 -0.44,0.44 -0.733333,0.44 -0.88,0.146667 z m 0.146667,-13.64 c -0.146667,-0.44 0,-0.733334 0.586667,-0.88 0.586666,0 1.026666,0.146666 1.32,0.44 -0.44,0.44 -0.88,0.733333 -1.613334,0.733333 -0.146666,0 -0.146666,-0.146667 -0.293333,-0.293333 z m 0,58.226667 c 0,-1.32 0.586667,-1.90667 1.613333,-1.90667 0.44,0 0.733334,0.14667 0.88,0.44 0.44,0.58667 0.293334,1.17334 -0.586666,1.61334 -0.44,0.14666 -0.88,0.29333 -1.613334,0.29333 -0.146666,0 -0.146666,-0.14667 -0.293333,-0.29333 z m 0.44,-33.586667 c 1.173333,-0.586666 1.76,-0.44 1.76,0.586667 h -2.053333 c 0,-0.293333 0.146666,-0.44 0.293333,-0.586667 z m 0.293333,20.093337 c -0.146666,-0.14667 -0.293333,-0.29334 -0.293333,-0.44 0,-1.02667 0.44,-1.46667 1.466667,-1.46667 0.733333,0 1.026666,0.44 1.026666,1.17333 0,0.44 -0.293333,0.88 -0.88,1.02667 -0.44,0.14667 -0.88,0.14667 -1.32,-0.29333 z m 0.146667,-53.973338 c 0.44,-0.586666 0.733333,-0.88 1.026667,-0.88 1.32,0 1.906666,0.586667 1.906666,1.613334 0,0.44 -0.733333,0.733333 -2.2,0.733333 -0.293333,0 -0.586666,-0.44 -0.733333,-1.173333 z m 1.026667,38.720002 c 0.44,-0.44 1.613333,0.586666 1.173333,1.026666 0.146667,-0.146666 -0.146667,-0.146666 -1.026667,-0.146666 -0.146666,0 -0.586666,0.293333 -1.026666,0.293333 0,-0.146667 0.293333,-0.586667 0.88,-1.173333 z m -0.733334,33.733336 c -0.146666,-0.44 0.146667,-0.73334 0.586667,-1.02667 0.586667,-0.44 1.026667,-0.29333 1.173333,0.14667 0.293334,0.44 0.146667,0.88 -0.44,1.02666 -0.586666,0.14667 -1.026666,0.14667 -1.32,-0.14666 z m 0.293334,-58.080004 c 0,0 -0.146667,-0.586667 0,-1.173333 0.146666,-0.44 0.293333,-0.44 0.586666,-0.293334 1.026667,0.733334 1.466667,1.173334 1.466667,1.32 0,0.44 -0.733333,0.44 -2.053333,0.146667 z m 0.146666,45.173334 c -0.44,-0.44 -0.293333,-1.02667 0.44,-1.90667 0.586667,-0.58666 1.173334,-0.58666 1.76,0.14667 0.293334,0.14667 0.44,0.58667 0.293334,1.17333 0,0.44 -0.146667,0.73334 -0.586667,0.88 -0.586667,0.29334 -1.173333,0.14667 -1.906667,-0.29333 z m 0.733334,-36.666667 c -0.44,0 -0.586667,-0.293333 -0.586667,-0.733333 0.44,0 0.586667,0.293333 0.586667,0.733333 z m -0.44,5.28 c 0,-0.44 0.146666,-0.733333 0.293333,-0.88 0.733333,0 1.173333,0.44 1.173333,1.32 -0.586666,0 -1.026666,-0.146666 -1.466666,-0.44 z m 0.293333,-2.2 c -0.146667,-0.146667 -0.293333,-0.44 -0.293333,-0.88 1.613333,0 2.2,0.293333 1.76,0.733333 -0.44,0.733334 -1.026667,0.733334 -1.466667,0.146667 z m -0.146667,19.653334 c -0.44,-1.32 0.146667,-1.906667 1.466667,-1.906667 0.44,0 0.586667,0.146667 0.733333,0.586667 0.44,0.733333 0.146667,1.32 -0.733333,1.466667 -0.88,0.146667 -1.32,0.146667 -1.466667,-0.146667 z m 0,31.680003 c 0.44,-0.73334 0.88,-1.02667 1.32,-1.02667 0,0.29333 -0.293333,0.73333 -1.026666,1.32 z m 0.44,-57.78667 c 0,-0.733334 0.586667,-1.32 1.906667,-0.88 0.293333,0.146666 0.44,0.293333 0.586667,0.586666 l -0.293334,0.293334 z m 0.146667,-13.493334 c -0.146667,-0.586667 0,-1.026667 0.146667,-1.173334 0.44,-0.293333 0.88,-0.293333 1.026666,0.146667 0.146667,0.44 0.146667,0.733333 -0.293333,1.173333 -0.44,0.293334 -0.733333,0.293334 -0.88,-0.146666 z m 0,58.373334 c 0,-1.61333 1.173333,-1.90667 2.2,-1.90667 0.44,0.14667 0.586667,0.29334 0.44,0.73334 -0.293333,0.73333 -0.586667,1.17333 -1.026667,1.17333 z m 0,-33.586667 0.293333,-0.293333 v 0.586667 z m 0.586667,19.506667 c 0,-1.173333 1.026666,-2.053333 1.613333,-1.613333 0.44,0.146667 0.586667,0.44 0.733333,0.733334 0.293334,0.733329 0,1.173329 -0.88,1.319999 -1.026666,0.29333 -1.466666,0.14667 -1.466666,-0.44 z m 0.88,-52.653334 c -0.293334,-0.146667 -0.44,-0.440001 -0.586667,-0.880001 0,-0.44 0.146667,-0.733333 0.44,-0.88 0.586667,-0.293333 1.32,-0.146666 2.2,0.586667 1.026667,0.733333 1.026667,1.173334 0,1.466667 -0.733333,0.146667 -1.32,0 -2.053333,-0.293333 z m -0.44,12.76 c 0,-0.733333 0.44,-0.586667 1.32,0.146667 l -0.88,0.88 c -0.293334,-0.146667 -0.44,-0.44 -0.44,-1.026667 z m 0.88,57.200004 c 0.293333,-0.29334 0.733333,-0.29334 1.173333,0 0.44,0.44 0.586667,0.73333 0.586667,1.17333 0,0.44 -0.88,0.73333 -2.493334,0.73333 0,-0.73333 0.293334,-1.46666 0.733334,-1.90666 z M 87.877761,74.618003 c -0.146667,-0.146667 -0.146667,-0.586667 0,-1.173333 0.146667,-0.586667 0.293333,-1.026667 0.293333,-1.173334 -0.146666,0 0.293334,0.586667 1.026667,1.906667 -0.44,0.293333 -0.88,0.44 -1.32,0.44 z m 0,11.440001 c -0.146667,-0.146667 0.146667,-0.440001 0.733333,-1.026667 0.44,0.146666 0.44,0.44 0.146667,0.88 -0.44,0.44 -0.733333,0.44 -0.88,0.146667 z m 0.733333,37.986666 c 0,-0.58667 0.88,-1.61333 1.466667,-1.17333 0.44,0.29333 0.733334,0.88 0.733334,1.76 -1.320001,0 -2.053334,-0.14667 -2.200001,-0.44 z m 0.293334,-57.933334 c -0.146667,-0.293333 0,-0.586667 0.44,-0.733333 0.293333,-0.146667 0.586666,-0.146667 0.733333,0.146666 0.146667,0.146667 0.146667,0.44 -0.293333,0.733334 -0.44,0.293333 -0.733334,0.293333 -0.88,-0.146667 z m 2.493333,-12.76 c -1.76,0 -2.346667,-0.586667 -2.2,-1.173334 0.146667,-0.293333 0.293333,-0.44 0.586667,-0.44 2.2,0 2.2,0.44 2.2,1.026667 -0.146667,0.44 -0.293333,0.586667 -0.586667,0.586667 z m -2.053333,57.933334 c -0.733334,-0.58667 -0.44,-1.32 0.733333,-2.34667 0.733334,-0.58666 1.32,-0.58666 1.76,0.14667 0.586667,1.02667 0.44,1.76 -0.44,2.2 -0.88,0.44 -1.613333,0.44 -2.053333,0 z m 0.293333,-50.160001 c -0.146667,-0.146666 -0.146667,-0.293333 -0.146667,-0.44 0.586667,0 0.880001,0.146667 0.880001,0.44 -0.293334,0.586667 -0.586667,0.586667 -0.733334,0 z m 0.88,-3.373333 c -0.146666,-0.733334 -0.146666,-1.026667 0.293334,-1.173334 0.44,-0.146666 1.026666,0.146667 1.466666,0.586667 0.293334,0.293334 0,0.586667 -0.733333,0.88 -0.733333,0.146667 -1.026667,0 -1.026667,-0.293333 z M 91.104428,115.978 c -0.44,-0.14666 -0.733333,-0.14666 -0.733333,-0.29333 0.146666,-1.32 0.586666,-2.05333 1.613333,-2.05333 0.293333,0 0.586667,0.14666 0.733333,0.44 0.44,0.58666 0.293334,1.17333 -0.293333,1.90666 -0.146667,0.14667 -0.293333,0.14667 -0.733333,0.14667 -0.146667,0 -0.44,0 -0.586667,-0.14667 z m 0.586667,-66.879998 c -0.146667,-0.44 0,-0.88 0.293333,-1.026666 0.293333,-0.146667 0.586667,-0.146667 1.026667,0 0.44,0.146666 0.733333,0.44 1.173333,0.88 0.146667,0.146666 0,0.293333 -0.146667,0.44 h -2.053333 c -0.146667,0 -0.293333,-0.146667 -0.293333,-0.293334 z m -0.146667,71.573338 c 0,-0.29334 0.293333,-0.73334 1.026667,-1.17334 0.44,-0.14666 1.026666,0.73334 1.466666,0.88 -0.146666,0.44 -0.733333,0.58667 -2.053333,0.58667 z m 0.44,-57.933337 c -0.146667,-0.146667 0.146667,-0.293334 0.586667,-0.733334 0.293333,0.146667 0.293333,0.293334 0.146666,0.733334 -0.146666,0.293333 -0.44,0.293333 -0.733333,0 z m 3.08,61.746667 c 0,1.02667 -0.733333,1.61333 -2.346667,1.61333 0,-1.02666 0.44,-1.46666 1.32,-1.61333 z m -1.76,-11.73333 c 0,-2.2 0.586667,-2.93334 1.76,-2.49334 0.44,0.14667 0.733333,0.44 0.733333,0.88 0,1.02667 -0.88,1.61334 -2.493333,1.61334 z m 1.906667,-58.226671 c -0.44,0 -1.026667,-0.44 -1.026667,-1.026667 0.733333,0 1.026667,0.293334 1.026667,1.026667 z m -0.586667,62.626671 c 0,-0.88 0.293333,-1.46667 0.88,-1.61334 0.733333,-0.14666 1.026667,0 1.173333,0.58667 0.146667,1.02667 -0.146666,1.61333 -0.586666,1.76 -0.733334,0.14667 -1.173334,0 -1.466667,-0.58667 z m 1.026667,5.13333 c 0.146666,-0.44 0.293333,-0.73333 0.586666,-0.88 -0.146666,0.44 -0.293333,0.73333 -0.586666,0.88 z m 0.586666,-62.920001 c -0.44,1.173334 -0.44,-0.733333 0,0 z m 0.44,67.906671 c 0,-0.58667 0.44,-1.17334 0.88,-1.61334 0.733334,1.02667 0.44,1.61334 -0.88,1.61334 z m 0.586667,-12.90667 c -0.146667,0 -0.146667,-0.14667 -0.146667,-0.44 0,-1.32 0.586667,-2.05333 1.613334,-2.05333 0.146666,0 0.44,0.14666 0.733333,0.29333 0.733332,0.58667 0.586662,1.17333 -0.44,1.90667 -0.44,0.44 -1.026667,0.44 -1.76,0.29333 z m 0.88,4.69333 c 0,-1.02666 0.44,-1.46666 1.466667,-1.46666 0.439995,0 0.586665,0.29333 0.586665,0.73333 0,-0.14667 0,0.14667 0,0.88 -0.586665,0.14667 -1.173332,0.29333 -1.759999,0.29333 l -0.293333,-0.29333 z m 1.173333,4.69334 c 0,-0.88 0.440001,-1.32 1.319999,-1.32 0.44,0 0.58667,0.14666 0.73333,0.58666 0.44,1.02667 -0.58666,1.17334 -1.759995,1.17334 L 99.317761,123.898 Z m 0.440001,-12.76 c -1.026667,-1.02667 1.466668,-3.37334 2.199998,-2.2 0.73333,1.32 -1.17333,3.22666 -2.199998,2.2 z m 1.026668,4.54666 0.58666,-1.17333 h 0.44 c 0,0.73333 -0.29333,1.17333 -0.73333,1.46667 z m 1.32,4.54667 h 0.29333 v 0.58667 h -0.29333 z m 0.29333,-4.54667 c -0.14667,-0.44 -0.14667,-0.73333 0.14667,-0.88 0.29333,-0.14666 0.58666,0 0.73333,0.14667 0,0.14667 -0.14667,0.44 -0.44,0.73333 -0.14667,0.44 -0.29333,0.44 -0.44,0 z m 1.02667,10.12 c -0.73334,-0.14666 -0.58667,-0.58666 0.44,-1.17333 0.44,-0.14667 0.88,-0.29333 1.61333,-0.29333 0,0.88 -0.14666,1.32 -0.58666,1.46666 -0.44,0.14667 -1.02667,0.14667 -1.46667,0 z m 0.14666,-5.13333 c -0.14666,-0.29333 0,-0.58667 0.14667,-1.02667 0.14667,-0.29333 0.44,-0.29333 0.58667,0.14667 0.14667,0.29333 0.14667,0.58667 -0.14667,0.88 -0.14667,0.29333 -0.44,0.29333 -0.58667,0 z m 0,-8.06667 c -0.29333,-0.29333 -0.14666,-0.73333 0.44,-1.46666 0.29334,-0.44 0.58667,-0.58667 1.02667,-0.58667 0,1.46667 -0.29333,2.2 -1.02667,2.2 -0.14666,0 -0.29333,0 -0.44,-0.14667 z m 1.46667,5.13334 c -0.58666,0 -0.58666,-0.44 -0.14666,-1.32 0.14666,-0.44 0.58666,-0.58667 1.32,-0.44 0.73333,0.14666 0.88,0.58666 0.44,1.32 -0.14667,0.44 -0.73334,0.58666 -1.61334,0.44 z m 0.73334,4.98666 c 0,-1.61333 0.73333,-2.34666 1.32,-1.90666 0.29333,0.14666 0.44,0.44 0.29333,0.88 -0.14667,0.73333 -0.73333,1.02666 -1.61333,1.02666 z m 1.32,4.69334 c 0.14666,-0.29334 0.29333,-0.44 0.58666,-0.44 0,0.29333 -0.14666,0.58666 -0.29333,0.73333 z m 0.29333,-13.34667 c 0,-1.61333 0.44,-2.34667 1.32,-2.34667 l 0.44,0.44 c 0,0.73334 -1.32,2.78667 -1.76,2.05334 z m 1.02667,-5.72 c -1.17334,-0.44 1.02666,-0.44 0,0 z m 0.58666,10.70667 c -0.14666,-0.29334 -0.14666,-0.73334 0,-1.17334 0.29334,-0.44 0.58667,-0.73333 1.02667,-0.73333 0.29333,0 0.44,0.14667 0.58667,0.58667 0.14666,0.73333 0,1.17333 -0.44,1.46666 -0.73334,0.14667 -1.02667,0.14667 -1.17334,-0.14666 z m 0.88,4.84 c -0.14666,-0.14667 0.14667,-0.73334 0.88,-1.46667 0.44,-0.29333 0.58667,0 0.73334,0.88 -0.44,0.44 -0.88,0.73333 -1.46667,0.73333 0,0 0,0 -0.14667,-0.14666 z m 0.73334,-14.96 c 0.14666,-0.14667 0.44,-0.14667 0.58666,-0.14667 0.88,0 1.32,0.44 1.32,1.46667 0,0.14666 -0.14666,0.29333 -0.29333,0.29333 0.44,-0.14667 0.14667,-0.29333 -1.02667,-0.29333 -0.14666,0 -0.88,0.44 -1.32,0.44 0,-0.73334 0.29334,-1.32 0.73334,-1.76 z m 0.73333,6.89333 c -0.44,-0.29333 -0.29333,-0.88 0.44,-1.76 0.44,-0.73333 1.02667,-0.44 1.46667,0.73333 0.29333,0.73334 0.14666,1.02667 -0.44,1.17334 -0.73334,0.14666 -1.32,0 -1.46667,-0.14667 z m -0.14667,12.61333 c 0,-0.73333 0.44,-1.17333 1.17334,-1.17333 0,1.02667 -0.29334,1.61333 -0.73334,1.61333 -0.14666,0 -0.29333,-0.14666 -0.44,-0.29333 z m 3.37334,-8.8 c 0.14666,-0.14666 0.14666,-0.14666 0.29333,-0.14666 0,1.02666 -0.29333,1.46666 -0.88,1.32 -0.88,-0.44 -1.32,-0.73334 -1.17333,-0.88 0.58666,-0.14667 1.17333,-0.29334 1.76,-0.29334 z m 1.76,4.4 c 0,1.02667 -0.88,1.61334 -2.49334,1.61334 0,-0.88 0.58667,-1.46667 1.76,-1.61334 z m -2.49334,-11.73333 c 0,-1.02667 0.58667,-1.61333 1.32,-2.34667 0.14667,0.14667 0.29334,0.44 0.29334,0.88 0,1.02667 -0.58667,1.46667 -1.61334,1.46667 z m 1.32,4.69333 c 0,-0.58666 0,-1.02666 0.14667,-1.32 0.44,-0.73333 0.58667,-0.73333 0.73333,0 0.14667,1.17334 -0.44,2.2 -0.88,1.46667 z m 1.46667,5.28 c -0.14667,-1.90666 0.44,-2.2 1.46667,-2.05333 l 0.88,0.44 c 0.14666,0.58667 -2.2,2.34667 -2.34667,1.61333 z m 1.76,-0.88 c 0,-0.14666 -0.14667,-0.29333 -0.29333,-0.29333 -0.14667,0 -0.14667,0.14667 -0.29334,0.29333 0.14667,0.14667 0.14667,0.29334 0.29334,0.29334 0.14666,0 0.14666,-0.14667 0.29333,-0.29334 z"
         style=""
         id="path5167" />
      <path
         d="m 159.35485,129.178 h 2.78667 c 0.14666,0 1.17333,0.29334 1.61333,0.29334 l 5.28,-0.29334 c 2.05333,-0.14666 4.10667,-1.17333 6.30667,-3.08 l 2.2,-1.76 c 0.73333,-1.02666 0.88,-1.76 0.29333,-2.2 -0.44,-1.02666 1.61333,-1.32 1.32,-3.22666 v -14.52 c -0.58667,-0.73334 -0.73333,-1.17334 -0.44,-1.61334 0.29333,-0.44 0.44,-0.73333 0.44,-0.88 0,-0.58666 -0.14667,-1.17333 -0.29333,-1.76 -0.73334,0.14667 -1.17334,0.14667 -1.61334,0 -0.29333,0 -0.44,-0.146663 -0.44,-0.439996 0,-1.026667 0.58667,-1.466667 1.61334,-1.466667 0,-0.146666 -0.14667,-0.293333 -0.44,-0.44 -0.73334,-1.173333 -0.73334,-2.64 -1.17334,-2.64 -0.44,-0.146667 -0.73333,-0.146667 -0.88,-0.293333 -0.14666,-0.293334 0,-0.586667 0.14667,-1.026667 0.14667,-0.146667 0,-0.44 -0.14667,-0.733333 -0.14666,-0.146667 -0.44,0 -0.88,0.44 -0.44,0.146666 -0.88,0.146666 -1.61333,0 -0.73333,-0.146667 -1.17333,-0.44 -1.17333,-0.733334 0,-0.733333 0.58666,-1.026666 1.61333,-1.026666 0.14667,0 0.73333,0.293333 1.17333,0.293333 v -0.293333 l -2.34666,-2.786667 c -1.02667,-1.173333 -1.46667,-1.906667 -1.02667,-2.346667 1.02667,-1.32 1.02667,-2.2 0.29333,-2.933333 -0.44,-0.44 -0.58666,-0.733334 -0.58666,-1.173334 0.14666,-0.44 0.58666,-0.733333 1.02666,-0.733333 l 1.76,0.733333 c 0.58667,0 1.02667,-0.44 1.17334,-1.466666 0,-0.586667 -1.02667,-1.026667 -1.17334,-1.173334 -0.44,-0.733333 -0.14666,-1.026666 0.88,-1.026666 0.14667,0 0.58667,0.146666 1.61334,0.44 0.73333,0.293333 1.17333,0 1.46666,-0.88 0.44,-0.733334 -1.76,-1.32 -1.02666,-2.346667 0.44,-0.586667 1.02666,-0.88 1.46666,-0.733334 l 0.29334,0.293334 c 0.29333,0 0.44,-0.146667 0.58666,-0.293334 0.14667,-0.44 -0.88,-0.44 -0.88,-1.026666 -0.44,-1.026667 -0.88,-1.466667 -1.02666,-1.613334 -0.44,-0.146666 -0.88,-0.146666 -1.02667,-0.146666 -0.58667,-0.293334 -0.88,-0.586667 -0.88,-1.026667 l 0.29333,-0.44 1.17334,-1.173333 c 0.29333,-0.146667 0.44,0 0.58666,0.293333 0.29334,-0.733333 0.44,-1.466667 0.29334,-2.053333 -0.14667,-0.733334 -2.78667,-0.88 -2.64,-1.906667 0.29333,-0.44 0.73333,-0.586667 1.32,-0.586667 1.90666,0.146667 2.93333,-0.146667 2.93333,-0.586667 0,-0.146666 -0.14667,-0.44 -0.29333,-0.586666 -0.73334,-0.733334 -1.02667,-1.32 -1.02667,-1.466667 0.44,-0.44 0.88,-0.733333 1.17333,-0.88 0.14667,-0.293333 0,-1.026667 -0.44,-2.346667 -0.14666,-1.026666 0.44,-3.226667 0.44,-3.96 -0.73333,-1.32 -1.46666,-2.2 -1.32,-2.346667 l 0.44,-0.88 c 0.14667,-0.733333 0,-1.466666 -0.44,-2.2 -0.29333,-0.44 -1.46666,-0.44 -3.37333,0 1.02667,1.026667 1.02667,1.466667 0,1.613334 -0.14667,0 -0.44,0 -0.58667,-0.146667 h -0.58666 v -0.88 c 0.14666,-0.44 0.29333,-0.733333 0.14666,-1.026667 -0.14666,-0.44 -0.29333,-0.44 -0.73333,-0.293333 -0.88,0.44 -1.76,0.733333 -2.64,0.88 -2.78667,0.44 -4.98667,0.733333 -6.30667,1.026667 h -2.93333 c -1.32,0.146666 -1.90667,0.586666 -1.90667,1.613333 0,0 0.58667,-0.146667 1.76,-0.293333 1.32,-0.146667 2.64,0.586666 2.05334,1.613333 -0.44,0.586667 -1.76,0.146667 -5.13334,0.586667 -0.73333,0.146666 -1.17333,0.146666 -1.32,0.293333 l -0.58666,0.733333 c -0.44,0.146667 -1.17334,0.146667 -2.05334,0 -1.02666,-0.146666 -1.61333,-0.586666 -1.61333,-1.026666 0,-0.146667 0.73333,-0.44 2.05333,-0.733334 2.2,-0.44 3.22667,-0.733333 3.37334,-1.173333 0.29333,-0.44 0.14666,-0.733333 -0.29334,-0.733333 0,0 -0.29333,0 -0.88,0 h -2.05333 l -0.29333,-0.293334 0.58666,-1.173333 c -0.88,-0.293333 -1.61333,-0.44 -2.05333,-0.293333 -0.44,-0.586667 0.44,-1.76 1.17333,-1.76 0.73334,0 1.17334,0.293333 1.61334,1.026666 0.14666,0.146667 0.14666,0.586667 -0.14667,1.026667 -0.14667,0.146667 -0.14667,0.293333 -0.14667,0.44 0.58667,0 1.61334,-0.733333 2.05334,-0.733333 1.46666,0.146666 2.49333,0.146666 3.22666,0.293333 0.88,-0.146667 1.46667,-0.44 1.90667,-0.733333 4.54667,-0.733334 7.92,-1.173334 10.12,-1.466667 1.17333,-0.146667 1.61333,-0.44 1.46667,-0.586667 l -2.05334,-1.906667 c -1.02666,0 -1.61333,0 -1.90666,-0.146666 -0.58667,-0.146667 -1.02667,0 -1.32,0.146666 -0.73334,-0.44 -1.17334,-0.733333 -1.17334,-0.733333 0,0.733333 1.02667,2.053334 1.02667,2.786667 h -2.2 c -0.73333,0 -0.73333,-0.44 -0.14667,-1.32 l 1.02667,-1.32 h -0.58667 l -2.05333,1.76 c -0.73333,-0.44 -1.61333,-0.88 -2.34667,-1.026667 -0.58666,-0.44 -0.29333,-1.026667 -1.46666,-1.026667 -1.32,-0.146666 -2.05334,-0.146666 -2.49334,0.146667 -0.29333,0.293333 -0.14666,0.733333 0.29334,1.32 -0.73334,0.586667 -1.46667,0.88 -2.34667,0.88 -0.88,-1.906667 -2.64,-2.64 -5.13333,-2.2 -1.02667,0.146667 -1.46667,0.293333 -1.17334,0.44 -0.44,-0.586667 -1.17333,-0.88 -2.2,-0.88 0,1.173333 -0.14666,1.76 -0.58666,1.76 -1.17334,0 -1.76,-0.293333 -1.61334,-0.88 l 0.29334,-0.733333 v -0.293334 h -2.64 l -0.88,1.026667 -0.73334,-1.026667 h -1.90666 c 0,0.586667 1.46666,1.906667 1.46666,2.493334 0,0.146667 0,0.293333 -0.14666,0.44 -0.14667,0.146667 -0.58667,0.146667 -1.32,-0.146667 -0.44,0 -0.73334,0 -1.02667,0.146667 -0.14667,-0.44 -0.14667,-0.733334 0,-1.173334 0.44,-0.733333 0.58667,-1.173333 0.58667,-1.026666 0,-0.146667 -0.14667,-0.44 -0.58667,-0.733334 0.29333,0.146667 -0.29333,0.44 -1.76,0.88 -1.02667,0.44 -1.61333,0.44 -1.76,0.146667 -0.29333,-0.733333 -0.44,-1.026667 -0.58667,-1.026667 h -4.54666 c 0,0.146667 0.14666,0.586667 0.58666,1.026667 0.58667,1.173333 -2.34666,1.613334 -2.34666,1.76 l 0.29333,1.173334 v 0.293333 l -0.29333,0.586667 v 0.146666 c 0,0.44 0.29333,0.586667 0.73333,0.44 0.44,0 0.58667,-0.146666 0.44,-0.586666 l -0.29333,-0.586667 c -0.14667,-0.146667 0.14666,-0.146667 0.58666,-0.146667 0.44,0 0.88,0.146667 1.32,0.44 1.02667,0.586667 -0.73333,1.026667 -0.58666,1.466667 0.44,0.733333 1.32,1.173333 2.34666,1.173333 0,-1.76 -0.29333,-2.933333 -1.02666,-3.666666 -0.14667,-0.146667 -0.14667,-0.586667 0.14666,-1.026667 0.58667,-0.733334 1.17334,-0.733334 1.90667,0.146667 0.29333,0.44 0.44,1.026666 0.44,2.053333 0,0 0.58667,-0.146667 1.61333,-0.44 0.73334,-0.146667 1.17334,0 1.46667,0.293333 1.02667,1.32 1.76,1.906667 2.05333,1.76 0.44,-0.293333 0.58667,-0.586666 0.73334,-0.88 h 2.2 c 0,-1.32 0.29333,-1.906666 1.02666,-1.906666 0,0.146666 0,0.44 -0.14666,0.88 v 1.026666 c 0.14666,0.293334 0.29333,0.44 0.58666,0.293334 0.44,0 2.64,-0.586667 3.37334,-0.586667 1.02666,0 1.46666,0.44 1.46666,1.466667 2.05334,0 3.37334,0.146666 4.10667,0.44 1.02667,1.026666 -2.49333,1.76 -5.28,2.2 -2.49333,0.733333 -4.4,1.173333 -5.72,1.32 -0.14667,0 -0.29333,0 -0.29333,0.146666 0,0.146667 1.32,1.173334 1.32,1.32 0.29333,0.586667 0.29333,1.026667 0,1.173334 -0.73334,0.146667 -1.17334,0.146667 -1.61334,0 -1.76,0.146667 -2.64,0.293333 -2.49333,0.586667 0.73333,1.026666 1.32,1.026666 1.17333,2.2 -0.14666,0.586666 -0.44,0.88 -0.88,0.88 -1.32,0 -2.05333,-0.586667 -2.05333,-1.76 0,0.146666 0.29333,-0.44 0.88,-1.613334 -0.44,-1.613333 1.61333,-0.733333 2.2,-2.2 -2.05333,0 -3.52,0.146667 -4.54667,0.44 -0.44,0 -0.14666,0.44 0.58667,1.173334 v 0.293333 c 0,0.88 -0.14667,1.466667 -0.44,1.76 -0.29333,0.146667 -0.88,0.146667 -1.90667,-0.146667 -0.44,-0.146666 -0.73333,-0.44 -0.88,-0.733333 0.58667,-0.88 0.88,-1.613333 0.88,-2.053334 0.73334,0 -0.44,0.146667 -3.37333,0.586667 -1.17333,0.146667 -1.90667,0.146667 -2.05333,0.293334 0,0 0,0.146666 0,0.44 v 4.4 c 1.02666,0.44 1.61333,0.88 1.76,1.32 0.58666,1.613333 -1.46667,1.906666 -1.46667,2.053333 -0.44,1.026667 0.73333,1.173334 2.64,1.173334 0,-1.613334 0.29333,-2.346667 0.73333,-2.493334 0.73334,-0.146667 1.32,0.293333 1.90667,1.32 0.44,0.44 0.73333,0.733334 1.17333,0.88 l 6.45334,0.586667 c 0.14666,0 0.58666,-1.76 1.32,-1.613334 l 2.49333,1.026667 c 1.76,0.44 3.66667,0.586667 5.86667,0.586667 0.58666,0 1.90666,-0.733333 2.49333,-0.733333 1.17333,0.586666 3.96,0.586666 4.4,1.613333 0.44,1.026667 0.58667,1.76 0.58667,1.906667 0,1.32 -1.90667,3.813333 -3.52,5.133333 -1.02667,0.44 -1.76,0.733333 -2.05334,0.733333 -0.44,0.440001 -0.58666,0.733334 -0.73333,1.026667 -0.14667,0.146667 -0.58667,0.146667 -1.32,0 -1.02667,-0.146666 -1.46667,-0.88 -1.61333,-1.026667 h -3.81334 c 0,0.440001 0.29334,1.173334 0.29334,1.613334 -1.61334,0 -2.49334,0 -2.34667,0 -0.14667,-0.146667 -0.73333,-1.613334 -0.88,-1.613334 h -6.74667 c 0,0.880001 -0.29333,1.320001 -0.73333,1.173334 l -0.58667,-0.293333 h -0.29333 l -0.58667,0.293333 c 0,0 -0.58666,-0.293333 -1.61333,-1.026667 -0.44,-0.293333 -1.02667,-0.44 -1.76,-0.44 -1.32,-0.146667 -2.05333,-0.146667 -2.2,0 -0.44,0.146667 0.58667,0.733334 0.44,1.32 -0.14667,0.88 -0.44,1.466667 -0.58667,1.906667 v 1.76 c 0,0.733333 1.90667,1.466667 1.76,2.493333 -0.14666,0.146667 -0.29333,0.293334 -0.58666,0.293334 l -0.58667,-0.293334 -0.14667,-0.146666 c 0,0.586666 -0.44,1.76 -0.44,2.346666 0,0.440001 0.44,1.026667 1.46667,1.760001 l 0.88,0.733333 -0.58667,0.44 c -1.76,-0.146667 -2.34666,-0.293333 -1.76,-0.44 -0.14666,1.026667 -0.29333,3.813333 -0.29333,8.36 0.44,1.026667 0.73333,1.613334 0.88,1.613334 0.44,-0.44 0.58667,-0.88 0.73333,-1.173334 0.58667,-0.44 0.88,-0.586666 1.02667,-0.293333 0.44,1.173333 0.14667,1.466667 1.90667,1.466667 h 5.86666 c 1.76,-0.733334 2.93334,-0.733334 3.66667,0 0,0 0.44,0 1.32,0 h 3.96 v -0.44 h -1.02667 c -0.14666,-0.44 -0.14666,-0.88 0.29334,-1.026667 0.29333,-0.146667 0.58666,-0.146667 1.02666,0 1.02667,0 1.46667,1.466667 1.61334,1.466667 1.46666,0.146666 2.49333,0.146666 3.22666,0.146666 1.17334,0.146667 1.90667,0.293334 2.05334,0.44 l 1.76,1.760003 1.76,1.76 c 1.02666,0.14666 1.46666,0.44 1.46666,0.88 0,-0.14667 -0.44,0.14666 -1.17333,0.88 -0.14667,0.29333 -0.29333,0.58666 -0.29333,0.73333 -0.14667,0.88 -0.29334,1.61333 -0.29334,2.05333 l -0.88,0.29334 c -8.21333,0 -12.02666,0 -11.58666,0 -0.88,0 -3.08,0 -6.74667,-0.14667 -2.78667,-0.14667 -5.13333,-0.14667 -6.74667,-0.14667 0,0.44 1.17334,0.58667 1.17334,1.02667 -1.32,0 -1.90667,0 -2.05334,-0.14667 -0.14666,-0.58666 -0.29333,-0.88 -0.29333,-0.88 h -2.34667 l -0.29333,0.29334 c -0.14667,3.37333 -0.14667,6.01333 -0.29333,7.62666 0,0.44 0.29333,1.61334 0.29333,2.05334 v 1.02666 c -0.14667,0.29334 -0.14667,0.58667 -0.29333,0.73334 v 10.12 l 0.44,0.29333 v -0.88 c 0.44,0.44 1.32,0.73333 2.34666,0.88 1.02667,0 1.76,-0.29333 2.2,-0.29333 1.61334,0 5.42667,0.58666 7.04,0.58666 h 6.01334 z m -31.09333,-36.81333 0.29333,-0.293333 0.29333,0.293333 -0.29333,0.293334 z m 1.46666,-39.306668 c -0.14666,-0.146666 -0.44,-0.146666 -0.58666,-0.146666 0.14666,0.44 -0.29334,1.466666 -0.29334,1.906666 1.17334,0 1.90667,-0.146666 2.05334,-0.293333 0.14666,-0.146667 -0.14667,-0.733333 -1.17334,-1.466667 z m 2.05334,27.426668 c -1.17334,-0.146667 -1.90667,-0.586667 -2.05334,-1.32 0,-0.44 0.14667,-0.733333 0.44,-0.88 1.02667,-0.44 2.49334,0.88 2.49334,1.613333 0,0.44 -0.29334,0.586667 -0.88,0.586667 z m 1.32,-17.746667 c -0.58667,0.733333 -1.32,0.586666 -2.2,-0.293334 -0.88,-1.026666 -0.88,-1.76 -0.14667,-2.2 1.32,-1.026666 3.66667,1.32 2.34667,2.493334 z m -2.34667,22 c -0.14667,-0.146666 -0.14667,-0.293333 -0.14667,-0.44 0.44,-0.586666 1.32,0.586667 1.32,0.733334 0,0.44 -0.14666,0.586666 -0.58666,0.44 -0.29334,-0.146667 -0.44,-0.293334 -0.58667,-0.733334 z m 1.61333,4.986667 c -0.88,-0.293333 -1.02666,-0.733333 -0.29333,-1.173333 0.14667,-0.44 2.34667,0.586667 1.76,1.173333 -0.14667,0.293334 -0.73333,0.293334 -1.46667,0 z m 0,4.84 c -0.73333,-0.586666 -0.29333,-0.88 1.02667,-0.88 0,0.293334 -0.14667,0.586667 -0.29333,0.88 -0.29334,0.293334 -0.58667,0.293334 -0.73334,0 z m 0.44,-10.266667 c 0.44,0 0.58667,0.146667 0.58667,0.586667 -0.14667,0 -0.44,-0.146667 -0.58667,-0.293333 z m 0.44,25.226667 c -0.44,1.17333 -0.44,-0.73333 0,0 z m 0.58667,-27.573333 c -0.14667,-0.293334 -0.29333,-0.586667 -0.14667,-1.026667 0.14667,-0.44 0.29334,-0.586667 0.73334,-0.586667 0.73333,0 1.32,0.44 1.76,1.173334 0.44,0.88 0.29333,1.32 -0.44,1.32 -0.73334,0 -1.46667,-0.293334 -1.90667,-0.88 z m 0.14667,12.466667 0.29333,-0.293334 0.29333,0.293334 -0.29333,0.293333 z m 0.29333,-31.093335 c -0.14667,-0.586666 0,-1.026666 0.29333,-1.32 0.29334,-0.293333 0.73334,-0.293333 1.17334,0 1.02666,0.44 1.46666,1.173334 1.46666,2.2 -0.14666,0.146667 -1.02666,0.293334 -2.34666,0.293334 -0.44,0 -0.58667,-0.44 -0.58667,-1.173334 z m 0.14667,23.466668 c -0.29334,-0.44 -0.29334,-0.88 0.14666,-1.173334 0.44,-0.44 0.88,-0.44 1.32,0 l 1.32,1.320001 c 0.14667,0.44 -0.14666,0.586666 -1.02666,0.586666 -0.88,0 -1.46667,-0.293333 -1.76,-0.733333 z m 0.44,4.693333 c 0.14666,-0.44 0.88,-0.586666 1.90666,-0.586666 0.44,0 0.58667,0.293333 0.58667,0.88 h -2.2 z m 0.58666,20.68 h 0.29334 v 0.29333 z m 0.14667,-14.519999 c 0,-1.76 0.58667,-2.493334 1.76,-1.906667 0.58667,0.293333 0.88,0.733333 0.73333,1.173333 -0.14666,0.44 -0.88,0.733334 -2.49333,0.733334 z m 5.13333,-16.426668 c -0.14666,-0.586666 -1.02666,-1.906666 -2.34666,-1.613333 -1.32,-0.293333 -2.05334,-0.733333 -2.05334,-1.466667 0,-1.32 0.44,-1.76 1.17334,-1.173333 0.73333,0.44 1.76,0.88 3.08,1.32 l 0.44,0.293333 0.88,0.88 c 1.02666,0.733334 1.46666,1.32 1.17333,1.76 z m -3.81333,3.666667 0.29333,0.293333 h -0.58666 z m 0.29333,-33.586668 c 0,-0.146666 -0.14666,-0.146666 -0.29333,-0.293333 -0.14667,0 -0.14667,0.146667 -0.29333,0.293333 0,0.146667 0.14666,0.293334 0.29333,0.293334 0.14667,0 0.29333,-0.146667 0.29333,-0.293334 z m 2.64,33.000001 c -0.44,-0.293333 -1.02666,-0.293333 -1.76,0 -0.44,-0.44 -0.73333,-0.88 -0.88,-1.32 0.44,-0.88 1.61334,-0.733333 3.81334,0.44 1.90666,1.026667 2.78666,1.906667 2.78666,2.640001 0,0.293333 -0.29333,0.44 -0.73333,0.44 -0.29333,0 -1.32,-0.733334 -3.22667,-2.200001 z m -1.61333,-18.626667 c -0.44,-1.173333 -0.29333,-1.76 0.58667,-1.76 0.88,0 1.46666,0.44 1.76,1.173333 0.44,1.026667 -0.14667,1.613334 -2.05334,1.613334 0,-0.293334 -0.14666,-0.586667 -0.29333,-1.026667 z m 0.29333,23.320001 c -0.58666,-0.146667 -0.73333,-0.44 -0.29333,-1.173333 0.14667,-0.44 0.73333,-0.44 1.76,0.146666 0.88,0.586667 0.88,0.88 0,1.026667 -0.44,0.146667 -1.02667,0.146667 -1.46667,0 z m 0.14667,4.546667 c -0.14667,-0.44 0.14667,-0.733334 0.73333,-0.88 l 0.73334,0.44 c -0.73334,0.733333 -1.17334,0.88 -1.46667,0.44 z m 2.78667,-30.653335 c -0.88,-0.44 -0.88,-1.026666 0,-1.76 0.44,-0.44 1.02666,-0.44 1.76,0.293334 0.73333,0.733333 0.73333,1.32 0,1.466666 -0.73334,0.293334 -1.32,0.293334 -1.76,0 z m 0.14666,-11.586667 c 0,-0.146666 0,-0.146666 -0.14666,-0.293333 -0.14667,0 -0.29334,0.146667 -0.29334,0.293333 0,0.146667 0.14667,0.293334 0.29334,0.293334 0.14666,0 0.14666,-0.146667 0.14666,-0.293334 z m 0.44,39.306668 c -0.29333,-0.146666 -0.29333,-0.293333 -0.14666,-0.586666 0.58666,-0.44 0.88,-0.733334 0.88,-0.88 0.73333,-1.026667 2.2,-2.786667 2.93333,-2.786667 0.14667,0 0.44,0.146667 0.88,0.586667 0.44,0.293333 0.44,0.586666 -0.14667,0.733333 -0.88,1.026667 -1.46666,1.906667 -1.76,2.64 -0.73333,0.88 -1.61333,1.026667 -2.64,0.293333 z m 0.58667,5.720001 c -0.58667,-0.44 -0.44,-0.880001 0.29333,-1.613334 0.44,-0.44 0.88,-0.586667 1.32,-0.146667 0.73334,0.733334 0.88,1.320001 0.44,1.613334 -0.73333,0.44 -1.32,0.586667 -2.05333,0.146667 z m 1.02667,-44.733335 c -0.44,0 -0.58667,0.146666 -0.73334,0.293333 -0.14666,0.146667 0,0.293333 0.14667,0.44 0.29333,0 0.44,-0.146667 0.58667,-0.293333 0.14666,-0.146667 0.14666,-0.293334 0,-0.44 z m 0.14666,8.213333 c -0.14666,-1.026666 0,-1.76 0.73334,-1.906666 1.46666,-0.44 2.2,0.146666 2.2,1.466666 0,0.586667 -0.44,0.88 -1.46667,1.026667 -1.02667,0.146667 -1.46667,-0.146667 -1.46667,-0.586667 z m 0.44,22.880001 c -0.44,-0.44 -0.29333,-0.88 0.14667,-1.173333 0.29333,-0.293334 0.73333,-0.293334 1.46667,0 0.73333,0.293333 1.17333,0.586666 1.17333,1.026666 0.14667,0.44 -0.14667,0.733334 -0.73333,0.88 -1.02667,0 -1.61334,-0.293333 -2.05334,-0.733333 z m 0.58667,-18.333334 c -0.29333,-0.44 -0.14667,-0.88 0.58667,-1.613333 0.58666,-0.44 1.02666,-0.146667 1.46666,0.88 0.44,1.026666 0.29334,1.613333 -0.14666,1.76 -0.73334,0.293333 -1.32,0 -1.90667,-1.026667 z m 1.17333,28.453334 c -0.88,-0.44 -1.02666,-0.88 -0.29333,-1.32 0.44,-0.146666 1.17333,-0.146666 1.90667,0.146667 0.73333,0.44 0.73333,0.733333 0,1.173333 -0.44,0.146667 -1.02667,0.146667 -1.61334,0 z m -0.29333,-35.933334 c -0.73333,-0.44 -0.44,-1.026667 0.73333,-1.466667 0.73334,-0.293333 1.46667,-0.293333 2.2,-0.146667 1.32,0.44 1.76,0.88 1.32,1.32 -0.44,0.146667 -0.88,0 -1.02666,-0.146666 -0.14667,0 -0.58667,0.146666 -1.61334,0.586666 -0.73333,0.146667 -1.17333,0.146667 -1.61333,-0.146666 z m 1.46667,22.733334 c -0.73334,-0.733333 -0.58667,-1.173333 0.29333,-1.32 0.73333,-0.146667 1.32,0.146667 1.90667,0.733333 0.73333,0.733334 0.58666,1.026667 -0.44,1.026667 -0.88,0 -1.46667,-0.146667 -1.76,-0.44 z m 0.44,-17.746667 c -0.14667,-0.88 0,-1.466667 0.44,-1.76 0.73333,-0.293334 1.17333,-0.146667 1.46666,0.293333 0.44,0.88 0.44,1.466667 -0.29333,1.613333 -0.88,0.44 -1.46667,0.293334 -1.61333,-0.146666 z m 2.49333,23.173334 c -1.02667,0.586666 -3.08,-0.44 -2.05333,-1.466667 0.29333,-0.293333 0.88,-0.293333 1.61333,0 0.88,0.44 1.02667,1.026667 0.44,1.466667 z m -1.90667,-19.213334 c 0,-1.026667 0.44,-1.32 1.46667,-0.88 0.88,0.44 1.32,1.026666 1.32,1.906667 h -2.2 c -0.44,0 -0.58667,-0.293334 -0.58667,-0.880001 z m 0.88,23.906667 c -0.58666,0 -0.73333,-0.293333 -0.58666,-0.88 0.14666,-0.733333 0.58666,-0.88 1.17333,-0.586666 0.73333,0.293333 1.02667,0.586666 0.88,1.026666 -0.29333,0.293334 -0.73333,0.44 -1.46667,0.44 z m 0,-41.213334 c 0,-0.733334 0.58667,-1.760001 1.61334,-1.320001 0.29333,0.146667 0.29333,0.440001 0.14666,0.733334 -0.29333,0.44 -0.88,0.586667 -1.76,0.586667 z m 0.14667,46.200001 c -0.14667,-0.146667 -0.29333,-0.44 -0.14667,-0.88 0.14667,-0.293333 0.44,-0.44 0.73334,-0.586667 0.44,-0.146666 0.73333,0.146667 1.02666,0.586667 0.44,0.44 0.44,0.733333 -0.14666,0.88 -0.73334,0.146667 -1.17334,0.146667 -1.46667,0 z m 1.32,-13.493334 c -0.14667,-0.586666 0.14667,-0.88 0.88,-0.88 0.44,0 0.73333,0.146667 1.02667,0.586667 -0.14667,0.293333 -0.44,0.586667 -0.88,0.88 -0.29334,0.146667 -0.58667,-0.146667 -1.02667,-0.586667 z m 0,-30.506667 h 0.29333 v 0.293333 h -0.29333 z m 2.49333,8.506667 c -1.17333,1.32 -3.08,-1.32 -2.05333,-2.346667 1.02667,-1.026667 3.22667,1.026667 2.05333,2.346667 z m -1.32,27.280001 c -0.44,-0.146667 -0.44,-0.586667 0,-1.026667 0.44,-0.293334 0.73334,-0.293334 0.88,-0.146667 0.44,0.44 0.73334,0.733334 0.58667,0.88 -0.44,0.293334 -0.73333,0.44 -0.88,0.44 -0.29333,0 -0.44,0 -0.58667,-0.146666 z m -0.14666,-22.880001 c -0.29334,-1.026667 -0.14667,-1.613334 0.44,-1.76 1.32,-0.293334 1.90666,0.146666 1.90666,1.173333 0,0.44 -0.44,0.733333 -1.17333,0.88 -0.73333,0.146667 -1.02667,0.146667 -1.17333,-0.293333 z m 1.46666,27.720001 c -0.44,-0.146667 -0.73333,-0.293334 -0.58666,-0.44 0.14666,-0.44 0.44,-0.44 0.88,-0.293334 0.58666,0.146667 0.73333,0.44 0.44,0.733334 -0.14667,0.146666 -0.29334,0.146666 -0.73334,0 z m -0.29333,4.84 c -0.14667,-0.586667 0,-0.88 0.58667,-0.88 0.73333,0 1.17333,0.293333 1.61333,0.733333 0.44,0.44 0.14667,0.733334 -0.58667,0.88 -0.88,0 -1.46666,-0.293333 -1.61333,-0.733333 z m 0.88,-17.600001 c -0.14667,-1.026666 0.14667,-1.613333 1.17333,-1.466666 1.02667,0.293333 1.61334,0.88 1.61334,1.76 h -2.2 c -0.29334,0 -0.44,-0.146667 -0.58667,-0.293334 z m 1.02667,-18.186667 c -0.58667,-0.733333 -0.58667,-1.32 0.14666,-1.613333 0.73334,-0.146667 1.32,0 1.90667,0.733333 0.73333,1.026667 0.58667,1.466667 -0.29333,1.466667 -0.88,0 -1.46667,-0.146667 -1.76,-0.586667 z m 2.2,23.613334 c -0.73334,0.733333 -2.93334,-0.586667 -1.90667,-1.76 0.58667,-0.586667 2.64,1.026667 1.90667,1.76 z m 0,-18.040001 c -1.32,0 -1.90667,-0.88 -1.76,-1.466666 0.14666,-0.44 0.29333,-0.586667 0.73333,-0.586667 0.44,0 0.88,0.293333 1.32,0.88 0.29333,0.146667 0.44,0.44 0.29333,0.733333 0,0.44 -0.14666,0.586667 -0.58666,0.44 z m -1.32,22.000001 c -0.44,1.173334 -0.44,-0.733333 0,0 z m 0.44,4.986667 c -0.14667,-0.293333 0,-0.44 0.29333,-0.586667 0.29333,-0.146666 0.44,0 0.58667,0.293334 0.14666,0.293333 0,0.44 -0.29334,0.586666 -0.29333,0.146667 -0.44,0 -0.58666,-0.293333 z m 0.44,5.573334 c -0.73334,-0.586667 -0.44,-1.026667 0.88,-1.173334 0.44,0 0.73333,0.146667 1.02666,0.586667 0.44,0.586667 0.44,0.88 -0.29333,1.026667 -0.58667,0 -1.17333,-0.146667 -1.61333,-0.44 z m 0.73333,-53.240002 c -0.44,0 -0.73333,0.146666 -0.88,0.44 h 0.88 z m 1.76,30.653334 c -1.17333,0.44 -3.66667,-0.293333 -2.05333,-1.906667 0.58666,-0.733333 3.22666,1.32 2.05333,1.906667 z m -1.61333,-18.626667 c -0.44,-0.44 -0.14667,-1.026667 0.58666,-1.613334 0.58667,-0.44 1.17334,-0.293333 1.90667,0.586667 0.88,1.026667 0.73333,1.76 -0.29333,1.906667 -0.88,0.146667 -1.61334,-0.146667 -2.2,-0.88 z m 1.76,23.760001 c -1.61334,-0.146667 -1.90667,-0.586667 -1.90667,-1.026667 0,-0.88 0.58667,-1.32 1.76,-1.173333 l 1.46667,1.466666 c -0.14667,0.44 -0.58667,0.733334 -1.32,0.733334 z m -1.02667,-18.626668 c -0.73333,-0.44 -0.73333,-0.88 0,-1.32 0.58667,-0.44 1.17333,-0.44 1.90667,-0.146666 0.58666,0.293333 0.58666,0.733333 0,1.466666 -0.44,0.44 -1.17334,0.44 -1.90667,0 z m -0.29333,22.733334 c 0.44,-0.586666 0.88,-1.026666 1.32,-1.173333 0.44,0.146667 0.73333,0.44 1.17333,1.026667 0.14667,0.146666 0,0.293333 -0.14667,0.44 h -2.05333 z m 1.02666,-18.04 c -0.58666,-1.026667 -0.29333,-1.466667 0.88,-1.466667 0.88,0 1.46667,0.44 1.90667,1.173334 0.44,0.733333 0,1.173333 -1.02667,1.32 -0.73333,0 -1.32,-0.293334 -1.76,-1.026667 z m 0.29334,23.760001 c -0.58667,-0.44 -0.58667,-0.88 0,-1.466667 0.44,-0.44 0.88,-0.44 1.32,-0.146667 1.02666,0.44 1.17333,1.026667 0.73333,1.466667 -0.58667,0.586667 -1.32,0.586667 -2.05333,0.146667 z m 0.29333,-18.333334 c -0.73333,-0.733334 -0.58667,-1.32 0.73333,-1.76 0.44,-0.146667 1.02667,0.146666 1.76,0.88 0.73334,0.733333 0.58667,1.173333 -0.58666,1.173333 -0.88,0.146667 -1.46667,0 -1.90667,-0.293333 z m 0.29333,22.88 c -0.58666,-0.586666 -0.44,-1.026666 0.44,-1.32 0.14667,0 0.58667,0.293334 1.17334,0.733334 0.44,0.44 0.29333,0.733333 -0.14667,0.88 -0.73333,0 -1.32,-0.146667 -1.46667,-0.293334 z m -0.14666,-46.200001 c -0.14667,-0.44 0.14666,-1.026667 0.88,-1.466667 0.44,-0.146666 1.02666,0.146667 1.76,1.026667 0.14666,0.293333 -0.14667,0.586667 -1.02667,0.733333 -1.02667,0.146667 -1.46667,0.146667 -1.61333,-0.293333 z m 0.44,51.186671 c 0,-0.586669 0.44,-1.613336 1.61333,-1.173336 0.58667,0.293333 0.88,0.733333 0.88,1.173336 z m 0.73333,-23.02667 c -0.44,-0.44 -0.44,-0.88 0,-1.32 0.44,-0.146667 2.49333,0.586667 2.49333,1.173333 0,0.44 -0.29333,0.733334 -0.73333,0.733334 -0.88,0 -1.46667,-0.146667 -1.76,-0.586667 z m 2.49333,-17.160001 c -1.02666,0.44 -2.64,-0.44 -2.05333,-2.053333 0.29333,-0.733333 0.73333,-1.026667 1.17333,-0.586667 l 1.46667,1.466667 c 0,0.733333 -0.14667,1.026667 -0.58667,1.173333 z m -1.90666,22.146668 c -0.73334,-0.733334 -0.58667,-1.173334 0.44,-1.173334 0.73333,0 1.46666,0.293334 2.05333,0.88 0.58667,0.733334 0.29333,1.026667 -0.88,1.026667 -0.73333,0 -1.32,-0.293333 -1.61333,-0.733333 z m 0.73333,5.426667 c -0.14667,-0.146667 -0.44,-0.293334 -0.58667,-0.586667 -0.14666,-0.293333 0,-0.586667 0.44,-0.733333 0.73334,-0.44 1.46667,-0.293334 1.90667,0.146666 0.73333,0.733334 0.73333,1.026667 0,1.173334 -0.73333,0.146666 -1.32,0.146666 -1.76,0 z m -0.29333,-23.466668 c -0.14667,-1.026667 0.14666,-1.76 1.17333,-1.613333 1.02667,0.44 1.61333,0.88 1.46667,1.466666 -0.14667,0.146667 -1.02667,0.293334 -2.34667,0.293334 -0.14667,0 -0.29333,0 -0.29333,-0.146667 z m 0.73333,4.84 c -0.14667,-0.146666 -0.29333,-0.293333 -0.29333,-0.44 0,-0.733333 0.29333,-1.026666 1.02666,-1.026666 0.29334,0 0.44,0.146666 0.58667,0.44 0.14667,0.44 0,0.733333 -0.29333,1.026666 -0.29334,0.293334 -0.58667,0.293334 -1.02667,0 z m 0,23.320001 c 0,-0.586667 0.58667,-1.173333 1.02667,-1.32 0,0.88 -0.29334,1.32 -1.02667,1.32 z m 0.44,4.693334 c 0.44,-0.44 0.88,-0.733334 1.61333,-0.586667 0.44,0 0.88,0.146667 1.02667,0.586667 l -0.29333,0.293333 h -2.05334 c -0.14666,-0.146667 -0.29333,-0.146667 -0.29333,-0.293333 z m 2.2,-22.440001 c -1.02667,0.146666 -2.93333,-0.293334 -1.76,-1.613334 0.73333,-0.586666 1.32,-0.586666 1.76,0.146667 0.58667,0.733333 0.58667,1.32 0,1.466667 z m -0.88,-17.893334 c -0.44,-0.146667 -0.58667,-0.44 -0.58667,-0.88 0,-0.88 0.44,-1.32 1.46667,-1.32 0.29333,0 0.58667,0.146666 0.88,0.44 0.73333,0.733333 0.88,1.32 0.29333,1.76 -0.44,0.44 -1.17333,0.44 -2.05333,0 z m -0.29333,22.586667 c -0.29334,-0.293333 -0.29334,-0.586666 0,-0.88 0.14666,-0.146666 0.44,-0.293333 0.88,-0.293333 0.44,0 0.73333,0.293333 0.73333,0.733333 l -0.44,1.026667 z m 0,23.026667 c -0.29334,-0.29333 -0.29334,-0.58667 0,-0.88 0.29333,-0.29333 0.58666,-0.44 0.88,-0.29333 0.44,0.14666 0.73333,0.44 0.73333,1.17333 -0.44,0.44 -0.88,0.44 -1.61333,0 z m 1.17333,-40.773334 c -0.88,-0.44 -1.02667,-0.88 -0.29333,-1.466667 0.44,-0.44 1.02666,-0.44 1.90666,0 0.73334,0.44 0.88,0.88 0.44,1.32 -0.44,0.44 -1.17333,0.44 -2.05333,0.146667 z m 1.02667,22.880001 c -1.02667,-0.146667 -2.05334,-0.146667 -1.32,-1.173334 0.14666,-0.293333 0.58666,-0.44 1.02666,-0.293333 0.73334,0.733333 1.17334,1.173333 1.17334,1.173333 -0.14667,0.146667 -0.44,0.293334 -0.88,0.293334 z m 2.49333,-30.653335 c -1.90667,-0.44 -2.64,-0.733333 -3.66667,-0.733333 -0.14666,0 -0.14666,-0.293333 0,-0.733333 0.44,0 2.05334,-0.88 2.78667,-0.88 1.17333,0 1.76,0.293333 1.90667,0.88 0.14666,0.733333 -0.29334,1.613333 -1.02667,1.466666 z m -3.52,15.253334 c -1.17333,-0.44 0.73333,-0.44 0,0 z m 0.29333,-23.466667 c 0,-0.146667 0,-0.293334 -0.14666,-0.293334 -0.14667,0 -0.14667,0.146667 -0.29334,0.293334 0,0.146666 0.14667,0.146666 0.29334,0.146666 0.14666,0 0.14666,0 0.14666,-0.146666 z m 0,42.680001 c 0.58667,-0.586666 1.02667,-0.586666 1.46667,0.146667 0.29333,0.44 -0.29333,0.586667 -1.76,0.586667 0,-0.293334 0.14667,-0.586667 0.29333,-0.733334 z m 0,-22.000001 c -0.29333,-0.44 -0.29333,-0.733333 -0.14666,-1.026666 0.14666,-0.44 0.58666,-0.586667 1.02666,-0.586667 1.02667,0 1.61334,0.293333 1.90667,0.88 0.44,1.026667 0.29333,1.466667 -0.44,1.613334 -0.88,0.146666 -1.61333,-0.146667 -2.34667,-0.880001 z m 0.58667,27.866668 c -0.58667,-0.44 -0.29333,-0.733333 0.73333,-1.026667 0.58667,-0.146666 1.17334,-0.146666 1.61334,0.293334 0.29333,0.293333 0.29333,0.586666 0,0.88 -0.14667,0.146666 -0.44,0.293333 -0.73334,0.293333 -0.58666,0 -1.17333,-0.146667 -1.61333,-0.44 z m 0.58667,-22.733334 c -0.58667,-0.146667 -0.73334,-0.733333 -0.44,-1.466667 0.29333,-0.44 0.88,-0.44 1.90666,0.146667 1.02667,0.586667 1.32,1.026667 0.73334,1.32 -0.73334,0.293333 -1.46667,0.293333 -2.2,0 z m 0,28.013334 c -0.29334,-0.146666 -0.29334,-0.44 0,-0.88 0.14666,-0.44 0.44,-0.586666 0.73333,-0.586666 0.58667,-0.146667 1.17333,0 1.76,0.44 0.29333,0.146666 0.44,0.44 0.29333,0.88 -0.14666,0.293333 -0.44,0.44 -0.88,0.44 -0.88,0 -1.46666,-0.146667 -1.90666,-0.293334 z m 2.78666,-22.733334 c -1.90666,0 -2.93333,-0.586667 -2.49333,-1.173333 0.14667,-0.293334 0.44,-0.44 0.88,-0.586667 0.44,-0.146667 1.02667,0 1.61333,0.44 0.14667,0.146667 0.29334,0.44 0.29334,0.733333 0.14666,0.440001 0,0.586667 -0.29334,0.586667 z m -1.76,4.106667 c -0.14666,-0.44 0.14667,-0.733333 0.73334,-0.88 l 0.73333,0.586667 c -0.29333,0.44 -0.58667,0.586666 -0.73333,0.733333 -0.14667,0.146667 -0.44,0 -0.73334,-0.44 z m 0.58667,-22.146667 c -0.58667,-0.293334 -0.73333,-0.88 -0.29333,-1.906667 0.14666,-0.44 0.73333,-0.293334 1.76,0.146666 0.58666,0.440001 0.88,0.880001 0.88,1.466667 -0.44,0.146667 -0.88,0.293334 -1.32,0.293334 z m 0.14667,4.253333 c -0.73334,-0.586667 -0.44,-1.026667 0.58666,-1.173333 0.44,-0.146667 1.02667,0.146666 1.61334,0.733333 0.29333,0.44 0.29333,0.586667 0.14666,0.733333 -0.14666,0.146667 -0.44,0.146667 -0.88,0 -0.73333,0 -1.32,-0.146666 -1.46666,-0.293333 z m 1.61333,23.613334 c -1.17333,-0.146666 -1.90667,-0.44 -1.76,-1.026667 l 0.73333,-0.44 c 0.44,-0.146666 1.02667,0.146667 1.61334,0.880001 -0.14667,0.293333 -0.29334,0.44 -0.58667,0.586666 z m -1.17333,-18.773334 c -0.14667,-0.733333 0.29333,-1.026666 1.17333,-1.026666 1.46667,0 2.2,0.586666 2.2,1.613333 h -2.78667 c -0.14666,-0.146667 -0.44,-0.293333 -0.58666,-0.586667 z m 0.29333,23.466668 c -0.73333,-0.44 -0.58667,-0.88 0.44,-1.026667 1.02667,-0.146667 1.61333,0 1.90667,0.44 0.44,0.88 0.29333,1.32 -0.58667,1.32 -0.29333,0 -0.88,-0.293333 -1.76,-0.733333 z m 2.34667,5.133333 c -1.32,0 -2.34667,-0.44 -1.90667,-1.026667 l 0.73333,-0.44 c 0.73334,-0.146666 1.17334,0 1.61334,0.44 0,0.440001 -0.14667,0.880001 -0.44,1.026667 z M 170.20818,73.44467 c -1.32,-0.733334 -1.32,-1.32 -0.29333,-1.466667 0.73333,-0.146667 1.46667,0 2.05333,0.293333 1.17334,0.44 1.32,0.88 0.29334,1.32 -0.73334,0.293334 -1.32,0.293334 -2.05334,-0.146666 z m -0.44,7.92 c -0.14666,-0.293333 0,-0.44 0.29334,-0.586667 0.14666,-0.146666 0.29333,0 0.44,0.146667 0.14666,0.146667 0.14666,0.44 -0.14667,0.586667 -0.14667,0.146666 -0.44,0.146666 -0.58667,-0.146667 z m 0.73334,-2.933333 c -0.29334,-0.44 -0.29334,-0.733334 0,-1.173334 0.29333,-0.293333 0.58666,-0.44 1.02666,-0.44 1.61334,0 2.34667,0.44 2.34667,1.466667 0,0.146667 -0.14667,0.44 -0.29333,0.586667 -0.88,0.88 -1.90667,0.733333 -3.08,-0.44 z M 170.20818,101.018 c -0.14666,-0.73333 0.29334,-1.026663 1.32,-1.026663 0,0.293333 -0.14666,0.586663 -0.44,1.026663 -0.44,0.44 -0.73333,0.44 -0.88,0 z m 0.58667,-45.906664 c -0.44,-0.293334 -0.44,-0.586667 -0.14667,-0.88 0.29334,-0.293334 0.58667,-0.44 1.02667,-0.44 0.44,0 0.88,0.146666 1.32,0.586666 0.29333,0.293334 0.29333,0.733334 0,1.173334 -0.58667,0.733333 -1.32,0.586666 -2.2,-0.44 z m 0.58667,4.986667 c -0.44,-0.586667 -0.29334,-1.173334 0.58666,-1.613334 0.73334,-0.146666 1.46667,0.146667 2.05334,1.026667 0.14666,0.293333 0.14666,0.586667 0.14666,1.026667 -0.14666,0.44 -0.44,0.733333 -0.73333,0.733333 -0.73333,0 -1.32,-0.44 -2.05333,-1.173333 z m -0.29334,37.986668 c 0,-0.293334 0.14667,-0.44 0.29334,-0.586667 0.29333,-0.146667 0.44,0 0.58666,0.293333 0.14667,0.293334 0,0.44 -0.14666,0.586667 -0.29334,0.146667 -0.58667,0 -0.73334,-0.293333 z m 0.88,-33.000002 c -0.14666,-0.146666 -0.29333,-0.293333 -0.29333,-0.586666 0,-0.293334 0.14667,-0.44 0.29333,-0.586667 0.73334,-0.146667 1.17334,-0.293333 1.17334,-0.293333 1.02666,0 1.61333,0.44 1.90666,1.173333 0.14667,0.293333 -0.14666,0.733333 -0.88,1.173333 -0.88,-0.586666 -1.61333,-0.88 -2.2,-0.88 z m 0.58667,4.693334 c -0.14667,-0.733333 0.29333,-1.026667 1.17333,-1.026667 1.46667,0 2.05334,0.586667 1.90667,1.76 -0.14667,0.146667 -0.88,0.293334 -2.34667,0.293334 -0.44,0 -0.58666,-0.293334 -0.73333,-1.026667 z m 0.88,5.28 c -0.14667,-0.146667 -0.29333,-0.293333 -0.29333,-0.44 0,-0.586667 0.44,-0.88 1.46666,-0.88 0.73334,0 1.46667,0.44 2.05334,1.173333 0.44,0.44 0,0.586667 -1.02667,0.733334 -1.02667,0 -1.76,-0.146667 -2.2,-0.586667 z m -0.14667,23.026668 c -0.44,-0.88 -0.14666,-1.32 0.88,-1.32 0.58667,0 1.02667,0.293333 1.46667,0.733333 0.73333,0.586667 -1.61333,0.88 -2.05333,0.88 -0.14667,0 -0.14667,-0.146667 -0.29334,-0.293333 z m 0.58667,-51.186669 c 0.14667,0.146667 0.29333,0.293333 0.58667,0.293333 0,-0.146666 0,-0.293333 0,-0.293333 z m 0,36.813335 v 0.586666 l 0.58667,-0.586666 z m 0.44,-27.573335 c 0,-0.146666 0,-0.146666 0,-0.146666 1.76,0 2.64,0.44 2.64,1.32 h -2.2 c -0.14667,0 -0.29333,-0.44 -0.44,-1.173334 z m 3.08,6.306667 c -1.90667,-0.146666 -3.08,-0.733333 -2.64,-1.32 0.14667,-0.293333 0.44,-0.44 0.88,-0.586666 0.73333,0 1.46667,0.293333 2.2,0.88 0,0.44 -0.14667,0.88 -0.44,1.026666 z m -2.05333,-14.666667 v 0.293334 h 0.29333 v -0.293334 z m 0.58666,33.440001 v 0.293334 h 0.29334 v -0.293334 z m 3.37334,-7.04 c -0.44,-1.026667 -0.44,1.026667 0,0 z m 0.44,-7.04 c 0,-0.146667 -0.14667,-0.146667 -0.29334,-0.146667 -0.14666,0 -0.14666,0 -0.14666,0.146667 0,0.146667 0,0.293333 0.14666,0.293333 0.14667,0 0.29334,-0.146666 0.29334,-0.293333 z"
         style=""
         id="path5169" />
    </g>
  </g>
</svg>
