<?xml version="1.0" encoding="UTF-8" standalone="no"?>
<!-- Created with Inkscape (http://www.inkscape.org/) -->

<svg
   xmlns:dc="http://purl.org/dc/elements/1.1/"
   xmlns:cc="http://creativecommons.org/ns#"
   xmlns:rdf="http://www.w3.org/1999/02/22-rdf-syntax-ns#"
   xmlns:svg="http://www.w3.org/2000/svg"
   xmlns="http://www.w3.org/2000/svg"
   xmlns:xlink="http://www.w3.org/1999/xlink"
   xmlns:sodipodi="http://sodipodi.sourceforge.net/DTD/sodipodi-0.dtd"
   xmlns:inkscape="http://www.inkscape.org/namespaces/inkscape"
   id="svg2"
   version="1.1"
   inkscape:version="0.92.2 (5c3e80d, 2017-08-06)"
   width="52mm"
   height="52mm"
   xml:space="preserve"
   sodipodi:docname="vr.svg"
   viewBox="0 0 184.25197 184.25197"
   inkscape:export-filename="/home/andz/workspace/git/muccc/ci/aufkleber/png_export/vr.png"
   inkscape:export-xdpi="300"
   inkscape:export-ydpi="300"><metadata
     id="metadata8"><rdf:RDF><cc:Work
         rdf:about=""><dc:format>image/svg+xml</dc:format><dc:type
           rdf:resource="http://purl.org/dc/dcmitype/StillImage" /><dc:title></dc:title></cc:Work></rdf:RDF></metadata><defs
     id="defs6"><color-profile
       name="ISO-Coated-v2-300---ECI-"
       xlink:href="/home/andz/.local/share/color/icc/ISOcoated_v2_300_eci.icc"
       id="color-profile1818" /><clipPath
       clipPathUnits="userSpaceOnUse"
       id="clipPath16"><path
         d="M 0,121.89 H 121.89 V 0 H 0 Z"
         id="path18"
         inkscape:connector-curvature="0" /></clipPath><clipPath
       clipPathUnits="userSpaceOnUse"
       id="clipPath24"><path
         d="M 0,121.89 H 121.889 V 9.76562e-4 H 0 Z"
         id="path26"
         inkscape:connector-curvature="0" /></clipPath><clipPath
       clipPathUnits="userSpaceOnUse"
       id="clipPath28"><path
         d="M 121.889,0.001 H 0 V 121.89 h 121.889 z"
         id="path30"
         inkscape:connector-curvature="0" /></clipPath><linearGradient
       x1="0"
       y1="0"
       x2="1"
       y2="0"
       gradientUnits="userSpaceOnUse"
       gradientTransform="matrix(53.432632,-146.80495,-146.80495,-53.432632,34.228027,134.34814)"
       spreadMethod="pad"
       id="linearGradient32"><stop
         style="stop-opacity:1;stop-color:#ffffff"
         offset="0"
         id="stop34" /><stop
         style="stop-opacity:1;stop-color:#353132"
         offset="0.193939"
         id="stop36" /><stop
         style="stop-opacity:1;stop-color:#827f80"
         offset="0.890915"
         id="stop38" /><stop
         style="stop-opacity:1;stop-color:#d3d2d2"
         offset="1"
         id="stop40" /></linearGradient><clipPath
       clipPathUnits="userSpaceOnUse"
       id="clipPath60"><path
         d="M 0.001,60.944 C 0.001,27.286 27.286,0 60.944,0 v 0 c 33.66,0 60.945,27.286 60.945,60.944 v 0 c 0,33.66 -27.285,60.945 -60.945,60.945 v 0 C 27.286,121.889 0.001,94.604 0.001,60.944"
         id="path62"
         inkscape:connector-curvature="0" /></clipPath><linearGradient
       x1="0"
       y1="0"
       x2="1"
       y2="0"
       gradientUnits="userSpaceOnUse"
       gradientTransform="matrix(41.700073,-114.56999,-114.56999,-41.700073,40.094727,118.22998)"
       spreadMethod="pad"
       id="linearGradient68"><stop
         style="stop-opacity:1;stop-color:#ffffff"
         offset="0"
         id="stop70" /><stop
         style="stop-opacity:1;stop-color:#353132"
         offset="0.193939"
         id="stop72" /><stop
         style="stop-opacity:1;stop-color:#827f80"
         offset="0.890915"
         id="stop74" /><stop
         style="stop-opacity:1;stop-color:#d3d2d2"
         offset="1"
         id="stop76" /></linearGradient><clipPath
       clipPathUnits="userSpaceOnUse"
       id="clipPath84"><path
         d="M 0,121.89 H 121.89 V 0 H 0 Z"
         id="path86"
         inkscape:connector-curvature="0" /></clipPath><clipPath
       clipPathUnits="userSpaceOnUse"
       id="clipPath92"><path
         d="M 4.25098,117.638 H 117.637 V 4.25195 H 4.25098 Z"
         id="path94"
         inkscape:connector-curvature="0" /></clipPath><clipPath
       clipPathUnits="userSpaceOnUse"
       id="clipPath108"><path
         d="m 86.5,121.068 h 28.76 v -2.813 H 86.5 Z"
         id="path110"
         inkscape:connector-curvature="0" /></clipPath><clipPath
       clipPathUnits="userSpaceOnUse"
       id="clipPath186"><path
         d="m 32.6914,67.0776 h 56.207 v -5.0493 h -56.207 z"
         id="path188"
         inkscape:connector-curvature="0" /></clipPath><clipPath
       clipPathUnits="userSpaceOnUse"
       id="clipPath270"><path
         d="M 21.5503,83.9478 H 105.677 V 75.4297 H 21.5503 Z"
         id="path272"
         inkscape:connector-curvature="0" /></clipPath><clipPath
       clipPathUnits="userSpaceOnUse"
       id="clipPath590"><path
         d="m 21.623,49.9014 h 84.039 V 32.6182 H 21.623 Z"
         id="path592"
         inkscape:connector-curvature="0" /></clipPath><clipPath
       clipPathUnits="userSpaceOnUse"
       id="clipPath1060"><path
         d="M 36.8281,103.861 H 84.7236 V 94.77 H 36.8281 Z"
         id="path1062"
         inkscape:connector-curvature="0" /></clipPath><clipPath
       clipPathUnits="userSpaceOnUse"
       id="clipPath1170"><path
         d="M 4.82031,64.9468 H 117.303 V 56.9434 H 4.82031 Z"
         id="path1172"
         inkscape:connector-curvature="0" /></clipPath><clipPath
       clipPathUnits="userSpaceOnUse"
       id="clipPath1260"><path
         d="M 0,121.89 H 121.89 V 0 H 0 Z"
         id="path1262"
         inkscape:connector-curvature="0" /></clipPath></defs><sodipodi:namedview
     pagecolor="#ffffff"
     bordercolor="#666666"
     borderopacity="1"
     objecttolerance="10"
     gridtolerance="10"
     guidetolerance="10"
     inkscape:pageopacity="0"
     inkscape:pageshadow="2"
     inkscape:window-width="1920"
     inkscape:window-height="1019"
     id="namedview4"
     showgrid="false"
     inkscape:zoom="1.8101934"
     inkscape:cx="63.367326"
     inkscape:cy="147.87031"
     inkscape:window-x="0"
     inkscape:window-y="0"
     inkscape:window-maximized="1"
     inkscape:current-layer="g10"
     units="mm"
     inkscape:document-units="mm" /><g
     id="g10"
     inkscape:groupmode="layer"
     inkscape:label="rund4"
     transform="matrix(1.25,0,0,-1.25,0,184.25218)"><path
       inkscape:connector-curvature="0"
       id="path14"
       style="opacity:1;fill:#330066;fill-opacity:1;fill-rule:nonzero;stroke:none;stroke-width:0.94545448"
       d="M 0.765328,147.40174 H 146.63626 c 0.42418,0 0.76531,-0.70954 0.76531,-1.5918 V 1.5919784 c 0,-0.88127202 -0.34113,-1.591812022 -0.76531,-1.591812022 H 0.765328 C 0.341628,1.66378e-4 0,0.71070638 0,1.5919784 V 145.80994 c 0,0.88226 0.341628,1.5918 0.765328,1.5918 z" /><text
       xml:space="preserve"
       style="font-style:normal;font-weight:normal;font-size:94.53279877px;line-height:125%;font-family:sans-serif;letter-spacing:0px;word-spacing:0px;fill:#ffffff;fill-opacity:1;stroke:none;stroke-width:2.36332011px;stroke-linecap:butt;stroke-linejoin:miter;stroke-opacity:1"
       x="28.346457"
       y="-76.409401"
       id="text2427"
       transform="scale(1,-1)"><tspan
         sodipodi:role="line"
         id="tspan2425"
         x="28.346457"
         y="-76.409401"
         style="font-style:normal;font-variant:normal;font-weight:normal;font-stretch:normal;font-size:94.53279877px;font-family:'3 The Hard Way Overrun';-inkscape-font-specification:'3 The Hard Way Overrun, Normal';font-variant-ligatures:normal;font-variant-caps:normal;font-variant-numeric:normal;font-feature-settings:normal;text-align:start;writing-mode:lr-tb;text-anchor:start;fill:#ffffff;fill-opacity:1;stroke-width:2.36332011px">VR!</tspan></text>
<flowRoot
       xml:space="preserve"
       id="flowRoot2429"
       style="fill:black;stroke:none;stroke-opacity:1;stroke-width:1px;stroke-linejoin:miter;stroke-linecap:butt;fill-opacity:1;font-family:sans-serif;font-style:normal;font-weight:normal;font-size:40px;line-height:125%;letter-spacing:0px;word-spacing:0px"><flowRegion
         id="flowRegion2431"><rect
           id="rect2433"
           width="60.68676"
           height="65.528786"
           x="-29.374973"
           y="85.814377" /></flowRegion><flowPara
         id="flowPara2435"></flowPara></flowRoot><g
       id="Layer_2-9"
       data-name="Layer 2"
       style="fill:none;stroke:#ffffff;stroke-width:7;stroke-miterlimit:4;stroke-dasharray:none;stroke-opacity:1"
       transform="matrix(0.14901297,0,0,-0.14901297,28.868003,63.646455)"><g
         id="Layer_1-2-0"
         data-name="Layer 1"
         style="fill:none;stroke:#ffffff;stroke-width:7;stroke-miterlimit:4;stroke-dasharray:none;stroke-opacity:1"><path
           class="cls-1"
           d="m 601.2,99.77 a 8.5,8.5 0 0 0 -16.93,1.43 c 0,0.06 0.43,5.44 0.43,18 0,39.61 -2.2,54 -16.81,73.34 -15.82,20.92 -51.92,39.8 -117.06,61.23 -103.65,34.1 -159.68,41.62 -176.17,37.7 -15.39,-3.66 -31.12,-15 -31.12,-71.36 v -0.66 c 0,-27.9 0,-49.94 4.38,-65.23 4.08,-14.22 11.58,-20.82 25.82,-22.6 49.95,-6.21 95.07,-12.82 182,-36.19 33.25,-8.94 57.77,-18.17 75.67,-24.91 21.92,-8.25 35.14,-13.23 43.11,-10 a 8.5,8.5 0 0 0 6.82,-15.56 C 579.94,44.29 548,29.17 516,17.74 492.7,9.39 462.93,-0.47 453.33,0 c -8.73,0.44 -16.25,1.84 -26.76,7.42 -3.84,2 -7.7,4 -11.65,5.93 C 383.69,9.51 346.81,5.53 308,4.63 238.08,3 169.65,6.35 115.27,14 76.51,19.53 26.43,29.85 8,47.84 2.73,53 0,58.68 0,64.71 v 0.11 a 21.48,21.48 0 0 0 0.29,3.47 c 0.8,8.43 3.31,35.59 4.92,59.61 1,15.72 4.21,21.87 16.91,32.9 29.59,25.69 71.19,44.77 84.24,50.41 4.69,20.3 12,31.08 26.75,40.88 5.83,3.88 10.07,6.87 13.81,9.5 10.83,7.64 16.26,11.48 36.93,20.45 a 8.5,8.5 0 0 0 6.77,-15.59 c -19.06,-8.28 -23.72,-11.56 -33.91,-18.75 -3.63,-2.56 -8.16,-5.75 -14.18,-9.76 -18,-12 -21.12,-19.57 -28.49,-108 -1.76,-21.12 0.83,-34.87 8.16,-43.26 6.79,-7.76 18.73,-12 36.51,-12.87 7.42,-0.38 14.83,-0.69 22.69,-1 38.12,-1.6 81.32,-3.43 139.83,-13.5 46.26,-8 79.09,-18.64 113.31,-36.81 7.85,-4.17 12.78,-5.11 19.65,-5.45 4,-0.2 23.31,5 56.12,16.74 12.07,4.32 24.31,9.26 34.79,13.7 -5.89,2 -12.4,4.41 -19.73,7.17 -17.58,6.61 -41.64,15.68 -74.1,24.4 -85.82,23.09 -130.34,29.61 -179.63,35.74 -21,2.62 -34.1,14 -40.07,34.84 -5,17.58 -5,40.67 -5,69.91 v 0.66 c 0,53.53 13.63,80.64 44.19,87.9 a 63.79,63.79 0 0 0 14.41,1.36 c 32.34,0 93.93,-14.1 171,-39.45 69.55,-22.88 107,-43 125.31,-67.12 17.33,-22.9 20.25,-41 20.25,-83.6 C 601.7,105.76 601.22,100 601.2,99.77 Z M 33.27,148 c -9.65,-8.37 -10.39,-10.46 -11.1,-21.19 -0.74,-11 -1.67,-22.76 -2.54,-33 q 4.68,3.47 10.45,6.94 c 17.06,10.23 40.06,19.6 66.78,27.24 0.07,1.13 0.14,2.25 0.24,3.42 2.08,25 3.69,44.27 5.73,59.59 C 85.44,182.74 55.32,167.11 33.27,148 Z M 318.34,42.5 c -57.42,9.9 -100,11.69 -137.66,13.28 -7.89,0.33 -15.34,0.65 -22.83,1 -22.62,1.14 -38.46,7.25 -48.44,18.66 C 102,84 97.87,95.24 96.81,110.2 73.54,103.2 53.65,94.99 38.81,86.1 23.25,76.75 18,69.4 17.14,65.83 L 17,64.64 C 17.14,63 18.85,61 19.89,60 25.4,54.63 45.94,41 117.65,30.88 171.14,23.31 238.59,20 307.58,21.62 c 26.24,0.61 51.65,2.67 75,5.13 C 365.22,32.72 344.76,38 318.34,42.5 Z"
           id="path2499-1"
           style="fill:none;stroke:#ffffff;stroke-width:7;stroke-miterlimit:4;stroke-dasharray:none;stroke-opacity:1"
           inkscape:connector-curvature="0" /><path
           class="cls-1"
           d="m 283.28,161.26 a 39.19,39.19 0 0 0 -9.84,23 c -1.75,19.16 9.68,35.91 25.49,37.36 0.72,0.07 1.45,0.1 2.17,0.1 7.24,0 14.36,-3.27 19.82,-9.18 a 39.13,39.13 0 0 0 9.85,-23 c 1.75,-19.16 -9.68,-35.91 -25.49,-37.36 -7.95,-0.73 -15.98,2.58 -22,9.08 z M 313.84,188 a 22.45,22.45 0 0 1 -5.39,13 c -1.41,1.53 -4.31,4 -8,3.7 -6.36,-0.58 -11,-9.23 -10.1,-18.88 a 22.36,22.36 0 0 1 5.39,-13 c 1.32,-1.44 4,-3.73 7.31,-3.73 q 0.33,0 0.66,0 c 6.38,0.6 11.01,9.25 10.13,18.91 z"
           id="path2501-2"
           style="fill:none;stroke:#ffffff;stroke-width:7;stroke-miterlimit:4;stroke-dasharray:none;stroke-opacity:1"
           inkscape:connector-curvature="0" /></g></g></g></svg>