<?xml version="1.0" encoding="UTF-8" standalone="no"?>
<!-- Created with Inkscape (http://www.inkscape.org/) -->

<svg
   xmlns:dc="http://purl.org/dc/elements/1.1/"
   xmlns:cc="http://creativecommons.org/ns#"
   xmlns:rdf="http://www.w3.org/1999/02/22-rdf-syntax-ns#"
   xmlns:svg="http://www.w3.org/2000/svg"
   xmlns="http://www.w3.org/2000/svg"
   xmlns:xlink="http://www.w3.org/1999/xlink"
   xmlns:sodipodi="http://sodipodi.sourceforge.net/DTD/sodipodi-0.dtd"
   xmlns:inkscape="http://www.inkscape.org/namespaces/inkscape"
   width="210mm"
   height="297mm"
   viewBox="0 0 210 297"
   version="1.1"
   id="svg8"
   inkscape:version="0.92.2 5c3e80d, 2017-08-06"
   sodipodi:docname="hakuefa.svg">
  <defs
     id="defs2" />
  <sodipodi:namedview
     id="base"
     pagecolor="#ffffff"
     bordercolor="#666666"
     borderopacity="1.0"
     inkscape:pageopacity="0.0"
     inkscape:pageshadow="2"
     inkscape:zoom="1.1798828"
     inkscape:cx="351.26635"
     inkscape:cy="593.90167"
     inkscape:document-units="mm"
     inkscape:current-layer="layer1"
     showgrid="false"
     showguides="true"
     inkscape:guide-bbox="true"
     inkscape:snap-object-midpoints="true"
     inkscape:window-width="1920"
     inkscape:window-height="1064"
     inkscape:window-x="0"
     inkscape:window-y="16"
     inkscape:window-maximized="0">
    <sodipodi:guide
       position="77.696032,177.18855"
       orientation="0,1"
       id="guide4783"
       inkscape:locked="false" />
    <sodipodi:guide
       position="119.74706,162.80219"
       orientation="1,0"
       id="guide4785"
       inkscape:locked="false" />
  </sodipodi:namedview>
  <metadata
     id="metadata5">
    <rdf:RDF>
      <cc:Work
         rdf:about="">
        <dc:format>image/svg+xml</dc:format>
        <dc:type
           rdf:resource="http://purl.org/dc/dcmitype/StillImage" />
        <dc:title></dc:title>
      </cc:Work>
    </rdf:RDF>
  </metadata>
  <g
     inkscape:label="Layer 1"
     inkscape:groupmode="layer"
     id="layer1">
    <g
       id="g4892">
      <path
         style="color:#000000;font-style:normal;font-variant:normal;font-weight:normal;font-stretch:normal;font-size:medium;line-height:normal;font-family:'Bitstream Vera Sans';-inkscape-font-specification:'Bitstream Vera Sans';text-indent:0;text-align:start;text-decoration:none;text-decoration-line:none;letter-spacing:normal;word-spacing:normal;text-transform:none;writing-mode:lr-tb;direction:ltr;text-anchor:start;display:inline;overflow:visible;visibility:visible;fill:#231f20;fill-opacity:1;stroke:none;stroke-width:10.78122902;marker:none;enable-background:accumulate"
         id="path20"
         d="m 119.74644,167.23739 c -26.128421,0 -47.425323,-21.2966 -47.425323,-47.42532 0,-26.128824 21.296884,-47.426561 47.425323,-47.426561 26.12882,0 47.42656,21.297745 47.42656,47.426561 0,26.12872 -21.29776,47.42532 -47.42656,47.42532 z m 0,-10.78135 c 20.3024,0 36.6452,-16.34172 36.6452,-36.64397 0,-20.302377 -16.34282,-36.645202 -36.6452,-36.645202 -20.30189,0 -36.643966,16.342835 -36.643966,36.645202 0,20.30224 16.342058,36.64397 36.643966,36.64397 z"
         inkscape:connector-curvature="0" />
      <g
         transform="matrix(0.82758611,0,0,0.82758611,-3.664191,7.1942825)"
         id="g4749">
        <path
           style="fill:#000000;stroke-width:0.12308661"
           d="m 116.37018,161.34456 0.061,-1.10147 1.19165,0.15599 1.19166,0.15599 -0.35845,-0.44755 c -1.8959,-2.36716 -3.25003,-8.02724 -3.69367,-15.43906 -0.13722,-2.2926 -0.11869,-2.21445 -0.57209,-2.41243 -0.48964,-0.21381 -0.55592,-0.35687 -1.6395,-3.53885 -0.24165,-0.70963 -0.57237,-1.45552 -0.73494,-1.65756 -0.3976,-0.49411 -1.33047,-0.77002 -3.61377,-1.06882 l -1.8027,-0.23594 0.0502,-0.90502 0.0501,-0.905 1.9324,0.16225 c 2.1862,0.18357 3.38124,0.40804 3.97358,0.74627 0.22333,0.12758 0.73975,0.55954 1.1476,0.96002 0.40785,0.40049 0.76752,0.73155 0.79927,0.7357 0.0566,0.007 0.0659,-1.52571 0.0184,-3.04297 l -0.024,-0.76796 -0.75694,-0.13549 -0.75694,-0.13549 0.0485,-1.50375 0.0485,-1.50376 32.14204,4.20629 32.14203,4.20629 -0.0848,1.52983 -0.0848,1.52983 -0.55305,-0.0724 c -0.48915,-0.064 -0.55576,-0.0411 -0.57652,0.20193 -0.0134,0.15079 -0.12986,0.96765 -0.25986,1.8151 -0.13003,0.84743 -0.19303,1.54647 -0.14008,1.5534 0.053,0.007 0.314,-0.14285 0.58004,-0.33285 0.71525,-0.51081 1.2641,-0.78471 1.71958,-0.85814 0.45318,-0.0731 3.8308,0.34554 4.91737,0.60936 l 0.70235,0.17054 -0.0455,0.82163 -0.0455,0.82162 -2.1244,-0.19838 c -2.12543,-0.19856 -2.9532,-0.17741 -3.31609,0.0845 -0.26703,0.19274 -0.52206,0.63189 -1.50345,2.58892 -0.46691,0.93108 -0.94801,1.76492 -1.0691,1.85297 -0.12109,0.088 -0.38611,0.15687 -0.58892,0.15296 -0.33885,-0.007 -0.37936,0.0415 -0.49963,0.59212 -0.072,0.32958 -0.34125,1.44007 -0.59838,2.46776 -1.67841,6.70816 -3.54738,11.05382 -5.65149,13.14058 l -0.57649,0.57174 1.3614,0.17814 1.3614,0.17813 -0.061,1.10149 -0.061,1.10147 -26.85354,-3.51421 -26.85357,-3.51421 z m 6.59089,-5.00695 c -0.98985,-6.80517 -1.22252,-9.054 -1.29146,-12.48242 -0.0205,-1.0197 -0.0752,-3.16258 -0.12159,-4.76196 -0.0464,-1.59938 -0.0931,-3.34273 -0.10376,-3.87412 -0.0248,-1.2301 -0.17921,-1.13889 -0.86445,0.51045 -1.01686,2.44753 -1.80187,6.71358 -1.78884,9.7213 0.0135,3.12871 0.86536,6.87056 2.33956,10.27714 0.81805,1.89037 2.12448,4.13151 2.24138,3.845 0.0242,-0.0595 -0.16064,-1.51531 -0.41084,-3.23539 z m -8.07443,-28.90212 c -0.0317,-0.0378 0.01,-0.41887 0.0928,-0.8468 0.41315,-2.13669 2.12613,-3.72175 4.14745,-3.83775 0.39021,-0.0225 3.53346,0.33903 7.76454,0.89269 l 7.10891,0.9303 0.6693,-0.40015 c 0.92813,-0.5549 2.76221,-1.18116 4.25843,-1.45405 l 1.2585,-0.22954 0.0274,-0.49132 c 0.0151,-0.27022 0.13407,-0.94024 0.26445,-1.48893 0.54578,-2.29673 1.85331,-3.7082 3.9538,-4.2681 0.83591,-0.22282 0.97396,-0.22198 2.78435,0.0171 1.8897,0.24931 1.91232,0.25628 2.85283,0.79321 1.88806,1.07882 3.06647,2.98381 3.31705,5.36228 0.0623,0.59111 0.10212,1.27918 0.0885,1.52904 -0.0232,0.42748 0.004,0.46602 0.46725,0.65354 1.35754,0.54985 4.23406,2.4132 4.65776,3.01721 0.11727,0.16717 1.02668,0.31371 5.99153,0.96551 6.08249,0.79799 7.10136,0.99603 8.1397,1.57744 1.77832,0.99585 2.67634,2.46967 2.86285,4.69848 l 0.0496,0.59204 -30.34971,-3.97173 c -16.69228,-2.18445 -30.37557,-4.00266 -30.40726,-4.04046 z m 35.6461,-4.76577 c -0.0491,-1.00457 -0.54037,-2.14246 -1.14946,-2.66239 -0.95176,-0.81243 -2.47219,-1.20937 -3.81321,-0.9955 -1.25578,0.20026 -2.29997,1.44763 -2.3771,2.83965 l -0.0266,0.48058 0.95784,0.0277 c 1.62008,0.0469 5.68156,0.70226 6.39757,1.03219 0.0261,0.0124 0.031,-0.31303 0.011,-0.7223 z"
           id="path4515"
           inkscape:connector-curvature="0" />
        <path
           inkscape:connector-curvature="0"
           id="path4669"
           d="m 122.96107,156.33761 v -1.10778 h 1.19347 1.19347 l -0.38107,-0.40003 c -2.01554,-2.11584 -3.67382,-7.59038 -4.5233,-14.93297 -0.26276,-2.27119 -0.24003,-2.19558 -0.70176,-2.33401 -0.49863,-0.1495 -0.57242,-0.28369 -1.82515,-3.31925 -0.27937,-0.67697 -0.64931,-1.37852 -0.82208,-1.559 -0.42257,-0.44141 -1.36533,-0.59501 -3.6521,-0.59501 h -1.80545 v -0.91019 -0.91019 l 1.93035,-0.0905 c 2.18388,-0.10235 3.38449,-0.0344 3.99209,0.22592 0.22909,0.0982 0.76637,0.46203 1.19397,0.80861 0.42759,0.34658 0.80346,0.63014 0.83526,0.63014 0.0567,0 -0.0185,-1.53201 -0.14937,-3.04076 l -0.0662,-0.76365 -0.7601,-0.0364 -0.7601,-0.0364 -0.0346,-1.50781 -0.0346,-1.50781 h 32.19094 32.19093 v 1.53858 1.53858 h -0.55389 c -0.4899,0 -0.55484,0.032 -0.56212,0.27695 -0.005,0.15232 -0.0758,0.98315 -0.15837,1.8463 -0.0826,0.86314 -0.10673,1.56935 -0.0537,1.56935 0.0531,0 0.30434,-0.18366 0.5584,-0.40814 0.68304,-0.60349 1.21368,-0.94869 1.66252,-1.08152 0.44658,-0.13216 3.82804,-0.15559 4.92297,-0.0341 l 0.70775,0.0785 v 0.82632 0.82633 l -2.12324,0.0795 c -2.12428,0.0795 -2.94617,0.20874 -3.29257,0.51769 -0.25489,0.22734 -0.48427,0.69915 -1.35225,2.78144 -0.41296,0.99068 -0.84538,1.88612 -0.96093,1.98985 -0.11555,0.10374 -0.37527,0.20709 -0.57714,0.22968 -0.33729,0.0377 -0.37492,0.091 -0.46416,0.65651 -0.0534,0.33848 -0.25997,1.48247 -0.45901,2.5422 -1.29926,6.91728 -2.91817,11.50055 -4.89533,13.85908 l -0.54171,0.6462 h 1.36347 1.36347 v 1.10778 1.10778 h -26.89439 -26.89443 z m 6.27753,-5.86056 c -1.35917,-6.66549 -1.71442,-8.8805 -1.97186,-12.29471 -0.0766,-1.01546 -0.24904,-3.14794 -0.38327,-4.73883 -0.13423,-1.59089 -0.27671,-3.3255 -0.31662,-3.85468 -0.0924,-1.22499 -0.24094,-1.11375 -0.83141,0.62263 -0.87622,2.57668 -1.42172,6.93882 -1.24305,9.94027 0.18585,3.12219 1.23899,6.74705 2.89249,9.95582 0.91755,1.78061 2.34003,3.84764 2.44048,3.5463 0.0208,-0.0625 -0.24322,-1.49203 -0.58676,-3.1768 z m -9.62092,-27.80316 c -0.0336,-0.0336 -0.0131,-0.41953 0.0456,-0.85763 0.29307,-2.18743 1.90897,-3.99392 3.9124,-4.37386 0.38676,-0.0734 3.53204,-0.12324 7.76955,-0.12324 h 7.11973 l 0.64344,-0.487 c 0.89228,-0.67534 2.68142,-1.5403 4.15409,-2.00828 l 1.2387,-0.39364 1.3e-4,-0.49415 c 9e-5,-0.27178 0.0815,-0.95633 0.18091,-1.52122 0.41613,-2.36455 1.63846,-3.94474 3.69615,-4.77825 0.81888,-0.33171 0.95619,-0.3489 2.76945,-0.34676 1.89268,0.002 1.91556,0.006 2.8803,0.41923 1.93676,0.83047 3.21343,2.57859 3.59363,4.9207 0.0945,0.58207 0.17202,1.26389 0.17227,1.51515 5e-4,0.42987 0.03,0.46478 0.5006,0.5915 1.38011,0.37162 4.34293,1.85628 4.7975,2.40401 0.12581,0.15159 1.03812,0.17908 6.01064,0.18115 6.09186,0.002 7.11584,0.0666 8.18031,0.51146 1.82307,0.76196 2.79718,2.1162 3.10543,4.31725 l 0.0819,0.58467 h -30.39588 c -16.71767,0 -30.4233,-0.0275 -30.45689,-0.0611 z m 35.18073,-9.4163 c -0.10417,-0.99662 -0.65534,-2.06859 -1.28961,-2.50814 -0.99111,-0.68684 -2.52476,-0.8845 -3.84637,-0.49573 -1.2376,0.36405 -2.20712,1.74596 -2.20712,3.14594 v 0.48334 l 0.95392,-0.0975 c 1.61345,-0.16482 5.68793,-0.0412 6.41804,0.19467 0.0266,0.009 0.0136,-0.3166 -0.0289,-0.72263 z"
           style="fill:#ed1c24;fill-opacity:1;stroke:#ffffff;stroke-width:1.89999998;stroke-miterlimit:4;stroke-dasharray:none" />
        <path
           style="fill:#ed1c24;fill-opacity:1;stroke:none;stroke-width:1.89999998;stroke-miterlimit:4;stroke-dasharray:none"
           d="m 122.96107,156.33761 v -1.10778 h 1.19347 1.19347 l -0.38107,-0.40003 c -2.01554,-2.11584 -3.67382,-7.59038 -4.5233,-14.93297 -0.26276,-2.27119 -0.24003,-2.19558 -0.70176,-2.33401 -0.49863,-0.1495 -0.57242,-0.28369 -1.82515,-3.31925 -0.27937,-0.67697 -0.64931,-1.37852 -0.82208,-1.559 -0.42257,-0.44141 -1.36533,-0.59501 -3.6521,-0.59501 h -1.80545 v -0.91019 -0.91019 l 1.93035,-0.0905 c 2.18388,-0.10235 3.38449,-0.0344 3.99209,0.22592 0.22909,0.0982 0.76637,0.46203 1.19397,0.80861 0.42759,0.34658 0.80346,0.63014 0.83526,0.63014 0.0567,0 -0.0185,-1.53201 -0.14937,-3.04076 l -0.0662,-0.76365 -0.7601,-0.0364 -0.7601,-0.0364 -0.0346,-1.50781 -0.0346,-1.50781 h 32.19094 32.19093 v 1.53858 1.53858 h -0.55389 c -0.4899,0 -0.55484,0.032 -0.56212,0.27695 -0.005,0.15232 -0.0758,0.98315 -0.15837,1.8463 -0.0826,0.86314 -0.10673,1.56935 -0.0537,1.56935 0.0531,0 0.30434,-0.18366 0.5584,-0.40814 0.68304,-0.60349 1.21368,-0.94869 1.66252,-1.08152 0.44658,-0.13216 3.82804,-0.15559 4.92297,-0.0341 l 0.70775,0.0785 v 0.82632 0.82633 l -2.12324,0.0795 c -2.12428,0.0795 -2.94617,0.20874 -3.29257,0.51769 -0.25489,0.22734 -0.48427,0.69915 -1.35225,2.78144 -0.41296,0.99068 -0.84538,1.88612 -0.96093,1.98985 -0.11555,0.10374 -0.37527,0.20709 -0.57714,0.22968 -0.33729,0.0377 -0.37492,0.091 -0.46416,0.65651 -0.0534,0.33848 -0.25997,1.48247 -0.45901,2.5422 -1.29926,6.91728 -2.91817,11.50055 -4.89533,13.85908 l -0.54171,0.6462 h 1.36347 1.36347 v 1.10778 1.10778 h -26.89439 -26.89443 z m 6.27753,-5.86056 c -1.35917,-6.66549 -1.71442,-8.8805 -1.97186,-12.29471 -0.0766,-1.01546 -0.24904,-3.14794 -0.38327,-4.73883 -0.13423,-1.59089 -0.27671,-3.3255 -0.31662,-3.85468 -0.0924,-1.22499 -0.24094,-1.11375 -0.83141,0.62263 -0.87622,2.57668 -1.42172,6.93882 -1.24305,9.94027 0.18585,3.12219 1.23899,6.74705 2.89249,9.95582 0.91755,1.78061 2.34003,3.84764 2.44048,3.5463 0.0208,-0.0625 -0.24322,-1.49203 -0.58676,-3.1768 z m -9.62092,-27.80316 c -0.0336,-0.0336 -0.0131,-0.41953 0.0456,-0.85763 0.29307,-2.18743 1.90897,-3.99392 3.9124,-4.37386 0.38676,-0.0734 3.53204,-0.12324 7.76955,-0.12324 h 7.11973 l 0.64344,-0.487 c 0.89228,-0.67534 2.68142,-1.5403 4.15409,-2.00828 l 1.2387,-0.39364 1.3e-4,-0.49415 c 9e-5,-0.27178 0.0815,-0.95633 0.18091,-1.52122 0.41613,-2.36455 1.63846,-3.94474 3.69615,-4.77825 0.81888,-0.33171 0.95619,-0.3489 2.76945,-0.34676 1.89268,0.002 1.91556,0.006 2.8803,0.41923 1.93676,0.83047 3.21343,2.57859 3.59363,4.9207 0.0945,0.58207 0.17202,1.26389 0.17227,1.51515 5e-4,0.42987 0.03,0.46478 0.5006,0.5915 1.38011,0.37162 4.34293,1.85628 4.7975,2.40401 0.12581,0.15159 1.03812,0.17908 6.01064,0.18115 6.09186,0.002 7.11584,0.0666 8.18031,0.51146 1.82307,0.76196 2.79718,2.1162 3.10543,4.31725 l 0.0819,0.58467 h -30.39588 c -16.71767,0 -30.4233,-0.0275 -30.45689,-0.0611 z m 35.18073,-9.4163 c -0.10417,-0.99662 -0.65534,-2.06859 -1.28961,-2.50814 -0.99111,-0.68684 -2.52476,-0.8845 -3.84637,-0.49573 -1.2376,0.36405 -2.20712,1.74596 -2.20712,3.14594 v 0.48334 l 0.95392,-0.0975 c 1.61345,-0.16482 5.68793,-0.0412 6.41804,0.19467 0.0266,0.009 0.0136,-0.3166 -0.0289,-0.72263 z"
           id="path4671"
           inkscape:connector-curvature="0" />
      </g>
      <path
         sodipodi:nodetypes="cc"
         inkscape:connector-curvature="0"
         id="path4842"
         d="m 77.856425,124.52061 c 10.616275,47.1504 66.575135,56.98294 83.760685,0"
         style="opacity:1;fill:none;fill-opacity:1;fill-rule:nonzero;stroke:none;stroke-width:1.89999998;stroke-linecap:square;stroke-linejoin:round;stroke-miterlimit:4;stroke-dasharray:none;stroke-dashoffset:0;stroke-opacity:0.98623855;paint-order:markers stroke fill" />
      <text
         id="text4817"
         y="82.172874"
         x="117.05611"
         style="font-style:normal;font-variant:normal;font-weight:bold;font-stretch:normal;font-size:8.46666622px;line-height:5.29166651px;font-family:Verdana;-inkscape-font-specification:'Verdana Bold';text-align:center;writing-mode:lr-tb;text-anchor:middle;opacity:1;fill:#ffffff;fill-opacity:1;fill-rule:nonzero;stroke:none;stroke-width:1.89999998;stroke-linecap:square;stroke-linejoin:round;stroke-miterlimit:4;stroke-dasharray:none;stroke-dashoffset:0;stroke-opacity:0.98623855;paint-order:markers stroke fill;"
         xml:space="preserve"><tspan
           style="stroke-width:1.89999998;-inkscape-font-specification:'Verdana Bold';font-family:Verdana;font-weight:bold;font-style:normal;font-stretch:normal;font-variant:normal;"
           y="86.842239"
           x="117.05611"
           id="tspan4815"
           sodipodi:role="line" /></text>
      <text
         transform="translate(0,1.569718)"
         id="text4825"
         style="font-style:normal;font-variant:normal;font-weight:bold;font-stretch:normal;font-size:8.46666622px;line-height:5.29166651px;font-family:Verdana;-inkscape-font-specification:'Verdana Bold';text-align:center;writing-mode:lr-tb;text-anchor:middle;opacity:1;fill:#ffffff;fill-opacity:1;fill-rule:nonzero;stroke:none;stroke-width:1.89999998;stroke-linecap:square;stroke-linejoin:round;stroke-miterlimit:4;stroke-dasharray:none;stroke-dashoffset:0;stroke-opacity:0.98623855;paint-order:markers stroke fill"
         xml:space="preserve"><textPath
           id="textPath4847"
           startOffset="50%"
           xlink:href="#path4842"><tspan
   id="tspan4823"
   style="fill:#ffffff;stroke-width:1.89999998">HAKUEFA</tspan></textPath></text>
      <path
         inkscape:connector-curvature="0"
         d="m 119.74656,157.81908 c -20.93958,0 -38.007135,-17.06731 -38.007135,-38.00713 0,-20.939909 17.06754,-38.008133 38.007135,-38.008133 20.93991,0 38.00813,17.06823 38.00813,38.008133 0,20.93982 -17.06824,38.00713 -38.00813,38.00713 z m 0,-8.64028 c 16.27055,0 29.36784,-13.09642 29.36784,-29.36685 0,-16.27054 -13.0973,-29.367842 -29.36784,-29.367842 -16.27014,0 -29.366845,13.097312 -29.366845,29.367842 0,16.27042 13.096695,29.36685 29.366845,29.36685 z"
         id="path4827"
         style="color:#000000;font-style:normal;font-variant:normal;font-weight:normal;font-stretch:normal;font-size:medium;line-height:normal;font-family:'Bitstream Vera Sans';-inkscape-font-specification:'Bitstream Vera Sans';text-indent:0;text-align:start;text-decoration:none;text-decoration-line:none;letter-spacing:normal;word-spacing:normal;text-transform:none;writing-mode:lr-tb;direction:ltr;text-anchor:start;display:inline;overflow:visible;visibility:visible;fill:none;fill-opacity:1;stroke:none;stroke-width:8.64018726;marker:none;enable-background:accumulate" />
      <text
         transform="rotate(-140.86023,119.67855,119.35806)"
         inkscape:transform-center-y="-38.607297"
         inkscape:transform-center-x="1.0738249"
         id="text4821"
         style="font-style:normal;font-variant:normal;font-weight:bold;font-stretch:normal;font-size:8.46666622px;line-height:5.29166651px;font-family:Verdana;-inkscape-font-specification:'Verdana Bold';text-align:center;writing-mode:lr-tb;text-anchor:middle;opacity:1;fill:#ffffff;fill-opacity:1;fill-rule:nonzero;stroke:none;stroke-width:1.89999998;stroke-linecap:square;stroke-linejoin:round;stroke-miterlimit:4;stroke-dasharray:none;stroke-dashoffset:0;stroke-opacity:0.98623855;paint-order:markers stroke fill;"
         xml:space="preserve"><textPath
           id="textPath4829"
           startOffset="50%"
           xlink:href="#path4827"><tspan
   id="tspan4819"
   style="fill:#ffffff;stroke-width:1.89999998;">MUCCC</tspan></textPath></text>
    </g>
  </g>
</svg>
