<?xml version="1.0" encoding="UTF-8" standalone="no"?>
<svg
   xmlns:dc="http://purl.org/dc/elements/1.1/"
   xmlns:cc="http://creativecommons.org/ns#"
   xmlns:rdf="http://www.w3.org/1999/02/22-rdf-syntax-ns#"
   xmlns:svg="http://www.w3.org/2000/svg"
   xmlns="http://www.w3.org/2000/svg"
   xmlns:sodipodi="http://sodipodi.sourceforge.net/DTD/sodipodi-0.dtd"
   xmlns:inkscape="http://www.inkscape.org/namespaces/inkscape"
   width="1052.3622"
   height="744.09448"
   id="svg2217"
   sodipodi:version="0.32"
   inkscape:version="0.91 r13725"
   sodipodi:docname="logo-muc3_white.svg"
   version="1.1">
  <metadata
     id="metadata2236">
    <rdf:RDF>
      <cc:Work
         rdf:about="">
        <dc:format>image/svg+xml</dc:format>
        <dc:type
           rdf:resource="http://purl.org/dc/dcmitype/StillImage" />
        <dc:title></dc:title>
      </cc:Work>
    </rdf:RDF>
  </metadata>
  <defs
     id="defs2234">
    <linearGradient
       id="linearGradient6518">
      <stop
         style="stop-color:yellow;stop-opacity:1;"
         offset="0"
         id="stop6520" />
      <stop
         id="stop6528"
         offset="0.99000001"
         style="stop-color:yellow;stop-opacity:1;" />
      <stop
         style="stop-color:yellow;stop-opacity:0;"
         offset="1"
         id="stop6522" />
    </linearGradient>
    <linearGradient
       id="linearGradient6506">
      <stop
         style="stop-color:yellow;stop-opacity:1;"
         offset="0"
         id="stop6508" />
      <stop
         id="stop6514"
         offset="1"
         style="stop-color:yellow;stop-opacity:1;" />
      <stop
         style="stop-color:yellow;stop-opacity:0;"
         offset="1"
         id="stop6510" />
    </linearGradient>
  </defs>
  <sodipodi:namedview
     inkscape:window-height="856"
     inkscape:window-width="1440"
     inkscape:pageshadow="2"
     inkscape:pageopacity="0"
     guidetolerance="10.0"
     gridtolerance="10.0"
     objecttolerance="10.0"
     borderopacity="1.0"
     bordercolor="#666666"
     pagecolor="#ffffff"
     id="base"
     showborder="true"
     inkscape:showpageshadow="true"
     inkscape:zoom="0.76305044"
     inkscape:cx="430.40599"
     inkscape:cy="360.93977"
     inkscape:window-x="54"
     inkscape:window-y="0"
     inkscape:current-layer="layer1"
     showguides="false"
     showgrid="false"
     inkscape:window-maximized="0" />
  <g
     inkscape:groupmode="layer"
     id="layer0"
     style="display:none">
    <rect
       style="opacity:1;fill:#000000;fill-opacity:1;fill-rule:evenodd;stroke:#000000;stroke-width:6;stroke-miterlimit:4;stroke-dasharray:none;stroke-opacity:1"
       id="rect2543"
       width="1500"
       height="1500"
       x="0"
       y="0" />
  </g>
  <g
     inkscape:groupmode="layer"
     id="layer1"
     inkscape:label="chaosknoten"
     style="display:inline;opacity:0.31"
     transform="translate(175.87549,182.70888)">
    <g
       id="g2219"
       style="opacity:1;fill:#000000">
      <path
         style="stroke:none;fill:#000000"
         d="m 294.407,7.95792 c 6.213,1.027 19.117,20.42198 17.554,56.04198 -4.3,2.287 -9.289,0.945 -12.547,0.894 -10.184,-2.682 -0.678,-29.555 -14.953,-39.546 C 263.79,10.8809 119.447,14.4069 45.5808,21.1209 13.592,24.0289 17.478,87.0639 16.8569,120.43 c -0.5169,27.768 0.4448,58.119 11.4189,88.93 9.4468,26.524 44.2989,17.409 75.9712,18.571 56.978,0 160.981,1.883 173.53,-3.125 9.092,-3.629 12.796,-16.972 14.709,-25.575 3.351,-15.069 -0.168,-25.607 11.822,-25.324 6.313,0.149 7.555,5.857 6.592,16.772 -1.001,11.346 -4.393,26.441 -9.128,44.005 -3.421,12.688 -27.012,10.129 -42.628,10.129 C 180.218,242.704 100.45,245.236 24.0554,243.125 1.9155,242.514 1.46946,137.911 0.285625,118.923 -1.10525,96.6069 2.51438,7.01993 21.3615,6.01993 35.3674,5.27692 113.628,0.0309143 159.959,0.0189209 205.016,0.00692749 252.988,1.11093 294.407,7.95792"
         id="path2221"
         inkscape:connector-curvature="0" />
      <path
         style="stroke:none;fill:#000000"
         d="m 223.69,24.0759 c 5.487,15.616 -8.019,40.096 12.24,48.537 73.438,12.662 159.117,-14.772 221.582,23.635 16.882,16.4601 29.544,35.4531 37.563,55.7121 l 0,-9.285 c -9.285,-25.746 -28.278,-47.6931 -46.427,-70.0621 5.065,-6.753 10.974,1.266 16.038,3.376 18.571,23.213 37.563,46.8491 44.739,74.7051 1.265,1.688 3.798,5.065 5.908,2.11 l 2.955,-2.954 c -6.331,-29.966 -25.324,-54.4461 -41.362,-80.1921 7.175,-4.643 14.35,3.377 20.259,8.019 12.24,20.259 25.746,40.5181 30.388,64.1531 3.376,2.532 7.597,-2.11 9.285,-5.065 -2.532,-18.571 -8.864,-35.031 -16.461,-50.6471 1.266,-2.11 1.266,-5.065 4.221,-5.065 18.149,9.707 17.727,30.8111 24.057,47.2711 5.909,-0.422 8.863,-18.993 16.46,-8.019 2.532,6.753 -10.129,17.305 2.955,18.149 -6.331,30.388 -39.674,54.024 -68.796,60.777 -15.194,3.376 -35.453,8.018 -46.849,-3.798 2.11,-5.487 9.707,-6.331 15.194,-7.175 33.765,-1.266 65.842,-13.506 86.101,-40.518 l -0.844,-0.844 c -32.077,21.525 -71.75,42.206 -111.424,26.168 -3.376,-0.844 -5.065,-5.487 -2.954,-8.019 0.844,-2.532 -1.688,-3.798 -2.955,-4.221 -67.108,2.954 -137.596,-6.324 -202.593,4.227 -7.13,1.158 -7.934,7.746 -9.284,13.082 -3.414,13.511 5.21,32.647 -2.824,39.846 0,0 -5.936,1.741 -10.256,-0.177 -1.011,-5.609 -4.227,-37.144 2.948,-54.026 9.077,-21.357 89.954,-14.153 113.334,-14.626 42.722,-0.863 92.638,-2.254 132.734,0.701 -11.396,-11.396 -29.122,-11.818 -46.427,-11.396 -54.868,-0.844 -140.604,-0.559 -175.376,-2.466 -51.431,-2.822 -69.842,48.893 -102.341,82.658 l -15.194,0 c 20.259,-28.277 42.097,-60.522 70.062,-85.256 4.509,-3.988 7.645,-4.615 15.194,-6.752 21.025,-5.953 224.959,0.844 224.959,0.844 9.285,2.11 19.415,3.376 28.278,7.174 -5.065,-13.084 -21.525,-16.46 -34.609,-18.147 -73.017,-2.11 -146.877,-0.422 -218.628,-5.065 -19.415,-5.909 -29.544,-29.9661 -44.739,-44.7391 l -32.499,-41.362 16.46,0.844 c 21.103,24.479 35.575,54.506 62.887,73.8601 6.02,4.266 134.602,3.027 202.584,2.954 10.96,-0.012 33.77,7.175 48.542,15.195 2.532,-3.376 -1.688,-6.331 -4.221,-8.863 -30.811,-29.5441 -94.362,-20.3431 -117.328,-20.2641 -40.285,0.14 -88.233,8.522 -121.559,-12.235 -8.141,-5.071 -6.752,-35.875 -2.953,-52.758 l 10.973,0"
         id="path2223"
         inkscape:connector-curvature="0" />
      <path
         style="stroke:none;fill:#000000"
         d="m 575.267,153.649 c -7.175,30.389 -29.544,57.822 -57.823,73.017 -17.727,3.799 -40.518,15.616 -54.868,-2.11 9.708,-8.863 27.434,-2.954 38.83,-10.13 29.544,-8.441 53.858,-34.474 68.796,-60.777 1.91,-1.321 3.195,-2.823 5.065,0"
         id="path2225"
         inkscape:connector-curvature="0" />
      <path
         style="stroke:none;fill:#000000"
         d="m 584.142,179.84 c -5.065,26.168 -17.727,53.602 -44.739,66.686 -11.818,5.487 -30.388,11.818 -41.362,2.11 l 0,-4.221 c 41.784,1.688 62.887,-42.206 79.77,-71.75 4.643,-0.422 5.065,3.798 6.331,7.175"
         id="path2227"
         inkscape:connector-curvature="0" />
      <path
         style="stroke:none;fill:#000000"
         d="m 611.567,280.265 c 19.879,4.224 39.249,-15.615 43.47,10.131 -16.883,8.863 -39.674,6.331 -57.4,1.266 -3.799,7.597 1.688,16.038 0,25.324 -2.532,24.902 -11.818,48.537 -33.765,63.731 -6.357,3.3 -7.677,5.247 -11.431,5.909 1.138,-5.702 1.527,-10.353 2.5,-13.899 4.346,-2.92 23.503,-15.22 24.125,-31.684 9.707,-34.609 -0.844,-68.796 -24.058,-94.12 l 15.194,-13.928 c 8.863,17.726 18.896,42.495 41.364,47.269"
         id="path2229"
         inkscape:connector-curvature="0" />
      <path
         style="stroke:none;fill:#000000"
         d="m 542.769,257.054 c 24.479,47.271 1.688,102.561 -4.221,151.098 2.532,18.149 5.065,36.719 20.259,49.381 -1.688,4.221 0.844,14.772 -5.909,12.24 -21.525,-11.396 -28.7,-34.187 -28.278,-57.822 -0.844,-41.784 21.525,-75.127 16.038,-117.333 L 536.86,286.6 c -17.305,18.57 -36.719,41.784 -35.453,70.905 l -11.396,2.11 c -12.662,-40.518 31.655,-63.743 37.564,-100.04 0,0 9.707,-3.786 15.194,-2.521"
         id="path2231"
         inkscape:connector-curvature="0" />
      <path
         style="stroke:none;fill:#000000"
         d="m 488.47856,375 c -32.09293,0 -18.79279,17 -16.97056,17 47.38108,0 47.38108,0 47.38108,-7 0,-10 5,-10 -12.02574,-10 -8.37737,0 -8.16966,0 -18.38478,0 l 0,0 0,0 z"
         id="path1928"
         inkscape:connector-curvature="0" />
    </g>
  </g>
  <g
     inkscape:groupmode="layer"
     id="layer2"
     inkscape:label="rhombus"
     style="display:inline;opacity:1;fill:#ffff00;stroke:#ffff00"
     transform="translate(175.87549,182.70888)">
    <g
       id="g2993"
       transform="matrix(0.998795,0.04906767,-0.04906767,0.998795,-980.8202,11.83299)">
      <rect
         style="display:inline;opacity:1;stroke-width:0.9432283;stroke-miterlimit:4;stroke-dasharray:none;stroke-opacity:1"
         transform="matrix(0.893936,-0.448194,-0.225536,0.974235,0,0)"
         y="763.96448"
         x="1506.5787"
         height="305.51559"
         width="406.72153"
         id="rect3000"
         rx="50"
         ry="50" />
      <rect
         style="display:inline;opacity:0.38673461;stroke-width:0.9432283;stroke-miterlimit:4;stroke-dasharray:none;stroke-opacity:1"
         transform="matrix(0.893936,-0.448194,-0.225536,0.974235,0,0)"
         y="762.71448"
         x="1505.3287"
         height="308.01559"
         width="409.22153"
         id="rect3001"
         rx="50"
         ry="50" />
      <rect
         style="display:inline;opacity:0.27437439;stroke-width:0.9432283;stroke-miterlimit:4;stroke-dasharray:none;stroke-opacity:1"
         transform="matrix(0.893936,-0.448194,-0.225536,0.974235,0,0)"
         y="761.46448"
         x="1504.0787"
         height="310.51559"
         width="411.72153"
         id="rect3002"
         rx="50"
         ry="50" />
      <rect
         style="display:inline;opacity:0.21141591;stroke-width:0.9432283;stroke-miterlimit:4;stroke-dasharray:none;stroke-opacity:1"
         transform="matrix(0.893936,-0.448194,-0.225536,0.974235,0,0)"
         y="760.21448"
         x="1502.8287"
         height="313.01559"
         width="414.22153"
         id="rect3003"
         rx="50"
         ry="50" />
      <rect
         style="display:inline;opacity:0.17111589;stroke-width:0.9432283;stroke-miterlimit:4;stroke-dasharray:none;stroke-opacity:1"
         transform="matrix(0.893936,-0.448194,-0.225536,0.974235,0,0)"
         y="758.96448"
         x="1501.5787"
         height="315.51559"
         width="416.72153"
         id="rect3004"
         rx="50"
         ry="50" />
      <rect
         style="display:inline;opacity:0.14308178;stroke-width:0.9432283;stroke-miterlimit:4;stroke-dasharray:none;stroke-opacity:1"
         transform="matrix(0.893936,-0.448194,-0.225536,0.974235,0,0)"
         y="757.71448"
         x="1500.3287"
         height="318.01559"
         width="419.22153"
         id="rect3005"
         rx="50"
         ry="50" />
      <rect
         style="display:inline;opacity:0.12243251;stroke-width:0.9432283;stroke-miterlimit:4;stroke-dasharray:none;stroke-opacity:1"
         transform="matrix(0.893936,-0.448194,-0.225536,0.974235,0,0)"
         y="756.46448"
         x="1499.0787"
         height="320.51559"
         width="421.72153"
         id="rect3006"
         rx="50"
         ry="50" />
      <rect
         style="display:inline;opacity:0.10657253;stroke-width:0.9432283;stroke-miterlimit:4;stroke-dasharray:none;stroke-opacity:1"
         transform="matrix(0.893936,-0.448194,-0.225536,0.974235,0,0)"
         y="755.21448"
         x="1497.8287"
         height="323.01559"
         width="424.22153"
         id="rect3007"
         rx="50"
         ry="50" />
      <rect
         style="display:inline;opacity:0.09399408;stroke-width:0.9432283;stroke-miterlimit:4;stroke-dasharray:none;stroke-opacity:1"
         transform="matrix(0.893936,-0.448194,-0.225536,0.974235,0,0)"
         y="753.96448"
         x="1496.5787"
         height="325.51559"
         width="426.72153"
         id="rect3008"
         rx="50"
         ry="50" />
      <rect
         style="display:inline;opacity:0.08376142;stroke-width:0.9432283;stroke-miterlimit:4;stroke-dasharray:none;stroke-opacity:1"
         transform="matrix(0.893936,-0.448194,-0.225536,0.974235,0,0)"
         y="752.71448"
         x="1495.3287"
         height="328.01559"
         width="429.22153"
         id="rect3009"
         rx="50"
         ry="50" />
      <rect
         style="display:inline;opacity:0.07526293;stroke-width:0.9432283;stroke-miterlimit:4;stroke-dasharray:none;stroke-opacity:1"
         transform="matrix(0.893936,-0.448194,-0.225536,0.974235,0,0)"
         y="751.46448"
         x="1494.0787"
         height="330.51559"
         width="431.72153"
         id="rect3010"
         rx="50"
         ry="50" />
      <rect
         style="display:inline;opacity:0.06808196;stroke-width:0.9432283;stroke-miterlimit:4;stroke-dasharray:none;stroke-opacity:1"
         transform="matrix(0.893936,-0.448194,-0.225536,0.974235,0,0)"
         y="750.21448"
         x="1492.8287"
         height="333.01559"
         width="434.22153"
         id="rect3011"
         rx="50"
         ry="50" />
      <rect
         style="display:inline;opacity:0.06192465;stroke-width:0.9432283;stroke-miterlimit:4;stroke-dasharray:none;stroke-opacity:1"
         transform="matrix(0.893936,-0.448194,-0.225536,0.974235,0,0)"
         y="748.96448"
         x="1491.5787"
         height="335.51559"
         width="436.72153"
         id="rect3012"
         rx="50"
         ry="50" />
      <rect
         style="display:inline;opacity:0.05657803;stroke-width:0.9432283;stroke-miterlimit:4;stroke-dasharray:none;stroke-opacity:1"
         transform="matrix(0.893936,-0.448194,-0.225536,0.974235,0,0)"
         y="747.71448"
         x="1490.3287"
         height="338.01559"
         width="439.22153"
         id="rect3013"
         rx="50"
         ry="50" />
      <rect
         style="display:inline;opacity:0.05188371;stroke-width:0.9432283;stroke-miterlimit:4;stroke-dasharray:none;stroke-opacity:1"
         transform="matrix(0.893936,-0.448194,-0.225536,0.974235,0,0)"
         y="746.46448"
         x="1489.0787"
         height="340.51559"
         width="441.72153"
         id="rect3014"
         rx="50"
         ry="50" />
      <rect
         style="display:inline;opacity:0.04772135;stroke-width:0.9432283;stroke-miterlimit:4;stroke-dasharray:none;stroke-opacity:1"
         transform="matrix(0.893936,-0.448194,-0.225536,0.974235,0,0)"
         y="745.21448"
         x="1487.8287"
         height="343.01559"
         width="444.22153"
         id="rect3015"
         rx="50"
         ry="50" />
      <rect
         style="display:inline;opacity:0.04399803;stroke-width:0.9432283;stroke-miterlimit:4;stroke-dasharray:none;stroke-opacity:1"
         transform="matrix(0.893936,-0.448194,-0.225536,0.974235,0,0)"
         y="743.96448"
         x="1486.5787"
         height="345.51559"
         width="446.72153"
         id="rect3016"
         rx="50"
         ry="50" />
      <rect
         style="display:inline;opacity:0.04064068;stroke-width:0.9432283;stroke-miterlimit:4;stroke-dasharray:none;stroke-opacity:1"
         transform="matrix(0.893936,-0.448194,-0.225536,0.974235,0,0)"
         y="742.71448"
         x="1485.3287"
         height="348.01559"
         width="449.22153"
         id="rect3017"
         rx="50"
         ry="50" />
      <rect
         style="display:inline;opacity:0.03759089;stroke-width:0.9432283;stroke-miterlimit:4;stroke-dasharray:none;stroke-opacity:1"
         transform="matrix(0.893936,-0.448194,-0.225536,0.974235,0,0)"
         y="741.46448"
         x="1484.0787"
         height="350.51559"
         width="451.72153"
         id="rect3018"
         rx="50"
         ry="50" />
      <rect
         style="display:inline;opacity:0.03480159;stroke-width:0.9432283;stroke-miterlimit:4;stroke-dasharray:none;stroke-opacity:1"
         transform="matrix(0.893936,-0.448194,-0.225536,0.974235,0,0)"
         y="740.21448"
         x="1482.8287"
         height="353.01559"
         width="454.22153"
         id="rect3019"
         rx="50"
         ry="50" />
      <rect
         style="display:inline;opacity:0.03223416;stroke-width:0.9432283;stroke-miterlimit:4;stroke-dasharray:none;stroke-opacity:1"
         transform="matrix(0.893936,-0.448194,-0.225536,0.974235,0,0)"
         y="738.96448"
         x="1481.5787"
         height="355.51559"
         width="456.72153"
         id="rect3020"
         rx="50"
         ry="50" />
      <rect
         style="display:inline;opacity:0.0298566;stroke-width:0.9432283;stroke-miterlimit:4;stroke-dasharray:none;stroke-opacity:1"
         transform="matrix(0.893936,-0.448194,-0.225536,0.974235,0,0)"
         y="737.71448"
         x="1480.3287"
         height="358.01559"
         width="459.22153"
         id="rect3021"
         rx="50"
         ry="50" />
      <rect
         style="display:inline;opacity:0.02764204;stroke-width:0.9432283;stroke-miterlimit:4;stroke-dasharray:none;stroke-opacity:1"
         transform="matrix(0.893936,-0.448194,-0.225536,0.974235,0,0)"
         y="736.46448"
         x="1479.0787"
         height="360.51559"
         width="461.72153"
         id="rect3022"
         rx="50"
         ry="50" />
      <rect
         style="display:inline;opacity:0.02556781;stroke-width:0.9432283;stroke-miterlimit:4;stroke-dasharray:none;stroke-opacity:1"
         transform="matrix(0.893936,-0.448194,-0.225536,0.974235,0,0)"
         y="735.21448"
         x="1477.8287"
         height="363.01559"
         width="464.22153"
         id="rect3023"
         rx="50"
         ry="50" />
      <rect
         style="display:inline;opacity:0.02361444;stroke-width:0.9432283;stroke-miterlimit:4;stroke-dasharray:none;stroke-opacity:1"
         transform="matrix(0.893936,-0.448194,-0.225536,0.974235,0,0)"
         y="733.96448"
         x="1476.5787"
         height="365.51559"
         width="466.72153"
         id="rect3024"
         rx="50"
         ry="50" />
      <rect
         style="display:inline;opacity:0.0217649;stroke-width:0.9432283;stroke-miterlimit:4;stroke-dasharray:none;stroke-opacity:1"
         transform="matrix(0.893936,-0.448194,-0.225536,0.974235,0,0)"
         y="732.71448"
         x="1475.3287"
         height="368.01559"
         width="469.22153"
         id="rect3025"
         rx="50"
         ry="50" />
      <rect
         style="display:inline;opacity:0.02000439;stroke-width:0.9432283;stroke-miterlimit:4;stroke-dasharray:none;stroke-opacity:1"
         transform="matrix(0.893936,-0.448194,-0.225536,0.974235,0,0)"
         y="731.46448"
         x="1474.0787"
         height="370.51559"
         width="471.72153"
         id="rect3026"
         rx="50"
         ry="50" />
      <rect
         style="display:inline;opacity:0.01831958;stroke-width:0.9432283;stroke-miterlimit:4;stroke-dasharray:none;stroke-opacity:1"
         transform="matrix(0.893936,-0.448194,-0.225536,0.974235,0,0)"
         y="730.21448"
         x="1472.8287"
         height="373.01559"
         width="474.22153"
         id="rect3027"
         rx="50"
         ry="50" />
      <rect
         style="display:inline;opacity:0.01669838;stroke-width:0.9432283;stroke-miterlimit:4;stroke-dasharray:none;stroke-opacity:1"
         transform="matrix(0.893936,-0.448194,-0.225536,0.974235,0,0)"
         y="728.96448"
         x="1471.5787"
         height="375.51559"
         width="476.72153"
         id="rect3028"
         rx="50"
         ry="50" />
      <rect
         style="display:inline;opacity:0.0151296;stroke-width:0.9432283;stroke-miterlimit:4;stroke-dasharray:none;stroke-opacity:1"
         transform="matrix(0.893936,-0.448194,-0.225536,0.974235,0,0)"
         y="727.71448"
         x="1470.3287"
         height="378.01559"
         width="479.22153"
         id="rect3029"
         rx="50"
         ry="50" />
      <rect
         style="display:inline;opacity:0.01360252;stroke-width:0.9432283;stroke-miterlimit:4;stroke-dasharray:none;stroke-opacity:1"
         transform="matrix(0.893936,-0.448194,-0.225536,0.974235,0,0)"
         y="726.46448"
         x="1469.0787"
         height="380.51559"
         width="481.72153"
         id="rect3030"
         rx="50"
         ry="50" />
      <rect
         style="display:inline;opacity:0.01210656;stroke-width:0.9432283;stroke-miterlimit:4;stroke-dasharray:none;stroke-opacity:1"
         transform="matrix(0.893936,-0.448194,-0.225536,0.974235,0,0)"
         y="725.21448"
         x="1467.8287"
         height="383.01559"
         width="484.22153"
         id="rect3031"
         rx="50"
         ry="50" />
      <rect
         style="display:inline;opacity:0.01063101;stroke-width:0.9432283;stroke-miterlimit:4;stroke-dasharray:none;stroke-opacity:1"
         transform="matrix(0.893936,-0.448194,-0.225536,0.974235,0,0)"
         y="723.96448"
         x="1466.5787"
         height="385.51559"
         width="486.72153"
         id="rect3032"
         rx="50"
         ry="50" />
      <rect
         style="display:inline;opacity:0.00916419;stroke-width:0.9432283;stroke-miterlimit:4;stroke-dasharray:none;stroke-opacity:1"
         transform="matrix(0.893936,-0.448194,-0.225536,0.974235,0,0)"
         y="722.71448"
         x="1465.3287"
         height="388.01559"
         width="489.22153"
         id="rect3033"
         rx="50"
         ry="50" />
      <rect
         style="display:inline;opacity:0.00769258;stroke-width:0.9432283;stroke-miterlimit:4;stroke-dasharray:none;stroke-opacity:1"
         transform="matrix(0.893936,-0.448194,-0.225536,0.974235,0,0)"
         y="721.46448"
         x="1464.0787"
         height="390.51559"
         width="491.72153"
         id="rect3034"
         rx="50"
         ry="50" />
      <rect
         style="display:inline;opacity:0.00619926;stroke-width:0.9432283;stroke-miterlimit:4;stroke-dasharray:none;stroke-opacity:1"
         transform="matrix(0.893936,-0.448194,-0.225536,0.974235,0,0)"
         y="720.21448"
         x="1462.8287"
         height="393.01559"
         width="494.22153"
         id="rect3035"
         rx="50"
         ry="50" />
      <rect
         style="display:inline;opacity:0.0046595;stroke-width:0.9432283;stroke-miterlimit:4;stroke-dasharray:none;stroke-opacity:1"
         transform="matrix(0.893936,-0.448194,-0.225536,0.974235,0,0)"
         y="718.96448"
         x="1461.5787"
         height="395.51559"
         width="496.72153"
         id="rect3036"
         rx="50"
         ry="50" />
      <rect
         style="display:inline;opacity:0.0030298;stroke-width:0.9432283;stroke-miterlimit:4;stroke-dasharray:none;stroke-opacity:1"
         transform="matrix(0.893936,-0.448194,-0.225536,0.974235,0,0)"
         y="717.71448"
         x="1460.3287"
         height="398.01559"
         width="499.22153"
         id="rect3037"
         rx="50"
         ry="50" />
      <rect
         style="display:inline;opacity:0.00118049;stroke-width:0.9432283;stroke-miterlimit:4;stroke-dasharray:none;stroke-opacity:1"
         transform="matrix(0.893936,-0.448194,-0.225536,0.974235,0,0)"
         y="716.46448"
         x="1459.0787"
         height="400.51559"
         width="501.72153"
         id="rect3038"
         rx="50"
         ry="50" />
      <rect
         style="display:inline;opacity:0;stroke-width:0.9432283;stroke-miterlimit:4;stroke-dasharray:none;stroke-opacity:1"
         transform="matrix(0.893936,-0.448194,-0.225536,0.974235,0,0)"
         y="715.21448"
         x="1457.8287"
         height="403.01559"
         width="504.22153"
         id="rect3039"
         rx="50"
         ry="50" />
    </g>
  </g>
  <g
     inkscape:groupmode="layer"
     id="layer3"
     inkscape:label="µc³"
     style="display:inline;fill:#000000"
     transform="translate(175.87549,182.70888)">
    <g
       transform="translate(12.48528,8.72792)"
       id="g1896">
      <text
         xml:space="preserve"
         style="font-style:italic;font-variant:normal;font-weight:bold;font-stretch:normal;font-size:224px;line-height:125%;font-family:Utopia;text-align:start;writing-mode:lr-tb;text-anchor:start;opacity:1;fill-opacity:1;stroke:none;stroke-width:1px;stroke-linecap:butt;stroke-linejoin:miter;stroke-opacity:1"
         x="295.19415"
         y="247"
         id="text1949"
         sodipodi:linespacing="125%"><tspan
           sodipodi:role="line"
           id="tspan1951"
           x="295.19415"
           y="247">c</tspan></text>
      <text
         xml:space="preserve"
         style="font-style:italic;font-variant:normal;font-weight:bold;font-stretch:normal;font-size:224px;line-height:125%;font-family:Utopia;text-align:start;writing-mode:lr-tb;text-anchor:start;fill-opacity:1;stroke:none;stroke-width:1px;stroke-linecap:butt;stroke-linejoin:miter;stroke-opacity:1"
         x="170"
         y="247"
         id="text1888"
         sodipodi:linespacing="125%"><tspan
           sodipodi:role="line"
           id="tspan1890"
           x="170"
           y="247">µ</tspan></text>
      <text
         xml:space="preserve"
         style="font-style:italic;font-variant:normal;font-weight:bold;font-stretch:normal;font-size:224px;line-height:125%;font-family:Utopia;text-align:start;writing-mode:lr-tb;text-anchor:start;fill-opacity:1;stroke:none;stroke-width:1px;stroke-linecap:butt;stroke-linejoin:miter;stroke-opacity:1"
         x="394"
         y="247"
         id="text1892"
         sodipodi:linespacing="125%"><tspan
           sodipodi:role="line"
           id="tspan1894"
           x="394"
           y="247">³ </tspan></text>
    </g>
  </g>
</svg>
