<?xml version="1.0" encoding="UTF-8" standalone="no"?>
<!-- Created with Inkscape (http://www.inkscape.org/) -->

<svg
   xmlns:dc="http://purl.org/dc/elements/1.1/"
   xmlns:cc="http://creativecommons.org/ns#"
   xmlns:rdf="http://www.w3.org/1999/02/22-rdf-syntax-ns#"
   xmlns:svg="http://www.w3.org/2000/svg"
   xmlns="http://www.w3.org/2000/svg"
   xmlns:sodipodi="http://sodipodi.sourceforge.net/DTD/sodipodi-0.dtd"
   xmlns:inkscape="http://www.inkscape.org/namespaces/inkscape"
   width="720.51221"
   height="575.73401"
   id="svg2"
   inkscape:label="Pozad  "
   sodipodi:version="0.32"
   inkscape:version="0.91 r13725"
   sodipodi:docname="processor.svg"
   version="1.0">
  <defs
     id="defs22802" />
  <sodipodi:namedview
     id="base"
     pagecolor="#ffffff"
     bordercolor="#666666"
     borderopacity="1.0"
     inkscape:pageopacity="0.0"
     inkscape:pageshadow="2"
     inkscape:zoom="0.44744017"
     inkscape:cx="372.04724"
     inkscape:cy="526.18109"
     inkscape:document-units="px"
     inkscape:current-layer="g3135"
     inkscape:window-width="1024"
     inkscape:window-height="710"
     inkscape:window-x="0"
     inkscape:window-y="0"
     showgrid="false"
     inkscape:window-maximized="0" />
  <metadata
     id="metadata22805">
    <rdf:RDF>
      <cc:Work
         rdf:about="">
        <dc:format>image/svg+xml</dc:format>
        <dc:type
           rdf:resource="http://purl.org/dc/dcmitype/StillImage" />
        <cc:license
           rdf:resource="http://web.resource.org/cc/PublicDomain" />
        <dc:title>chip</dc:title>
        <dc:creator>
          <cc:Agent>
            <dc:title>Jiri Bednar</dc:title>
          </cc:Agent>
        </dc:creator>
        <dc:publisher>
          <cc:Agent>
            <dc:title>ZS a MS Machovo nam.</dc:title>
          </cc:Agent>
        </dc:publisher>
        <dc:language>cz</dc:language>
        <dc:subject>
          <rdf:Bag>
            <rdf:li>chip</rdf:li>
          </rdf:Bag>
        </dc:subject>
      </cc:Work>
      <cc:License
         rdf:about="http://web.resource.org/cc/PublicDomain">
        <cc:permits
           rdf:resource="http://web.resource.org/cc/Reproduction" />
        <cc:permits
           rdf:resource="http://web.resource.org/cc/Distribution" />
        <cc:permits
           rdf:resource="http://web.resource.org/cc/DerivativeWorks" />
      </cc:License>
    </rdf:RDF>
  </metadata>
  <g
     inkscape:label="Vrstva 1"
     inkscape:groupmode="layer"
     id="layer1"
     transform="translate(-11.34565,-235.2325)">
    <g
       id="g3135"
       inkscape:export-filename="/windows/E/Projekt_Kliparty/tom/ Klipy SVG/Elektrospot  ebi  e/chip.png"
       inkscape:export-xdpi="90"
       inkscape:export-ydpi="90">
      <path
         sodipodi:nodetypes="cccccc"
         id="path25764"
         d="M 315.19938,741.19633 L 50.562299,566.04636 L 46.738072,539.27672 L 681.56112,427.60904 L 674.67751,458.20293 L 315.19938,741.19633 z "
         style="fill:#4d4d4d;fill-rule:evenodd;stroke:black;stroke-width:1.94877958px;stroke-linecap:butt;stroke-linejoin:miter;stroke-opacity:1" />
      <g
         transform="matrix(1.94878,0,0,1.94878,-184.2457,-471.3532)"
         id="g25481">
        <path
           style="fill:#cacaca;fill-opacity:1;fill-rule:evenodd;stroke:black;stroke-width:1px;stroke-linecap:butt;stroke-linejoin:miter;stroke-opacity:1"
           d="M 129.48883,518.94525 L 109.89298,533.51035 L 101.11977,547.32995 L 100.86605,570.40299 L 104.7908,573.15031 L 104.39833,578.64496 L 107.14565,580.21486 L 107.53812,574.03338 L 111.26664,576.19199 L 112.24783,553.91904 L 119.70485,540.18242 L 139.32859,525.66085 L 129.48883,518.94525 z "
           id="path24590"
           sodipodi:nodetypes="ccccccccccccc" />
        <path
           style="fill:none;fill-rule:evenodd;stroke:black;stroke-width:1px;stroke-linecap:butt;stroke-linejoin:miter;stroke-opacity:1"
           d="M 101.57293,547.55026 C 101.71169,548.38282 112.11876,553.7945 112.11876,553.7945"
           id="path24592" />
        <path
           style="fill:none;fill-rule:evenodd;stroke:black;stroke-width:1px;stroke-linecap:butt;stroke-linejoin:miter;stroke-opacity:1"
           d="M 110.31487,533.81294 L 119.33432,539.91841"
           id="path24594" />
      </g>
      <g
         id="g25486"
         transform="matrix(1.94878,0,0,1.94878,-146.0034,-446.1132)">
        <path
           sodipodi:nodetypes="ccccccccccccc"
           id="path25488"
           d="M 129.48883,518.94525 L 109.89298,533.51035 L 101.11977,547.32995 L 100.86605,570.40299 L 104.7908,573.15031 L 104.39833,578.64496 L 107.14565,580.21486 L 107.53812,574.03338 L 111.26664,576.19199 L 112.24783,553.91904 L 119.70485,540.18242 L 139.32859,525.66085 L 129.48883,518.94525 z "
           style="fill:#cacaca;fill-opacity:1;fill-rule:evenodd;stroke:black;stroke-width:1px;stroke-linecap:butt;stroke-linejoin:miter;stroke-opacity:1" />
        <path
           id="path25490"
           d="M 101.57293,547.55026 C 101.71169,548.38282 112.11876,553.7945 112.11876,553.7945"
           style="fill:none;fill-rule:evenodd;stroke:black;stroke-width:1px;stroke-linecap:butt;stroke-linejoin:miter;stroke-opacity:1" />
        <path
           id="path25492"
           d="M 110.31487,533.81294 L 119.33432,539.91841"
           style="fill:none;fill-rule:evenodd;stroke:black;stroke-width:1px;stroke-linecap:butt;stroke-linejoin:miter;stroke-opacity:1" />
      </g>
      <g
         transform="matrix(1.94878,0,0,1.94878,-100.1126,-418.5787)"
         id="g25494">
        <path
           style="fill:#cacaca;fill-opacity:1;fill-rule:evenodd;stroke:black;stroke-width:1px;stroke-linecap:butt;stroke-linejoin:miter;stroke-opacity:1"
           d="M 129.48883,518.94525 L 109.89298,533.51035 L 101.11977,547.32995 L 100.86605,570.40299 L 104.7908,573.15031 L 104.39833,578.64496 L 107.14565,580.21486 L 107.53812,574.03338 L 111.26664,576.19199 L 112.24783,553.91904 L 119.70485,540.18242 L 139.32859,525.66085 L 129.48883,518.94525 z "
           id="path25496"
           sodipodi:nodetypes="ccccccccccccc" />
        <path
           style="fill:none;fill-rule:evenodd;stroke:black;stroke-width:1px;stroke-linecap:butt;stroke-linejoin:miter;stroke-opacity:1"
           d="M 101.57293,547.55026 C 101.71169,548.38282 112.11876,553.7945 112.11876,553.7945"
           id="path25498" />
        <path
           style="fill:none;fill-rule:evenodd;stroke:black;stroke-width:1px;stroke-linecap:butt;stroke-linejoin:miter;stroke-opacity:1"
           d="M 110.31487,533.81294 L 119.33432,539.91841"
           id="path25500" />
      </g>
      <g
         id="g25502"
         transform="matrix(1.94878,0,0,1.94878,-57.28114,-388.7497)">
        <path
           sodipodi:nodetypes="ccccccccccccc"
           id="path25504"
           d="M 129.48883,518.94525 L 109.89298,533.51035 L 101.11977,547.32995 L 100.86605,570.40299 L 104.7908,573.15031 L 104.39833,578.64496 L 107.14565,580.21486 L 107.53812,574.03338 L 111.26664,576.19199 L 112.24783,553.91904 L 119.70485,540.18242 L 139.32859,525.66085 L 129.48883,518.94525 z "
           style="fill:#cacaca;fill-opacity:1;fill-rule:evenodd;stroke:black;stroke-width:1px;stroke-linecap:butt;stroke-linejoin:miter;stroke-opacity:1" />
        <path
           id="path25506"
           d="M 101.57293,547.55026 C 101.71169,548.38282 112.11876,553.7945 112.11876,553.7945"
           style="fill:none;fill-rule:evenodd;stroke:black;stroke-width:1px;stroke-linecap:butt;stroke-linejoin:miter;stroke-opacity:1" />
        <path
           id="path25508"
           d="M 110.31487,533.81294 L 119.33432,539.91841"
           style="fill:none;fill-rule:evenodd;stroke:black;stroke-width:1px;stroke-linecap:butt;stroke-linejoin:miter;stroke-opacity:1" />
      </g>
      <g
         transform="matrix(1.94878,0,0,1.94878,-14.44969,-356.626)"
         id="g25510">
        <path
           style="fill:#cacaca;fill-opacity:1;fill-rule:evenodd;stroke:black;stroke-width:1px;stroke-linecap:butt;stroke-linejoin:miter;stroke-opacity:1"
           d="M 129.48883,518.94525 L 109.89298,533.51035 L 101.11977,547.32995 L 100.86605,570.40299 L 104.7908,573.15031 L 104.39833,578.64496 L 107.14565,580.21486 L 107.53812,574.03338 L 111.26664,576.19199 L 112.24783,553.91904 L 119.70485,540.18242 L 139.32859,525.66085 L 129.48883,518.94525 z "
           id="path25512"
           sodipodi:nodetypes="ccccccccccccc" />
        <path
           style="fill:none;fill-rule:evenodd;stroke:black;stroke-width:1px;stroke-linecap:butt;stroke-linejoin:miter;stroke-opacity:1"
           d="M 101.57293,547.55026 C 101.71169,548.38282 112.11876,553.7945 112.11876,553.7945"
           id="path25514" />
        <path
           style="fill:none;fill-rule:evenodd;stroke:black;stroke-width:1px;stroke-linecap:butt;stroke-linejoin:miter;stroke-opacity:1"
           d="M 110.31487,533.81294 L 119.33432,539.91841"
           id="path25516" />
      </g>
      <g
         id="g25518"
         transform="matrix(1.94878,0,0,1.94878,22.26297,-331.3862)">
        <path
           sodipodi:nodetypes="ccccccccccccc"
           id="path25520"
           d="M 129.48883,518.94525 L 109.89298,533.51035 L 101.11977,547.32995 L 100.86605,570.40299 L 104.7908,573.15031 L 104.39833,578.64496 L 107.14565,580.21486 L 107.53812,574.03338 L 111.26664,576.19199 L 112.24783,553.91904 L 119.70485,540.18242 L 139.32859,525.66085 L 129.48883,518.94525 z "
           style="fill:#cacaca;fill-opacity:1;fill-rule:evenodd;stroke:black;stroke-width:1px;stroke-linecap:butt;stroke-linejoin:miter;stroke-opacity:1" />
        <path
           id="path25522"
           d="M 101.57293,547.55026 C 101.71169,548.38282 112.11876,553.7945 112.11876,553.7945"
           style="fill:none;fill-rule:evenodd;stroke:black;stroke-width:1px;stroke-linecap:butt;stroke-linejoin:miter;stroke-opacity:1" />
        <path
           id="path25524"
           d="M 110.31487,533.81294 L 119.33432,539.91841"
           style="fill:none;fill-rule:evenodd;stroke:black;stroke-width:1px;stroke-linecap:butt;stroke-linejoin:miter;stroke-opacity:1" />
      </g>
      <g
         transform="matrix(-2.043457,0,0,2.181988,614.9171,-456.1112)"
         id="g25526">
        <path
           style="fill:#cacaca;fill-opacity:1;fill-rule:evenodd;stroke:black;stroke-width:1px;stroke-linecap:butt;stroke-linejoin:miter;stroke-opacity:1"
           d="M 129.48883,518.94525 L 109.89298,533.51035 L 101.11977,547.32995 L 100.86605,570.40299 L 104.7908,573.15031 L 104.39833,578.64496 L 107.14565,580.21486 L 107.53812,574.03338 L 111.26664,576.19199 L 112.24783,553.91904 L 119.70485,540.18242 L 139.32859,525.66085 L 129.48883,518.94525 z "
           id="path25528"
           sodipodi:nodetypes="ccccccccccccc" />
        <path
           style="fill:none;fill-rule:evenodd;stroke:black;stroke-width:1px;stroke-linecap:butt;stroke-linejoin:miter;stroke-opacity:1"
           d="M 101.57293,547.55026 C 101.71169,548.38282 112.11876,553.7945 112.11876,553.7945"
           id="path25530" />
        <path
           style="fill:none;fill-rule:evenodd;stroke:black;stroke-width:1px;stroke-linecap:butt;stroke-linejoin:miter;stroke-opacity:1"
           d="M 110.31487,533.81294 L 119.33432,539.91841"
           id="path25532" />
      </g>
      <g
         id="g25574"
         transform="matrix(-2.043457,0,0,2.181988,650.8649,-482.1159)">
        <path
           sodipodi:nodetypes="ccccccccccccc"
           id="path25576"
           d="M 129.48883,518.94525 L 109.89298,533.51035 L 101.11977,547.32995 L 100.86605,570.40299 L 104.7908,573.15031 L 104.39833,578.64496 L 107.14565,580.21486 L 107.53812,574.03338 L 111.26664,576.19199 L 112.24783,553.91904 L 119.70485,540.18242 L 139.32859,525.66085 L 129.48883,518.94525 z "
           style="fill:#cacaca;fill-opacity:1;fill-rule:evenodd;stroke:black;stroke-width:1px;stroke-linecap:butt;stroke-linejoin:miter;stroke-opacity:1" />
        <path
           id="path25578"
           d="M 101.57293,547.55026 C 101.71169,548.38282 112.11876,553.7945 112.11876,553.7945"
           style="fill:none;fill-rule:evenodd;stroke:black;stroke-width:1px;stroke-linecap:butt;stroke-linejoin:miter;stroke-opacity:1" />
        <path
           id="path25580"
           d="M 110.31487,533.81294 L 119.33432,539.91841"
           style="fill:none;fill-rule:evenodd;stroke:black;stroke-width:1px;stroke-linecap:butt;stroke-linejoin:miter;stroke-opacity:1" />
      </g>
      <g
         transform="matrix(-2.043457,0,0,2.181988,686.0478,-508.1206)"
         id="g25582">
        <path
           style="fill:#cacaca;fill-opacity:1;fill-rule:evenodd;stroke:black;stroke-width:1px;stroke-linecap:butt;stroke-linejoin:miter;stroke-opacity:1"
           d="M 129.48883,518.94525 L 109.89298,533.51035 L 101.11977,547.32995 L 100.86605,570.40299 L 104.7908,573.15031 L 104.39833,578.64496 L 107.14565,580.21486 L 107.53812,574.03338 L 111.26664,576.19199 L 112.24783,553.91904 L 119.70485,540.18242 L 139.32859,525.66085 L 129.48883,518.94525 z "
           id="path25584"
           sodipodi:nodetypes="ccccccccccccc" />
        <path
           style="fill:none;fill-rule:evenodd;stroke:black;stroke-width:1px;stroke-linecap:butt;stroke-linejoin:miter;stroke-opacity:1"
           d="M 101.57293,547.55026 C 101.71169,548.38282 112.11876,553.7945 112.11876,553.7945"
           id="path25586" />
        <path
           style="fill:none;fill-rule:evenodd;stroke:black;stroke-width:1px;stroke-linecap:butt;stroke-linejoin:miter;stroke-opacity:1"
           d="M 110.31487,533.81294 L 119.33432,539.91841"
           id="path25588" />
      </g>
      <g
         id="g25590"
         transform="matrix(-2.043457,0,0,2.181988,723.5254,-535.6551)">
        <path
           sodipodi:nodetypes="ccccccccccccc"
           id="path25592"
           d="M 129.48883,518.94525 L 109.89298,533.51035 L 101.11977,547.32995 L 100.86605,570.40299 L 104.7908,573.15031 L 104.39833,578.64496 L 107.14565,580.21486 L 107.53812,574.03338 L 111.26664,576.19199 L 112.24783,553.91904 L 119.70485,540.18242 L 139.32859,525.66085 L 129.48883,518.94525 z "
           style="fill:#cacaca;fill-opacity:1;fill-rule:evenodd;stroke:black;stroke-width:1px;stroke-linecap:butt;stroke-linejoin:miter;stroke-opacity:1" />
        <path
           id="path25594"
           d="M 101.57293,547.55026 C 101.71169,548.38282 112.11876,553.7945 112.11876,553.7945"
           style="fill:none;fill-rule:evenodd;stroke:black;stroke-width:1px;stroke-linecap:butt;stroke-linejoin:miter;stroke-opacity:1" />
        <path
           id="path25596"
           d="M 110.31487,533.81294 L 119.33432,539.91841"
           style="fill:none;fill-rule:evenodd;stroke:black;stroke-width:1px;stroke-linecap:butt;stroke-linejoin:miter;stroke-opacity:1" />
      </g>
      <g
         transform="matrix(-2.043457,0,0,2.181988,761.7676,-563.1896)"
         id="g25598">
        <path
           style="fill:#cacaca;fill-opacity:1;fill-rule:evenodd;stroke:black;stroke-width:1px;stroke-linecap:butt;stroke-linejoin:miter;stroke-opacity:1"
           d="M 129.48883,518.94525 L 109.89298,533.51035 L 101.11977,547.32995 L 100.86605,570.40299 L 104.7908,573.15031 L 104.39833,578.64496 L 107.14565,580.21486 L 107.53812,574.03338 L 111.26664,576.19199 L 112.24783,553.91904 L 119.70485,540.18242 L 139.32859,525.66085 L 129.48883,518.94525 z "
           id="path25600"
           sodipodi:nodetypes="ccccccccccccc" />
        <path
           style="fill:none;fill-rule:evenodd;stroke:black;stroke-width:1px;stroke-linecap:butt;stroke-linejoin:miter;stroke-opacity:1"
           d="M 101.57293,547.55026 C 101.71169,548.38282 112.11876,553.7945 112.11876,553.7945"
           id="path25602" />
        <path
           style="fill:none;fill-rule:evenodd;stroke:black;stroke-width:1px;stroke-linecap:butt;stroke-linejoin:miter;stroke-opacity:1"
           d="M 110.31487,533.81294 L 119.33432,539.91841"
           id="path25604" />
      </g>
      <g
         id="g25606"
         transform="matrix(-2.043457,0,0,2.181988,796.9505,-591.489)">
        <path
           sodipodi:nodetypes="ccccccccccccc"
           id="path25608"
           d="M 129.48883,518.94525 L 109.89298,533.51035 L 101.11977,547.32995 L 100.86605,570.40299 L 104.7908,573.15031 L 104.39833,578.64496 L 107.14565,580.21486 L 107.53812,574.03338 L 111.26664,576.19199 L 112.24783,553.91904 L 119.70485,540.18242 L 139.32859,525.66085 L 129.48883,518.94525 z "
           style="fill:#cacaca;fill-opacity:1;fill-rule:evenodd;stroke:black;stroke-width:1px;stroke-linecap:butt;stroke-linejoin:miter;stroke-opacity:1" />
        <path
           id="path25610"
           d="M 101.57293,547.55026 C 101.71169,548.38282 112.11876,553.7945 112.11876,553.7945"
           style="fill:none;fill-rule:evenodd;stroke:black;stroke-width:1px;stroke-linecap:butt;stroke-linejoin:miter;stroke-opacity:1" />
        <path
           id="path25612"
           d="M 110.31487,533.81294 L 119.33432,539.91841"
           style="fill:none;fill-rule:evenodd;stroke:black;stroke-width:1px;stroke-linecap:butt;stroke-linejoin:miter;stroke-opacity:1" />
      </g>
      <g
         id="g25614"
         transform="matrix(-2.043457,0,0,2.181988,826.0148,-619.0235)">
        <path
           sodipodi:nodetypes="ccccccccccccc"
           id="path25616"
           d="M 129.48883,518.94525 L 109.89298,533.51035 L 101.11977,547.32995 L 100.86605,570.40299 L 104.7908,573.15031 L 104.39833,578.64496 L 107.14565,580.21486 L 107.53812,574.03338 L 111.26664,576.19199 L 112.24783,553.91904 L 119.70485,540.18242 L 139.32859,525.66085 L 129.48883,518.94525 z "
           style="fill:#cacaca;fill-opacity:1;fill-rule:evenodd;stroke:black;stroke-width:1px;stroke-linecap:butt;stroke-linejoin:miter;stroke-opacity:1" />
        <path
           id="path25618"
           d="M 101.57293,547.55026 C 101.71169,548.38282 112.11876,553.7945 112.11876,553.7945"
           style="fill:none;fill-rule:evenodd;stroke:black;stroke-width:1px;stroke-linecap:butt;stroke-linejoin:miter;stroke-opacity:1" />
        <path
           id="path25620"
           d="M 110.31487,533.81294 L 119.33432,539.91841"
           style="fill:none;fill-rule:evenodd;stroke:black;stroke-width:1px;stroke-linecap:butt;stroke-linejoin:miter;stroke-opacity:1" />
      </g>
      <g
         transform="matrix(-2.043457,0,0,2.181988,863.4924,-646.558)"
         id="g25622">
        <path
           style="fill:#cacaca;fill-opacity:1;fill-rule:evenodd;stroke:black;stroke-width:1px;stroke-linecap:butt;stroke-linejoin:miter;stroke-opacity:1"
           d="M 129.48883,518.94525 L 109.89298,533.51035 L 101.11977,547.32995 L 100.86605,570.40299 L 104.7908,573.15031 L 104.39833,578.64496 L 107.14565,580.21486 L 107.53812,574.03338 L 111.26664,576.19199 L 112.24783,553.91904 L 119.70485,540.18242 L 139.32859,525.66085 L 129.48883,518.94525 z "
           id="path25624"
           sodipodi:nodetypes="ccccccccccccc" />
        <path
           style="fill:none;fill-rule:evenodd;stroke:black;stroke-width:1px;stroke-linecap:butt;stroke-linejoin:miter;stroke-opacity:1"
           d="M 101.57293,547.55026 C 101.71169,548.38282 112.11876,553.7945 112.11876,553.7945"
           id="path25626" />
        <path
           style="fill:none;fill-rule:evenodd;stroke:black;stroke-width:1px;stroke-linecap:butt;stroke-linejoin:miter;stroke-opacity:1"
           d="M 110.31487,533.81294 L 119.33432,539.91841"
           id="path25628" />
      </g>
      <g
         id="g25630"
         transform="matrix(-2.043457,0,0,2.181988,901.7346,-674.0925)">
        <path
           sodipodi:nodetypes="ccccccccccccc"
           id="path25632"
           d="M 129.48883,518.94525 L 109.89298,533.51035 L 101.11977,547.32995 L 100.86605,570.40299 L 104.7908,573.15031 L 104.39833,578.64496 L 107.14565,580.21486 L 107.53812,574.03338 L 111.26664,576.19199 L 112.24783,553.91904 L 119.70485,540.18242 L 139.32859,525.66085 L 129.48883,518.94525 z "
           style="fill:#cacaca;fill-opacity:1;fill-rule:evenodd;stroke:black;stroke-width:1px;stroke-linecap:butt;stroke-linejoin:miter;stroke-opacity:1" />
        <path
           id="path25634"
           d="M 101.57293,547.55026 C 101.71169,548.38282 112.11876,553.7945 112.11876,553.7945"
           style="fill:none;fill-rule:evenodd;stroke:black;stroke-width:1px;stroke-linecap:butt;stroke-linejoin:miter;stroke-opacity:1" />
        <path
           id="path25636"
           d="M 110.31487,533.81294 L 119.33432,539.91841"
           style="fill:none;fill-rule:evenodd;stroke:black;stroke-width:1px;stroke-linecap:butt;stroke-linejoin:miter;stroke-opacity:1" />
      </g>
      <g
         transform="matrix(1.94878,0,0,1.94878,339.6744,-1029.691)"
         id="g25668">
        <path
           style="fill:gray;fill-rule:evenodd;stroke:black;stroke-width:1px;stroke-linecap:butt;stroke-linejoin:miter;stroke-opacity:1"
           d="M 65.445192,650.6641 L 66.132023,682.16022 L 70.743603,684.51507 L 70.547365,688.83229 L 74.07964,690.59843 L 74.275878,685.88873 L 78.396864,687.94922 L 78.69122,658.80796"
           id="path25666"
           sodipodi:nodetypes="cccccccc" />
        <path
           style="fill:#ccc;fill-rule:evenodd;stroke:black;stroke-width:1px;stroke-linecap:butt;stroke-linejoin:miter;stroke-opacity:1"
           d="M 49.648077,668.91419 L 67.505685,656.45311 L 78.985576,659.20044 L 65.052717,650.36975 L 57.301337,649.5848 L 39.541848,662.43836 L 49.648077,668.91419 z "
           id="path25662"
           sodipodi:nodetypes="ccccccc" />
      </g>
      <g
         id="g25672"
         transform="matrix(1.94878,0,0,1.94878,381.741,-1002.922)">
        <path
           sodipodi:nodetypes="cccccccc"
           id="path25674"
           d="M 65.445192,650.6641 L 66.132023,682.16022 L 70.743603,684.51507 L 70.547365,688.83229 L 74.07964,690.59843 L 74.275878,685.88873 L 78.396864,687.94922 L 78.69122,658.80796"
           style="fill:gray;fill-rule:evenodd;stroke:black;stroke-width:1px;stroke-linecap:butt;stroke-linejoin:miter;stroke-opacity:1" />
        <path
           sodipodi:nodetypes="ccccccc"
           id="path25676"
           d="M 49.648077,668.91419 L 67.505685,656.45311 L 78.985576,659.20044 L 65.052717,650.36975 L 57.301337,649.5848 L 39.541848,662.43836 L 49.648077,668.91419 z "
           style="fill:#ccc;fill-rule:evenodd;stroke:black;stroke-width:1px;stroke-linecap:butt;stroke-linejoin:miter;stroke-opacity:1" />
      </g>
      <g
         transform="matrix(1.94878,0,0,1.94878,425.3373,-976.1519)"
         id="g25678">
        <path
           style="fill:gray;fill-rule:evenodd;stroke:black;stroke-width:1px;stroke-linecap:butt;stroke-linejoin:miter;stroke-opacity:1"
           d="M 65.445192,650.6641 L 66.132023,682.16022 L 70.743603,684.51507 L 70.547365,688.83229 L 74.07964,690.59843 L 74.275878,685.88873 L 78.396864,687.94922 L 78.69122,658.80796"
           id="path25680"
           sodipodi:nodetypes="cccccccc" />
        <path
           style="fill:#ccc;fill-rule:evenodd;stroke:black;stroke-width:1px;stroke-linecap:butt;stroke-linejoin:miter;stroke-opacity:1"
           d="M 49.648077,668.91419 L 67.505685,656.45311 L 78.985576,659.20044 L 65.052717,650.36975 L 57.301337,649.5848 L 39.541848,662.43836 L 49.648077,668.91419 z "
           id="path25682"
           sodipodi:nodetypes="ccccccc" />
      </g>
      <g
         id="g25684"
         transform="matrix(1.94878,0,0,1.94878,463.5796,-951.6769)">
        <path
           sodipodi:nodetypes="cccccccc"
           id="path25686"
           d="M 65.445192,650.6641 L 66.132023,682.16022 L 70.743603,684.51507 L 70.547365,688.83229 L 74.07964,690.59843 L 74.275878,685.88873 L 78.396864,687.94922 L 78.69122,658.80796"
           style="fill:gray;fill-rule:evenodd;stroke:black;stroke-width:1px;stroke-linecap:butt;stroke-linejoin:miter;stroke-opacity:1" />
        <path
           sodipodi:nodetypes="ccccccc"
           id="path25688"
           d="M 49.648077,668.91419 L 67.505685,656.45311 L 78.985576,659.20044 L 65.052717,650.36975 L 57.301337,649.5848 L 39.541848,662.43836 L 49.648077,668.91419 z "
           style="fill:#ccc;fill-rule:evenodd;stroke:black;stroke-width:1px;stroke-linecap:butt;stroke-linejoin:miter;stroke-opacity:1" />
      </g>
      <g
         transform="matrix(1.94878,0,0,1.94878,511.7649,-918.7889)"
         id="g25690">
        <path
           style="fill:gray;fill-rule:evenodd;stroke:black;stroke-width:1px;stroke-linecap:butt;stroke-linejoin:miter;stroke-opacity:1"
           d="M 65.445192,650.6641 L 66.132023,682.16022 L 70.743603,684.51507 L 70.547365,688.83229 L 74.07964,690.59843 L 74.275878,685.88873 L 78.396864,687.94922 L 78.69122,658.80796"
           id="path25692"
           sodipodi:nodetypes="cccccccc" />
        <path
           style="fill:#ccc;fill-rule:evenodd;stroke:black;stroke-width:1px;stroke-linecap:butt;stroke-linejoin:miter;stroke-opacity:1"
           d="M 49.648077,668.91419 L 67.505685,656.45311 L 78.985576,659.20044 L 65.052717,650.36975 L 57.301337,649.5848 L 39.541848,662.43836 L 49.648077,668.91419 z "
           id="path25694"
           sodipodi:nodetypes="ccccccc" />
      </g>
      <g
         id="g25696"
         transform="matrix(1.94878,0,0,1.94878,556.8909,-889.7249)">
        <path
           sodipodi:nodetypes="cccccccc"
           id="path25698"
           d="M 65.445192,650.6641 L 66.132023,682.16022 L 70.743603,684.51507 L 70.547365,688.83229 L 74.07964,690.59843 L 74.275878,685.88873 L 78.396864,687.94922 L 78.69122,658.80796"
           style="fill:gray;fill-rule:evenodd;stroke:black;stroke-width:1px;stroke-linecap:butt;stroke-linejoin:miter;stroke-opacity:1" />
        <path
           sodipodi:nodetypes="ccccccc"
           id="path25700"
           d="M 49.648077,668.91419 L 67.505685,656.45311 L 78.985576,659.20044 L 65.052717,650.36975 L 57.301337,649.5848 L 39.541848,662.43836 L 49.648077,668.91419 z "
           style="fill:#ccc;fill-rule:evenodd;stroke:black;stroke-width:1px;stroke-linecap:butt;stroke-linejoin:miter;stroke-opacity:1" />
      </g>
      <g
         transform="matrix(-1.984789,0,0,1.94878,481.7754,-1025.102)"
         id="g25710">
        <path
           style="fill:gray;fill-rule:evenodd;stroke:black;stroke-width:1px;stroke-linecap:butt;stroke-linejoin:miter;stroke-opacity:1"
           d="M 65.445192,650.6641 L 66.132023,682.16022 L 70.743603,684.51507 L 70.547365,688.83229 L 74.07964,690.59843 L 74.275878,685.88873 L 78.396864,687.94922 L 78.69122,658.80796"
           id="path25712"
           sodipodi:nodetypes="cccccccc" />
        <path
           style="fill:#ccc;fill-rule:evenodd;stroke:black;stroke-width:1px;stroke-linecap:butt;stroke-linejoin:miter;stroke-opacity:1"
           d="M 49.648077,668.91419 L 67.505685,656.45311 L 78.985576,659.20044 L 65.052717,650.36975 L 57.301337,649.5848 L 39.541848,662.43836 L 49.648077,668.91419 z "
           id="path25714"
           sodipodi:nodetypes="ccccccc" />
      </g>
      <g
         id="g25716"
         transform="matrix(-1.984789,0,0,1.94878,450.4166,-998.3329)">
        <path
           sodipodi:nodetypes="cccccccc"
           id="path25718"
           d="M 65.445192,650.6641 L 66.132023,682.16022 L 70.743603,684.51507 L 70.547365,688.83229 L 74.07964,690.59843 L 74.275878,685.88873 L 78.396864,687.94922 L 78.69122,658.80796"
           style="fill:gray;fill-rule:evenodd;stroke:black;stroke-width:1px;stroke-linecap:butt;stroke-linejoin:miter;stroke-opacity:1" />
        <path
           sodipodi:nodetypes="ccccccc"
           id="path25720"
           d="M 49.648077,668.91419 L 67.505685,656.45311 L 78.985576,659.20044 L 65.052717,650.36975 L 57.301337,649.5848 L 39.541848,662.43836 L 49.648077,668.91419 z "
           style="fill:#ccc;fill-rule:evenodd;stroke:black;stroke-width:1px;stroke-linecap:butt;stroke-linejoin:miter;stroke-opacity:1" />
      </g>
      <g
         transform="matrix(-1.984789,0,0,1.94878,414.4688,-969.2689)"
         id="g25722">
        <path
           style="fill:gray;fill-rule:evenodd;stroke:black;stroke-width:1px;stroke-linecap:butt;stroke-linejoin:miter;stroke-opacity:1"
           d="M 65.445192,650.6641 L 66.132023,682.16022 L 70.743603,684.51507 L 70.547365,688.83229 L 74.07964,690.59843 L 74.275878,685.88873 L 78.396864,687.94922 L 78.69122,658.80796"
           id="path25724"
           sodipodi:nodetypes="cccccccc" />
        <path
           style="fill:#ccc;fill-rule:evenodd;stroke:black;stroke-width:1px;stroke-linecap:butt;stroke-linejoin:miter;stroke-opacity:1"
           d="M 49.648077,668.91419 L 67.505685,656.45311 L 78.985576,659.20044 L 65.052717,650.36975 L 57.301337,649.5848 L 39.541848,662.43836 L 49.648077,668.91419 z "
           id="path25726"
           sodipodi:nodetypes="ccccccc" />
      </g>
      <g
         id="g25728"
         transform="matrix(-1.984789,0,0,1.94878,376.2265,-939.4399)">
        <path
           sodipodi:nodetypes="cccccccc"
           id="path25730"
           d="M 65.445192,650.6641 L 66.132023,682.16022 L 70.743603,684.51507 L 70.547365,688.83229 L 74.07964,690.59843 L 74.275878,685.88873 L 78.396864,687.94922 L 78.69122,658.80796"
           style="fill:gray;fill-rule:evenodd;stroke:black;stroke-width:1px;stroke-linecap:butt;stroke-linejoin:miter;stroke-opacity:1" />
        <path
           sodipodi:nodetypes="ccccccc"
           id="path25732"
           d="M 49.648077,668.91419 L 67.505685,656.45311 L 78.985576,659.20044 L 65.052717,650.36975 L 57.301337,649.5848 L 39.541848,662.43836 L 49.648077,668.91419 z "
           style="fill:#ccc;fill-rule:evenodd;stroke:black;stroke-width:1px;stroke-linecap:butt;stroke-linejoin:miter;stroke-opacity:1" />
      </g>
      <g
         transform="matrix(-1.984789,0,0,1.94878,335.6896,-909.6109)"
         id="g25734">
        <path
           style="fill:gray;fill-rule:evenodd;stroke:black;stroke-width:1px;stroke-linecap:butt;stroke-linejoin:miter;stroke-opacity:1"
           d="M 65.445192,650.6641 L 66.132023,682.16022 L 70.743603,684.51507 L 70.547365,688.83229 L 74.07964,690.59843 L 74.275878,685.88873 L 78.396864,687.94922 L 78.69122,658.80796"
           id="path25736"
           sodipodi:nodetypes="cccccccc" />
        <path
           style="fill:#ccc;fill-rule:evenodd;stroke:black;stroke-width:1px;stroke-linecap:butt;stroke-linejoin:miter;stroke-opacity:1"
           d="M 49.648077,668.91419 L 67.505685,656.45311 L 78.985576,659.20044 L 65.052717,650.36975 L 57.301337,649.5848 L 39.541848,662.43836 L 49.648077,668.91419 z "
           id="path25738"
           sodipodi:nodetypes="ccccccc" />
      </g>
      <g
         id="g25740"
         transform="matrix(-1.984789,0,0,1.94878,296.6824,-876.7219)">
        <path
           sodipodi:nodetypes="cccccccc"
           id="path25742"
           d="M 65.445192,650.6641 L 66.132023,682.16022 L 70.743603,684.51507 L 70.547365,688.83229 L 74.07964,690.59843 L 74.275878,685.88873 L 78.396864,687.94922 L 78.69122,658.80796"
           style="fill:gray;fill-rule:evenodd;stroke:black;stroke-width:1px;stroke-linecap:butt;stroke-linejoin:miter;stroke-opacity:1" />
        <path
           sodipodi:nodetypes="ccccccc"
           id="path25744"
           d="M 49.648077,668.91419 L 67.505685,656.45311 L 78.985576,659.20044 L 65.052717,650.36975 L 57.301337,649.5848 L 39.541848,662.43836 L 49.648077,668.91419 z "
           style="fill:#ccc;fill-rule:evenodd;stroke:black;stroke-width:1px;stroke-linecap:butt;stroke-linejoin:miter;stroke-opacity:1" />
      </g>
      <g
         transform="matrix(-1.984789,0,0,1.94878,255.3808,-843.0689)"
         id="g25746">
        <path
           style="fill:gray;fill-rule:evenodd;stroke:black;stroke-width:1px;stroke-linecap:butt;stroke-linejoin:miter;stroke-opacity:1"
           d="M 65.445192,650.6641 L 66.132023,682.16022 L 70.743603,684.51507 L 70.547365,688.83229 L 74.07964,690.59843 L 74.275878,685.88873 L 78.396864,687.94922 L 78.69122,658.80796"
           id="path25748"
           sodipodi:nodetypes="cccccccc" />
        <path
           style="fill:#ccc;fill-rule:evenodd;stroke:black;stroke-width:1px;stroke-linecap:butt;stroke-linejoin:miter;stroke-opacity:1"
           d="M 49.648077,668.91419 L 67.505685,656.45311 L 78.985576,659.20044 L 65.052717,650.36975 L 57.301337,649.5848 L 39.541848,662.43836 L 49.648077,668.91419 z "
           id="path25750"
           sodipodi:nodetypes="ccccccc" />
      </g>
      <g
         id="g25752"
         transform="matrix(-1.984789,0,0,1.94878,217.1385,-814.7699)">
        <path
           sodipodi:nodetypes="cccccccc"
           id="path25754"
           d="M 65.445192,650.6641 L 66.132023,682.16022 L 70.743603,684.51507 L 70.547365,688.83229 L 74.07964,690.59843 L 74.275878,685.88873 L 78.396864,687.94922 L 78.69122,658.80796"
           style="fill:gray;fill-rule:evenodd;stroke:black;stroke-width:1px;stroke-linecap:butt;stroke-linejoin:miter;stroke-opacity:1" />
        <path
           sodipodi:nodetypes="ccccccc"
           id="path25756"
           d="M 49.648077,668.91419 L 67.505685,656.45311 L 78.985576,659.20044 L 65.052717,650.36975 L 57.301337,649.5848 L 39.541848,662.43836 L 49.648077,668.91419 z "
           style="fill:#ccc;fill-rule:evenodd;stroke:black;stroke-width:1px;stroke-linecap:butt;stroke-linejoin:miter;stroke-opacity:1" />
      </g>
      <g
         transform="matrix(-1.984789,0,0,1.94878,175.837,-781.8813)"
         id="g25758">
        <path
           style="fill:gray;fill-rule:evenodd;stroke:black;stroke-width:1px;stroke-linecap:butt;stroke-linejoin:miter;stroke-opacity:1"
           d="M 65.445192,650.6641 L 66.132023,682.16022 L 70.743603,684.51507 L 70.547365,688.83229 L 74.07964,690.59843 L 74.275878,685.88873 L 78.396864,687.94922 L 78.69122,658.80796"
           id="path25760"
           sodipodi:nodetypes="cccccccc" />
        <path
           style="fill:#ccc;fill-rule:evenodd;stroke:black;stroke-width:1px;stroke-linecap:butt;stroke-linejoin:miter;stroke-opacity:1"
           d="M 49.648077,668.91419 L 67.505685,656.45311 L 78.985576,659.20044 L 65.052717,650.36975 L 57.301337,649.5848 L 39.541848,662.43836 L 49.648077,668.91419 z "
           id="path25762"
           sodipodi:nodetypes="ccccccc" />
      </g>
      <g
         transform="matrix(-2.043457,0,0,2.181988,936.9175,-702.3917)"
         id="g25638">
        <path
           style="fill:#cacaca;fill-opacity:1;fill-rule:evenodd;stroke:black;stroke-width:1px;stroke-linecap:butt;stroke-linejoin:miter;stroke-opacity:1"
           d="M 129.48883,518.94525 L 109.89298,533.51035 L 101.11977,547.32995 L 100.86605,570.40299 L 104.7908,573.15031 L 104.39833,578.64496 L 107.14565,580.21486 L 107.53812,574.03338 L 111.26664,576.19199 L 112.24783,553.91904 L 119.70485,540.18242 L 139.32859,525.66085 L 129.48883,518.94525 z "
           id="path25640"
           sodipodi:nodetypes="ccccccccccccc" />
        <path
           style="fill:none;fill-rule:evenodd;stroke:black;stroke-width:1px;stroke-linecap:butt;stroke-linejoin:miter;stroke-opacity:1"
           d="M 101.57293,547.55026 C 101.71169,548.38282 112.11876,553.7945 112.11876,553.7945"
           id="path25642" />
        <path
           style="fill:none;fill-rule:evenodd;stroke:black;stroke-width:1px;stroke-linecap:butt;stroke-linejoin:miter;stroke-opacity:1"
           d="M 110.31487,533.81294 L 119.33432,539.91841"
           id="path25644" />
      </g>
      <g
         transform="matrix(1.94878,0,0,1.94878,-164.3597,-456.8209)"
         id="g25702">
        <path
           id="path22810"
           d="M 108.88795,511.38398 L 244.12775,604.8978 L 435.05454,453.9398 L 297.16297,363.0978 L 108.88795,511.38398 z "
           style="fill:#747474;fill-opacity:1;fill-rule:evenodd;stroke:black;stroke-width:1.19890332px;stroke-linecap:butt;stroke-linejoin:miter;stroke-opacity:1" />
        <path
           style="fill:#575757;fill-opacity:1;fill-rule:evenodd;stroke:black;stroke-width:1px;stroke-linecap:butt;stroke-linejoin:miter;stroke-opacity:1"
           d="M 124.32971,501.75918 L 237.55855,579.46525 L 397.41104,454.02546 L 281.96202,378.53956 L 124.32971,501.75918 z "
           id="path22808" />
        <path
           style="fill:none;fill-rule:evenodd;stroke:black;stroke-width:1px;stroke-linecap:butt;stroke-linejoin:miter;stroke-opacity:1"
           d="M 237.8398,579.03744 C 237.8398,580.60734 243.72692,604.94078 243.72692,604.94078"
           id="path24582" />
        <path
           style="fill:none;fill-rule:evenodd;stroke:black;stroke-width:1px;stroke-linecap:butt;stroke-linejoin:miter;stroke-opacity:1"
           d="M 397.18461,454.23041 L 434.8622,453.83794"
           id="path24584" />
        <path
           style="fill:none;fill-rule:evenodd;stroke:black;stroke-width:1px;stroke-linecap:butt;stroke-linejoin:miter;stroke-opacity:1"
           d="M 281.40451,378.87523 L 297.88846,363.17623"
           id="path24586" />
        <path
           style="fill:none;fill-rule:evenodd;stroke:black;stroke-width:1px;stroke-linecap:butt;stroke-linejoin:miter;stroke-opacity:1"
           d="M 124.02207,501.71988 L 107.53813,511.53175"
           id="path24588" />
      </g>
      <path
         id="path25766"
         d="M 315.19938,741.96119 L 312.13999,723.60486"
         style="fill:none;fill-rule:evenodd;stroke:black;stroke-width:1.94877958px;stroke-linecap:butt;stroke-linejoin:miter;stroke-opacity:1" />
    </g>
  </g>
</svg>
