<?xml version="1.0" encoding="UTF-8" standalone="no"?>
<svg
   xmlns:dc="http://purl.org/dc/elements/1.1/"
   xmlns:cc="http://creativecommons.org/ns#"
   xmlns:rdf="http://www.w3.org/1999/02/22-rdf-syntax-ns#"
   xmlns:svg="http://www.w3.org/2000/svg"
   xmlns="http://www.w3.org/2000/svg"
   xmlns:sodipodi="http://sodipodi.sourceforge.net/DTD/sodipodi-0.dtd"
   xmlns:inkscape="http://www.inkscape.org/namespaces/inkscape"
   width="1052.3622"
   height="744.09448"
   id="svg2217"
   sodipodi:version="0.32"
   inkscape:version="0.91 r13725"
   sodipodi:docname="logo-muc3.svg"
   version="1.1">
  <metadata
     id="metadata2236">
    <rdf:RDF>
      <cc:Work
         rdf:about="">
        <dc:format>image/svg+xml</dc:format>
        <dc:type
           rdf:resource="http://purl.org/dc/dcmitype/StillImage" />
      </cc:Work>
    </rdf:RDF>
  </metadata>
  <defs
     id="defs2234">
    <linearGradient
       id="linearGradient6518">
      <stop
         style="stop-color:yellow;stop-opacity:1;"
         offset="0"
         id="stop6520" />
      <stop
         id="stop6528"
         offset="0.99000001"
         style="stop-color:yellow;stop-opacity:1;" />
      <stop
         style="stop-color:yellow;stop-opacity:0;"
         offset="1"
         id="stop6522" />
    </linearGradient>
    <linearGradient
       id="linearGradient6506">
      <stop
         style="stop-color:yellow;stop-opacity:1;"
         offset="0"
         id="stop6508" />
      <stop
         id="stop6514"
         offset="1"
         style="stop-color:yellow;stop-opacity:1;" />
      <stop
         style="stop-color:yellow;stop-opacity:0;"
         offset="1"
         id="stop6510" />
    </linearGradient>
  </defs>
  <sodipodi:namedview
     inkscape:window-height="858"
     inkscape:window-width="1426"
     inkscape:pageshadow="2"
     inkscape:pageopacity="1"
     guidetolerance="10.0"
     gridtolerance="10.0"
     objecttolerance="10.0"
     borderopacity="1.0"
     bordercolor="#666666"
     pagecolor="#000000"
     id="base"
     showborder="false"
     inkscape:showpageshadow="true"
     inkscape:zoom="1.1709803"
     inkscape:cx="332.10344"
     inkscape:cy="236.54262"
     inkscape:window-x="21"
     inkscape:window-y="0"
     inkscape:current-layer="text1888"
     showguides="false"
     showgrid="false"
     inkscape:window-maximized="0" />
  <g
     inkscape:groupmode="layer"
     id="layer0"
     style="display:inline">
    <rect
       style="opacity:1;fill:#000000;fill-opacity:1;fill-rule:evenodd;stroke:#000000;stroke-width:6;stroke-miterlimit:4;stroke-dasharray:none;stroke-opacity:1"
       id="rect2543"
       width="100pc"
       height="100pc"
       x="0"
       y="0" />
  </g>
  <g
     inkscape:groupmode="layer"
     id="layer1"
     inkscape:label="chaosknoten"
     style="display:inline"
     transform="translate(175.875485288,182.708881)">
    <g
       id="g2219"
       style="fill:white;opacity:0.25">
      <path
         style="stroke:none;"
         d="M 294.407,7.95792 C 300.62,8.98492 313.524,28.3799 311.961,63.9999 C 307.661,66.2869 302.672,64.9449 299.414,64.8939 C 289.23,62.2119 298.736,35.3389 284.461,25.3479 C 263.79,10.8809 119.447,14.4069 45.5808,21.1209 C 13.592,24.0289 17.478,87.0639 16.8569,120.43 C 16.34,148.198 17.3017,178.549 28.2758,209.36 C 37.7226,235.884 72.5747,226.769 104.247,227.931 C 161.225,227.931 265.228,229.814 277.777,224.806 C 286.869,221.177 290.573,207.834 292.486,199.231 C 295.837,184.162 292.318,173.624 304.308,173.907 C 310.621,174.056 311.863,179.764 310.9,190.679 C 309.899,202.025 306.507,217.12 301.772,234.684 C 298.351,247.372 274.76,244.813 259.144,244.813 C 180.218,242.704 100.45,245.236 24.0554,243.125 C 1.9155,242.514 1.46946,137.911 0.285625,118.923 C -1.10525,96.6069 2.51438,7.01993 21.3615,6.01993 C 35.3674,5.27692 113.628,0.0309143 159.959,0.0189209 C 205.016,0.00692749 252.988,1.11093 294.407,7.95792"
         id="path2221" />
      <path
         style="stroke:none;"
         d="M 223.69,24.0759 C 229.177,39.6919 215.671,64.1719 235.93,72.6129 C 309.368,85.2749 395.047,57.8409 457.512,96.2479 C 474.394,112.708 487.056,131.701 495.075,151.96 L 495.075,142.675 C 485.79,116.929 466.797,94.9819 448.648,72.6129 C 453.713,65.8599 459.622,73.8789 464.686,75.9889 C 483.257,99.2019 502.249,122.838 509.425,150.694 C 510.69,152.382 513.223,155.759 515.333,152.804 L 518.288,149.85 C 511.957,119.884 492.964,95.4039 476.926,69.6579 C 484.101,65.0149 491.276,73.0349 497.185,77.6769 C 509.425,97.9359 522.931,118.195 527.573,141.83 C 530.949,144.362 535.17,139.72 536.858,136.765 C 534.326,118.194 527.994,101.734 520.397,86.1179 C 521.663,84.0079 521.663,81.0529 524.618,81.0529 C 542.767,90.7599 542.345,111.864 548.675,128.324 C 554.584,127.902 557.538,109.331 565.135,120.305 C 567.667,127.058 555.006,137.61 568.09,138.454 C 561.759,168.842 528.416,192.478 499.294,199.231 C 484.1,202.607 463.841,207.249 452.445,195.433 C 454.555,189.946 462.152,189.102 467.639,188.258 C 501.404,186.992 533.481,174.752 553.74,147.74 L 552.896,146.896 C 520.819,168.421 481.146,189.102 441.472,173.064 C 438.096,172.22 436.407,167.577 438.518,165.045 C 439.362,162.513 436.83,161.247 435.563,160.824 C 368.455,163.778 297.967,154.5 232.97,165.051 C 225.84,166.209 225.036,172.797 223.686,178.133 C 220.272,191.644 228.896,210.78 220.862,217.979 C 220.862,217.979 214.926,219.72 210.606,217.802 C 209.595,212.193 206.379,180.658 213.554,163.776 C 222.631,142.419 303.508,149.623 326.888,149.15 C 369.61,148.287 419.526,146.896 459.622,149.851 C 448.226,138.455 430.5,138.033 413.195,138.455 C 358.327,137.611 272.591,137.896 237.819,135.989 C 186.388,133.167 167.977,184.882 135.478,218.647 L 120.284,218.647 C 140.543,190.37 162.381,158.125 190.346,133.391 C 194.855,129.403 197.991,128.776 205.54,126.639 C 226.565,120.686 430.499,127.483 430.499,127.483 C 439.784,129.593 449.914,130.859 458.777,134.657 C 453.712,121.573 437.252,118.197 424.168,116.51 C 351.151,114.4 277.291,116.088 205.54,111.445 C 186.125,105.536 175.996,81.4789 160.801,66.7059 L 128.302,25.3439 L 144.762,26.1879 C 165.865,50.6669 180.337,80.6939 207.649,100.048 C 213.669,104.314 342.251,103.075 410.233,103.002 C 421.193,102.99 444.003,110.177 458.775,118.197 C 461.307,114.821 457.087,111.866 454.554,109.334 C 423.743,79.7899 360.192,88.9909 337.226,89.0699 C 296.941,89.2099 248.993,97.5919 215.667,76.8349 C 207.526,71.7639 208.915,40.9599 212.714,24.0769 L 223.687,24.0769"
         id="path2223" />
      <path
         style="stroke:none;"
         d="M 575.267,153.649 C 568.092,184.038 545.723,211.471 517.444,226.666 C 499.717,230.465 476.926,242.282 462.576,224.556 C 472.284,215.693 490.01,221.602 501.406,214.426 C 530.95,205.985 555.264,179.952 570.202,153.649 C 572.112,152.328 573.397,150.826 575.267,153.649"
         id="path2225" />
      <path
         style="stroke:none;"
         d="M 584.142,179.84 C 579.077,206.008 566.415,233.442 539.403,246.526 C 527.585,252.013 509.015,258.344 498.041,248.636 L 498.041,244.415 C 539.825,246.103 560.928,202.209 577.811,172.665 C 582.454,172.243 582.876,176.463 584.142,179.84"
         id="path2227" />
      <path
         style="stroke:none;"
         d="M 611.567,280.265 C 631.446,284.489 650.816,264.65 655.037,290.396 C 638.154,299.259 615.363,296.727 597.637,291.662 C 593.838,299.259 599.325,307.7 597.637,316.986 C 595.105,341.888 585.819,365.523 563.872,380.717 C 557.515,384.017 556.195,385.964 552.441,386.626 C 553.579,380.924 553.968,376.273 554.941,372.727 C 559.287,369.807 578.444,357.507 579.066,341.043 C 588.773,306.434 578.222,272.247 555.008,246.923 L 570.202,232.995 C 579.065,250.721 589.098,275.49 611.566,280.264"
         id="path2229" />
      <path
         style="stroke:none;"
         d="M 542.769,257.054 C 567.248,304.325 544.457,359.615 538.548,408.152 C 541.08,426.301 543.613,444.871 558.807,457.533 C 557.119,461.754 559.651,472.305 552.898,469.773 C 531.373,458.377 524.198,435.586 524.62,411.951 C 523.776,370.167 546.145,336.824 540.658,294.618 L 536.86,286.6 C 519.555,305.17 500.141,328.384 501.407,357.505 L 490.011,359.615 C 477.349,319.097 521.666,295.872 527.575,259.575 C 527.575,259.575 537.282,255.789 542.769,257.054"
         id="path2231" />
      <path
         style="stroke:none;"
         d="M 488.47856,375 C 456.38563,375 469.68577,392 471.508,392 C 518.88908,392 518.88908,392 518.88908,385 C 518.88908,375 523.88908,375 506.86334,375 C 498.48597,375 498.69368,375 488.47856,375 L 488.47856,375 L 488.47856,375 z "
         id="path1928" />
    </g>
  </g>
  <g
     inkscape:groupmode="layer"
     id="layer2"
     inkscape:label="rhombus"
     style="fill:yellow;stroke:yellow;opacity:1;display:inline"
     transform="translate(175.875485288,182.708881)">
    <g
       id="g2993"
       transform="matrix(0.998795,4.906767e-2,-4.906767e-2,0.998795,-980.8202,11.83299)">
      <rect
         style="opacity:1;stroke-width:0.9432283;stroke-miterlimit:4;stroke-dasharray:none;stroke-opacity:1;display:inline"
         transform="matrix(0.893936,-0.448194,-0.225536,0.974235,0,0)"
         y="763.96448"
         x="1506.5787"
         height="305.51559"
         width="406.72153"
         id="rect3000"
         rx="50"
         ry="50" />
      <rect
         style="opacity:0.386734607000729;stroke-width:0.9432283;stroke-miterlimit:4;stroke-dasharray:none;stroke-opacity:1;display:inline"
         transform="matrix(0.893936,-0.448194,-0.225536,0.974235,0,0)"
         y="762.71448"
         x="1505.3287"
         height="308.01559"
         width="409.22153"
         id="rect3001"
         rx="50"
         ry="50" />
      <rect
         style="opacity:0.27437437388163;stroke-width:0.9432283;stroke-miterlimit:4;stroke-dasharray:none;stroke-opacity:1;display:inline"
         transform="matrix(0.893936,-0.448194,-0.225536,0.974235,0,0)"
         y="761.46448"
         x="1504.0787"
         height="310.51559"
         width="411.72153"
         id="rect3002"
         rx="50"
         ry="50" />
      <rect
         style="opacity:0.211415918902591;stroke-width:0.9432283;stroke-miterlimit:4;stroke-dasharray:none;stroke-opacity:1;display:inline"
         transform="matrix(0.893936,-0.448194,-0.225536,0.974235,0,0)"
         y="760.21448"
         x="1502.8287"
         height="313.01559"
         width="414.22153"
         id="rect3003"
         rx="50"
         ry="50" />
      <rect
         style="opacity:0.171115887773217;stroke-width:0.9432283;stroke-miterlimit:4;stroke-dasharray:none;stroke-opacity:1;display:inline"
         transform="matrix(0.893936,-0.448194,-0.225536,0.974235,0,0)"
         y="758.96448"
         x="1501.5787"
         height="315.51559"
         width="416.72153"
         id="rect3004"
         rx="50"
         ry="50" />
      <rect
         style="opacity:0.143081782680914;stroke-width:0.9432283;stroke-miterlimit:4;stroke-dasharray:none;stroke-opacity:1;display:inline"
         transform="matrix(0.893936,-0.448194,-0.225536,0.974235,0,0)"
         y="757.71448"
         x="1500.3287"
         height="318.01559"
         width="419.22153"
         id="rect3005"
         rx="50"
         ry="50" />
      <rect
         style="opacity:0.122432535699325;stroke-width:0.9432283;stroke-miterlimit:4;stroke-dasharray:none;stroke-opacity:1;display:inline"
         transform="matrix(0.893936,-0.448194,-0.225536,0.974235,0,0)"
         y="756.46448"
         x="1499.0787"
         height="320.51559"
         width="421.72153"
         id="rect3006"
         rx="50"
         ry="50" />
      <rect
         style="opacity:0.106572539577009;stroke-width:0.9432283;stroke-miterlimit:4;stroke-dasharray:none;stroke-opacity:1;display:inline"
         transform="matrix(0.893936,-0.448194,-0.225536,0.974235,0,0)"
         y="755.21448"
         x="1497.8287"
         height="323.01559"
         width="424.22153"
         id="rect3007"
         rx="50"
         ry="50" />
      <rect
         style="opacity:0.0939940966217288;stroke-width:0.9432283;stroke-miterlimit:4;stroke-dasharray:none;stroke-opacity:1;display:inline"
         transform="matrix(0.893936,-0.448194,-0.225536,0.974235,0,0)"
         y="753.96448"
         x="1496.5787"
         height="325.51559"
         width="426.72153"
         id="rect3008"
         rx="50"
         ry="50" />
      <rect
         style="opacity:0.0837614345749945;stroke-width:0.9432283;stroke-miterlimit:4;stroke-dasharray:none;stroke-opacity:1;display:inline"
         transform="matrix(0.893936,-0.448194,-0.225536,0.974235,0,0)"
         y="752.71448"
         x="1495.3287"
         height="328.01559"
         width="429.22153"
         id="rect3009"
         rx="50"
         ry="50" />
      <rect
         style="opacity:0.0752629433661605;stroke-width:0.9432283;stroke-miterlimit:4;stroke-dasharray:none;stroke-opacity:1;display:inline"
         transform="matrix(0.893936,-0.448194,-0.225536,0.974235,0,0)"
         y="751.46448"
         x="1494.0787"
         height="330.51559"
         width="431.72153"
         id="rect3010"
         rx="50"
         ry="50" />
      <rect
         style="opacity:0.0680819356144525;stroke-width:0.9432283;stroke-miterlimit:4;stroke-dasharray:none;stroke-opacity:1;display:inline"
         transform="matrix(0.893936,-0.448194,-0.225536,0.974235,0,0)"
         y="750.21448"
         x="1492.8287"
         height="333.01559"
         width="434.22153"
         id="rect3011"
         rx="50"
         ry="50" />
      <rect
         style="opacity:0.0619246659383993;stroke-width:0.9432283;stroke-miterlimit:4;stroke-dasharray:none;stroke-opacity:1;display:inline"
         transform="matrix(0.893936,-0.448194,-0.225536,0.974235,0,0)"
         y="748.96448"
         x="1491.5787"
         height="335.51559"
         width="436.72153"
         id="rect3012"
         rx="50"
         ry="50" />
      <rect
         style="opacity:0.0565780470830012;stroke-width:0.9432283;stroke-miterlimit:4;stroke-dasharray:none;stroke-opacity:1;display:inline"
         transform="matrix(0.893936,-0.448194,-0.225536,0.974235,0,0)"
         y="747.71448"
         x="1490.3287"
         height="338.01559"
         width="439.22153"
         id="rect3013"
         rx="50"
         ry="50" />
      <rect
         style="opacity:0.0518836876394801;stroke-width:0.9432283;stroke-miterlimit:4;stroke-dasharray:none;stroke-opacity:1;display:inline"
         transform="matrix(0.893936,-0.448194,-0.225536,0.974235,0,0)"
         y="746.46448"
         x="1489.0787"
         height="340.51559"
         width="441.72153"
         id="rect3014"
         rx="50"
         ry="50" />
      <rect
         style="opacity:0.0477213444435692;stroke-width:0.9432283;stroke-miterlimit:4;stroke-dasharray:none;stroke-opacity:1;display:inline"
         transform="matrix(0.893936,-0.448194,-0.225536,0.974235,0,0)"
         y="745.21448"
         x="1487.8287"
         height="343.01559"
         width="444.22153"
         id="rect3015"
         rx="50"
         ry="50" />
      <rect
         style="opacity:0.043998032498192;stroke-width:0.9432283;stroke-miterlimit:4;stroke-dasharray:none;stroke-opacity:1;display:inline"
         transform="matrix(0.893936,-0.448194,-0.225536,0.974235,0,0)"
         y="743.96448"
         x="1486.5787"
         height="345.51559"
         width="446.72153"
         id="rect3016"
         rx="50"
         ry="50" />
      <rect
         style="opacity:0.0406406561878201;stroke-width:0.9432283;stroke-miterlimit:4;stroke-dasharray:none;stroke-opacity:1;display:inline"
         transform="matrix(0.893936,-0.448194,-0.225536,0.974235,0,0)"
         y="742.71448"
         x="1485.3287"
         height="348.01559"
         width="449.22153"
         id="rect3017"
         rx="50"
         ry="50" />
      <rect
         style="opacity:0.037590899950224;stroke-width:0.9432283;stroke-miterlimit:4;stroke-dasharray:none;stroke-opacity:1;display:inline"
         transform="matrix(0.893936,-0.448194,-0.225536,0.974235,0,0)"
         y="741.46448"
         x="1484.0787"
         height="350.51559"
         width="451.72153"
         id="rect3018"
         rx="50"
         ry="50" />
      <rect
         style="opacity:0.0348016078450302;stroke-width:0.9432283;stroke-miterlimit:4;stroke-dasharray:none;stroke-opacity:1;display:inline"
         transform="matrix(0.893936,-0.448194,-0.225536,0.974235,0,0)"
         y="740.21448"
         x="1482.8287"
         height="353.01559"
         width="454.22153"
         id="rect3019"
         rx="50"
         ry="50" />
      <rect
         style="opacity:0.0322341674423484;stroke-width:0.9432283;stroke-miterlimit:4;stroke-dasharray:none;stroke-opacity:1;display:inline"
         transform="matrix(0.893936,-0.448194,-0.225536,0.974235,0,0)"
         y="738.96448"
         x="1481.5787"
         height="355.51559"
         width="456.72153"
         id="rect3020"
         rx="50"
         ry="50" />
      <rect
         style="opacity:0.0298565851994471;stroke-width:0.9432283;stroke-miterlimit:4;stroke-dasharray:none;stroke-opacity:1;display:inline"
         transform="matrix(0.893936,-0.448194,-0.225536,0.974235,0,0)"
         y="737.71448"
         x="1480.3287"
         height="358.01559"
         width="459.22153"
         id="rect3021"
         rx="50"
         ry="50" />
      <rect
         style="opacity:0.0276420464982147;stroke-width:0.9432283;stroke-miterlimit:4;stroke-dasharray:none;stroke-opacity:1;display:inline"
         transform="matrix(0.893936,-0.448194,-0.225536,0.974235,0,0)"
         y="736.46448"
         x="1479.0787"
         height="360.51559"
         width="461.72153"
         id="rect3022"
         rx="50"
         ry="50" />
      <rect
         style="opacity:0.0255678205289411;stroke-width:0.9432283;stroke-miterlimit:4;stroke-dasharray:none;stroke-opacity:1;display:inline"
         transform="matrix(0.893936,-0.448194,-0.225536,0.974235,0,0)"
         y="735.21448"
         x="1477.8287"
         height="363.01559"
         width="464.22153"
         id="rect3023"
         rx="50"
         ry="50" />
      <rect
         style="opacity:0.0236144134343274;stroke-width:0.9432283;stroke-miterlimit:4;stroke-dasharray:none;stroke-opacity:1;display:inline"
         transform="matrix(0.893936,-0.448194,-0.225536,0.974235,0,0)"
         y="733.96448"
         x="1476.5787"
         height="365.51559"
         width="466.72153"
         id="rect3024"
         rx="50"
         ry="50" />
      <rect
         style="opacity:0.0217649014417469;stroke-width:0.9432283;stroke-miterlimit:4;stroke-dasharray:none;stroke-opacity:1;display:inline"
         transform="matrix(0.893936,-0.448194,-0.225536,0.974235,0,0)"
         y="732.71448"
         x="1475.3287"
         height="368.01559"
         width="469.22153"
         id="rect3025"
         rx="50"
         ry="50" />
      <rect
         style="opacity:0.0200043943806465;stroke-width:0.9432283;stroke-miterlimit:4;stroke-dasharray:none;stroke-opacity:1;display:inline"
         transform="matrix(0.893936,-0.448194,-0.225536,0.974235,0,0)"
         y="731.46448"
         x="1474.0787"
         height="370.51559"
         width="471.72153"
         id="rect3026"
         rx="50"
         ry="50" />
      <rect
         style="opacity:0.0183195921414258;stroke-width:0.9432283;stroke-miterlimit:4;stroke-dasharray:none;stroke-opacity:1;display:inline"
         transform="matrix(0.893936,-0.448194,-0.225536,0.974235,0,0)"
         y="730.21448"
         x="1472.8287"
         height="373.01559"
         width="474.22153"
         id="rect3027"
         rx="50"
         ry="50" />
      <rect
         style="opacity:0.0166984040638333;stroke-width:0.9432283;stroke-miterlimit:4;stroke-dasharray:none;stroke-opacity:1;display:inline"
         transform="matrix(0.893936,-0.448194,-0.225536,0.974235,0,0)"
         y="728.96448"
         x="1471.5787"
         height="375.51559"
         width="476.72153"
         id="rect3028"
         rx="50"
         ry="50" />
      <rect
         style="opacity:0.0151296047302115;stroke-width:0.9432283;stroke-miterlimit:4;stroke-dasharray:none;stroke-opacity:1;display:inline"
         transform="matrix(0.893936,-0.448194,-0.225536,0.974235,0,0)"
         y="727.71448"
         x="1470.3287"
         height="378.01559"
         width="479.22153"
         id="rect3029"
         rx="50"
         ry="50" />
      <rect
         style="opacity:0.0136024989730179;stroke-width:0.9432283;stroke-miterlimit:4;stroke-dasharray:none;stroke-opacity:1;display:inline"
         transform="matrix(0.893936,-0.448194,-0.225536,0.974235,0,0)"
         y="726.46448"
         x="1469.0787"
         height="380.51559"
         width="481.72153"
         id="rect3030"
         rx="50"
         ry="50" />
      <rect
         style="opacity:0.0121065624020726;stroke-width:0.9432283;stroke-miterlimit:4;stroke-dasharray:none;stroke-opacity:1;display:inline"
         transform="matrix(0.893936,-0.448194,-0.225536,0.974235,0,0)"
         y="725.21448"
         x="1467.8287"
         height="383.01559"
         width="484.22153"
         id="rect3031"
         rx="50"
         ry="50" />
      <rect
         style="opacity:0.0106310066919613;stroke-width:0.9432283;stroke-miterlimit:4;stroke-dasharray:none;stroke-opacity:1;display:inline"
         transform="matrix(0.893936,-0.448194,-0.225536,0.974235,0,0)"
         y="723.96448"
         x="1466.5787"
         height="385.51559"
         width="486.72153"
         id="rect3032"
         rx="50"
         ry="50" />
      <rect
         style="opacity:0.00916417886757648;stroke-width:0.9432283;stroke-miterlimit:4;stroke-dasharray:none;stroke-opacity:1;display:inline"
         transform="matrix(0.893936,-0.448194,-0.225536,0.974235,0,0)"
         y="722.71448"
         x="1465.3287"
         height="388.01559"
         width="489.22153"
         id="rect3033"
         rx="50"
         ry="50" />
      <rect
         style="opacity:0.00769260604829947;stroke-width:0.9432283;stroke-miterlimit:4;stroke-dasharray:none;stroke-opacity:1;display:inline"
         transform="matrix(0.893936,-0.448194,-0.225536,0.974235,0,0)"
         y="721.46448"
         x="1464.0787"
         height="390.51559"
         width="491.72153"
         id="rect3034"
         rx="50"
         ry="50" />
      <rect
         style="opacity:0.00619922893085822;stroke-width:0.9432283;stroke-miterlimit:4;stroke-dasharray:none;stroke-opacity:1;display:inline"
         transform="matrix(0.893936,-0.448194,-0.225536,0.974235,0,0)"
         y="720.21448"
         x="1462.8287"
         height="393.01559"
         width="494.22153"
         id="rect3035"
         rx="50"
         ry="50" />
      <rect
         style="opacity:0.00465947913846843;stroke-width:0.9432283;stroke-miterlimit:4;stroke-dasharray:none;stroke-opacity:1;display:inline"
         transform="matrix(0.893936,-0.448194,-0.225536,0.974235,0,0)"
         y="718.96448"
         x="1461.5787"
         height="395.51559"
         width="496.72153"
         id="rect3036"
         rx="50"
         ry="50" />
      <rect
         style="opacity:0.00302980865850266;stroke-width:0.9432283;stroke-miterlimit:4;stroke-dasharray:none;stroke-opacity:1;display:inline"
         transform="matrix(0.893936,-0.448194,-0.225536,0.974235,0,0)"
         y="717.71448"
         x="1460.3287"
         height="398.01559"
         width="499.22153"
         id="rect3037"
         rx="50"
         ry="50" />
      <rect
         style="opacity:0.00118046424187845;stroke-width:0.9432283;stroke-miterlimit:4;stroke-dasharray:none;stroke-opacity:1;display:inline"
         transform="matrix(0.893936,-0.448194,-0.225536,0.974235,0,0)"
         y="716.46448"
         x="1459.0787"
         height="400.51559"
         width="501.72153"
         id="rect3038"
         rx="50"
         ry="50" />
      <rect
         style="opacity:0;stroke-width:0.9432283;stroke-miterlimit:4;stroke-dasharray:none;stroke-opacity:1;display:inline"
         transform="matrix(0.893936,-0.448194,-0.225536,0.974235,0,0)"
         y="715.21448"
         x="1457.8287"
         height="403.01559"
         width="504.22153"
         id="rect3039"
         rx="50"
         ry="50" />
    </g>
  </g>
  <g
     inkscape:groupmode="layer"
     id="layer3"
     inkscape:label="µc³"
     style="display:inline;fill:black;"
     transform="translate(175.875485288,182.708881)">
    <g
       transform="translate(12.48528,8.72792)"
       id="g1896">
      <g
         style="font-style:italic;font-variant:normal;font-weight:bold;font-stretch:normal;font-size:224px;line-height:125%;font-family:Utopia;text-align:start;writing-mode:lr-tb;text-anchor:start;opacity:1;fill-opacity:1;stroke:none;stroke-width:1px;stroke-linecap:butt;stroke-linejoin:miter;stroke-opacity:1"
         id="text1949">
        <path
           d="m 395.54615,206.68 c -8.512,13.664 -19.04,28.224 -33.824,28.224 -11.872,0 -15.904,-10.528 -15.904,-24.192 0,-30.464 16.128,-65.856 30.24,-65.856 4.48,0 6.944,3.136 9.856,15.008 1.344,5.6 3.136,10.528 9.184,10.528 7.84,0 19.488,-6.048 19.488,-14.112 0,-12.768 -12.768,-21.728 -33.376,-21.728 -45.92,0 -69.664,43.008 -69.664,77.728 0,27.104 16.352,37.408 36.064,37.408 16.8,0 38.528,-6.272 54.656,-38.304 l -6.72,-4.704 z"
           style=""
           id="path4206" />
      </g>
      <g
         style="font-style:italic;font-variant:normal;font-weight:bold;font-stretch:normal;font-size:224px;line-height:125%;font-family:Utopia;text-align:start;writing-mode:lr-tb;text-anchor:start;fill-opacity:1;stroke:none;stroke-width:1px;stroke-linecap:butt;stroke-linejoin:miter;stroke-opacity:1"
         id="text1888">
        <path
           d="m 269.904,199.96 -6.944,25.536 c -4.032,15.232 2.24,24.192 14.336,24.192 21.728,0 35.392,-17.248 44.576,-35.84 l -6.496,-4.032 c -5.824,10.08 -14.112,21.952 -19.264,21.952 -4.256,0 -4.48,-4.704 -2.688,-10.528 l 22.624,-86.688 -31.808,2.688 c -6.496,22.848 -10.08,34.72 -15.008,45.92 -8.064,19.264 -26.432,48.608 -36.96,48.608 -6.272,0 -6.496,-5.152 -4.256,-13.44 l 21.056,-82.656 -1.12,-1.12 -51.744,5.824 -1.792,7.392 13.216,1.344 c 4.256,0.448 5.152,3.584 3.36,10.304 L 177.84,287.32 c -2.016,8.064 1.12,11.2 6.272,11.2 10.528,0 23.072,-7.392 23.072,-15.456 0,-4.256 -0.896,-8.064 -2.24,-13.216 -1.568,-6.944 -1.344,-15.008 -0.448,-18.592 l 1.344,-5.152 c 2.912,2.24 6.272,3.136 8.064,3.136 22.4,0.448 40.992,-23.296 55.104,-49.28 l 0.896,0 z"
           style=""
           id="path4209" />
      </g>
      <g
         style="font-style:italic;font-variant:normal;font-weight:bold;font-stretch:normal;font-size:224px;line-height:125%;font-family:Utopia;text-align:start;writing-mode:lr-tb;text-anchor:start;fill-opacity:1;stroke:none;stroke-width:1px;stroke-linecap:butt;stroke-linejoin:miter;stroke-opacity:1"
         id="text1892">
        <path
           d="m 453.584,142.168 c 4.256,0 9.184,2.24 9.184,13.44 0,17.024 -7.392,23.52 -12.768,23.52 -6.048,0 -9.632,-4.704 -13.216,-15.68 -1.344,-3.808 -4.032,-6.72 -8.288,-6.72 -6.496,0 -13.44,5.376 -13.44,12.096 0,10.08 12.992,18.816 34.944,18.816 25.984,0 41.44,-10.528 41.44,-28 0,-11.424 -8.96,-18.816 -20.384,-21.28 l 0.224,-0.448 c 10.528,-1.344 24.864,-5.824 24.864,-20.608 0,-13.888 -15.68,-22.624 -33.6,-22.624 -22.4,0 -35.168,10.528 -35.168,19.488 0,6.272 6.272,10.08 10.976,10.08 4.928,0 6.944,-2.912 9.184,-6.72 5.824,-10.08 10.08,-14.336 14.336,-14.336 4.928,0 7.168,4.256 7.168,9.632 0,8.288 -4.928,21.504 -13.664,21.504 -5.824,0 -11.648,-3.136 -15.232,-3.136 -3.136,0 -4.928,3.808 -4.928,8.064 0,3.36 1.568,5.376 4.48,5.376 3.136,0 8.96,-2.464 13.888,-2.464 z"
           style=""
           id="path4212" />
      </g>
    </g>
  </g>
</svg>
