<?xml version="1.0" encoding="UTF-8" standalone="no"?>
<!-- Created with Inkscape (http://www.inkscape.org/) -->

<svg
   xmlns:dc="http://purl.org/dc/elements/1.1/"
   xmlns:cc="http://creativecommons.org/ns#"
   xmlns:rdf="http://www.w3.org/1999/02/22-rdf-syntax-ns#"
   xmlns:svg="http://www.w3.org/2000/svg"
   xmlns="http://www.w3.org/2000/svg"
   xmlns:sodipodi="http://sodipodi.sourceforge.net/DTD/sodipodi-0.dtd"
   xmlns:inkscape="http://www.inkscape.org/namespaces/inkscape"
   id="svg2"
   version="1.1"
   inkscape:version="0.48.4 r9939"
   width="131.10236"
   height="379.13385"
   xml:space="preserve"
   sodipodi:docname="aufkleber-acab.pdf"><metadata
     id="metadata8"><rdf:RDF><cc:Work
         rdf:about=""><dc:format>image/svg+xml</dc:format><dc:type
           rdf:resource="http://purl.org/dc/dcmitype/StillImage" /><dc:title></dc:title></cc:Work></rdf:RDF></metadata><defs
     id="defs6" /><sodipodi:namedview
     pagecolor="#ffffff"
     bordercolor="#666666"
     borderopacity="1"
     objecttolerance="10"
     gridtolerance="10"
     guidetolerance="10"
     inkscape:pageopacity="0"
     inkscape:pageshadow="2"
     inkscape:window-width="1440"
     inkscape:window-height="850"
     id="namedview4"
     showgrid="false"
     inkscape:document-units="mm"
     units="mm"
     inkscape:zoom="0.9541799"
     inkscape:cx="11.528224"
     inkscape:cy="62.007874"
     inkscape:window-x="0"
     inkscape:window-y="0"
     inkscape:window-maximized="1"
     inkscape:current-layer="g10"
     borderlayer="true" /><g
     id="g10"
     inkscape:groupmode="layer"
     inkscape:label="aufkleber-acab"
     transform="matrix(1.25,0,0,-1.25,0,379.13384)"><path
       style="fill:#000000;fill-opacity:1;stroke:#ffffff;stroke-width:0;stroke-miterlimit:4;stroke-opacity:1"
       d="m 0,303.30708 104.88189,0 0,-303.307088078125 -104.88189,0 z"
       inkscape:connector-curvature="0" /><path
       inkscape:connector-curvature="0"
       id="path16"
       style="fill:#00ff00;fill-opacity:1;fill-rule:nonzero;stroke:none"
       d="m 87.73604,66.62999 0,-10.359 c 0,-1.133 -0.914,-2.047 -2.043,-2.047 l -8.633,0 c -1.133,0 -2.047,0.914 -2.047,2.047 l 0,10.359 c 0,1.133 0.914,2.047 2.047,2.047 l 8.633,0 c 1.129,0 2.043,-0.914 2.043,-2.047 z" /><path
       inkscape:connector-curvature="0"
       id="path18"
       style="fill:#00ff00;fill-opacity:1;fill-rule:nonzero;stroke:none"
       d="m 72.91504,66.62999 0,-10.359 c 0,-1.133 -0.914,-2.047 -2.046,-2.047 l -8.629,0 c -1.133,0 -2.047,0.914 -2.047,2.047 l 0,10.359 c 0,1.133 0.914,2.047 2.047,2.047 l 8.629,0 c 1.132,0 2.046,-0.914 2.046,-2.047 z" /><path
       inkscape:connector-curvature="0"
       id="path20"
       style="fill:#00ff00;fill-opacity:1;fill-rule:nonzero;stroke:none"
       d="m 72.91504,50.50099 0,-10.363 c 0,-1.133 -0.914,-2.043 -2.046,-2.043 l -8.629,0 c -1.133,0 -2.047,0.91 -2.047,2.043 l 0,10.363 c 0,1.133 0.914,2.043 2.047,2.043 l 8.629,0 c 1.132,0 2.046,-0.91 2.046,-2.043 z" /><path
       inkscape:connector-curvature="0"
       id="path22"
       style="fill:#00ff00;fill-opacity:1;fill-rule:nonzero;stroke:none"
       d="m 58.09104,66.62999 0,-10.359 c 0,-1.133 -0.91,-2.047 -2.043,-2.047 l -8.633,0 c -1.132,0 -2.042,0.914 -2.042,2.047 l 0,10.359 c 0,1.133 0.91,2.047 2.042,2.047 l 8.633,0 c 1.133,0 2.043,-0.914 2.043,-2.047 z" /><path
       inkscape:connector-curvature="0"
       id="path24"
       style="fill:#00ff00;fill-opacity:1;fill-rule:nonzero;stroke:none"
       d="m 58.09104,34.37199 0,-10.363 c 0,-1.133 -0.91,-2.043 -2.043,-2.043 l -8.633,0 c -1.132,0 -2.042,0.91 -2.042,2.043 l 0,10.363 c 0,1.133 0.91,2.043 2.042,2.043 l 8.633,0 c 1.133,0 2.043,-0.91 2.043,-2.043 z" /><path
       inkscape:connector-curvature="0"
       id="path26"
       style="fill:#00ff00;fill-opacity:1;fill-rule:nonzero;stroke:none"
       d="m 43.22004,66.62999 0,-10.359 c 0,-1.133 -0.91,-2.047 -2.043,-2.047 l -8.633,0 c -1.132,0 -2.043,0.914 -2.043,2.047 l 0,10.359 c 0,1.133 0.911,2.047 2.043,2.047 l 8.633,0 c 1.133,0 2.043,-0.914 2.043,-2.047 z" /><path
       inkscape:connector-curvature="0"
       id="path28"
       style="fill:#00ff00;fill-opacity:1;fill-rule:nonzero;stroke:none"
       d="m 43.22004,50.50099 0,-10.363 c 0,-1.133 -0.91,-2.043 -2.043,-2.043 l -8.633,0 c -1.132,0 -2.043,0.91 -2.043,2.043 l 0,10.363 c 0,1.133 0.911,2.043 2.043,2.043 l 8.633,0 c 1.133,0 2.043,-0.91 2.043,-2.043 z" /><path
       inkscape:connector-curvature="0"
       id="path30"
       style="fill:#ff0000;fill-opacity:1;fill-rule:nonzero;stroke:none"
       d="m 87.73604,212.66099 0,-10.363 c 0,-1.133 -0.914,-2.043 -2.043,-2.043 l -8.633,0 c -1.133,0 -2.047,0.91 -2.047,2.043 l 0,10.363 c 0,1.133 0.914,2.043 2.047,2.043 l 8.633,0 c 1.129,0 2.043,-0.91 2.043,-2.043 z" /><path
       inkscape:connector-curvature="0"
       id="path32"
       style="fill:#ff0000;fill-opacity:1;fill-rule:nonzero;stroke:none"
       d="m 87.73604,196.53199 0,-10.363 c 0,-1.133 -0.914,-2.047 -2.043,-2.047 l -8.633,0 c -1.133,0 -2.047,0.914 -2.047,2.047 l 0,10.363 c 0,1.133 0.914,2.043 2.047,2.043 l 8.633,0 c 1.129,0 2.043,-0.91 2.043,-2.043 z" /><path
       inkscape:connector-curvature="0"
       id="path34"
       style="fill:#ff0000;fill-opacity:1;fill-rule:nonzero;stroke:none"
       d="m 87.73604,180.39899 0,-10.363 c 0,-1.129 -0.914,-2.043 -2.043,-2.043 l -8.633,0 c -1.133,0 -2.047,0.914 -2.047,2.043 l 0,10.363 c 0,1.133 0.914,2.047 2.047,2.047 l 8.633,0 c 1.129,0 2.043,-0.914 2.043,-2.047 z" /><path
       inkscape:connector-curvature="0"
       id="path36"
       style="fill:#ff0000;fill-opacity:1;fill-rule:nonzero;stroke:none"
       d="m 72.91504,212.66099 0,-10.363 c 0,-1.133 -0.914,-2.043 -2.046,-2.043 l -8.629,0 c -1.133,0 -2.047,0.91 -2.047,2.043 l 0,10.363 c 0,1.133 0.914,2.043 2.047,2.043 l 8.629,0 c 1.132,0 2.046,-0.91 2.046,-2.043 z" /><path
       inkscape:connector-curvature="0"
       id="path38"
       style="fill:#ff0000;fill-opacity:1;fill-rule:nonzero;stroke:none"
       d="m 72.91504,180.39899 0,-10.363 c 0,-1.129 -0.914,-2.043 -2.046,-2.043 l -8.629,0 c -1.133,0 -2.047,0.914 -2.047,2.043 l 0,10.363 c 0,1.133 0.914,2.047 2.047,2.047 l 8.629,0 c 1.132,0 2.046,-0.914 2.046,-2.047 z" /><path
       inkscape:connector-curvature="0"
       id="path40"
       style="fill:#ff0000;fill-opacity:1;fill-rule:nonzero;stroke:none"
       d="m 58.09104,212.66099 0,-10.363 c 0,-1.133 -0.91,-2.043 -2.043,-2.043 l -8.633,0 c -1.132,0 -2.042,0.91 -2.042,2.043 l 0,10.363 c 0,1.133 0.91,2.043 2.042,2.043 l 8.633,0 c 1.133,0 2.043,-0.91 2.043,-2.043 z" /><path
       inkscape:connector-curvature="0"
       id="path42"
       style="fill:#ff0000;fill-opacity:1;fill-rule:nonzero;stroke:none"
       d="m 58.09104,196.53199 0,-10.363 c 0,-1.133 -0.91,-2.047 -2.043,-2.047 l -8.633,0 c -1.132,0 -2.042,0.914 -2.042,2.047 l 0,10.363 c 0,1.133 0.91,2.043 2.042,2.043 l 8.633,0 c 1.133,0 2.043,-0.91 2.043,-2.043 z" /><path
       inkscape:connector-curvature="0"
       id="path44"
       style="fill:#ff0000;fill-opacity:1;fill-rule:nonzero;stroke:none"
       d="m 58.09104,180.39899 0,-10.363 c 0,-1.129 -0.91,-2.043 -2.043,-2.043 l -8.633,0 c -1.132,0 -2.042,0.914 -2.042,2.043 l 0,10.363 c 0,1.133 0.91,2.047 2.042,2.047 l 8.633,0 c 1.133,0 2.043,-0.914 2.043,-2.047 z" /><path
       inkscape:connector-curvature="0"
       id="path46"
       style="fill:#ff0000;fill-opacity:1;fill-rule:nonzero;stroke:none"
       d="m 43.22004,212.66099 0,-10.363 c 0,-1.133 -0.91,-2.043 -2.043,-2.043 l -8.633,0 c -1.132,0 -2.043,0.91 -2.043,2.043 l 0,10.363 c 0,1.133 0.911,2.043 2.043,2.043 l 8.633,0 c 1.133,0 2.043,-0.91 2.043,-2.043 z" /><path
       inkscape:connector-curvature="0"
       id="path48"
       style="fill:#ff0000;fill-opacity:1;fill-rule:nonzero;stroke:none"
       d="m 43.22004,180.39899 0,-10.363 c 0,-1.129 -0.91,-2.043 -2.043,-2.043 l -8.633,0 c -1.132,0 -2.043,0.914 -2.043,2.043 l 0,10.363 c 0,1.133 0.911,2.047 2.043,2.047 l 8.633,0 c 1.133,0 2.043,-0.914 2.043,-2.047 z" /><path
       inkscape:connector-curvature="0"
       id="path50"
       style="fill:#ff0000;fill-opacity:1;fill-rule:nonzero;stroke:none"
       d="m 87.73604,212.66099 0,-10.363 c 0,-1.133 -0.914,-2.043 -2.043,-2.043 l -8.633,0 c -1.133,0 -2.047,0.91 -2.047,2.043 l 0,10.363 c 0,1.133 0.914,2.043 2.047,2.043 l 8.633,0 c 1.129,0 2.043,-0.91 2.043,-2.043 z" /><path
       inkscape:connector-curvature="0"
       id="path52"
       style="fill:#ff0000;fill-opacity:1;fill-rule:nonzero;stroke:none"
       d="m 87.73604,196.53199 0,-10.363 c 0,-1.133 -0.914,-2.047 -2.043,-2.047 l -8.633,0 c -1.133,0 -2.047,0.914 -2.047,2.047 l 0,10.363 c 0,1.133 0.914,2.043 2.047,2.043 l 8.633,0 c 1.129,0 2.043,-0.91 2.043,-2.043 z" /><path
       inkscape:connector-curvature="0"
       id="path54"
       style="fill:#ff0000;fill-opacity:1;fill-rule:nonzero;stroke:none"
       d="m 87.73604,180.39899 0,-10.363 c 0,-1.129 -0.914,-2.043 -2.043,-2.043 l -8.633,0 c -1.133,0 -2.047,0.914 -2.047,2.043 l 0,10.363 c 0,1.133 0.914,2.047 2.047,2.047 l 8.633,0 c 1.129,0 2.043,-0.914 2.043,-2.047 z" /><path
       inkscape:connector-curvature="0"
       id="path56"
       style="fill:#ff0000;fill-opacity:1;fill-rule:nonzero;stroke:none"
       d="m 72.91504,180.39899 0,-10.363 c 0,-1.129 -0.914,-2.043 -2.046,-2.043 l -8.629,0 c -1.133,0 -2.047,0.914 -2.047,2.043 l 0,10.363 c 0,1.133 0.914,2.047 2.047,2.047 l 8.629,0 c 1.132,0 2.046,-0.914 2.046,-2.047 z" /><path
       inkscape:connector-curvature="0"
       id="path58"
       style="fill:#ff0000;fill-opacity:1;fill-rule:nonzero;stroke:none"
       d="m 58.09104,196.53199 0,-10.363 c 0,-1.133 -0.91,-2.047 -2.043,-2.047 l -8.633,0 c -1.132,0 -2.042,0.914 -2.042,2.047 l 0,10.363 c 0,1.133 0.91,2.043 2.042,2.043 l 8.633,0 c 1.133,0 2.043,-0.91 2.043,-2.043 z" /><path
       inkscape:connector-curvature="0"
       id="path60"
       style="fill:#ff0000;fill-opacity:1;fill-rule:nonzero;stroke:none"
       d="m 43.22004,180.39899 0,-10.363 c 0,-1.129 -0.91,-2.043 -2.043,-2.043 l -8.633,0 c -1.132,0 -2.043,0.914 -2.043,2.043 l 0,10.363 c 0,1.133 0.911,2.047 2.043,2.047 l 8.633,0 c 1.133,0 2.043,-0.914 2.043,-2.047 z" /><path
       inkscape:connector-curvature="0"
       id="path62"
       style="fill:#00ff00;fill-opacity:1;fill-rule:nonzero;stroke:none"
       d="m 72.91504,34.37199 0,-10.363 c 0,-1.133 -0.914,-2.043 -2.046,-2.043 l -8.629,0 c -1.133,0 -2.047,0.91 -2.047,2.043 l 0,10.363 c 0,1.133 0.914,2.043 2.047,2.043 l 8.629,0 c 1.132,0 2.046,-0.91 2.046,-2.043 z" /><path
       inkscape:connector-curvature="0"
       id="path64"
       style="fill:#00ff00;fill-opacity:1;fill-rule:nonzero;stroke:none"
       d="m 43.22004,34.37199 0,-10.363 c 0,-1.133 -0.91,-2.043 -2.043,-2.043 l -8.633,0 c -1.132,0 -2.043,0.91 -2.043,2.043 l 0,10.363 c 0,1.133 0.911,2.043 2.043,2.043 l 8.633,0 c 1.133,0 2.043,-0.91 2.043,-2.043 z" /><path
       inkscape:connector-curvature="0"
       id="path66"
       style="fill:#00ff00;fill-opacity:1;fill-rule:nonzero;stroke:none"
       d="m 87.73604,66.62999 0,-10.359 c 0,-1.133 -0.914,-2.047 -2.043,-2.047 l -8.633,0 c -1.133,0 -2.047,0.914 -2.047,2.047 l 0,10.359 c 0,1.133 0.914,2.047 2.047,2.047 l 8.633,0 c 1.129,0 2.043,-0.914 2.043,-2.047 z" /><path
       inkscape:connector-curvature="0"
       id="path68"
       style="fill:#00ff00;fill-opacity:1;fill-rule:nonzero;stroke:none"
       d="m 72.91504,66.62999 0,-10.359 c 0,-1.133 -0.914,-2.047 -2.046,-2.047 l -8.629,0 c -1.133,0 -2.047,0.914 -2.047,2.047 l 0,10.359 c 0,1.133 0.914,2.047 2.047,2.047 l 8.629,0 c 1.132,0 2.046,-0.914 2.046,-2.047 z" /><path
       inkscape:connector-curvature="0"
       id="path70"
       style="fill:#00ff00;fill-opacity:1;fill-rule:nonzero;stroke:none"
       d="m 72.91504,50.50099 0,-10.363 c 0,-1.133 -0.914,-2.043 -2.046,-2.043 l -8.629,0 c -1.133,0 -2.047,0.91 -2.047,2.043 l 0,10.363 c 0,1.133 0.914,2.043 2.047,2.043 l 8.629,0 c 1.132,0 2.046,-0.91 2.046,-2.043 z" /><path
       inkscape:connector-curvature="0"
       id="path72"
       style="fill:#00ff00;fill-opacity:1;fill-rule:nonzero;stroke:none"
       d="m 58.09104,66.62999 0,-10.359 c 0,-1.133 -0.91,-2.047 -2.043,-2.047 l -8.633,0 c -1.132,0 -2.042,0.914 -2.042,2.047 l 0,10.359 c 0,1.133 0.91,2.047 2.042,2.047 l 8.633,0 c 1.133,0 2.043,-0.914 2.043,-2.047 z" /><path
       inkscape:connector-curvature="0"
       id="path74"
       style="fill:#00ff00;fill-opacity:1;fill-rule:nonzero;stroke:none"
       d="m 58.09104,34.37199 0,-10.363 c 0,-1.133 -0.91,-2.043 -2.043,-2.043 l -8.633,0 c -1.132,0 -2.042,0.91 -2.042,2.043 l 0,10.363 c 0,1.133 0.91,2.043 2.042,2.043 l 8.633,0 c 1.133,0 2.043,-0.91 2.043,-2.043 z" /><path
       inkscape:connector-curvature="0"
       id="path76"
       style="fill:#00ff00;fill-opacity:1;fill-rule:nonzero;stroke:none"
       d="m 43.22004,66.62999 0,-10.359 c 0,-1.133 -0.91,-2.047 -2.043,-2.047 l -8.633,0 c -1.132,0 -2.043,0.914 -2.043,2.047 l 0,10.359 c 0,1.133 0.911,2.047 2.043,2.047 l 8.633,0 c 1.133,0 2.043,-0.914 2.043,-2.047 z" /><path
       inkscape:connector-curvature="0"
       id="path78"
       style="fill:#00ff00;fill-opacity:1;fill-rule:nonzero;stroke:none"
       d="m 43.22004,50.50099 0,-10.363 c 0,-1.133 -0.91,-2.043 -2.043,-2.043 l -8.633,0 c -1.132,0 -2.043,0.91 -2.043,2.043 l 0,10.363 c 0,1.133 0.911,2.043 2.043,2.043 l 8.633,0 c 1.133,0 2.043,-0.91 2.043,-2.043 z" /><path
       inkscape:connector-curvature="0"
       id="path80"
       style="fill:#ff0000;fill-opacity:1;fill-rule:nonzero;stroke:none"
       d="m 87.73604,115.30599 0,-10.36 c 0,-1.132 -0.914,-2.047 -2.043,-2.047 l -8.633,0 c -1.133,0 -2.047,0.915 -2.047,2.047 l 0,10.36 c 0,1.136 0.914,2.047 2.047,2.047 l 8.633,0 c 1.129,0 2.043,-0.911 2.043,-2.047 z" /><path
       inkscape:connector-curvature="0"
       id="path82"
       style="fill:#ff0000;fill-opacity:1;fill-rule:nonzero;stroke:none"
       d="m 87.73604,99.17699 0,-10.363 c 0,-1.133 -0.914,-2.043 -2.043,-2.043 l -8.633,0 c -1.133,0 -2.047,0.91 -2.047,2.043 l 0,10.363 c 0,1.133 0.914,2.047 2.047,2.047 l 8.633,0 c 1.129,0 2.043,-0.914 2.043,-2.047 z" /><path
       inkscape:connector-curvature="0"
       id="path84"
       style="fill:#ff0000;fill-opacity:1;fill-rule:nonzero;stroke:none"
       d="m 87.73604,83.04799 0,-10.363 c 0,-1.133 -0.914,-2.043 -2.043,-2.043 l -8.633,0 c -1.133,0 -2.047,0.91 -2.047,2.043 l 0,10.363 c 0,1.133 0.914,2.047 2.047,2.047 l 8.633,0 c 1.129,0 2.043,-0.914 2.043,-2.047 z" /><path
       inkscape:connector-curvature="0"
       id="path86"
       style="fill:#ff0000;fill-opacity:1;fill-rule:nonzero;stroke:none"
       d="m 72.91504,115.30599 0,-10.36 c 0,-1.132 -0.914,-2.047 -2.046,-2.047 l -8.629,0 c -1.133,0 -2.047,0.915 -2.047,2.047 l 0,10.36 c 0,1.136 0.914,2.047 2.047,2.047 l 8.629,0 c 1.132,0 2.046,-0.911 2.046,-2.047 z" /><path
       inkscape:connector-curvature="0"
       id="path88"
       style="fill:#ff0000;fill-opacity:1;fill-rule:nonzero;stroke:none"
       d="m 72.91504,83.04799 0,-10.363 c 0,-1.133 -0.914,-2.043 -2.046,-2.043 l -8.629,0 c -1.133,0 -2.047,0.91 -2.047,2.043 l 0,10.363 c 0,1.133 0.914,2.047 2.047,2.047 l 8.629,0 c 1.132,0 2.046,-0.914 2.046,-2.047 z" /><path
       inkscape:connector-curvature="0"
       id="path90"
       style="fill:#ff0000;fill-opacity:1;fill-rule:nonzero;stroke:none"
       d="m 58.09104,115.30599 0,-10.36 c 0,-1.132 -0.91,-2.047 -2.043,-2.047 l -8.633,0 c -1.132,0 -2.042,0.915 -2.042,2.047 l 0,10.36 c 0,1.136 0.91,2.047 2.042,2.047 l 8.633,0 c 1.133,0 2.043,-0.911 2.043,-2.047 z" /><path
       inkscape:connector-curvature="0"
       id="path92"
       style="fill:#ff0000;fill-opacity:1;fill-rule:nonzero;stroke:none"
       d="m 58.09104,99.17699 0,-10.363 c 0,-1.133 -0.91,-2.043 -2.043,-2.043 l -8.633,0 c -1.132,0 -2.042,0.91 -2.042,2.043 l 0,10.363 c 0,1.133 0.91,2.047 2.042,2.047 l 8.633,0 c 1.133,0 2.043,-0.914 2.043,-2.047 z" /><path
       inkscape:connector-curvature="0"
       id="path94"
       style="fill:#ff0000;fill-opacity:1;fill-rule:nonzero;stroke:none"
       d="m 58.09104,83.04799 0,-10.363 c 0,-1.133 -0.91,-2.043 -2.043,-2.043 l -8.633,0 c -1.132,0 -2.042,0.91 -2.042,2.043 l 0,10.363 c 0,1.133 0.91,2.047 2.042,2.047 l 8.633,0 c 1.133,0 2.043,-0.914 2.043,-2.047 z" /><path
       inkscape:connector-curvature="0"
       id="path96"
       style="fill:#ff0000;fill-opacity:1;fill-rule:nonzero;stroke:none"
       d="m 43.22004,115.30599 0,-10.36 c 0,-1.132 -0.91,-2.047 -2.043,-2.047 l -8.633,0 c -1.132,0 -2.043,0.915 -2.043,2.047 l 0,10.36 c 0,1.136 0.911,2.047 2.043,2.047 l 8.633,0 c 1.133,0 2.043,-0.911 2.043,-2.047 z" /><path
       inkscape:connector-curvature="0"
       id="path98"
       style="fill:#ff0000;fill-opacity:1;fill-rule:nonzero;stroke:none"
       d="m 43.22004,83.04799 0,-10.363 c 0,-1.133 -0.91,-2.043 -2.043,-2.043 l -8.633,0 c -1.132,0 -2.043,0.91 -2.043,2.043 l 0,10.363 c 0,1.133 0.911,2.047 2.043,2.047 l 8.633,0 c 1.133,0 2.043,-0.914 2.043,-2.047 z" /><path
       inkscape:connector-curvature="0"
       id="path100"
       style="fill:#ff0000;fill-opacity:1;fill-rule:nonzero;stroke:none"
       d="m 87.73604,115.30599 0,-10.36 c 0,-1.132 -0.914,-2.047 -2.043,-2.047 l -8.633,0 c -1.133,0 -2.047,0.915 -2.047,2.047 l 0,10.36 c 0,1.136 0.914,2.047 2.047,2.047 l 8.633,0 c 1.129,0 2.043,-0.911 2.043,-2.047 z" /><path
       inkscape:connector-curvature="0"
       id="path102"
       style="fill:#ff0000;fill-opacity:1;fill-rule:nonzero;stroke:none"
       d="m 87.73604,83.04799 0,-10.363 c 0,-1.133 -0.914,-2.043 -2.043,-2.043 l -8.633,0 c -1.133,0 -2.047,0.91 -2.047,2.043 l 0,10.363 c 0,1.133 0.914,2.047 2.047,2.047 l 8.633,0 c 1.129,0 2.043,-0.914 2.043,-2.047 z" /><path
       inkscape:connector-curvature="0"
       id="path104"
       style="fill:#ff0000;fill-opacity:1;fill-rule:nonzero;stroke:none"
       d="m 72.91504,115.30599 0,-10.36 c 0,-1.132 -0.914,-2.047 -2.046,-2.047 l -8.629,0 c -1.133,0 -2.047,0.915 -2.047,2.047 l 0,10.36 c 0,1.136 0.914,2.047 2.047,2.047 l 8.629,0 c 1.132,0 2.046,-0.911 2.046,-2.047 z" /><path
       inkscape:connector-curvature="0"
       id="path106"
       style="fill:#ff0000;fill-opacity:1;fill-rule:nonzero;stroke:none"
       d="m 58.09104,115.30599 0,-10.36 c 0,-1.132 -0.91,-2.047 -2.043,-2.047 l -8.633,0 c -1.132,0 -2.042,0.915 -2.042,2.047 l 0,10.36 c 0,1.136 0.91,2.047 2.042,2.047 l 8.633,0 c 1.133,0 2.043,-0.911 2.043,-2.047 z" /><path
       inkscape:connector-curvature="0"
       id="path108"
       style="fill:#ff0000;fill-opacity:1;fill-rule:nonzero;stroke:none"
       d="m 87.73604,99.17699 0,-10.363 c 0,-1.133 -0.914,-2.043 -2.043,-2.043 l -8.633,0 c -1.133,0 -2.047,0.91 -2.047,2.043 l 0,10.363 c 0,1.133 0.914,2.047 2.047,2.047 l 8.633,0 c 1.129,0 2.043,-0.914 2.043,-2.047 z" /><path
       inkscape:connector-curvature="0"
       id="path110"
       style="fill:#ff0000;fill-opacity:1;fill-rule:nonzero;stroke:none"
       d="m 58.09104,99.17699 0,-10.363 c 0,-1.133 -0.91,-2.043 -2.043,-2.043 l -8.633,0 c -1.132,0 -2.042,0.91 -2.042,2.043 l 0,10.363 c 0,1.133 0.91,2.047 2.042,2.047 l 8.633,0 c 1.133,0 2.043,-0.914 2.043,-2.047 z" /><path
       inkscape:connector-curvature="0"
       id="path112"
       style="fill:#ff0000;fill-opacity:1;fill-rule:nonzero;stroke:none"
       d="m 58.09104,83.04799 0,-10.363 c 0,-1.133 -0.91,-2.043 -2.043,-2.043 l -8.633,0 c -1.132,0 -2.042,0.91 -2.042,2.043 l 0,10.363 c 0,1.133 0.91,2.047 2.042,2.047 l 8.633,0 c 1.133,0 2.043,-0.914 2.043,-2.047 z" /><path
       inkscape:connector-curvature="0"
       id="path114"
       style="fill:#ff0000;fill-opacity:1;fill-rule:nonzero;stroke:none"
       d="m 43.22004,115.30599 0,-10.36 c 0,-1.132 -0.91,-2.047 -2.043,-2.047 l -8.633,0 c -1.132,0 -2.043,0.915 -2.043,2.047 l 0,10.36 c 0,1.136 0.911,2.047 2.043,2.047 l 8.633,0 c 1.133,0 2.043,-0.911 2.043,-2.047 z" /><path
       inkscape:connector-curvature="0"
       id="path116"
       style="fill:#ff0000;fill-opacity:1;fill-rule:nonzero;stroke:none"
       d="m 43.22004,83.04799 0,-10.363 c 0,-1.133 -0.91,-2.043 -2.043,-2.043 l -8.633,0 c -1.132,0 -2.043,0.91 -2.043,2.043 l 0,10.363 c 0,1.133 0.911,2.047 2.043,2.047 l 8.633,0 c 1.133,0 2.043,-0.914 2.043,-2.047 z" /><path
       inkscape:connector-curvature="0"
       id="path118"
       style="fill:#ff0000;fill-opacity:1;fill-rule:nonzero;stroke:none"
       d="m 72.91504,83.04799 0,-10.363 c 0,-1.133 -0.914,-2.043 -2.046,-2.043 l -8.629,0 c -1.133,0 -2.047,0.91 -2.047,2.043 l 0,10.363 c 0,1.133 0.914,2.047 2.047,2.047 l 8.629,0 c 1.132,0 2.046,-0.914 2.046,-2.047 z" /><path
       inkscape:connector-curvature="0"
       id="path120"
       style="fill:#00ff00;fill-opacity:1;fill-rule:nonzero;stroke:none"
       d="m 13.52104,99.03599 1.973,0 1.726,0.016 c 1.305,0.015 2.18,0.93 2.18,2.351 0,0.668 -0.168,1.188 -0.496,1.555 -0.367,0.418 -0.696,0.586 -0.797,0.586 -0.051,0 -0.078,-0.023 -0.106,-0.074 l -0.418,-0.801 c -0.011,-0.023 -0.023,-0.051 -0.023,-0.078 0,-0.074 0.207,-0.195 0.523,-0.484 0.168,-0.157 0.286,-0.415 0.286,-0.704 0,-0.675 -0.481,-1.148 -1.149,-1.175 l -0.367,-0.012 c -0.094,0 -0.133,0.039 -0.133,0.129 l 0,1.504 c 0,1.031 -0.68,1.734 -1.617,1.734 l -0.078,0 c -0.942,0 -1.633,-0.703 -1.633,-1.734 l 0,-0.512 c 0,-0.598 0.441,-0.965 0.441,-1.16 0,-0.055 -0.05,-0.094 -0.144,-0.094 l -0.168,0 c -0.09,0 -0.129,-0.039 -0.129,-0.129 l 0,-0.785 c 0,-0.09 0.039,-0.133 0.129,-0.133 z m 2.105,1.18 -0.25,0.012 c -0.613,0.222 -0.941,0.613 -0.941,1.109 l 0,0.512 c 0,0.328 0.25,0.574 0.59,0.574 l 0.207,0 c 0.328,0 0.574,-0.246 0.574,-0.574 l 0,-1.5 c 0,-0.082 -0.051,-0.133 -0.129,-0.133 l -0.051,0 z m -0.929,-7.125 0.418,0.82 c 0.011,0.024 0.023,0.055 0.023,0.078 0,0.078 -0.207,0.196 -0.547,0.481 -0.172,0.144 -0.285,0.41 -0.285,0.719 0,0.668 0.535,1.179 1.176,1.179 l 1.699,0 c 0.637,0 1.172,-0.511 1.172,-1.179 0,-0.536 -0.297,-0.77 -0.73,-1.082 -0.051,-0.04 -0.079,-0.051 -0.079,-0.102 0,-0.016 0,-0.039 0.016,-0.07 l 0.414,-0.832 c 0.027,-0.051 0.055,-0.082 0.109,-0.082 0.27,0 0.782,0.367 1.094,1.058 0.141,0.328 0.223,0.696 0.223,1.11 0,1.425 -0.887,2.351 -2.219,2.351 l -1.699,0 c -1.332,0 -2.223,-0.926 -2.223,-2.351 0,-0.688 0.184,-1.239 0.551,-1.633 0.363,-0.391 0.703,-0.547 0.793,-0.547 0.043,0 0.07,0.027 0.094,0.082 z m -1.176,-5.84 1.973,0 1.726,0.016 c 1.305,0.011 2.18,0.925 2.18,2.351 0,0.668 -0.168,1.188 -0.496,1.555 -0.367,0.418 -0.696,0.586 -0.797,0.586 -0.051,0 -0.078,-0.024 -0.106,-0.078 l -0.418,-0.797 c -0.011,-0.024 -0.023,-0.051 -0.023,-0.078 0,-0.078 0.207,-0.196 0.523,-0.485 0.168,-0.156 0.286,-0.414 0.286,-0.703 0,-0.679 -0.481,-1.148 -1.149,-1.176 l -0.367,-0.015 c -0.094,0 -0.133,0.043 -0.133,0.133 l 0,1.5 c 0,1.031 -0.68,1.738 -1.617,1.738 l -0.078,0 c -0.942,0 -1.633,-0.707 -1.633,-1.738 l 0,-0.508 c 0,-0.602 0.441,-0.969 0.441,-1.164 0,-0.051 -0.05,-0.09 -0.144,-0.09 l -0.168,0 c -0.09,0 -0.129,-0.043 -0.129,-0.129 l 0,-0.785 c 0,-0.094 0.039,-0.133 0.129,-0.133 z m 2.105,1.176 -0.25,0.015 c -0.613,0.223 -0.941,0.614 -0.941,1.11 l 0,0.512 c 0,0.324 0.25,0.574 0.59,0.574 l 0.207,0 c 0.328,0 0.574,-0.25 0.574,-0.574 l 0,-1.504 c 0,-0.078 -0.051,-0.129 -0.129,-0.129 l -0.051,0 0,-0.004 z m -0.015,-7.57 1.437,0 c 1.282,0 2.219,0.953 2.219,2.171 0,0.754 -0.441,1.133 -0.441,1.254 0,0.063 0.066,0.102 0.156,0.102 l 2.508,0 c 0.093,0 0.129,0.043 0.129,0.133 l 0,0.914 c 0,0.094 -0.036,0.129 -0.129,0.129 l -7.969,0 c -0.09,0 -0.129,-0.035 -0.129,-0.129 l 0,-0.785 c 0,-0.094 0.039,-0.129 0.129,-0.129 l 0.156,0 c 0.094,0 0.145,-0.039 0.145,-0.09 0,-0.172 -0.43,-0.524 -0.43,-1.297 0,-1.32 0.902,-2.273 2.219,-2.273 z m 0,1.175 c -0.641,0 -1.176,0.508 -1.176,1.176 0,0.656 0.535,1.176 1.176,1.176 l 1.437,0 c 0.637,0 1.176,-0.52 1.176,-1.176 0,-0.668 -0.539,-1.176 -1.176,-1.176 l -1.437,0 z m -1.633,-3.98 c 0.406,0 0.719,0.316 0.719,0.719 0,0.41 -0.313,0.718 -0.719,0.718 -0.414,0 -0.719,-0.297 -0.719,-0.718 0,-0.418 0.317,-0.719 0.719,-0.719 z m -0.457,-9.281 3.527,0 c 1.293,0 2.219,0.925 2.219,2.218 0,0.461 -0.09,0.825 -0.285,1.125 -0.195,0.301 -0.363,0.43 -0.363,0.496 0,0.055 0.152,0.196 0.351,0.485 0.207,0.301 0.297,0.625 0.297,1.031 0,0.625 -0.441,1.031 -0.441,1.215 0,0.055 0.05,0.094 0.144,0.094 l 0.172,0 c 0.09,0 0.125,0.035 0.125,0.129 l 0,0.785 c 0,0.09 -0.035,0.129 -0.125,0.129 l -5.621,0 c -0.09,0 -0.129,-0.039 -0.129,-0.129 l 0,-0.914 c 0,-0.094 0.039,-0.133 0.129,-0.133 l 3.527,0 c 0.625,0 1.176,-0.524 1.176,-1.047 0,-0.535 -0.539,-1.043 -1.176,-1.043 l -3.527,0 c -0.09,0 -0.129,-0.039 -0.129,-0.129 l 0,-0.914 c 0,-0.094 0.039,-0.133 0.129,-0.133 l 3.527,0 c 0.614,0 1.176,-0.523 1.176,-1.047 0,-0.535 -0.539,-1.043 -1.176,-1.043 l -3.527,0 c -0.09,0 -0.129,-0.039 -0.129,-0.129 l 0,-0.914 c 0,-0.093 0.039,-0.132 0.129,-0.132 z m 0,-6.282 5.621,0 c 0.09,0 0.125,0.043 0.125,0.133 l 0,0.914 c 0,0.094 -0.035,0.133 -0.125,0.133 l -3.531,0 c -0.641,0 -1.176,0.508 -1.176,1.172 0,0.668 0.535,1.18 1.176,1.18 l 3.531,0 c 0.09,0 0.125,0.035 0.125,0.128 l 0,0.915 c 0,0.089 -0.035,0.128 -0.125,0.128 l -3.531,0 c -1.317,0 -2.219,-0.953 -2.219,-2.257 0,-0.758 0.43,-1.137 0.43,-1.305 0,-0.055 -0.051,-0.094 -0.145,-0.094 l -0.156,0 c -0.09,0 -0.129,-0.039 -0.129,-0.133 l 0,-0.781 c 0,-0.09 0.039,-0.133 0.129,-0.133 z m 1.176,-5.961 0.418,0.825 c 0.011,0.023 0.023,0.05 0.023,0.074 0,0.082 -0.207,0.195 -0.547,0.484 -0.172,0.145 -0.285,0.406 -0.285,0.719 0,0.668 0.535,1.18 1.176,1.18 l 1.699,0 c 0.637,0 1.172,-0.512 1.172,-1.18 0,-0.535 -0.297,-0.77 -0.73,-1.082 -0.051,-0.039 -0.079,-0.051 -0.079,-0.102 0,-0.019 0,-0.043 0.016,-0.07 l 0.414,-0.832 c 0.027,-0.055 0.055,-0.082 0.109,-0.082 0.27,0 0.782,0.367 1.094,1.059 0.141,0.328 0.223,0.695 0.223,1.109 0,1.426 -0.887,2.352 -2.219,2.352 l -1.699,0 c -1.332,0 -2.223,-0.926 -2.223,-2.352 0,-0.691 0.184,-1.238 0.551,-1.633 0.363,-0.39 0.703,-0.547 0.793,-0.547 0.043,0 0.07,0.028 0.094,0.078 z m -0.719,-2.636 c 0.406,0 0.719,0.316 0.719,0.718 0,0.411 -0.313,0.719 -0.719,0.719 -0.414,0 -0.719,-0.297 -0.719,-0.719 0,-0.418 0.317,-0.718 0.719,-0.718 z m 0.719,-5.832 0.418,0.824 c 0.011,0.023 0.023,0.051 0.023,0.074 0,0.078 -0.207,0.195 -0.547,0.484 -0.172,0.141 -0.285,0.407 -0.285,0.719 0,0.664 0.535,1.176 1.176,1.176 l 1.699,0 c 0.637,0 1.172,-0.512 1.172,-1.176 0,-0.535 -0.297,-0.773 -0.73,-1.082 -0.051,-0.043 -0.079,-0.054 -0.079,-0.105 0,-0.016 0,-0.039 0.016,-0.067 l 0.414,-0.836 c 0.027,-0.05 0.055,-0.078 0.109,-0.078 0.27,0 0.782,0.367 1.094,1.055 0.141,0.328 0.223,0.695 0.223,1.113 0,1.422 -0.887,2.352 -2.219,2.352 l -1.699,0 c -1.332,0 -2.223,-0.93 -2.223,-2.352 0,-0.691 0.184,-1.238 0.551,-1.636 0.363,-0.391 0.703,-0.547 0.793,-0.547 0.043,0 0.07,0.031 0.094,0.082 z m 0,-5.586 0.418,0.82 c 0.011,0.023 0.023,0.055 0.023,0.078 0,0.078 -0.207,0.195 -0.547,0.481 -0.172,0.144 -0.285,0.41 -0.285,0.718 0,0.668 0.535,1.18 1.176,1.18 l 1.699,0 c 0.637,0 1.172,-0.512 1.172,-1.18 0,-0.535 -0.297,-0.769 -0.73,-1.082 -0.051,-0.039 -0.079,-0.05 -0.079,-0.101 0,-0.016 0,-0.039 0.016,-0.071 l 0.414,-0.832 c 0.027,-0.05 0.055,-0.082 0.109,-0.082 0.27,0 0.782,0.368 1.094,1.059 0.141,0.328 0.223,0.695 0.223,1.109 0,1.426 -0.887,2.352 -2.219,2.352 l -1.699,0 c -1.332,0 -2.223,-0.926 -2.223,-2.352 0,-0.687 0.184,-1.234 0.551,-1.632 0.363,-0.391 0.703,-0.547 0.793,-0.547 0.043,0 0.07,0.027 0.094,0.082 z m 0,-5.59 0.418,0.824 c 0.011,0.024 0.023,0.051 0.023,0.074 0,0.082 -0.207,0.2 -0.547,0.485 -0.172,0.144 -0.285,0.406 -0.285,0.718 0,0.668 0.535,1.18 1.176,1.18 l 1.699,0 c 0.637,0 1.172,-0.512 1.172,-1.18 0,-0.535 -0.297,-0.769 -0.73,-1.082 -0.051,-0.039 -0.079,-0.05 -0.079,-0.105 0,-0.016 0,-0.039 0.016,-0.066 l 0.414,-0.836 c 0.027,-0.051 0.055,-0.079 0.109,-0.079 0.27,0 0.782,0.368 1.094,1.059 0.141,0.328 0.223,0.695 0.223,1.109 0,1.426 -0.887,2.352 -2.219,2.352 l -1.699,0 c -1.332,0 -2.223,-0.926 -2.223,-2.352 0,-0.691 0.184,-1.238 0.551,-1.632 0.363,-0.391 0.703,-0.547 0.793,-0.547 0.043,0 0.07,0.027 0.094,0.078 z m -0.719,-2.637 c 0.406,0 0.719,0.317 0.719,0.719 0,0.41 -0.313,0.719 -0.719,0.719 -0.414,0 -0.719,-0.297 -0.719,-0.719 0,-0.418 0.317,-0.719 0.719,-0.719 z m -0.457,-6.082 7.969,0 c 0.093,0 0.129,0.055 0.129,0.129 l 0,0.914 c 0,0.094 -0.036,0.133 -0.129,0.133 l -2.508,0 c -0.09,0 -0.145,0.039 -0.145,0.09 0,0.187 0.43,0.566 0.43,1.215 0,1.293 -0.937,2.218 -2.219,2.218 l -1.437,0 c -1.317,0 -2.219,-0.937 -2.219,-2.257 0,-0.754 0.43,-1.133 0.43,-1.305 0,-0.051 -0.051,-0.094 -0.145,-0.094 l -0.156,0 c -0.09,0 -0.129,-0.039 -0.129,-0.125 l 0,-0.789 c 0,-0.09 0.039,-0.129 0.129,-0.129 z m 2.09,1.176 c -0.641,0 -1.176,0.523 -1.176,1.176 0,0.664 0.535,1.175 1.176,1.175 l 1.437,0 c 0.637,0 1.176,-0.511 1.176,-1.175 0,-0.653 -0.539,-1.176 -1.176,-1.176 l -1.437,0 z m 0.656,-7.379 0.914,0 c 1.188,0 2.219,1.047 2.219,2.352 0,1.312 -1.031,2.351 -2.219,2.351 l -1.699,0 c -1.332,0 -2.223,-0.926 -2.223,-2.351 0,-0.688 0.184,-1.235 0.551,-1.633 0.363,-0.391 0.703,-0.547 0.793,-0.547 0.043,0 0.07,0.031 0.094,0.082 l 0.418,0.82 c 0.011,0.028 0.023,0.055 0.023,0.078 0,0.078 -0.207,0.196 -0.547,0.481 -0.172,0.144 -0.285,0.41 -0.285,0.719 0,0.668 0.535,1.179 1.176,1.179 l 0.519,0 c 0.094,0 0.133,-0.039 0.133,-0.133 l 0,-3.265 c 0,-0.09 0.039,-0.133 0.133,-0.133 z m 0.781,1.313 0,2.085 c 0,0.122 0.051,0.133 0.196,0.133 0.574,0 1.109,-0.551 1.109,-1.179 0,-0.61 -0.523,-1.172 -1.082,-1.172 -0.156,0 -0.223,0.011 -0.223,0.133 z" /><path
       inkscape:connector-curvature="0"
       id="path122"
       style="fill:#0000ff;fill-opacity:1;fill-rule:nonzero;stroke:none"
       d="m 87.73604,163.98499 0,-10.363 c 0,-1.133 -0.914,-2.047 -2.043,-2.047 l -8.633,0 c -1.133,0 -2.047,0.914 -2.047,2.047 l 0,10.363 c 0,1.133 0.914,2.043 2.047,2.043 l 8.633,0 c 1.129,0 2.043,-0.91 2.043,-2.043 z" /><path
       inkscape:connector-curvature="0"
       id="path124"
       style="fill:#0000ff;fill-opacity:1;fill-rule:nonzero;stroke:none"
       d="m 87.73604,147.85699 0,-10.364 c 0,-1.133 -0.914,-2.047 -2.043,-2.047 l -8.633,0 c -1.133,0 -2.047,0.914 -2.047,2.047 l 0,10.364 c 0,1.128 0.914,2.042 2.047,2.042 l 8.633,0 c 1.129,0 2.043,-0.914 2.043,-2.042 z" /><path
       inkscape:connector-curvature="0"
       id="path126"
       style="fill:#0000ff;fill-opacity:1;fill-rule:nonzero;stroke:none"
       d="m 72.91504,163.98499 0,-10.363 c 0,-1.133 -0.914,-2.047 -2.046,-2.047 l -8.629,0 c -1.133,0 -2.047,0.914 -2.047,2.047 l 0,10.363 c 0,1.133 0.914,2.043 2.047,2.043 l 8.629,0 c 1.132,0 2.046,-0.91 2.046,-2.043 z" /><path
       inkscape:connector-curvature="0"
       id="path128"
       style="fill:#0000ff;fill-opacity:1;fill-rule:nonzero;stroke:none"
       d="m 58.09104,163.98499 0,-10.363 c 0,-1.133 -0.91,-2.047 -2.043,-2.047 l -8.633,0 c -1.132,0 -2.042,0.914 -2.042,2.047 l 0,10.363 c 0,1.133 0.91,2.043 2.042,2.043 l 8.633,0 c 1.133,0 2.043,-0.91 2.043,-2.043 z" /><path
       inkscape:connector-curvature="0"
       id="path130"
       style="fill:#0000ff;fill-opacity:1;fill-rule:nonzero;stroke:none"
       d="m 43.22004,163.98499 0,-10.363 c 0,-1.133 -0.91,-2.047 -2.043,-2.047 l -8.633,0 c -1.132,0 -2.043,0.914 -2.043,2.047 l 0,10.363 c 0,1.133 0.911,2.043 2.043,2.043 l 8.633,0 c 1.133,0 2.043,-0.91 2.043,-2.043 z" /><path
       inkscape:connector-curvature="0"
       id="path132"
       style="fill:#0000ff;fill-opacity:1;fill-rule:nonzero;stroke:none"
       d="m 43.22004,147.85699 0,-10.364 c 0,-1.133 -0.91,-2.047 -2.043,-2.047 l -8.633,0 c -1.132,0 -2.043,0.914 -2.043,2.047 l 0,10.364 c 0,1.128 0.911,2.042 2.043,2.042 l 8.633,0 c 1.133,0 2.043,-0.914 2.043,-2.042 z" /><path
       inkscape:connector-curvature="0"
       id="path134"
       style="fill:#0000ff;fill-opacity:1;fill-rule:nonzero;stroke:none"
       d="m 43.22004,131.72399 0,-10.364 c 0,-1.132 -0.91,-2.043 -2.043,-2.043 l -8.633,0 c -1.132,0 -2.043,0.911 -2.043,2.043 l 0,10.364 c 0,1.133 0.911,2.043 2.043,2.043 l 8.633,0 c 1.133,0 2.043,-0.91 2.043,-2.043 z" /><path
       inkscape:connector-curvature="0"
       id="path136"
       style="fill:#0000ff;fill-opacity:1;fill-rule:nonzero;stroke:none"
       d="m 87.73604,131.72399 0,-10.364 c 0,-1.132 -0.914,-2.043 -2.043,-2.043 l -8.633,0 c -1.133,0 -2.047,0.911 -2.047,2.043 l 0,10.364 c 0,1.133 0.914,2.043 2.047,2.043 l 8.633,0 c 1.129,0 2.043,-0.91 2.043,-2.043 z" /><path
       inkscape:connector-curvature="0"
       id="path138"
       style="fill:#0000ff;fill-opacity:1;fill-rule:nonzero;stroke:none"
       d="m 87.73604,163.98499 0,-10.363 c 0,-1.133 -0.914,-2.047 -2.043,-2.047 l -8.633,0 c -1.133,0 -2.047,0.914 -2.047,2.047 l 0,10.363 c 0,1.133 0.914,2.043 2.047,2.043 l 8.633,0 c 1.129,0 2.043,-0.91 2.043,-2.043 z" /><path
       inkscape:connector-curvature="0"
       id="path140"
       style="fill:#0000ff;fill-opacity:1;fill-rule:nonzero;stroke:none"
       d="m 72.91504,163.98499 0,-10.363 c 0,-1.133 -0.914,-2.047 -2.046,-2.047 l -8.629,0 c -1.133,0 -2.047,0.914 -2.047,2.047 l 0,10.363 c 0,1.133 0.914,2.043 2.047,2.043 l 8.629,0 c 1.132,0 2.046,-0.91 2.046,-2.043 z" /><path
       inkscape:connector-curvature="0"
       id="path142"
       style="fill:#0000ff;fill-opacity:1;fill-rule:nonzero;stroke:none"
       d="m 43.22004,147.85699 0,-10.364 c 0,-1.133 -0.91,-2.047 -2.043,-2.047 l -8.633,0 c -1.132,0 -2.043,0.914 -2.043,2.047 l 0,10.364 c 0,1.128 0.911,2.042 2.043,2.042 l 8.633,0 c 1.133,0 2.043,-0.914 2.043,-2.042 z" /><path
       inkscape:connector-curvature="0"
       id="path144"
       style="fill:#ff0000;fill-opacity:1;fill-rule:nonzero;stroke:none"
       d="m 75.22804,225.28999 3.047,0 2.672,0.02 c 2.023,0.019 3.379,1.437 3.379,3.64 0,1.032 -0.266,1.84 -0.77,2.407 -0.562,0.648 -1.07,0.91 -1.234,0.91 -0.082,0 -0.121,-0.039 -0.16,-0.121 l -0.649,-1.235 c -0.019,-0.039 -0.039,-0.078 -0.039,-0.121 0,-0.117 0.324,-0.301 0.809,-0.746 0.261,-0.242 0.445,-0.645 0.445,-1.094 0,-1.051 -0.75,-1.781 -1.781,-1.82 l -0.567,-0.02 c -0.14,0 -0.199,0.059 -0.199,0.204 l 0,2.324 c 0,1.597 -1.055,2.691 -2.508,2.691 l -0.125,0 c -1.457,0 -2.523,-1.094 -2.523,-2.691 l 0,-0.785 c 0,-0.934 0.683,-1.5 0.683,-1.801 0,-0.082 -0.078,-0.141 -0.222,-0.141 l -0.258,0 c -0.145,0 -0.203,-0.062 -0.203,-0.203 l 0,-1.215 c 0,-0.14 0.058,-0.203 0.203,-0.203 z m 3.254,1.82 -0.383,0.02 c -0.953,0.344 -1.461,0.949 -1.461,1.723 l 0,0.785 c 0,0.508 0.387,0.89 0.91,0.89 l 0.325,0 c 0.507,0 0.89,-0.382 0.89,-0.89 l 0,-2.324 c 0,-0.125 -0.078,-0.204 -0.203,-0.204 l -0.078,0 z m -3.254,-6.257 12.332,0 c 0.145,0 0.203,0.058 0.203,0.203 l 0,1.414 c 0,0.14 -0.058,0.203 -0.203,0.203 l -12.332,0 c -0.145,0 -0.203,-0.063 -0.203,-0.203 l 0,-1.414 c 0,-0.145 0.058,-0.203 0.203,-0.203 z m 0,-4.465 12.332,0 c 0.145,0 0.203,0.058 0.203,0.203 l 0,1.414 c 0,0.144 -0.058,0.203 -0.203,0.203 l -12.332,0 c -0.145,0 -0.203,-0.059 -0.203,-0.203 l 0,-1.414 c 0,-0.145 0.058,-0.203 0.203,-0.203 z" /><path
       inkscape:connector-curvature="0"
       id="path146"
       style="fill:#0000ff;fill-opacity:1;fill-rule:nonzero;stroke:none"
       d="m 62.24404,263.91499 0.64,1.266 c 0.02,0.039 0.039,0.078 0.039,0.117 0,0.121 -0.32,0.305 -0.843,0.742 -0.262,0.227 -0.442,0.629 -0.442,1.106 0,1.027 0.824,1.812 1.809,1.812 l 2.617,0 c 0.984,0 1.809,-0.785 1.809,-1.812 0,-0.821 -0.465,-1.184 -1.125,-1.668 -0.083,-0.059 -0.122,-0.079 -0.122,-0.161 0,-0.019 0,-0.058 0.02,-0.097 l 0.644,-1.285 c 0.04,-0.086 0.079,-0.125 0.157,-0.125 0.426,0 1.211,0.562 1.691,1.629 0.223,0.503 0.344,1.066 0.344,1.707 0,2.199 -1.367,3.621 -3.418,3.621 l -2.617,0 c -2.051,0 -3.418,-1.422 -3.418,-3.621 0,-1.059 0.281,-1.907 0.844,-2.508 0.562,-0.606 1.085,-0.848 1.226,-0.848 0.063,0 0.102,0.039 0.145,0.125 z m 1.203,-8.984 2.617,0 c 2.027,0 3.418,1.426 3.418,3.617 0,2.195 -1.367,3.621 -3.418,3.621 l -2.617,0 c -2.051,0 -3.418,-1.426 -3.418,-3.621 0,-2.191 1.367,-3.617 3.418,-3.617 z m 0,1.808 c -0.985,0 -1.809,0.805 -1.809,1.809 0,1.023 0.824,1.812 1.809,1.812 l 2.617,0 c 0.984,0 1.809,-0.808 1.809,-1.812 0,-1.004 -0.825,-1.809 -1.809,-1.809 l -2.617,0 z m -3.016,-5.953 12.266,0 c 0.14,0 0.203,0.059 0.203,0.203 l 0,1.407 c 0,0.14 -0.063,0.203 -0.203,0.203 l -12.266,0 c -0.141,0 -0.199,-0.063 -0.199,-0.203 l 0,-1.407 c 0,-0.144 0.058,-0.203 0.199,-0.203 z m 3.016,-9.562 2.617,0 c 2.027,0 3.418,1.425 3.418,3.617 0,2.195 -1.367,3.621 -3.418,3.621 l -2.617,0 c -2.051,0 -3.418,-1.426 -3.418,-3.621 0,-2.192 1.367,-3.617 3.418,-3.617 z m 0,1.808 c -0.985,0 -1.809,0.805 -1.809,1.809 0,1.023 0.824,1.812 1.809,1.812 l 2.617,0 c 0.984,0 1.809,-0.808 1.809,-1.812 0,-1.004 -0.825,-1.809 -1.809,-1.809 l -2.617,0 z m -3.016,-11.179 8.645,0 c 0.144,0 0.207,0.062 0.207,0.203 l 0,1.406 c 0,0.141 -0.063,0.199 -0.207,0.199 l -5.43,0 c -0.984,0 -1.809,0.785 -1.809,1.809 0,1.027 0.825,1.812 1.809,1.812 l 5.43,0 c 0.144,0 0.207,0.063 0.207,0.203 l 0,1.407 c 0,0.14 -0.063,0.199 -0.207,0.199 l -5.43,0 c -2.027,0 -3.414,-1.469 -3.414,-3.477 0,-1.168 0.66,-1.75 0.66,-2.011 0,-0.078 -0.078,-0.141 -0.219,-0.141 l -0.242,0 c -0.141,0 -0.199,-0.063 -0.199,-0.203 l 0,-1.203 c 0,-0.141 0.058,-0.203 0.199,-0.203 z m 7.078,-7.348 1.508,0 c 0.242,0 0.266,0.277 0.266,1.047 0,1.086 -1.086,1.687 -1.086,1.887 0,0.101 0.078,0.183 0.238,0.183 l 0.641,0 c 0.144,0 0.207,0.059 0.207,0.199 l 0,1.207 c 0,0.141 -0.063,0.204 -0.207,0.204 l -8.645,0 c -0.141,0 -0.199,-0.063 -0.199,-0.204 l 0,-1.406 c 0,-0.144 0.058,-0.203 0.199,-0.203 l 5.231,0 c 1.105,0 1.785,-0.684 1.785,-1.809 0,-0.503 -0.137,-0.804 -0.137,-0.988 0,-0.078 0.078,-0.117 0.199,-0.117 z m 0.422,-4.219 0,-0.601 c 0,-0.864 -0.484,-1.227 -1.125,-1.731 -0.058,-0.058 -0.121,-0.078 -0.121,-0.14 0,-0.02 0.02,-0.079 0.039,-0.118 l 0.586,-1.168 c 0.039,-0.082 0.078,-0.121 0.137,-0.121 0.808,0 2.035,1.289 2.035,3.278 l 0,0.601 c 0,1.934 -1.207,3.239 -2.957,3.239 -1.508,0 -2.09,-0.903 -2.473,-2.817 -0.344,-1.668 -0.445,-2.551 -1.308,-2.551 -0.645,0 -1.168,0.606 -1.168,1.528 l 0,0.601 c 0,0.887 0.504,1.25 1.129,1.735 0.062,0.058 0.121,0.097 0.121,0.156 0,0.023 -0.02,0.062 -0.039,0.101 l -0.586,1.164 c -0.039,0.083 -0.102,0.125 -0.141,0.125 -0.805,0 -2.031,-1.289 -2.031,-3.281 l 0,-0.601 c 0,-2.028 1.226,-3.321 3.035,-3.321 1.57,0 2.094,1.047 2.516,3.2 0.3,1.468 0.503,2.191 1.324,2.191 0.644,0 1.027,-0.523 1.027,-1.469 z" /><path
       inkscape:connector-curvature="0"
       id="path148"
       style="fill:#ff0000;fill-opacity:1;fill-rule:nonzero;stroke:none"
       d="m 45.59104,232.28599 2.989,0 2.617,0.02 c 1.984,0.019 3.308,1.449 3.308,3.668 0,1.039 -0.254,1.851 -0.75,2.425 -0.554,0.649 -1.05,0.915 -1.211,0.915 -0.078,0 -0.117,-0.043 -0.16,-0.122 l -0.633,-1.242 c -0.019,-0.043 -0.035,-0.082 -0.035,-0.125 0,-0.121 0.313,-0.304 0.789,-0.754 0.262,-0.242 0.438,-0.648 0.438,-1.097 0,-1.063 -0.735,-1.793 -1.746,-1.836 l -0.555,-0.02 c -0.137,0 -0.195,0.063 -0.195,0.203 l 0,2.344 c 0,1.61 -1.032,2.711 -2.461,2.711 l -0.117,0 c -1.426,0 -2.477,-1.101 -2.477,-2.711 l 0,-0.793 c 0,-0.941 0.672,-1.508 0.672,-1.812 0,-0.082 -0.078,-0.145 -0.219,-0.145 l -0.254,0 c -0.14,0 -0.199,-0.062 -0.199,-0.203 l 0,-1.223 c 0,-0.144 0.059,-0.203 0.199,-0.203 z m 3.188,1.832 -0.375,0.02 c -0.934,0.347 -1.426,0.957 -1.426,1.734 l 0,0.793 c 0,0.512 0.375,0.899 0.891,0.899 l 0.316,0 c 0.496,0 0.871,-0.387 0.871,-0.899 l 0,-2.344 c 0,-0.121 -0.078,-0.203 -0.195,-0.203 l -0.082,0 z m 3.785,-9.261 1.488,0 c 0.238,0 0.258,0.289 0.258,1.062 0,1.098 -1.07,1.711 -1.07,1.914 0,0.102 0.082,0.184 0.234,0.184 l 0.637,0 c 0.14,0 0.199,0.062 0.199,0.203 l 0,1.222 c 0,0.141 -0.059,0.204 -0.199,0.204 l -8.52,0 c -0.14,0 -0.199,-0.063 -0.199,-0.204 l 0,-1.425 c 0,-0.145 0.059,-0.203 0.199,-0.203 l 5.149,0 c 1.09,0 1.765,-0.692 1.765,-1.836 0,-0.508 -0.14,-0.813 -0.14,-0.996 0,-0.079 0.082,-0.125 0.199,-0.125 z m -2.813,-8.485 1.391,0 c 1.801,0 3.363,1.629 3.363,3.668 0,2.035 -1.562,3.664 -3.363,3.664 l -2.582,0 c -2.02,0 -3.367,-1.445 -3.367,-3.664 0,-1.082 0.277,-1.933 0.832,-2.547 0.555,-0.609 1.07,-0.855 1.211,-0.855 0.058,0 0.097,0.043 0.137,0.121 l 0.632,1.285 c 0.02,0.039 0.039,0.082 0.039,0.121 0,0.125 -0.312,0.305 -0.828,0.754 -0.261,0.223 -0.441,0.629 -0.441,1.121 0,1.039 0.816,1.832 1.785,1.832 l 0.797,0 c 0.137,0 0.195,-0.062 0.195,-0.203 l 0,-5.094 c 0,-0.144 0.059,-0.203 0.199,-0.203 z m 1.188,2.035 0,3.262 c 0,0.184 0.082,0.203 0.297,0.203 0.875,0 1.683,-0.855 1.683,-1.832 0,-0.957 -0.789,-1.836 -1.644,-1.836 -0.235,0 -0.336,0.02 -0.336,0.203 z" /><path
       inkscape:connector-curvature="0"
       id="path150"
       style="fill:#00ff00;fill-opacity:1;fill-rule:nonzero;stroke:none"
       d="m 33.94704,275.36399 2.218,0 c 1.981,0 3.434,1.473 3.434,3.348 0,1.176 -0.687,1.758 -0.687,1.941 0,0.098 0.101,0.161 0.242,0.161 l 3.875,0 c 0.144,0 0.203,0.058 0.203,0.203 l 0,1.414 c 0,0.136 -0.059,0.199 -0.203,0.199 l -12.313,0 c -0.144,0 -0.203,-0.063 -0.203,-0.199 l 0,-1.215 c 0,-0.141 0.059,-0.199 0.203,-0.199 l 0.239,0 c 0.144,0 0.226,-0.063 0.226,-0.145 0,-0.258 -0.668,-0.805 -0.668,-1.996 0,-2.039 1.391,-3.512 3.434,-3.512 z m 0,1.817 c -0.992,0 -1.817,0.785 -1.817,1.816 0,1.008 0.825,1.817 1.817,1.817 l 2.218,0 c 0.993,0 1.817,-0.809 1.817,-1.817 0,-1.031 -0.824,-1.816 -1.817,-1.816 l -2.218,0 z m 1.008,-11.098 1.414,0 c 1.836,0 3.429,1.613 3.429,3.633 0,2.019 -1.593,3.633 -3.429,3.633 l -2.625,0 c -2.063,0 -3.434,-1.434 -3.434,-3.633 0,-1.07 0.281,-1.918 0.848,-2.524 0.566,-0.605 1.09,-0.847 1.23,-0.847 0.059,0 0.106,0.039 0.145,0.121 l 0.648,1.269 c 0.02,0.04 0.039,0.086 0.039,0.125 0,0.122 -0.324,0.301 -0.851,0.747 -0.258,0.218 -0.442,0.625 -0.442,1.109 0,1.031 0.824,1.816 1.817,1.816 l 0.804,0 c 0.145,0 0.203,-0.058 0.203,-0.203 l 0,-5.047 c 0,-0.14 0.063,-0.199 0.204,-0.199 z m 1.21,2.016 0,3.23 c 0,0.184 0.083,0.203 0.305,0.203 0.887,0 1.715,-0.843 1.715,-1.816 0,-0.949 -0.809,-1.817 -1.676,-1.817 -0.242,0 -0.344,0.02 -0.344,0.2 z m -5.449,-11.321 3.047,0 2.668,0.02 c 2.016,0.019 3.367,1.434 3.367,3.633 0,1.031 -0.261,1.836 -0.765,2.402 -0.567,0.649 -1.071,0.906 -1.231,0.906 -0.082,0 -0.125,-0.039 -0.164,-0.117 l -0.644,-1.234 c -0.02,-0.043 -0.043,-0.082 -0.043,-0.121 0,-0.121 0.324,-0.305 0.808,-0.746 0.262,-0.243 0.446,-0.649 0.446,-1.09 0,-1.051 -0.747,-1.778 -1.774,-1.817 l -0.57,-0.019 c -0.137,0 -0.199,0.058 -0.199,0.199 l 0,2.324 c 0,1.59 -1.051,2.68 -2.508,2.68 l -0.117,0 c -1.454,0 -2.524,-1.09 -2.524,-2.68 l 0,-0.789 c 0,-0.93 0.688,-1.496 0.688,-1.797 0,-0.082 -0.082,-0.14 -0.227,-0.14 l -0.258,0 c -0.144,0 -0.203,-0.063 -0.203,-0.2 l 0,-1.214 c 0,-0.141 0.059,-0.2 0.203,-0.2 z m 3.25,1.817 -0.383,0.019 c -0.949,0.344 -1.453,0.946 -1.453,1.715 l 0,0.789 c 0,0.5 0.383,0.887 0.907,0.887 l 0.324,0 c 0.5,0 0.887,-0.387 0.887,-0.887 l 0,-2.324 c 0,-0.121 -0.083,-0.199 -0.204,-0.199 l -0.078,0 z m -3.25,-11.504 8.68,0 c 0.141,0 0.203,0.062 0.203,0.203 l 0,1.414 c 0,0.141 -0.062,0.199 -0.203,0.199 l -5.449,0 c -0.992,0 -1.817,0.789 -1.817,1.821 0,1.031 0.825,1.816 1.817,1.816 l 5.449,0 c 0.141,0 0.203,0.059 0.203,0.199 l 0,1.414 c 0,0.145 -0.062,0.203 -0.203,0.203 l -5.449,0 c -2.043,0 -3.434,-1.472 -3.434,-3.492 0,-1.172 0.668,-1.758 0.668,-2.019 0,-0.082 -0.082,-0.141 -0.226,-0.141 l -0.239,0 c -0.144,0 -0.203,-0.059 -0.203,-0.203 l 0,-1.211 c 0,-0.141 0.059,-0.203 0.203,-0.203 z m -0.183,-6.672 1.211,0 c 0.121,0 0.16,0.063 0.203,0.16 0.261,0.61 0.402,1.031 0.625,1.215 0.383,0.305 0.746,0.441 1.172,0.441 l 4.039,0 c 0.14,0 0.199,-0.058 0.199,-0.203 l 0,-1.414 c 0,-0.136 0.058,-0.199 0.203,-0.199 l 1.211,0 c 0.141,0 0.203,0.063 0.203,0.199 l 0,1.414 c 0,0.145 0.059,0.203 0.199,0.203 l 1.414,0 c 0.145,0 0.203,0.063 0.203,0.204 l 0,0.625 -0.058,0.144 -2.465,2.317 -0.707,0.042 c -0.145,0 -0.203,-0.062 -0.203,-0.199 l 0,-1.113 c 0,-0.141 -0.059,-0.203 -0.199,-0.203 l -4.039,0 c -2.02,0 -3.414,-1.59 -3.414,-3.25 0,-0.281 0.023,-0.383 0.203,-0.383 z m 11.789,-4.328 c 0.629,0 1.109,0.484 1.109,1.109 0,0.621 -0.48,1.11 -1.109,1.11 -0.645,0 -1.11,-0.489 -1.11,-1.11 0,-0.625 0.489,-1.109 1.11,-1.109 z m -11.606,0.199 8.68,0 c 0.141,0 0.203,0.059 0.203,0.203 l 0,1.414 c 0,0.141 -0.062,0.2 -0.203,0.2 l -8.68,0 c -0.144,0 -0.203,-0.059 -0.203,-0.2 l 0,-1.414 c 0,-0.144 0.059,-0.203 0.203,-0.203 z m 12.375,-7.664 c 0.043,-0.023 0.063,-0.023 0.082,-0.023 0.219,0 0.258,0.363 0.258,1.113 0,1.047 -0.363,1.937 -1.07,2.582 -0.727,0.687 -1.633,1.051 -2.563,1.051 l -0.906,0 c -0.144,0 -0.203,0.062 -0.203,0.203 l 0,0.504 c 0,0.14 -0.059,0.203 -0.199,0.203 l -1.215,0 c -0.141,0 -0.199,-0.063 -0.199,-0.203 l 0,-0.504 c 0,-0.141 -0.063,-0.203 -0.203,-0.203 l -6.157,0 c -0.144,0 -0.203,-0.063 -0.203,-0.2 l 0,-1.414 c 0,-0.144 0.059,-0.203 0.203,-0.203 l 6.157,0 c 0.14,0 0.203,-0.062 0.203,-0.199 l 0,-1.414 c 0,-0.144 0.058,-0.203 0.199,-0.203 l 1.215,0 c 0.14,0 0.199,0.078 0.199,0.203 l 0,1.414 c 0,0.137 0.059,0.199 0.203,0.199 l 1.109,0 c 0.993,0 1.817,-0.789 1.817,-1.816 0,-0.082 -0.02,-0.246 -0.039,-0.484 0,-0.102 0.039,-0.165 0.14,-0.204 l 1.172,-0.402 z m -12.375,-7.801 8.68,0 c 0.141,0 0.203,0.067 0.203,0.203 l 0,1.414 c 0,0.141 -0.062,0.2 -0.203,0.2 l -5.449,0 c -0.992,0 -1.817,0.793 -1.817,1.82 0,1.031 0.825,1.816 1.817,1.816 l 5.449,0 c 0.141,0 0.203,0.063 0.203,0.204 l 0,1.41 c 0,0.144 -0.062,0.203 -0.203,0.203 l -5.449,0 c -2.043,0 -3.434,-1.473 -3.434,-3.492 0,-1.168 0.668,-1.758 0.668,-2.02 0,-0.078 -0.082,-0.141 -0.226,-0.141 l -0.239,0 c -0.144,0 -0.203,-0.058 -0.203,-0.203 l 0,-1.211 c 0,-0.136 0.059,-0.203 0.203,-0.203 z m 0,-4.449 12.313,0 c 0.144,0 0.203,0.059 0.203,0.203 l 0,1.414 c 0,0.141 -0.059,0.199 -0.203,0.199 l -12.313,0 c -0.144,0 -0.203,-0.058 -0.203,-0.199 l 0,-1.414 c 0,-0.144 0.059,-0.203 0.203,-0.203 z" /></g></svg>