<?xml version="1.0" encoding="UTF-8" standalone="no"?>
<!-- Created with Inkscape (http://www.inkscape.org/) -->

<svg
   xmlns:dc="http://purl.org/dc/elements/1.1/"
   xmlns:cc="http://creativecommons.org/ns#"
   xmlns:rdf="http://www.w3.org/1999/02/22-rdf-syntax-ns#"
   xmlns:svg="http://www.w3.org/2000/svg"
   xmlns="http://www.w3.org/2000/svg"
   xmlns:sodipodi="http://sodipodi.sourceforge.net/DTD/sodipodi-0.dtd"
   xmlns:inkscape="http://www.inkscape.org/namespaces/inkscape"
   id="svg2"
   version="1.1"
   inkscape:version="0.48.4 r9939"
   width="379.13385"
   height="131.10236"
   xml:space="preserve"
   sodipodi:docname="aufkleber-acab-purple.svg"><metadata
     id="metadata8"><rdf:RDF><cc:Work
         rdf:about=""><dc:format>image/svg+xml</dc:format><dc:type
           rdf:resource="http://purl.org/dc/dcmitype/StillImage" /><dc:title /></cc:Work></rdf:RDF></metadata><defs
     id="defs6" /><sodipodi:namedview
     pagecolor="#ffffff"
     bordercolor="#666666"
     borderopacity="1"
     objecttolerance="10"
     gridtolerance="10"
     guidetolerance="10"
     inkscape:pageopacity="0"
     inkscape:pageshadow="2"
     inkscape:window-width="1918"
     inkscape:window-height="1030"
     id="namedview4"
     showgrid="false"
     inkscape:document-units="mm"
     units="mm"
     inkscape:zoom="2.8284271"
     inkscape:cx="192.61044"
     inkscape:cy="103.44957"
     inkscape:window-x="0"
     inkscape:window-y="24"
     inkscape:window-maximized="0"
     inkscape:current-layer="g10"
     borderlayer="true" /><g
     id="g10"
     inkscape:groupmode="layer"
     inkscape:label="aufkleber-acab"
     transform="matrix(1.25,0,0,-1.25,0,131.10235)"><path
       style="fill:#000000;fill-opacity:1;stroke:#ffffff;stroke-width:0;stroke-miterlimit:4;stroke-opacity:1"
       d="m -1e-4,-0.006159 0,104.881889 303.30709,0 0,-104.881889 z"
       inkscape:connector-curvature="0"
       id="path7" /><path
       inkscape:connector-curvature="0"
       id="path16"
       style="fill:#00ff00;fill-opacity:1;fill-rule:nonzero;stroke:none"
       d="m 236.67699,87.729881 10.359,0 c 1.133,0 2.047,-0.914 2.047,-2.043 l 0,-8.633 c 0,-1.133 -0.914,-2.047 -2.047,-2.047 l -10.359,0 c -1.133,0 -2.047,0.914 -2.047,2.047 l 0,8.633 c 0,1.129 0.914,2.043 2.047,2.043 z" /><path
       inkscape:connector-curvature="0"
       id="path18"
       style="fill:#00ff00;fill-opacity:1;fill-rule:nonzero;stroke:none"
       d="m 236.67699,72.908881 10.359,0 c 1.133,0 2.047,-0.914 2.047,-2.046 l 0,-8.629 c 0,-1.133 -0.914,-2.047 -2.047,-2.047 l -10.359,0 c -1.133,0 -2.047,0.914 -2.047,2.047 l 0,8.629 c 0,1.132 0.914,2.046 2.047,2.046 z" /><path
       inkscape:connector-curvature="0"
       id="path20"
       style="fill:#00ff00;fill-opacity:1;fill-rule:nonzero;stroke:none"
       d="m 252.80599,72.908881 10.363,0 c 1.133,0 2.043,-0.914 2.043,-2.046 l 0,-8.629 c 0,-1.133 -0.91,-2.047 -2.043,-2.047 l -10.363,0 c -1.133,0 -2.043,0.914 -2.043,2.047 l 0,8.629 c 0,1.132 0.91,2.046 2.043,2.046 z" /><path
       inkscape:connector-curvature="0"
       id="path22"
       style="fill:#00ff00;fill-opacity:1;fill-rule:nonzero;stroke:none"
       d="m 236.67699,58.084881 10.359,0 c 1.133,0 2.047,-0.91 2.047,-2.043 l 0,-8.633 c 0,-1.132 -0.914,-2.042 -2.047,-2.042 l -10.359,0 c -1.133,0 -2.047,0.91 -2.047,2.042 l 0,8.633 c 0,1.133 0.914,2.043 2.047,2.043 z" /><path
       inkscape:connector-curvature="0"
       id="path24"
       style="fill:#00ff00;fill-opacity:1;fill-rule:nonzero;stroke:none"
       d="m 268.93499,58.084881 10.363,0 c 1.133,0 2.043,-0.91 2.043,-2.043 l 0,-8.633 c 0,-1.132 -0.91,-2.042 -2.043,-2.042 l -10.363,0 c -1.133,0 -2.043,0.91 -2.043,2.042 l 0,8.633 c 0,1.133 0.91,2.043 2.043,2.043 z" /><path
       inkscape:connector-curvature="0"
       id="path26"
       style="fill:#00ff00;fill-opacity:1;fill-rule:nonzero;stroke:none"
       d="m 236.67699,43.213881 10.359,0 c 1.133,0 2.047,-0.91 2.047,-2.043 l 0,-8.633 c 0,-1.132 -0.914,-2.043 -2.047,-2.043 l -10.359,0 c -1.133,0 -2.047,0.911 -2.047,2.043 l 0,8.633 c 0,1.133 0.914,2.043 2.047,2.043 z" /><path
       inkscape:connector-curvature="0"
       id="path28"
       style="fill:#00ff00;fill-opacity:1;fill-rule:nonzero;stroke:none"
       d="m 252.80599,43.213881 10.363,0 c 1.133,0 2.043,-0.91 2.043,-2.043 l 0,-8.633 c 0,-1.132 -0.91,-2.043 -2.043,-2.043 l -10.363,0 c -1.133,0 -2.043,0.911 -2.043,2.043 l 0,8.633 c 0,1.133 0.91,2.043 2.043,2.043 z" /><path
       inkscape:connector-curvature="0"
       id="path30"
       style="fill:#ff0000;fill-opacity:1;fill-rule:nonzero;stroke:none"
       d="m 90.64599,87.729881 10.363,0 c 1.133,0 2.043,-0.914 2.043,-2.043 l 0,-8.633 c 0,-1.133 -0.91,-2.047 -2.043,-2.047 l -10.363,0 c -1.133,0 -2.043,0.914 -2.043,2.047 l 0,8.633 c 0,1.129 0.91,2.043 2.043,2.043 z" /><path
       inkscape:connector-curvature="0"
       id="path32"
       style="fill:#ff0000;fill-opacity:1;fill-rule:nonzero;stroke:none"
       d="m 106.77499,87.729881 10.363,0 c 1.133,0 2.047,-0.914 2.047,-2.043 l 0,-8.633 c 0,-1.133 -0.914,-2.047 -2.047,-2.047 l -10.363,0 c -1.133,0 -2.043,0.914 -2.043,2.047 l 0,8.633 c 0,1.129 0.91,2.043 2.043,2.043 z" /><path
       inkscape:connector-curvature="0"
       id="path34"
       style="fill:#ff0000;fill-opacity:1;fill-rule:nonzero;stroke:none"
       d="m 122.90799,87.729881 10.363,0 c 1.129,0 2.043,-0.914 2.043,-2.043 l 0,-8.633 c 0,-1.133 -0.914,-2.047 -2.043,-2.047 l -10.363,0 c -1.133,0 -2.047,0.914 -2.047,2.047 l 0,8.633 c 0,1.129 0.914,2.043 2.047,2.043 z" /><path
       inkscape:connector-curvature="0"
       id="path36"
       style="fill:#ff0000;fill-opacity:1;fill-rule:nonzero;stroke:none"
       d="m 90.64599,72.908881 10.363,0 c 1.133,0 2.043,-0.914 2.043,-2.046 l 0,-8.629 c 0,-1.133 -0.91,-2.047 -2.043,-2.047 l -10.363,0 c -1.133,0 -2.043,0.914 -2.043,2.047 l 0,8.629 c 0,1.132 0.91,2.046 2.043,2.046 z" /><path
       inkscape:connector-curvature="0"
       id="path38"
       style="fill:#ff0000;fill-opacity:1;fill-rule:nonzero;stroke:none"
       d="m 122.90799,72.908881 10.363,0 c 1.129,0 2.043,-0.914 2.043,-2.046 l 0,-8.629 c 0,-1.133 -0.914,-2.047 -2.043,-2.047 l -10.363,0 c -1.133,0 -2.047,0.914 -2.047,2.047 l 0,8.629 c 0,1.132 0.914,2.046 2.047,2.046 z" /><path
       inkscape:connector-curvature="0"
       id="path40"
       style="fill:#ff0000;fill-opacity:1;fill-rule:nonzero;stroke:none"
       d="m 90.64599,58.084881 10.363,0 c 1.133,0 2.043,-0.91 2.043,-2.043 l 0,-8.633 c 0,-1.132 -0.91,-2.042 -2.043,-2.042 l -10.363,0 c -1.133,0 -2.043,0.91 -2.043,2.042 l 0,8.633 c 0,1.133 0.91,2.043 2.043,2.043 z" /><path
       inkscape:connector-curvature="0"
       id="path42"
       style="fill:#ff0000;fill-opacity:1;fill-rule:nonzero;stroke:none"
       d="m 106.77499,58.084881 10.363,0 c 1.133,0 2.047,-0.91 2.047,-2.043 l 0,-8.633 c 0,-1.132 -0.914,-2.042 -2.047,-2.042 l -10.363,0 c -1.133,0 -2.043,0.91 -2.043,2.042 l 0,8.633 c 0,1.133 0.91,2.043 2.043,2.043 z" /><path
       inkscape:connector-curvature="0"
       id="path44"
       style="fill:#ff0000;fill-opacity:1;fill-rule:nonzero;stroke:none"
       d="m 122.90799,58.084881 10.363,0 c 1.129,0 2.043,-0.91 2.043,-2.043 l 0,-8.633 c 0,-1.132 -0.914,-2.042 -2.043,-2.042 l -10.363,0 c -1.133,0 -2.047,0.91 -2.047,2.042 l 0,8.633 c 0,1.133 0.914,2.043 2.047,2.043 z" /><path
       inkscape:connector-curvature="0"
       id="path46"
       style="fill:#ff0000;fill-opacity:1;fill-rule:nonzero;stroke:none"
       d="m 90.64599,43.213881 10.363,0 c 1.133,0 2.043,-0.91 2.043,-2.043 l 0,-8.633 c 0,-1.132 -0.91,-2.043 -2.043,-2.043 l -10.363,0 c -1.133,0 -2.043,0.911 -2.043,2.043 l 0,8.633 c 0,1.133 0.91,2.043 2.043,2.043 z" /><path
       inkscape:connector-curvature="0"
       id="path48"
       style="fill:#ff0000;fill-opacity:1;fill-rule:nonzero;stroke:none"
       d="m 122.90799,43.213881 10.363,0 c 1.129,0 2.043,-0.91 2.043,-2.043 l 0,-8.633 c 0,-1.132 -0.914,-2.043 -2.043,-2.043 l -10.363,0 c -1.133,0 -2.047,0.911 -2.047,2.043 l 0,8.633 c 0,1.133 0.914,2.043 2.047,2.043 z" /><path
       inkscape:connector-curvature="0"
       id="path50"
       style="fill:#ff0000;fill-opacity:1;fill-rule:nonzero;stroke:none"
       d="m 90.64599,87.729881 10.363,0 c 1.133,0 2.043,-0.914 2.043,-2.043 l 0,-8.633 c 0,-1.133 -0.91,-2.047 -2.043,-2.047 l -10.363,0 c -1.133,0 -2.043,0.914 -2.043,2.047 l 0,8.633 c 0,1.129 0.91,2.043 2.043,2.043 z" /><path
       inkscape:connector-curvature="0"
       id="path52"
       style="fill:#ff0000;fill-opacity:1;fill-rule:nonzero;stroke:none"
       d="m 106.77499,87.729881 10.363,0 c 1.133,0 2.047,-0.914 2.047,-2.043 l 0,-8.633 c 0,-1.133 -0.914,-2.047 -2.047,-2.047 l -10.363,0 c -1.133,0 -2.043,0.914 -2.043,2.047 l 0,8.633 c 0,1.129 0.91,2.043 2.043,2.043 z" /><path
       inkscape:connector-curvature="0"
       id="path54"
       style="fill:#ff0000;fill-opacity:1;fill-rule:nonzero;stroke:none"
       d="m 122.90799,87.729881 10.363,0 c 1.129,0 2.043,-0.914 2.043,-2.043 l 0,-8.633 c 0,-1.133 -0.914,-2.047 -2.043,-2.047 l -10.363,0 c -1.133,0 -2.047,0.914 -2.047,2.047 l 0,8.633 c 0,1.129 0.914,2.043 2.047,2.043 z" /><path
       inkscape:connector-curvature="0"
       id="path56"
       style="fill:#ff0000;fill-opacity:1;fill-rule:nonzero;stroke:none"
       d="m 122.90799,72.908881 10.363,0 c 1.129,0 2.043,-0.914 2.043,-2.046 l 0,-8.629 c 0,-1.133 -0.914,-2.047 -2.043,-2.047 l -10.363,0 c -1.133,0 -2.047,0.914 -2.047,2.047 l 0,8.629 c 0,1.132 0.914,2.046 2.047,2.046 z" /><path
       inkscape:connector-curvature="0"
       id="path58"
       style="fill:#ff0000;fill-opacity:1;fill-rule:nonzero;stroke:none"
       d="m 106.77499,58.084881 10.363,0 c 1.133,0 2.047,-0.91 2.047,-2.043 l 0,-8.633 c 0,-1.132 -0.914,-2.042 -2.047,-2.042 l -10.363,0 c -1.133,0 -2.043,0.91 -2.043,2.042 l 0,8.633 c 0,1.133 0.91,2.043 2.043,2.043 z" /><path
       inkscape:connector-curvature="0"
       id="path60"
       style="fill:#ff0000;fill-opacity:1;fill-rule:nonzero;stroke:none"
       d="m 122.90799,43.213881 10.363,0 c 1.129,0 2.043,-0.91 2.043,-2.043 l 0,-8.633 c 0,-1.132 -0.914,-2.043 -2.043,-2.043 l -10.363,0 c -1.133,0 -2.047,0.911 -2.047,2.043 l 0,8.633 c 0,1.133 0.914,2.043 2.047,2.043 z" /><path
       inkscape:connector-curvature="0"
       id="path62"
       style="fill:#00ff00;fill-opacity:1;fill-rule:nonzero;stroke:none"
       d="m 268.93499,72.908881 10.363,0 c 1.133,0 2.043,-0.914 2.043,-2.046 l 0,-8.629 c 0,-1.133 -0.91,-2.047 -2.043,-2.047 l -10.363,0 c -1.133,0 -2.043,0.914 -2.043,2.047 l 0,8.629 c 0,1.132 0.91,2.046 2.043,2.046 z" /><path
       inkscape:connector-curvature="0"
       id="path64"
       style="fill:#00ff00;fill-opacity:1;fill-rule:nonzero;stroke:none"
       d="m 268.93499,43.213881 10.363,0 c 1.133,0 2.043,-0.91 2.043,-2.043 l 0,-8.633 c 0,-1.132 -0.91,-2.043 -2.043,-2.043 l -10.363,0 c -1.133,0 -2.043,0.911 -2.043,2.043 l 0,8.633 c 0,1.133 0.91,2.043 2.043,2.043 z" /><path
       inkscape:connector-curvature="0"
       id="path66"
       style="fill:#00ff00;fill-opacity:1;fill-rule:nonzero;stroke:none"
       d="m 236.67699,87.729881 10.359,0 c 1.133,0 2.047,-0.914 2.047,-2.043 l 0,-8.633 c 0,-1.133 -0.914,-2.047 -2.047,-2.047 l -10.359,0 c -1.133,0 -2.047,0.914 -2.047,2.047 l 0,8.633 c 0,1.129 0.914,2.043 2.047,2.043 z" /><path
       inkscape:connector-curvature="0"
       id="path68"
       style="fill:#00ff00;fill-opacity:1;fill-rule:nonzero;stroke:none"
       d="m 236.67699,72.908881 10.359,0 c 1.133,0 2.047,-0.914 2.047,-2.046 l 0,-8.629 c 0,-1.133 -0.914,-2.047 -2.047,-2.047 l -10.359,0 c -1.133,0 -2.047,0.914 -2.047,2.047 l 0,8.629 c 0,1.132 0.914,2.046 2.047,2.046 z" /><path
       inkscape:connector-curvature="0"
       id="path70"
       style="fill:#00ff00;fill-opacity:1;fill-rule:nonzero;stroke:none"
       d="m 252.80599,72.908881 10.363,0 c 1.133,0 2.043,-0.914 2.043,-2.046 l 0,-8.629 c 0,-1.133 -0.91,-2.047 -2.043,-2.047 l -10.363,0 c -1.133,0 -2.043,0.914 -2.043,2.047 l 0,8.629 c 0,1.132 0.91,2.046 2.043,2.046 z" /><path
       inkscape:connector-curvature="0"
       id="path72"
       style="fill:#00ff00;fill-opacity:1;fill-rule:nonzero;stroke:none"
       d="m 236.67699,58.084881 10.359,0 c 1.133,0 2.047,-0.91 2.047,-2.043 l 0,-8.633 c 0,-1.132 -0.914,-2.042 -2.047,-2.042 l -10.359,0 c -1.133,0 -2.047,0.91 -2.047,2.042 l 0,8.633 c 0,1.133 0.914,2.043 2.047,2.043 z" /><path
       inkscape:connector-curvature="0"
       id="path74"
       style="fill:#00ff00;fill-opacity:1;fill-rule:nonzero;stroke:none"
       d="m 268.93499,58.084881 10.363,0 c 1.133,0 2.043,-0.91 2.043,-2.043 l 0,-8.633 c 0,-1.132 -0.91,-2.042 -2.043,-2.042 l -10.363,0 c -1.133,0 -2.043,0.91 -2.043,2.042 l 0,8.633 c 0,1.133 0.91,2.043 2.043,2.043 z" /><path
       inkscape:connector-curvature="0"
       id="path76"
       style="fill:#00ff00;fill-opacity:1;fill-rule:nonzero;stroke:none"
       d="m 236.67699,43.213881 10.359,0 c 1.133,0 2.047,-0.91 2.047,-2.043 l 0,-8.633 c 0,-1.132 -0.914,-2.043 -2.047,-2.043 l -10.359,0 c -1.133,0 -2.047,0.911 -2.047,2.043 l 0,8.633 c 0,1.133 0.914,2.043 2.047,2.043 z" /><path
       inkscape:connector-curvature="0"
       id="path78"
       style="fill:#00ff00;fill-opacity:1;fill-rule:nonzero;stroke:none"
       d="m 252.80599,43.213881 10.363,0 c 1.133,0 2.043,-0.91 2.043,-2.043 l 0,-8.633 c 0,-1.132 -0.91,-2.043 -2.043,-2.043 l -10.363,0 c -1.133,0 -2.043,0.911 -2.043,2.043 l 0,8.633 c 0,1.133 0.91,2.043 2.043,2.043 z" /><path
       inkscape:connector-curvature="0"
       id="path80"
       style="fill:#ff0000;fill-opacity:1;fill-rule:nonzero;stroke:none"
       d="m 188.00099,87.729881 10.36,0 c 1.132,0 2.047,-0.914 2.047,-2.043 l 0,-8.633 c 0,-1.133 -0.915,-2.047 -2.047,-2.047 l -10.36,0 c -1.136,0 -2.047,0.914 -2.047,2.047 l 0,8.633 c 0,1.129 0.911,2.043 2.047,2.043 z" /><path
       inkscape:connector-curvature="0"
       id="path82"
       style="fill:#ff0000;fill-opacity:1;fill-rule:nonzero;stroke:none"
       d="m 204.12999,87.729881 10.363,0 c 1.133,0 2.043,-0.914 2.043,-2.043 l 0,-8.633 c 0,-1.133 -0.91,-2.047 -2.043,-2.047 l -10.363,0 c -1.133,0 -2.047,0.914 -2.047,2.047 l 0,8.633 c 0,1.129 0.914,2.043 2.047,2.043 z" /><path
       inkscape:connector-curvature="0"
       id="path84"
       style="fill:#ff0000;fill-opacity:1;fill-rule:nonzero;stroke:none"
       d="m 220.25899,87.729881 10.363,0 c 1.133,0 2.043,-0.914 2.043,-2.043 l 0,-8.633 c 0,-1.133 -0.91,-2.047 -2.043,-2.047 l -10.363,0 c -1.133,0 -2.047,0.914 -2.047,2.047 l 0,8.633 c 0,1.129 0.914,2.043 2.047,2.043 z" /><path
       inkscape:connector-curvature="0"
       id="path86"
       style="fill:#ff0000;fill-opacity:1;fill-rule:nonzero;stroke:none"
       d="m 188.00099,72.908881 10.36,0 c 1.132,0 2.047,-0.914 2.047,-2.046 l 0,-8.629 c 0,-1.133 -0.915,-2.047 -2.047,-2.047 l -10.36,0 c -1.136,0 -2.047,0.914 -2.047,2.047 l 0,8.629 c 0,1.132 0.911,2.046 2.047,2.046 z" /><path
       inkscape:connector-curvature="0"
       id="path88"
       style="fill:#ff0000;fill-opacity:1;fill-rule:nonzero;stroke:none"
       d="m 220.25899,72.908881 10.363,0 c 1.133,0 2.043,-0.914 2.043,-2.046 l 0,-8.629 c 0,-1.133 -0.91,-2.047 -2.043,-2.047 l -10.363,0 c -1.133,0 -2.047,0.914 -2.047,2.047 l 0,8.629 c 0,1.132 0.914,2.046 2.047,2.046 z" /><path
       inkscape:connector-curvature="0"
       id="path90"
       style="fill:#ff0000;fill-opacity:1;fill-rule:nonzero;stroke:none"
       d="m 188.00099,58.084881 10.36,0 c 1.132,0 2.047,-0.91 2.047,-2.043 l 0,-8.633 c 0,-1.132 -0.915,-2.042 -2.047,-2.042 l -10.36,0 c -1.136,0 -2.047,0.91 -2.047,2.042 l 0,8.633 c 0,1.133 0.911,2.043 2.047,2.043 z" /><path
       inkscape:connector-curvature="0"
       id="path92"
       style="fill:#ff0000;fill-opacity:1;fill-rule:nonzero;stroke:none"
       d="m 204.12999,58.084881 10.363,0 c 1.133,0 2.043,-0.91 2.043,-2.043 l 0,-8.633 c 0,-1.132 -0.91,-2.042 -2.043,-2.042 l -10.363,0 c -1.133,0 -2.047,0.91 -2.047,2.042 l 0,8.633 c 0,1.133 0.914,2.043 2.047,2.043 z" /><path
       inkscape:connector-curvature="0"
       id="path94"
       style="fill:#ff0000;fill-opacity:1;fill-rule:nonzero;stroke:none"
       d="m 220.25899,58.084881 10.363,0 c 1.133,0 2.043,-0.91 2.043,-2.043 l 0,-8.633 c 0,-1.132 -0.91,-2.042 -2.043,-2.042 l -10.363,0 c -1.133,0 -2.047,0.91 -2.047,2.042 l 0,8.633 c 0,1.133 0.914,2.043 2.047,2.043 z" /><path
       inkscape:connector-curvature="0"
       id="path96"
       style="fill:#ff0000;fill-opacity:1;fill-rule:nonzero;stroke:none"
       d="m 188.00099,43.213881 10.36,0 c 1.132,0 2.047,-0.91 2.047,-2.043 l 0,-8.633 c 0,-1.132 -0.915,-2.043 -2.047,-2.043 l -10.36,0 c -1.136,0 -2.047,0.911 -2.047,2.043 l 0,8.633 c 0,1.133 0.911,2.043 2.047,2.043 z" /><path
       inkscape:connector-curvature="0"
       id="path98"
       style="fill:#ff0000;fill-opacity:1;fill-rule:nonzero;stroke:none"
       d="m 220.25899,43.213881 10.363,0 c 1.133,0 2.043,-0.91 2.043,-2.043 l 0,-8.633 c 0,-1.132 -0.91,-2.043 -2.043,-2.043 l -10.363,0 c -1.133,0 -2.047,0.911 -2.047,2.043 l 0,8.633 c 0,1.133 0.914,2.043 2.047,2.043 z" /><path
       inkscape:connector-curvature="0"
       id="path100"
       style="fill:#ff0000;fill-opacity:1;fill-rule:nonzero;stroke:none"
       d="m 188.00099,87.729881 10.36,0 c 1.132,0 2.047,-0.914 2.047,-2.043 l 0,-8.633 c 0,-1.133 -0.915,-2.047 -2.047,-2.047 l -10.36,0 c -1.136,0 -2.047,0.914 -2.047,2.047 l 0,8.633 c 0,1.129 0.911,2.043 2.047,2.043 z" /><path
       inkscape:connector-curvature="0"
       id="path102"
       style="fill:#ff0000;fill-opacity:1;fill-rule:nonzero;stroke:none"
       d="m 220.25899,87.729881 10.363,0 c 1.133,0 2.043,-0.914 2.043,-2.043 l 0,-8.633 c 0,-1.133 -0.91,-2.047 -2.043,-2.047 l -10.363,0 c -1.133,0 -2.047,0.914 -2.047,2.047 l 0,8.633 c 0,1.129 0.914,2.043 2.047,2.043 z" /><path
       inkscape:connector-curvature="0"
       id="path104"
       style="fill:#ff0000;fill-opacity:1;fill-rule:nonzero;stroke:none"
       d="m 188.00099,72.908881 10.36,0 c 1.132,0 2.047,-0.914 2.047,-2.046 l 0,-8.629 c 0,-1.133 -0.915,-2.047 -2.047,-2.047 l -10.36,0 c -1.136,0 -2.047,0.914 -2.047,2.047 l 0,8.629 c 0,1.132 0.911,2.046 2.047,2.046 z" /><path
       inkscape:connector-curvature="0"
       id="path106"
       style="fill:#ff0000;fill-opacity:1;fill-rule:nonzero;stroke:none"
       d="m 188.00099,58.084881 10.36,0 c 1.132,0 2.047,-0.91 2.047,-2.043 l 0,-8.633 c 0,-1.132 -0.915,-2.042 -2.047,-2.042 l -10.36,0 c -1.136,0 -2.047,0.91 -2.047,2.042 l 0,8.633 c 0,1.133 0.911,2.043 2.047,2.043 z" /><path
       inkscape:connector-curvature="0"
       id="path108"
       style="fill:#ff0000;fill-opacity:1;fill-rule:nonzero;stroke:none"
       d="m 204.12999,87.729881 10.363,0 c 1.133,0 2.043,-0.914 2.043,-2.043 l 0,-8.633 c 0,-1.133 -0.91,-2.047 -2.043,-2.047 l -10.363,0 c -1.133,0 -2.047,0.914 -2.047,2.047 l 0,8.633 c 0,1.129 0.914,2.043 2.047,2.043 z" /><path
       inkscape:connector-curvature="0"
       id="path110"
       style="fill:#ff0000;fill-opacity:1;fill-rule:nonzero;stroke:none"
       d="m 204.12999,58.084881 10.363,0 c 1.133,0 2.043,-0.91 2.043,-2.043 l 0,-8.633 c 0,-1.132 -0.91,-2.042 -2.043,-2.042 l -10.363,0 c -1.133,0 -2.047,0.91 -2.047,2.042 l 0,8.633 c 0,1.133 0.914,2.043 2.047,2.043 z" /><path
       inkscape:connector-curvature="0"
       id="path112"
       style="fill:#ff0000;fill-opacity:1;fill-rule:nonzero;stroke:none"
       d="m 220.25899,58.084881 10.363,0 c 1.133,0 2.043,-0.91 2.043,-2.043 l 0,-8.633 c 0,-1.132 -0.91,-2.042 -2.043,-2.042 l -10.363,0 c -1.133,0 -2.047,0.91 -2.047,2.042 l 0,8.633 c 0,1.133 0.914,2.043 2.047,2.043 z" /><path
       inkscape:connector-curvature="0"
       id="path114"
       style="fill:#ff0000;fill-opacity:1;fill-rule:nonzero;stroke:none"
       d="m 188.00099,43.213881 10.36,0 c 1.132,0 2.047,-0.91 2.047,-2.043 l 0,-8.633 c 0,-1.132 -0.915,-2.043 -2.047,-2.043 l -10.36,0 c -1.136,0 -2.047,0.911 -2.047,2.043 l 0,8.633 c 0,1.133 0.911,2.043 2.047,2.043 z" /><path
       inkscape:connector-curvature="0"
       id="path116"
       style="fill:#ff0000;fill-opacity:1;fill-rule:nonzero;stroke:none"
       d="m 220.25899,43.213881 10.363,0 c 1.133,0 2.043,-0.91 2.043,-2.043 l 0,-8.633 c 0,-1.132 -0.91,-2.043 -2.043,-2.043 l -10.363,0 c -1.133,0 -2.047,0.911 -2.047,2.043 l 0,8.633 c 0,1.133 0.914,2.043 2.047,2.043 z" /><path
       inkscape:connector-curvature="0"
       id="path118"
       style="fill:#ff0000;fill-opacity:1;fill-rule:nonzero;stroke:none"
       d="m 220.25899,72.908881 10.363,0 c 1.133,0 2.043,-0.914 2.043,-2.046 l 0,-8.629 c 0,-1.133 -0.91,-2.047 -2.043,-2.047 l -10.363,0 c -1.133,0 -2.047,0.914 -2.047,2.047 l 0,8.629 c 0,1.132 0.914,2.046 2.047,2.046 z" /><path
       inkscape:connector-curvature="0"
       id="path120"
       style="fill:#00ff00;fill-opacity:1;fill-rule:nonzero;stroke:none"
       d="m 204.27099,13.514881 0,1.973 -0.016,1.726 c -0.015,1.305 -0.93,2.18 -2.351,2.18 -0.668,0 -1.188,-0.168 -1.555,-0.496 -0.418,-0.367 -0.586,-0.696 -0.586,-0.797 0,-0.051 0.023,-0.078 0.074,-0.106 l 0.801,-0.418 c 0.023,-0.011 0.051,-0.023 0.078,-0.023 0.074,0 0.195,0.207 0.484,0.523 0.157,0.168 0.415,0.286 0.704,0.286 0.675,0 1.148,-0.481 1.175,-1.149 l 0.012,-0.367 c 0,-0.094 -0.039,-0.133 -0.129,-0.133 l -1.504,0 c -1.031,0 -1.734,-0.68 -1.734,-1.617 l 0,-0.078 c 0,-0.942 0.703,-1.633 1.734,-1.633 l 0.512,0 c 0.598,0 0.965,0.441 1.16,0.441 0.055,0 0.094,-0.05 0.094,-0.144 l 0,-0.168 c 0,-0.09 0.039,-0.129 0.129,-0.129 l 0.785,0 c 0.09,0 0.133,0.039 0.133,0.129 z m -1.18,2.105 -0.012,-0.25 c -0.222,-0.613 -0.613,-0.941 -1.109,-0.941 l -0.512,0 c -0.328,0 -0.574,0.25 -0.574,0.59 l 0,0.207 c 0,0.328 0.246,0.574 0.574,0.574 l 1.5,0 c 0.082,0 0.133,-0.051 0.133,-0.129 l 0,-0.051 z m 7.125,-0.929 -0.82,0.418 c -0.024,0.011 -0.055,0.023 -0.078,0.023 -0.078,0 -0.196,-0.207 -0.481,-0.547 -0.144,-0.172 -0.41,-0.285 -0.719,-0.285 -0.668,0 -1.179,0.535 -1.179,1.176 l 0,1.699 c 0,0.637 0.511,1.172 1.179,1.172 0.536,0 0.77,-0.297 1.082,-0.73 0.04,-0.051 0.051,-0.079 0.102,-0.079 0.016,0 0.039,0 0.07,0.016 l 0.832,0.414 c 0.051,0.027 0.082,0.055 0.082,0.109 0,0.27 -0.367,0.782 -1.058,1.094 -0.328,0.141 -0.696,0.223 -1.11,0.223 -1.425,0 -2.351,-0.887 -2.351,-2.219 l 0,-1.699 c 0,-1.332 0.926,-2.223 2.351,-2.223 0.688,0 1.239,0.184 1.633,0.551 0.391,0.363 0.547,0.703 0.547,0.793 0,0.043 -0.027,0.07 -0.082,0.094 z m 5.84,-1.176 0,1.973 -0.016,1.726 c -0.011,1.305 -0.925,2.18 -2.351,2.18 -0.668,0 -1.188,-0.168 -1.555,-0.496 -0.418,-0.367 -0.586,-0.696 -0.586,-0.797 0,-0.051 0.024,-0.078 0.078,-0.106 l 0.797,-0.418 c 0.024,-0.011 0.051,-0.023 0.078,-0.023 0.078,0 0.196,0.207 0.485,0.523 0.156,0.168 0.414,0.286 0.703,0.286 0.679,0 1.148,-0.481 1.176,-1.149 l 0.015,-0.367 c 0,-0.094 -0.043,-0.133 -0.133,-0.133 l -1.5,0 c -1.031,0 -1.738,-0.68 -1.738,-1.617 l 0,-0.078 c 0,-0.942 0.707,-1.633 1.738,-1.633 l 0.508,0 c 0.602,0 0.969,0.441 1.164,0.441 0.051,0 0.09,-0.05 0.09,-0.144 l 0,-0.168 c 0,-0.09 0.043,-0.129 0.129,-0.129 l 0.785,0 c 0.094,0 0.133,0.039 0.133,0.129 z m -1.176,2.105 -0.015,-0.25 c -0.223,-0.613 -0.614,-0.941 -1.11,-0.941 l -0.512,0 c -0.324,0 -0.574,0.25 -0.574,0.59 l 0,0.207 c 0,0.328 0.25,0.574 0.574,0.574 l 1.504,0 c 0.078,0 0.129,-0.051 0.129,-0.129 l 0,-0.051 0.004,0 z m 7.57,-0.015 0,1.437 c 0,1.282 -0.953,2.219 -2.171,2.219 -0.754,0 -1.133,-0.441 -1.254,-0.441 -0.063,0 -0.102,0.066 -0.102,0.156 l 0,2.508 c 0,0.093 -0.043,0.129 -0.133,0.129 l -0.914,0 c -0.094,0 -0.129,-0.036 -0.129,-0.129 l 0,-7.969 c 0,-0.09 0.035,-0.129 0.129,-0.129 l 0.785,0 c 0.094,0 0.129,0.039 0.129,0.129 l 0,0.156 c 0,0.094 0.039,0.145 0.09,0.145 0.172,0 0.524,-0.43 1.297,-0.43 1.32,0 2.273,0.902 2.273,2.219 z m -1.175,0 c 0,-0.641 -0.508,-1.176 -1.176,-1.176 -0.656,0 -1.176,0.535 -1.176,1.176 l 0,1.437 c 0,0.637 0.52,1.176 1.176,1.176 0.668,0 1.176,-0.539 1.176,-1.176 l 0,-1.437 z m 3.98,-1.633 c 0,0.406 -0.316,0.719 -0.719,0.719 -0.41,0 -0.718,-0.313 -0.718,-0.719 0,-0.414 0.297,-0.719 0.718,-0.719 0.418,0 0.719,0.317 0.719,0.719 z m 9.281,-0.457 0,3.527 c 0,1.293 -0.925,2.219 -2.218,2.219 -0.461,0 -0.825,-0.09 -1.125,-0.285 -0.301,-0.195 -0.43,-0.363 -0.496,-0.363 -0.055,0 -0.196,0.152 -0.485,0.351 -0.301,0.207 -0.625,0.297 -1.031,0.297 -0.625,0 -1.031,-0.441 -1.215,-0.441 -0.055,0 -0.094,0.05 -0.094,0.144 l 0,0.172 c 0,0.09 -0.035,0.125 -0.129,0.125 l -0.785,0 c -0.09,0 -0.129,-0.035 -0.129,-0.125 l 0,-5.621 c 0,-0.09 0.039,-0.129 0.129,-0.129 l 0.914,0 c 0.094,0 0.133,0.039 0.133,0.129 l 0,3.527 c 0,0.625 0.524,1.176 1.047,1.176 0.535,0 1.043,-0.539 1.043,-1.176 l 0,-3.527 c 0,-0.09 0.039,-0.129 0.129,-0.129 l 0.914,0 c 0.094,0 0.133,0.039 0.133,0.129 l 0,3.527 c 0,0.614 0.523,1.176 1.047,1.176 0.535,0 1.043,-0.539 1.043,-1.176 l 0,-3.527 c 0,-0.09 0.039,-0.129 0.129,-0.129 l 0.914,0 c 0.093,0 0.132,0.039 0.132,0.129 z m 6.282,0 0,5.621 c 0,0.09 -0.043,0.125 -0.133,0.125 l -0.914,0 c -0.094,0 -0.133,-0.035 -0.133,-0.125 l 0,-3.531 c 0,-0.641 -0.508,-1.176 -1.172,-1.176 -0.668,0 -1.18,0.535 -1.18,1.176 l 0,3.531 c 0,0.09 -0.035,0.125 -0.128,0.125 l -0.915,0 c -0.089,0 -0.128,-0.035 -0.128,-0.125 l 0,-3.531 c 0,-1.317 0.953,-2.219 2.257,-2.219 0.758,0 1.137,0.43 1.305,0.43 0.055,0 0.094,-0.051 0.094,-0.145 l 0,-0.156 c 0,-0.09 0.039,-0.129 0.133,-0.129 l 0.781,0 c 0.09,0 0.133,0.039 0.133,0.129 z m 5.961,1.176 -0.825,0.418 c -0.023,0.011 -0.05,0.023 -0.074,0.023 -0.082,0 -0.195,-0.207 -0.484,-0.547 -0.145,-0.172 -0.406,-0.285 -0.719,-0.285 -0.668,0 -1.18,0.535 -1.18,1.176 l 0,1.699 c 0,0.637 0.512,1.172 1.18,1.172 0.535,0 0.77,-0.297 1.082,-0.73 0.039,-0.051 0.051,-0.079 0.102,-0.079 0.019,0 0.043,0 0.07,0.016 l 0.832,0.414 c 0.055,0.027 0.082,0.055 0.082,0.109 0,0.27 -0.367,0.782 -1.059,1.094 -0.328,0.141 -0.695,0.223 -1.109,0.223 -1.426,0 -2.352,-0.887 -2.352,-2.219 l 0,-1.699 c 0,-1.332 0.926,-2.223 2.352,-2.223 0.691,0 1.238,0.184 1.633,0.551 0.39,0.363 0.547,0.703 0.547,0.793 0,0.043 -0.028,0.07 -0.078,0.094 z m 2.636,-0.719 c 0,0.406 -0.316,0.719 -0.718,0.719 -0.411,0 -0.719,-0.313 -0.719,-0.719 0,-0.414 0.297,-0.719 0.719,-0.719 0.418,0 0.718,0.317 0.718,0.719 z m 5.832,0.719 -0.824,0.418 c -0.023,0.011 -0.051,0.023 -0.074,0.023 -0.078,0 -0.195,-0.207 -0.484,-0.547 -0.141,-0.172 -0.407,-0.285 -0.719,-0.285 -0.664,0 -1.176,0.535 -1.176,1.176 l 0,1.699 c 0,0.637 0.512,1.172 1.176,1.172 0.535,0 0.773,-0.297 1.082,-0.73 0.043,-0.051 0.054,-0.079 0.105,-0.079 0.016,0 0.039,0 0.067,0.016 l 0.836,0.414 c 0.05,0.027 0.078,0.055 0.078,0.109 0,0.27 -0.367,0.782 -1.055,1.094 -0.328,0.141 -0.695,0.223 -1.113,0.223 -1.422,0 -2.352,-0.887 -2.352,-2.219 l 0,-1.699 c 0,-1.332 0.93,-2.223 2.352,-2.223 0.691,0 1.238,0.184 1.636,0.551 0.391,0.363 0.547,0.703 0.547,0.793 0,0.043 -0.031,0.07 -0.082,0.094 z m 5.586,0 -0.82,0.418 c -0.023,0.011 -0.055,0.023 -0.078,0.023 -0.078,0 -0.195,-0.207 -0.481,-0.547 -0.144,-0.172 -0.41,-0.285 -0.718,-0.285 -0.668,0 -1.18,0.535 -1.18,1.176 l 0,1.699 c 0,0.637 0.512,1.172 1.18,1.172 0.535,0 0.769,-0.297 1.082,-0.73 0.039,-0.051 0.05,-0.079 0.101,-0.079 0.016,0 0.039,0 0.071,0.016 l 0.832,0.414 c 0.05,0.027 0.082,0.055 0.082,0.109 0,0.27 -0.368,0.782 -1.059,1.094 -0.328,0.141 -0.695,0.223 -1.109,0.223 -1.426,0 -2.352,-0.887 -2.352,-2.219 l 0,-1.699 c 0,-1.332 0.926,-2.223 2.352,-2.223 0.687,0 1.234,0.184 1.632,0.551 0.391,0.363 0.547,0.703 0.547,0.793 0,0.043 -0.027,0.07 -0.082,0.094 z m 5.59,0 -0.824,0.418 c -0.024,0.011 -0.051,0.023 -0.074,0.023 -0.082,0 -0.2,-0.207 -0.485,-0.547 -0.144,-0.172 -0.406,-0.285 -0.718,-0.285 -0.668,0 -1.18,0.535 -1.18,1.176 l 0,1.699 c 0,0.637 0.512,1.172 1.18,1.172 0.535,0 0.769,-0.297 1.082,-0.73 0.039,-0.051 0.05,-0.079 0.105,-0.079 0.016,0 0.039,0 0.066,0.016 l 0.836,0.414 c 0.051,0.027 0.079,0.055 0.079,0.109 0,0.27 -0.368,0.782 -1.059,1.094 -0.328,0.141 -0.695,0.223 -1.109,0.223 -1.426,0 -2.352,-0.887 -2.352,-2.219 l 0,-1.699 c 0,-1.332 0.926,-2.223 2.352,-2.223 0.691,0 1.238,0.184 1.632,0.551 0.391,0.363 0.547,0.703 0.547,0.793 0,0.043 -0.027,0.07 -0.078,0.094 z m 2.637,-0.719 c 0,0.406 -0.317,0.719 -0.719,0.719 -0.41,0 -0.719,-0.313 -0.719,-0.719 0,-0.414 0.297,-0.719 0.719,-0.719 0.418,0 0.719,0.317 0.719,0.719 z m 6.082,-0.457 0,7.969 c 0,0.093 -0.055,0.129 -0.129,0.129 l -0.914,0 c -0.094,0 -0.133,-0.036 -0.133,-0.129 l 0,-2.508 c 0,-0.09 -0.039,-0.145 -0.09,-0.145 -0.187,0 -0.566,0.43 -1.215,0.43 -1.293,0 -2.218,-0.937 -2.218,-2.219 l 0,-1.437 c 0,-1.317 0.937,-2.219 2.257,-2.219 0.754,0 1.133,0.43 1.305,0.43 0.051,0 0.094,-0.051 0.094,-0.145 l 0,-0.156 c 0,-0.09 0.039,-0.129 0.125,-0.129 l 0.789,0 c 0.09,0 0.129,0.039 0.129,0.129 z m -1.176,2.09 c 0,-0.641 -0.523,-1.176 -1.176,-1.176 -0.664,0 -1.175,0.535 -1.175,1.176 l 0,1.437 c 0,0.637 0.511,1.176 1.175,1.176 0.653,0 1.176,-0.539 1.176,-1.176 l 0,-1.437 z m 7.379,0.656 0,0.914 c 0,1.188 -1.047,2.219 -2.352,2.219 -1.312,0 -2.351,-1.031 -2.351,-2.219 l 0,-1.699 c 0,-1.332 0.926,-2.223 2.351,-2.223 0.688,0 1.235,0.184 1.633,0.551 0.391,0.363 0.547,0.703 0.547,0.793 0,0.043 -0.031,0.07 -0.082,0.094 l -0.82,0.418 c -0.028,0.011 -0.055,0.023 -0.078,0.023 -0.078,0 -0.196,-0.207 -0.481,-0.547 -0.144,-0.172 -0.41,-0.285 -0.719,-0.285 -0.668,0 -1.179,0.535 -1.179,1.176 l 0,0.519 c 0,0.094 0.039,0.133 0.133,0.133 l 3.265,0 c 0.09,0 0.133,0.039 0.133,0.133 z m -1.313,0.781 -2.085,0 c -0.122,0 -0.133,0.051 -0.133,0.196 0,0.574 0.551,1.109 1.179,1.109 0.61,0 1.172,-0.523 1.172,-1.082 0,-0.156 -0.011,-0.223 -0.133,-0.223 z" /><path
       inkscape:connector-curvature="0"
       id="path122"
       style="fill:#0000ff;fill-opacity:1;fill-rule:nonzero;stroke:none"
       d="m 139.32199,87.729881 10.363,0 c 1.133,0 2.047,-0.914 2.047,-2.043 l 0,-8.633 c 0,-1.133 -0.914,-2.047 -2.047,-2.047 l -10.363,0 c -1.133,0 -2.043,0.914 -2.043,2.047 l 0,8.633 c 0,1.129 0.91,2.043 2.043,2.043 z" /><path
       inkscape:connector-curvature="0"
       id="path124"
       style="fill:#8418a8;fill-opacity:1;fill-rule:nonzero;stroke:none"
       d="m 155.44999,87.729881 10.364,0 c 1.133,0 2.047,-0.914 2.047,-2.043 l 0,-8.633 c 0,-1.133 -0.914,-2.047 -2.047,-2.047 l -10.364,0 c -1.128,0 -2.042,0.914 -2.042,2.047 l 0,8.633 c 0,1.129 0.914,2.043 2.042,2.043 z" /><path
       inkscape:connector-curvature="0"
       id="path126"
       style="fill:#0000ff;fill-opacity:1;fill-rule:nonzero;stroke:none"
       d="m 139.32199,72.908881 10.363,0 c 1.133,0 2.047,-0.914 2.047,-2.046 l 0,-8.629 c 0,-1.133 -0.914,-2.047 -2.047,-2.047 l -10.363,0 c -1.133,0 -2.043,0.914 -2.043,2.047 l 0,8.629 c 0,1.132 0.91,2.046 2.043,2.046 z" /><path
       inkscape:connector-curvature="0"
       id="path128"
       style="fill:#8418a8;fill-opacity:1;fill-rule:nonzero;stroke:none"
       d="m 139.32199,58.084881 10.363,0 c 1.133,0 2.047,-0.91 2.047,-2.043 l 0,-8.633 c 0,-1.132 -0.914,-2.042 -2.047,-2.042 l -10.363,0 c -1.133,0 -2.043,0.91 -2.043,2.042 l 0,8.633 c 0,1.133 0.91,2.043 2.043,2.043 z" /><path
       inkscape:connector-curvature="0"
       id="path130"
       style="fill:#8418a8;fill-opacity:1;fill-rule:nonzero;stroke:none"
       d="m 139.32199,43.213881 10.363,0 c 1.133,0 2.047,-0.91 2.047,-2.043 l 0,-8.633 c 0,-1.132 -0.914,-2.043 -2.047,-2.043 l -10.363,0 c -1.133,0 -2.043,0.911 -2.043,2.043 l 0,8.633 c 0,1.133 0.91,2.043 2.043,2.043 z" /><path
       inkscape:connector-curvature="0"
       id="path132"
       style="fill:#0000ff;fill-opacity:1;fill-rule:nonzero;stroke:none"
       d="m 155.44999,43.213881 10.364,0 c 1.133,0 2.047,-0.91 2.047,-2.043 l 0,-8.633 c 0,-1.132 -0.914,-2.043 -2.047,-2.043 l -10.364,0 c -1.128,0 -2.042,0.911 -2.042,2.043 l 0,8.633 c 0,1.133 0.914,2.043 2.042,2.043 z" /><path
       inkscape:connector-curvature="0"
       id="path134"
       style="fill:#8418a8;fill-opacity:1;fill-rule:nonzero;stroke:none"
       d="m 171.58299,43.213881 10.364,0 c 1.132,0 2.043,-0.91 2.043,-2.043 l 0,-8.633 c 0,-1.132 -0.911,-2.043 -2.043,-2.043 l -10.364,0 c -1.133,0 -2.043,0.911 -2.043,2.043 l 0,8.633 c 0,1.133 0.91,2.043 2.043,2.043 z" /><path
       inkscape:connector-curvature="0"
       id="path136"
       style="fill:#8418a8;fill-opacity:1;fill-rule:nonzero;stroke:none"
       d="m 171.58299,87.729881 10.364,0 c 1.132,0 2.043,-0.914 2.043,-2.043 l 0,-8.633 c 0,-1.133 -0.911,-2.047 -2.043,-2.047 l -10.364,0 c -1.133,0 -2.043,0.914 -2.043,2.047 l 0,8.633 c 0,1.129 0.91,2.043 2.043,2.043 z" /><path
       inkscape:connector-curvature="0"
       id="path138"
       style="fill:#8418a8;fill-opacity:1;fill-rule:nonzero;stroke:none"
       d="m 139.32199,87.729881 10.363,0 c 1.133,0 2.047,-0.914 2.047,-2.043 l 0,-8.633 c 0,-1.133 -0.914,-2.047 -2.047,-2.047 l -10.363,0 c -1.133,0 -2.043,0.914 -2.043,2.047 l 0,8.633 c 0,1.129 0.91,2.043 2.043,2.043 z" /><path
       inkscape:connector-curvature="0"
       id="path140"
       style="fill:#8317a8;fill-opacity:1;fill-rule:nonzero;stroke:none"
       d="m 139.32199,72.908881 10.363,0 c 1.133,0 2.047,-0.914 2.047,-2.046 l 0,-8.629 c 0,-1.133 -0.914,-2.047 -2.047,-2.047 l -10.363,0 c -1.133,0 -2.043,0.914 -2.043,2.047 l 0,8.629 c 0,1.132 0.91,2.046 2.043,2.046 z" /><path
       inkscape:connector-curvature="0"
       id="path142"
       style="fill:#8418a8;fill-opacity:1;fill-rule:nonzero;stroke:none"
       d="m 155.44999,43.213881 10.364,0 c 1.133,0 2.047,-0.91 2.047,-2.043 l 0,-8.633 c 0,-1.132 -0.914,-2.043 -2.047,-2.043 l -10.364,0 c -1.128,0 -2.042,0.911 -2.042,2.043 l 0,8.633 c 0,1.133 0.914,2.043 2.042,2.043 z" /><path
       inkscape:connector-curvature="0"
       id="path144"
       style="fill:#ff0000;fill-opacity:1;fill-rule:nonzero;stroke:none"
       d="m 78.01699,75.221881 0,3.047 -0.02,2.672 c -0.019,2.023 -1.437,3.379 -3.64,3.379 -1.032,0 -1.84,-0.266 -2.407,-0.77 -0.648,-0.562 -0.91,-1.07 -0.91,-1.234 0,-0.082 0.039,-0.121 0.121,-0.16 l 1.235,-0.649 c 0.039,-0.019 0.078,-0.039 0.121,-0.039 0.117,0 0.301,0.324 0.746,0.809 0.242,0.261 0.645,0.445 1.094,0.445 1.051,0 1.781,-0.75 1.82,-1.781 l 0.02,-0.567 c 0,-0.14 -0.059,-0.199 -0.204,-0.199 l -2.324,0 c -1.597,0 -2.691,-1.055 -2.691,-2.508 l 0,-0.125 c 0,-1.457 1.094,-2.523 2.691,-2.523 l 0.785,0 c 0.934,0 1.5,0.683 1.801,0.683 0.082,0 0.141,-0.078 0.141,-0.222 l 0,-0.258 c 0,-0.145 0.062,-0.203 0.203,-0.203 l 1.215,0 c 0.14,0 0.203,0.058 0.203,0.203 z m -1.82,3.254 -0.02,-0.383 c -0.344,-0.953 -0.949,-1.461 -1.723,-1.461 l -0.785,0 c -0.508,0 -0.89,0.387 -0.89,0.91 l 0,0.325 c 0,0.507 0.382,0.89 0.89,0.89 l 2.324,0 c 0.125,0 0.204,-0.078 0.204,-0.203 l 0,-0.078 z m 6.257,-3.254 0,12.332 c 0,0.145 -0.058,0.203 -0.203,0.203 l -1.414,0 c -0.14,0 -0.203,-0.058 -0.203,-0.203 l 0,-12.332 c 0,-0.145 0.063,-0.203 0.203,-0.203 l 1.414,0 c 0.145,0 0.203,0.058 0.203,0.203 z m 4.465,0 0,12.332 c 0,0.145 -0.058,0.203 -0.203,0.203 l -1.414,0 c -0.144,0 -0.203,-0.058 -0.203,-0.203 l 0,-12.332 c 0,-0.145 0.059,-0.203 0.203,-0.203 l 1.414,0 c 0.145,0 0.203,0.058 0.203,0.203 z" /><path
       inkscape:connector-curvature="0"
       id="path146"
       style="fill:#8418a8;fill-opacity:1;fill-rule:nonzero;stroke:none"
       d="m 39.39199,62.237881 -1.266,0.64 c -0.039,0.02 -0.078,0.039 -0.117,0.039 -0.121,0 -0.305,-0.32 -0.742,-0.843 -0.227,-0.262 -0.629,-0.442 -1.106,-0.442 -1.027,0 -1.812,0.824 -1.812,1.809 l 0,2.617 c 0,0.984 0.785,1.809 1.812,1.809 0.821,0 1.184,-0.465 1.668,-1.125 0.059,-0.083 0.079,-0.122 0.161,-0.122 0.019,0 0.058,0 0.097,0.02 l 1.285,0.644 c 0.086,0.04 0.125,0.079 0.125,0.157 0,0.426 -0.562,1.211 -1.629,1.691 -0.503,0.223 -1.066,0.344 -1.707,0.344 -2.199,0 -3.621,-1.367 -3.621,-3.418 l 0,-2.617 c 0,-2.051 1.422,-3.418 3.621,-3.418 1.059,0 1.907,0.281 2.508,0.844 0.606,0.562 0.848,1.085 0.848,1.226 0,0.063 -0.039,0.102 -0.125,0.145 z m 8.984,1.203 0,2.617 c 0,2.027 -1.426,3.418 -3.617,3.418 -2.195,0 -3.621,-1.367 -3.621,-3.418 l 0,-2.617 c 0,-2.051 1.426,-3.418 3.621,-3.418 2.191,0 3.617,1.367 3.617,3.418 z m -1.808,0 c 0,-0.985 -0.805,-1.809 -1.809,-1.809 -1.023,0 -1.812,0.824 -1.812,1.809 l 0,2.617 c 0,0.984 0.808,1.809 1.812,1.809 1.004,0 1.809,-0.825 1.809,-1.809 l 0,-2.617 z m 5.953,-3.016 0,12.266 c 0,0.14 -0.059,0.203 -0.203,0.203 l -1.407,0 c -0.14,0 -0.203,-0.063 -0.203,-0.203 l 0,-12.266 c 0,-0.141 0.063,-0.199 0.203,-0.199 l 1.407,0 c 0.144,0 0.203,0.058 0.203,0.199 z m 9.562,3.016 0,2.617 c 0,2.027 -1.425,3.418 -3.617,3.418 -2.195,0 -3.621,-1.367 -3.621,-3.418 l 0,-2.617 c 0,-2.051 1.426,-3.418 3.621,-3.418 2.192,0 3.617,1.367 3.617,3.418 z m -1.808,0 c 0,-0.985 -0.805,-1.809 -1.809,-1.809 -1.023,0 -1.812,0.824 -1.812,1.809 l 0,2.617 c 0,0.984 0.808,1.809 1.812,1.809 1.004,0 1.809,-0.825 1.809,-1.809 l 0,-2.617 z m 11.179,-3.016 0,8.645 c 0,0.144 -0.062,0.207 -0.203,0.207 l -1.406,0 c -0.141,0 -0.199,-0.063 -0.199,-0.207 l 0,-5.43 c 0,-0.984 -0.785,-1.809 -1.809,-1.809 -1.027,0 -1.812,0.825 -1.812,1.809 l 0,5.43 c 0,0.144 -0.063,0.207 -0.203,0.207 l -1.407,0 c -0.14,0 -0.199,-0.063 -0.199,-0.207 l 0,-5.43 c 0,-2.027 1.469,-3.414 3.477,-3.414 1.168,0 1.75,0.66 2.011,0.66 0.078,0 0.141,-0.078 0.141,-0.219 l 0,-0.242 c 0,-0.141 0.063,-0.199 0.203,-0.199 l 1.203,0 c 0.141,0 0.203,0.058 0.203,0.199 z m 7.348,7.078 0,1.508 c 0,0.242 -0.277,0.266 -1.047,0.266 -1.086,0 -1.687,-1.086 -1.887,-1.086 -0.101,0 -0.183,0.078 -0.183,0.238 l 0,0.641 c 0,0.144 -0.059,0.207 -0.199,0.207 l -1.207,0 c -0.141,0 -0.204,-0.063 -0.204,-0.207 l 0,-8.645 c 0,-0.141 0.063,-0.199 0.204,-0.199 l 1.406,0 c 0.144,0 0.203,0.058 0.203,0.199 l 0,5.231 c 0,1.105 0.684,1.785 1.809,1.785 0.503,0 0.804,-0.137 0.988,-0.137 0.078,0 0.117,0.078 0.117,0.199 z m 4.219,0.422 0.601,0 c 0.864,0 1.227,-0.484 1.731,-1.125 0.058,-0.058 0.078,-0.121 0.14,-0.121 0.02,0 0.079,0.02 0.118,0.039 l 1.168,0.586 c 0.082,0.039 0.121,0.078 0.121,0.137 0,0.808 -1.289,2.035 -3.278,2.035 l -0.601,0 c -1.934,0 -3.239,-1.207 -3.239,-2.957 0,-1.508 0.903,-2.09 2.817,-2.473 1.668,-0.344 2.551,-0.445 2.551,-1.308 0,-0.645 -0.606,-1.168 -1.528,-1.168 l -0.601,0 c -0.887,0 -1.25,0.504 -1.735,1.129 -0.058,0.062 -0.097,0.121 -0.156,0.121 -0.023,0 -0.062,-0.02 -0.101,-0.039 l -1.164,-0.586 c -0.083,-0.039 -0.125,-0.102 -0.125,-0.141 0,-0.805 1.289,-2.031 3.281,-2.031 l 0.601,0 c 2.028,0 3.321,1.226 3.321,3.035 0,1.57 -1.047,2.094 -3.2,2.516 -1.468,0.3 -2.191,0.503 -2.191,1.324 0,0.644 0.523,1.027 1.469,1.027 z" /><path
       inkscape:connector-curvature="0"
       id="path148"
       style="fill:#ff0000;fill-opacity:1;fill-rule:nonzero;stroke:none"
       d="m 71.02099,45.584881 0,2.989 -0.02,2.617 c -0.019,1.984 -1.449,3.308 -3.668,3.308 -1.039,0 -1.851,-0.254 -2.425,-0.75 -0.649,-0.554 -0.915,-1.05 -0.915,-1.211 0,-0.078 0.043,-0.117 0.122,-0.16 l 1.242,-0.633 c 0.043,-0.019 0.082,-0.035 0.125,-0.035 0.121,0 0.304,0.313 0.754,0.789 0.242,0.262 0.648,0.438 1.097,0.438 1.063,0 1.793,-0.735 1.836,-1.746 l 0.02,-0.555 c 0,-0.137 -0.063,-0.195 -0.203,-0.195 l -2.344,0 c -1.61,0 -2.711,-1.032 -2.711,-2.461 l 0,-0.117 c 0,-1.426 1.101,-2.477 2.711,-2.477 l 0.793,0 c 0.941,0 1.508,0.672 1.812,0.672 0.082,0 0.145,-0.078 0.145,-0.219 l 0,-0.254 c 0,-0.14 0.062,-0.199 0.203,-0.199 l 1.223,0 c 0.144,0 0.203,0.059 0.203,0.199 z m -1.832,3.188 -0.02,-0.375 c -0.347,-0.934 -0.957,-1.426 -1.734,-1.426 l -0.793,0 c -0.512,0 -0.899,0.375 -0.899,0.891 l 0,0.316 c 0,0.496 0.387,0.871 0.899,0.871 l 2.344,0 c 0.121,0 0.203,-0.078 0.203,-0.195 l 0,-0.082 z m 9.261,3.785 0,1.488 c 0,0.238 -0.289,0.258 -1.062,0.258 -1.098,0 -1.711,-1.07 -1.914,-1.07 -0.102,0 -0.184,0.082 -0.184,0.234 l 0,0.637 c 0,0.14 -0.062,0.199 -0.203,0.199 l -1.222,0 c -0.141,0 -0.204,-0.059 -0.204,-0.199 l 0,-8.52 c 0,-0.14 0.063,-0.199 0.204,-0.199 l 1.425,0 c 0.145,0 0.203,0.059 0.203,0.199 l 0,5.149 c 0,1.09 0.692,1.765 1.836,1.765 0.508,0 0.813,-0.14 0.996,-0.14 0.079,0 0.125,0.082 0.125,0.199 z m 8.485,-2.813 0,1.391 c 0,1.801 -1.629,3.363 -3.668,3.363 -2.035,0 -3.664,-1.562 -3.664,-3.363 l 0,-2.582 c 0,-2.02 1.445,-3.367 3.664,-3.367 1.082,0 1.933,0.277 2.547,0.832 0.609,0.555 0.855,1.07 0.855,1.211 0,0.058 -0.043,0.097 -0.121,0.137 l -1.285,0.632 c -0.039,0.02 -0.082,0.039 -0.121,0.039 -0.125,0 -0.305,-0.312 -0.754,-0.828 -0.223,-0.261 -0.629,-0.441 -1.121,-0.441 -1.039,0 -1.832,0.816 -1.832,1.785 l 0,0.797 c 0,0.137 0.062,0.195 0.203,0.195 l 5.094,0 c 0.144,0 0.203,0.059 0.203,0.199 z m -2.035,1.188 -3.262,0 c -0.184,0 -0.203,0.082 -0.203,0.297 0,0.875 0.855,1.683 1.832,1.683 0.957,0 1.836,-0.789 1.836,-1.644 0,-0.235 -0.02,-0.336 -0.203,-0.336 z" /><path
       inkscape:connector-curvature="0"
       id="path150"
       style="fill:#00ff00;fill-opacity:1;fill-rule:nonzero;stroke:none"
       d="m 27.94299,33.940881 0,2.218 c 0,1.981 -1.473,3.434 -3.348,3.434 -1.176,0 -1.758,-0.687 -1.941,-0.687 -0.098,0 -0.161,0.101 -0.161,0.242 l 0,3.875 c 0,0.144 -0.058,0.203 -0.203,0.203 l -1.414,0 c -0.136,0 -0.199,-0.059 -0.199,-0.203 l 0,-12.313 c 0,-0.144 0.063,-0.203 0.199,-0.203 l 1.215,0 c 0.141,0 0.199,0.059 0.199,0.203 l 0,0.239 c 0,0.144 0.063,0.226 0.145,0.226 0.258,0 0.805,-0.668 1.996,-0.668 2.039,0 3.512,1.391 3.512,3.434 z m -1.817,0 c 0,-0.992 -0.785,-1.817 -1.816,-1.817 -1.008,0 -1.817,0.825 -1.817,1.817 l 0,2.218 c 0,0.993 0.809,1.817 1.817,1.817 1.031,0 1.816,-0.824 1.816,-1.817 l 0,-2.218 z m 11.098,1.008 0,1.414 c 0,1.836 -1.613,3.429 -3.633,3.429 -2.019,0 -3.633,-1.593 -3.633,-3.429 l 0,-2.625 c 0,-2.063 1.434,-3.434 3.633,-3.434 1.07,0 1.918,0.281 2.524,0.848 0.605,0.566 0.847,1.09 0.847,1.23 0,0.059 -0.039,0.106 -0.121,0.145 l -1.269,0.648 c -0.04,0.02 -0.086,0.039 -0.125,0.039 -0.122,0 -0.301,-0.324 -0.747,-0.851 -0.218,-0.258 -0.625,-0.442 -1.109,-0.442 -1.031,0 -1.816,0.824 -1.816,1.817 l 0,0.804 c 0,0.145 0.058,0.203 0.203,0.203 l 5.047,0 c 0.14,0 0.199,0.063 0.199,0.204 z m -2.016,1.21 -3.23,0 c -0.184,0 -0.203,0.083 -0.203,0.305 0,0.887 0.843,1.715 1.816,1.715 0.949,0 1.817,-0.809 1.817,-1.676 0,-0.242 -0.02,-0.344 -0.2,-0.344 z m 11.321,-5.449 0,3.047 -0.02,2.668 c -0.019,2.016 -1.434,3.367 -3.633,3.367 -1.031,0 -1.836,-0.261 -2.402,-0.765 -0.649,-0.567 -0.906,-1.071 -0.906,-1.231 0,-0.082 0.039,-0.125 0.117,-0.164 l 1.234,-0.644 c 0.043,-0.02 0.082,-0.043 0.121,-0.043 0.121,0 0.305,0.324 0.746,0.808 0.243,0.262 0.649,0.446 1.09,0.446 1.051,0 1.778,-0.747 1.817,-1.774 l 0.019,-0.57 c 0,-0.137 -0.058,-0.199 -0.199,-0.199 l -2.324,0 c -1.59,0 -2.68,-1.051 -2.68,-2.508 l 0,-0.117 c 0,-1.454 1.09,-2.524 2.68,-2.524 l 0.789,0 c 0.93,0 1.496,0.688 1.797,0.688 0.082,0 0.14,-0.082 0.14,-0.227 l 0,-0.258 c 0,-0.144 0.063,-0.203 0.2,-0.203 l 1.214,0 c 0.141,0 0.2,0.059 0.2,0.203 z m -1.817,3.25 -0.019,-0.383 c -0.344,-0.949 -0.946,-1.453 -1.715,-1.453 l -0.789,0 c -0.5,0 -0.887,0.383 -0.887,0.907 l 0,0.324 c 0,0.5 0.387,0.887 0.887,0.887 l 2.324,0 c 0.121,0 0.199,-0.083 0.199,-0.204 l 0,-0.078 z m 11.504,-3.25 0,8.68 c 0,0.141 -0.062,0.203 -0.203,0.203 l -1.414,0 c -0.141,0 -0.199,-0.062 -0.199,-0.203 l 0,-5.449 c 0,-0.992 -0.789,-1.817 -1.821,-1.817 -1.031,0 -1.816,0.825 -1.816,1.817 l 0,5.449 c 0,0.141 -0.059,0.203 -0.199,0.203 l -1.414,0 c -0.145,0 -0.203,-0.062 -0.203,-0.203 l 0,-5.449 c 0,-2.043 1.472,-3.434 3.492,-3.434 1.172,0 1.758,0.668 2.019,0.668 0.082,0 0.141,-0.082 0.141,-0.226 l 0,-0.239 c 0,-0.144 0.059,-0.203 0.203,-0.203 l 1.211,0 c 0.141,0 0.203,0.059 0.203,0.203 z m 6.672,-0.183 0,1.211 c 0,0.121 -0.063,0.16 -0.16,0.203 -0.61,0.261 -1.031,0.402 -1.215,0.625 -0.305,0.383 -0.441,0.746 -0.441,1.172 l 0,4.039 c 0,0.14 0.058,0.199 0.203,0.199 l 1.414,0 c 0.136,0 0.199,0.058 0.199,0.203 l 0,1.211 c 0,0.141 -0.063,0.203 -0.199,0.203 l -1.414,0 c -0.145,0 -0.203,0.059 -0.203,0.199 l 0,1.414 c 0,0.145 -0.063,0.203 -0.204,0.203 l -0.625,0 -0.144,-0.058 -2.317,-2.465 -0.042,-0.707 c 0,-0.145 0.062,-0.203 0.199,-0.203 l 1.113,0 c 0.141,0 0.203,-0.059 0.203,-0.199 l 0,-4.039 c 0,-2.02 1.59,-3.414 3.25,-3.414 0.281,0 0.383,0.023 0.383,0.203 z m 4.328,11.789 c 0,0.629 -0.484,1.109 -1.109,1.109 -0.621,0 -1.11,-0.48 -1.11,-1.109 0,-0.645 0.489,-1.11 1.11,-1.11 0.625,0 1.109,0.489 1.109,1.11 z m -0.199,-11.606 0,8.68 c 0,0.141 -0.059,0.203 -0.203,0.203 l -1.414,0 c -0.141,0 -0.2,-0.062 -0.2,-0.203 l 0,-8.68 c 0,-0.144 0.059,-0.203 0.2,-0.203 l 1.414,0 c 0.144,0 0.203,0.059 0.203,0.203 z m 7.664,12.375 c 0.023,0.043 0.023,0.063 0.023,0.082 0,0.219 -0.363,0.258 -1.113,0.258 -1.047,0 -1.937,-0.363 -2.582,-1.07 -0.687,-0.727 -1.051,-1.633 -1.051,-2.563 l 0,-0.906 c 0,-0.144 -0.062,-0.203 -0.203,-0.203 l -0.504,0 c -0.14,0 -0.203,-0.059 -0.203,-0.199 l 0,-1.215 c 0,-0.141 0.063,-0.199 0.203,-0.199 l 0.504,0 c 0.141,0 0.203,-0.063 0.203,-0.203 l 0,-6.157 c 0,-0.144 0.063,-0.203 0.2,-0.203 l 1.414,0 c 0.144,0 0.203,0.059 0.203,0.203 l 0,6.157 c 0,0.14 0.062,0.203 0.199,0.203 l 1.414,0 c 0.144,0 0.203,0.058 0.203,0.199 l 0,1.215 c 0,0.14 -0.078,0.199 -0.203,0.199 l -1.414,0 c -0.137,0 -0.199,0.059 -0.199,0.203 l 0,1.109 c 0,0.993 0.789,1.817 1.816,1.817 0.082,0 0.246,-0.02 0.484,-0.039 0.102,0 0.165,0.039 0.204,0.14 l 0.402,1.172 z m 7.801,-12.375 0,8.68 c 0,0.141 -0.067,0.203 -0.203,0.203 l -1.414,0 c -0.141,0 -0.2,-0.062 -0.2,-0.203 l 0,-5.449 c 0,-0.992 -0.793,-1.817 -1.82,-1.817 -1.031,0 -1.816,0.825 -1.816,1.817 l 0,5.449 c 0,0.141 -0.063,0.203 -0.204,0.203 l -1.41,0 c -0.144,0 -0.203,-0.062 -0.203,-0.203 l 0,-5.449 c 0,-2.043 1.473,-3.434 3.492,-3.434 1.168,0 1.758,0.668 2.02,0.668 0.078,0 0.141,-0.082 0.141,-0.226 l 0,-0.239 c 0,-0.144 0.058,-0.203 0.203,-0.203 l 1.211,0 c 0.136,0 0.203,0.059 0.203,0.203 z m 4.449,0 0,12.313 c 0,0.144 -0.059,0.203 -0.203,0.203 l -1.414,0 c -0.141,0 -0.199,-0.059 -0.199,-0.203 l 0,-12.313 c 0,-0.144 0.058,-0.203 0.199,-0.203 l 1.414,0 c 0.144,0 0.203,0.059 0.203,0.203 z" /></g></svg>